<svg width="147" height="147" viewBox="0 0 147 147" fill="none" xmlns="http://www.w3.org/2000/svg">
<g clip-path="url(#clip0_62_13982)">
<rect width="147" height="147" rx="73.5" fill="white"/>
<circle cx="73.5" cy="73.5" r="73.5" fill="#6ACFAF"/>
<path d="M59.1681 19.6987C59.1681 19.6987 41.4252 23.5354 42.7188 46.8349C44.0124 70.1344 39.8523 76.7053 39.8523 76.7053L44.4093 75.4411L59.1534 85.54L98.9022 77.5873L105.135 79.4395L107.061 75.0883C107.061 75.0883 109.251 77.4403 111.427 77.5726C111.427 77.5726 109.398 67.1062 109.78 62.4316C110.589 52.6414 105.885 38.3971 105.885 38.3971L59.1387 19.6987H59.1681Z" fill="#441D39"/>
<path d="M131.992 129.067C121.967 125.701 99.608 114.441 92.0081 110.56C91.4201 110.266 90.935 110.001 90.5381 109.81C89.8325 109.443 89.4209 109.237 89.4209 109.237H59.183C59.183 109.237 58.7861 109.443 58.0658 109.81C57.6689 110.016 57.1691 110.266 56.5958 110.56C55.4786 111.133 54.0527 111.853 52.3916 112.691C42.7043 117.572 25.1672 126.201 16.6118 129.067C4.44019 133.168 4.44019 153.954 4.44019 153.954H144.164C144.164 153.954 144.164 133.168 131.992 129.067V129.067Z" fill="#FDEBD9"/>
<path d="M87.5238 94.844H60.8874L59.1675 109.221C59.1675 112.043 65.9442 114.336 74.2938 114.336C82.6434 114.336 89.4201 112.043 89.4201 109.221L87.5385 94.844H87.5238Z" fill="#FFC7A4"/>
<path d="M49.2591 44.9814C49.2591 44.9814 50.2293 37.0728 56.9325 35.6028C56.9325 35.6028 104.075 35.6028 94.6233 35.6028C94.6233 35.6028 100.753 35.6028 102.032 44.4228C102.223 45.7458 104.178 59.3139 104.061 64.65C103.987 68.0751 105.325 66.267 105.325 66.267C105.325 66.267 106.765 60.7986 107.001 53.625C107.442 39.954 105.663 16.4487 76.8363 16.4487C48.0096 16.4487 45.3489 33.7506 45.3489 56.0652L46.4073 67.0461C46.4514 67.4871 46.8189 67.8105 47.2599 67.8105C48.0978 67.8105 49.2444 44.9814 49.2444 44.9814H49.2591Z" fill="#C1735C"/>
<path d="M101.033 42.1294C101.594 42.1294 102.048 41.6753 102.048 41.1151C102.048 40.5549 101.594 40.1008 101.033 40.1008C100.473 40.1008 100.019 40.5549 100.019 41.1151C100.019 41.6753 100.473 42.1294 101.033 42.1294Z" fill="#FF9988"/>
<path opacity="0.2" d="M59.7402 104.458C59.7402 104.458 80.3937 106.354 87.6702 97.2987V86.8911L61.4895 89.4048L59.7402 104.458V104.458Z" fill="#A5503C"/>
<path fill-rule="evenodd" clip-rule="evenodd" d="M76.4663 99.0194C90.4452 99.0194 102.202 86.876 105.616 70.4027C106.251 70.2303 106.541 70.0887 106.541 70.0887C109.628 68.4448 111.29 64.6433 110.819 59.697C110.495 56.2835 107.916 55.5263 106.348 55.3848C104.377 36.5654 91.7495 22.0503 76.4663 22.0503C60.868 22.0503 48.0362 37.1704 46.4759 56.5548C45.7357 56.5415 41.333 56.6543 41.1715 61.211C40.9951 66.1867 42.8914 69.8708 46.0666 71.3239C46.0666 71.3239 46.5436 71.5206 47.6022 71.688C51.348 87.5038 62.8536 99.0194 76.4663 99.0194Z" fill="#FFC7A4"/>
<path d="M89.7577 63.5617C90.7401 63.5617 91.5364 62.1796 91.5364 60.4747C91.5364 58.7698 90.7401 57.3877 89.7577 57.3877C88.7754 57.3877 87.979 58.7698 87.979 60.4747C87.979 62.1796 88.7754 63.5617 89.7577 63.5617Z" fill="#441D39"/>
<path d="M63.078 62.9301C64.0604 62.9301 64.8567 61.548 64.8567 59.8431C64.8567 58.1382 64.0604 56.7561 63.078 56.7561C62.0957 56.7561 61.2993 58.1382 61.2993 59.8431C61.2993 61.548 62.0957 62.9301 63.078 62.9301Z" fill="#441D39"/>
<path d="M77.6015 74.3518H74.7938C73.5443 74.3518 72.4418 73.8667 71.8538 73.0729C71.4275 72.4996 71.3099 71.8234 71.5157 71.1619C72.1478 69.1039 73.0151 63.5179 73.0298 63.4591C73.0886 63.0622 73.4708 62.7976 73.8677 62.8417C74.2646 62.9005 74.5439 63.2827 74.4851 63.6796C74.4557 63.9148 73.5884 69.442 72.9269 71.5882C72.8681 71.794 72.8975 71.9998 73.0445 72.2056C73.3532 72.6319 74.0441 72.8965 74.8085 72.8965H77.6162C78.0278 72.8965 78.3512 73.2199 78.3512 73.6315C78.3512 74.0431 78.0278 74.3665 77.6162 74.3665L77.6015 74.3518Z" fill="#A5503C"/>
<path d="M91.3307 68.3989C94.1641 68.3989 96.461 67.8724 96.461 67.2229C96.461 66.5734 94.1641 66.0469 91.3307 66.0469C88.4974 66.0469 86.2004 66.5734 86.2004 67.2229C86.2004 67.8724 88.4974 68.3989 91.3307 68.3989Z" fill="#AF5D4E"/>
<path d="M61.3881 68.3989C64.2215 68.3989 66.5184 67.8724 66.5184 67.2229C66.5184 66.5734 64.2215 66.0469 61.3881 66.0469C58.5547 66.0469 56.2578 66.5734 56.2578 67.2229C56.2578 67.8724 58.5547 68.3989 61.3881 68.3989Z" fill="#AF5D4E"/>
<path d="M96.0798 52.9647C91.1112 51.8328 87.4215 52.9647 85.1724 53.4057C84.2169 53.5968 83.9229 52.4061 83.9229 52.4061C83.6877 51.6123 84.7314 50.9802 85.4958 50.8038C88.0389 50.1717 91.3023 49.7307 96.2709 51.1272C97.2264 51.3918 97.3293 52.1856 97.3293 52.1856C97.2705 53.0676 96.7266 53.1264 96.0798 52.9647V52.9647Z" fill="#441D39"/>
<path d="M56.4486 52.7573C61.4613 51.8165 65.1069 53.1101 67.3413 53.6246C68.2968 53.8451 68.6202 52.6838 68.6202 52.6838C68.8848 51.9047 67.8705 51.2285 67.1208 51.008C64.6071 50.2877 61.3584 49.7144 56.331 50.9051C55.3608 51.1403 55.2285 51.9194 55.2285 51.9194C55.2432 52.8014 55.7871 52.8749 56.4486 52.7573V52.7573Z" fill="#441D39"/>
<path d="M75.3674 85.5239C71.8835 85.5239 69.1346 84.7889 68.9435 84.7448C68.5466 84.6419 68.3261 84.2303 68.429 83.8481C68.5319 83.4512 68.9435 83.2307 69.3257 83.3336C69.3992 83.3483 76.1612 85.1417 81.6149 83.0102C81.9971 82.8632 82.4234 83.0543 82.5704 83.4218C82.7174 83.804 82.5263 84.2303 82.1588 84.3773C79.9097 85.2593 77.4989 85.5386 75.3674 85.5386V85.5239Z" fill="#A5503C"/>
<path d="M97.2117 18.9497C77.0433 3.00018 59.1681 19.6994 59.1681 19.6994C41.484 22.9334 43.9977 49.0406 44.424 51.8336C44.8503 54.6119 45.3942 56.5376 45.3942 56.5376C45.7764 56.5523 46.1292 56.5376 46.4673 56.4641L47.9667 67.2245C48.0696 67.6067 48.6429 67.6361 48.7752 67.2245C48.9075 67.0775 49.3191 60.7859 49.716 54.215C53.0676 49.2611 52.9206 37.6628 59.1681 32.4737C62.2257 29.9306 66.5181 31.9298 66.5181 31.9298C66.5181 31.9298 69.7227 26.2703 77.352 29.5631C84.2169 32.5178 92.6547 51.1427 101.96 55.5674C102.327 61.6238 102.695 67.0922 102.812 67.2392C102.945 67.6508 103.518 67.6214 103.621 67.2392L105.12 56.4935L109.383 54.2738C109.383 54.2738 111.309 27.755 97.1823 18.9644L97.2117 18.9497Z" fill="#441D39"/>
<path d="M131.991 129.068C126.699 127.289 117.968 123.305 109.78 119.38L86.9358 127.48V149.339H85.4658V127.995L80.7324 129.67V153.94H144.163C144.163 153.94 144.163 133.154 131.991 129.053V129.068Z" fill="#4598C4"/>
<path d="M98.8428 110.839C91.6104 108.355 80.7324 129.67 80.7324 129.67L85.4658 127.994V149.338H86.9358V127.48L109.78 119.38L109.868 119.35C109.868 119.35 106.09 113.323 98.8575 110.839H98.8428Z" fill="#2B7FA5"/>
<path d="M63.5189 128.095L60.1232 148.749L58.6679 148.513L62.1077 127.595L38.8523 119.349C30.6497 123.288 21.8885 127.287 16.5818 129.065C4.41016 133.167 4.41016 153.952 4.41016 153.952H67.6643L67.9877 129.683L63.5189 128.095V128.095Z" fill="#4598C4"/>
<path d="M49.8777 110.839C42.66 113.308 38.8821 119.321 38.8674 119.35L62.1228 127.597L58.683 148.515L60.1383 148.75L63.534 128.097L68.0028 129.684C68.0028 129.684 57.1101 108.369 49.8924 110.854L49.8777 110.839Z" fill="#2B7FA5"/>
</g>
<defs>
<clipPath id="clip0_62_13982">
<rect width="147" height="147" rx="73.5" fill="white"/>
</clipPath>
</defs>
</svg>
