<svg width="147" height="147" viewBox="0 0 147 147" fill="none" xmlns="http://www.w3.org/2000/svg">
<g clip-path="url(#clip0_62_13980)">
<rect width="147" height="147" rx="73.5" fill="white"/>
<circle cx="73.5" cy="73.5" r="73.5" fill="#FF917B"/>
<path d="M104.855 56.7849C104.855 56.7849 110.058 56.1528 110.529 61.1067C110.999 66.0606 109.338 69.8679 106.251 71.5143C106.251 71.5143 105.59 71.8377 104.075 72.1023L104.855 56.7996V56.7849Z" fill="#FFB69F"/>
<path d="M45.9813 56.7849C45.9813 56.7849 40.7775 56.1528 40.3071 61.1067C39.8367 66.0606 41.4978 69.8679 44.5848 71.5143C44.5848 71.5143 45.2463 71.8377 46.7604 72.1023L45.9813 56.7996V56.7849Z" fill="#FFB69F"/>
<path d="M4.40991 153.954C4.40991 153.954 4.40991 133.168 16.5815 129.067C28.7531 124.966 56.2568 109.222 56.2568 109.222H74.867V153.954H4.40991Z" fill="#A5503C"/>
<path d="M144.177 153.954C144.177 153.954 144.177 133.168 132.005 129.067C119.833 124.966 92.6237 109.222 92.6237 109.222H73.7195V153.954H144.177Z" fill="#A5503C"/>
<path d="M60.8874 94.8438L59.1675 109.22H89.4201L87.5385 94.8438H60.8874Z" fill="#FFB69F"/>
<path d="M74.2938 117.822C82.6478 117.822 89.4201 114.88 89.4201 111.251C89.4201 107.622 82.6478 104.68 74.2938 104.68C65.9398 104.68 59.1675 107.622 59.1675 111.251C59.1675 114.88 65.9398 117.822 74.2938 117.822Z" fill="#FFB69F"/>
<path d="M59.7402 104.457C59.7402 104.457 80.3937 106.354 87.6702 97.2985V86.8909L61.4895 89.4046L59.7402 104.457Z" fill="#FF9988"/>
<path d="M75.5288 99.0192C92.1801 99.0192 105.679 81.7627 105.679 60.4758C105.679 39.1888 92.1801 21.9324 75.5288 21.9324C58.8776 21.9324 45.3792 39.1888 45.3792 60.4758C45.3792 81.7627 58.8776 99.0192 75.5288 99.0192Z" fill="#FFB69F"/>
<path d="M101.856 29.6951C101.856 29.6951 101.886 29.6216 101.856 29.5775C100.857 27.1814 99.6367 15.1421 80.0269 13.3193C74.9995 12.8489 67.8112 13.6868 63.2542 15.8624C57.0067 18.8318 50.0242 20.537 43.8502 20.5223C43.5856 20.5223 43.4827 20.8751 43.7179 21.0074L48.5395 24.8441C48.7306 24.947 48.7159 25.2263 48.5101 25.3145L42.4537 27.152C42.2332 27.2402 42.2332 27.5636 42.4537 27.6371C43.4386 27.9605 45.9376 29.063 48.2014 29.8421C44.497 36.3983 45.3496 45.821 45.3496 57.14C45.3496 57.14 45.232 68.8706 49.1863 82.3211C53.5081 97.0211 62.9896 103.327 76.3519 103.372C90.5815 103.43 98.005 91.2293 99.9895 86.8928C103.018 80.2484 105.62 67.9004 105.634 60.4769C105.634 60.4769 111.103 41.7197 101.827 29.6951H101.856ZM89.773 84.1586C86.833 85.658 88.3177 77.8523 82.4671 77.5289C80.512 77.4113 73.8676 76.9556 68.2816 77.426C64.0333 77.7935 63.0043 81.6155 62.8132 83.5559C62.725 84.3938 62.431 84.776 61.6372 84.482C59.8732 83.8352 56.1247 81.7478 54.3607 79.8074C52.5379 77.8082 49.2451 72.4133 48.9364 61.0208L49.2598 44.7479C49.2598 44.7479 55.8013 39.2648 56.9332 35.3693C56.9332 35.3693 86.1568 40.0439 94.624 35.3693C94.624 35.3693 98.1667 42.146 102.033 44.1893C103.224 44.8067 103.018 52.5389 102.915 57.875C102.812 58.5953 102.724 59.4185 102.68 60.3887C101.901 75.6326 92.6836 82.6739 89.7583 84.1733L89.773 84.1586Z" fill="black"/>
<path d="M89.7733 63.5615C90.7557 63.5615 91.552 62.1794 91.552 60.4744C91.552 58.7695 90.7557 57.3875 89.7733 57.3875C88.791 57.3875 87.9946 58.7695 87.9946 60.4744C87.9946 62.1794 88.791 63.5615 89.7733 63.5615Z" fill="#441D39"/>
<path d="M63.0924 62.9299C64.0748 62.9299 64.8711 61.5478 64.8711 59.8429C64.8711 58.138 64.0748 56.7559 63.0924 56.7559C62.1101 56.7559 61.3137 58.138 61.3137 59.8429C61.3137 61.5478 62.1101 62.9299 63.0924 62.9299Z" fill="#441D39"/>
<path d="M77.6013 74.3525H74.7936C73.544 74.3525 72.4415 73.8674 71.8535 73.0589C71.4272 72.4856 71.3096 71.8094 71.5154 71.1479C72.1475 69.1193 72.9707 61.5488 72.9707 61.4753C73.0148 61.0637 73.3677 60.7844 73.7793 60.8285C74.1762 60.8726 74.4701 61.2401 74.426 61.637C74.3967 61.9604 73.5735 69.4133 72.912 71.5889C72.8532 71.8094 72.8825 72.0005 73.0295 72.2063C73.3382 72.6179 74.0291 72.8972 74.7936 72.8972H77.6013C78.0129 72.8972 78.3363 73.2206 78.3363 73.6322C78.3363 74.0438 78.0129 74.3672 77.6013 74.3672V74.3525Z" fill="#FF9988"/>
<path d="M91.3305 68.3986C94.1639 68.3986 96.4608 67.8721 96.4608 67.2226C96.4608 66.5731 94.1639 66.0466 91.3305 66.0466C88.4971 66.0466 86.2002 66.5731 86.2002 67.2226C86.2002 67.8721 88.4971 68.3986 91.3305 68.3986Z" fill="#FF9988"/>
<path d="M61.3864 68.3986C64.2198 68.3986 66.5167 67.8721 66.5167 67.2226C66.5167 66.5731 64.2198 66.0466 61.3864 66.0466C58.553 66.0466 56.2561 66.5731 56.2561 67.2226C56.2561 67.8721 58.553 68.3986 61.3864 68.3986Z" fill="#FF9988"/>
<path d="M96.0048 53.3009C91.1097 51.8603 87.3612 52.7717 85.0827 53.0657C84.1125 53.1833 83.9067 51.9926 83.9067 51.9926C83.7156 51.1841 84.8034 50.6255 85.5678 50.4785C88.1403 50.0081 91.4331 49.7729 96.3135 51.4634C97.2543 51.7868 97.3131 52.5806 97.3131 52.5806C97.2102 53.4626 96.6516 53.4773 96.0048 53.2862V53.3009Z" fill="#B54D4D"/>
<path d="M56.5942 53.3912C61.4599 51.8624 65.2231 52.715 67.5016 52.9649C68.4718 53.0678 68.6629 51.8771 68.6629 51.8771C68.8393 51.0686 67.7368 50.5247 66.9724 50.3924C64.3852 49.9661 61.0924 49.775 56.2561 51.5537C55.3153 51.8918 55.2712 52.6856 55.2712 52.6856C55.3888 53.5676 55.9474 53.5676 56.5795 53.3765L56.5942 53.3912Z" fill="#B54D4D"/>
<path d="M75.3671 86.2902C71.8979 86.2902 69.1343 85.5552 68.9579 85.5111C68.561 85.4082 68.3405 84.9966 68.4434 84.6144C68.5463 84.2322 68.9579 83.997 69.3401 84.0999C69.4136 84.1146 76.1756 85.908 81.6293 83.7765C82.0115 83.6295 82.4378 83.8206 82.5848 84.1881C82.7318 84.5703 82.5407 84.9966 82.1732 85.1436C79.9241 86.0256 77.5133 86.3049 75.3818 86.3049L75.3671 86.2902Z" fill="#9B3D3D"/>
<path d="M59.8144 104.531L71.5156 112.88L65.8561 126.434L50.7151 112.336L59.8144 104.531Z" fill="#D3720E"/>
<path d="M71.5154 112.881L72.221 117.893L69.5603 117.555L71.5154 112.881Z" fill="#A5503C"/>
<path d="M78.1896 112.616L77.1606 117.893L80.0418 117.408L78.1896 112.616Z" fill="#A5503C"/>
<path d="M78.1895 112.616L88.9058 104.752L98.9459 112.807L84.0107 127.728L78.1895 112.616Z" fill="#D3720E"/>
<path d="M77.1452 119.819H72.2207V153.938H77.1452V119.819Z" fill="white"/>
<path d="M72.1177 117.19L72.2206 120.189C72.2206 120.189 74.5138 121.188 77.1451 120.189L77.2186 117.469L72.103 117.175L72.1177 117.19Z" fill="#FFB69F"/>
<path d="M77.1452 127.023H72.2207V128.493H77.1452V127.023Z" fill="#D6D6D6"/>
<path d="M77.1452 133.652H72.2207V135.122H77.1452V133.652Z" fill="#D6D6D6"/>
<path d="M77.1452 140.281H72.2207V141.751H77.1452V140.281Z" fill="#D6D6D6"/>
<path d="M77.1452 146.911H72.2207V148.381H77.1452V146.911Z" fill="#D6D6D6"/>
<path d="M81.3353 135.08C82.0498 135.08 82.629 134.5 82.629 133.786C82.629 133.072 82.0498 132.492 81.3353 132.492C80.6209 132.492 80.0417 133.072 80.0417 133.786C80.0417 134.5 80.6209 135.08 81.3353 135.08Z" fill="#D3720E"/>
<path d="M81.3353 149.512C82.0498 149.512 82.629 148.933 82.629 148.219C82.629 147.504 82.0498 146.925 81.3353 146.925C80.6209 146.925 80.0417 147.504 80.0417 148.219C80.0417 148.933 80.6209 149.512 81.3353 149.512Z" fill="#D3720E"/>
</g>
<defs>
<clipPath id="clip0_62_13980">
<rect width="147" height="147" rx="73.5" fill="white"/>
</clipPath>
</defs>
</svg>
