<svg width="147" height="147" viewBox="0 0 147 147" fill="none" xmlns="http://www.w3.org/2000/svg">
<g clip-path="url(#clip0_62_13983)">
<rect width="147" height="147" rx="73.5" fill="white"/>
<circle cx="73.5" cy="73.5" r="73.5" fill="#F3B33E"/>
<path d="M131.991 129.067C119.82 124.966 89.4055 109.222 89.4055 109.222H59.1677C59.1677 109.222 28.7681 124.966 16.5818 129.067C4.41016 133.168 4.41016 153.954 4.41016 153.954H144.178C144.178 153.954 144.178 133.168 132.006 129.067H131.991Z" fill="#424777"/>
<path fill-rule="evenodd" clip-rule="evenodd" d="M58.9033 111.514L60.8878 94.8438H87.5389L89.5969 110.632L86.7733 110.713L79.7469 115.484L76.3659 148.765L70.7799 115.895L65.4073 111.327L58.9033 111.514Z" fill="#FFC7A4"/>
<path opacity="0.3" d="M59.7402 104.457C59.7402 104.457 80.3937 106.353 87.6702 97.2982V86.8906L61.4895 89.4043L59.7402 104.457V104.457Z" fill="#A5503C"/>
<path d="M59.52 106.311L49.5681 114.087L62.9892 127.185L70.7802 115.895L59.52 106.311Z" fill="#515882"/>
<path d="M79.7476 115.483L89.0527 106.443L98.1226 113.616L86.1127 126.758L79.7476 115.483Z" fill="#515882"/>
<path d="M68.1639 9.49664C66.2382 4.73384 57.1536 1.82324 57.1536 1.82324C59.4027 16.7143 67.9581 13.5097 67.9581 13.5097C68.1345 13.1569 68.2521 12.8041 68.355 12.466C75.0582 16.1998 80.6442 2.49944 80.6442 2.49944C71.3097 3.17564 68.7519 6.82124 68.1639 9.49664V9.49664Z" fill="#FF7C59"/>
<path fill-rule="evenodd" clip-rule="evenodd" d="M75.529 99.0192C89.0296 99.0192 100.458 87.675 104.299 72.0362C105.562 71.7868 106.119 71.5143 106.119 71.5143C109.206 69.8679 110.868 66.0606 110.397 61.1067C110.044 57.3889 107.025 56.8172 105.541 56.7634C104.08 37.2182 91.2006 21.9324 75.529 21.9324C59.8584 21.9324 46.9801 37.2161 45.5176 56.7594C44.2317 56.7409 40.6915 57.0615 40.3074 61.1067C39.8369 66.0606 41.4981 69.8679 44.585 71.5143C44.585 71.5143 45.2465 71.8377 46.7607 72.1023L46.7569 72.028C50.5961 87.671 62.0259 99.0192 75.529 99.0192Z" fill="#FFC7A4"/>
<path d="M75.5285 19.6682C43.1885 19.2125 45.3788 57.0061 45.3788 57.0061L75.5285 59.2111L105.678 57.0061C105.678 57.0061 107.869 19.2125 75.5285 19.6682V19.6682Z" fill="#FFC7A4"/>
<path d="M54.8602 52.7445C59.8288 51.8478 64.2241 52.5534 66.4585 52.9797C67.1347 53.112 67.8109 52.7885 68.0167 52.2299C68.2519 51.5978 67.8109 50.9511 67.0465 50.8041C64.5034 50.319 59.9317 49.5839 55.1395 51.2597C54.4045 51.5243 53.0962 52.2446 53.4931 52.8179C53.7136 53.0237 54.1987 52.8473 54.8602 52.7297V52.7445Z" fill="#441D39"/>
<path d="M96.506 52.7597C91.5374 51.863 87.1421 52.5686 84.9077 52.9949C84.2315 53.1272 83.5553 52.7891 83.3495 52.2305C83.1143 51.5984 83.5553 50.9369 84.3197 50.7899C86.8628 50.2901 91.4345 49.5551 96.2267 51.2603C96.9617 51.5249 98.27 52.2452 97.8731 52.8332C97.6526 53.039 97.1675 52.8626 96.506 52.745V52.7597Z" fill="#441D39"/>
<path d="M89.7736 63.5615C90.7559 63.5615 91.5523 62.1794 91.5523 60.4744C91.5523 58.7695 90.7559 57.3875 89.7736 57.3875C88.7912 57.3875 87.9949 58.7695 87.9949 60.4744C87.9949 62.1794 88.7912 63.5615 89.7736 63.5615Z" fill="#441D39"/>
<path d="M63.0924 62.9299C64.0748 62.9299 64.8711 61.5478 64.8711 59.8429C64.8711 58.138 64.0748 56.7559 63.0924 56.7559C62.1101 56.7559 61.3137 58.138 61.3137 59.8429C61.3137 61.5478 62.1101 62.9299 63.0924 62.9299Z" fill="#441D39"/>
<path d="M77.6159 74.352H74.8082C73.5587 74.352 72.4562 73.8669 71.8682 73.0731C71.4419 72.4998 71.3243 71.8236 71.5301 71.1621C72.1769 69.0453 72.7208 67.0461 72.7208 67.0314C72.8237 66.6345 73.2206 66.414 73.6175 66.5169C74.0144 66.6198 74.2496 67.0314 74.132 67.4136C74.132 67.4136 73.5881 69.4569 72.9266 71.5884C72.8678 71.7942 72.8972 72 73.0442 72.2058C73.3529 72.6321 74.0438 72.8967 74.8082 72.8967H77.6159C78.0275 72.8967 78.3509 73.2201 78.3509 73.6317C78.3509 74.0433 78.0275 74.3667 77.6159 74.3667V74.352Z" fill="#A5503C"/>
<path d="M71.2075 83.936C69.8404 83.936 68.9437 83.8625 68.8408 83.8478C68.4292 83.8184 68.1352 83.4509 68.1646 83.054C68.194 82.6571 68.5468 82.3484 68.9584 82.3778C69.0466 82.3778 77.3374 83.054 83.482 80.0258C83.8495 79.8494 84.2905 79.9964 84.4669 80.3639C84.6433 80.7314 84.4963 81.1724 84.1288 81.3488C79.6306 83.5685 74.2357 83.9213 71.1928 83.9213L71.2075 83.936Z" fill="#A5503C"/>
<path opacity="0.2" d="M91.2431 68.3986C94.0765 68.3986 96.3734 67.8721 96.3734 67.2226C96.3734 66.5731 94.0765 66.0466 91.2431 66.0466C88.4097 66.0466 86.1128 66.5731 86.1128 67.2226C86.1128 67.8721 88.4097 68.3986 91.2431 68.3986Z" fill="#AF5D4E"/>
<path opacity="0.2" d="M61.3134 68.3986C64.1468 68.3986 66.4437 67.8721 66.4437 67.2226C66.4437 66.5731 64.1468 66.0466 61.3134 66.0466C58.48 66.0466 56.1831 66.5731 56.1831 67.2226C56.1831 67.8721 58.48 68.3986 61.3134 68.3986Z" fill="#AF5D4E"/>
<path d="M95.197 33.8247C95.197 33.8247 104.105 49.8918 105.663 57.0066C105.663 57.0066 110.485 35.5887 99.1219 24.0051L95.197 33.81V33.8247Z" fill="#FF7C59"/>
<path d="M45.3785 57.008L48.5831 44.7776H44.6729L45.3785 57.008Z" fill="#FF7C59"/>
<path d="M94.1827 17.6698C94.1827 17.6698 94.1827 17.5963 94.1827 17.5669C94.1827 14.1418 91.4044 11.3782 87.994 11.3782C87.2443 11.3782 86.5534 11.5252 85.8919 11.7751C84.0691 9.8494 81.2173 8.5999 77.9833 8.5999C74.9992 8.5999 72.3238 9.673 70.4863 11.3635C68.5606 10.2022 66.1792 9.4966 63.6067 9.4966C62.5189 9.4966 61.4752 9.6289 60.4756 9.8494C59.0203 8.5852 57.1387 7.8208 55.066 7.8208C51.8026 7.8208 48.9949 9.7171 47.6572 12.466C46.8487 11.7898 45.8197 11.3782 44.6878 11.3782C42.1006 11.3782 40.0132 13.4803 40.0132 16.0528C40.0132 16.3321 40.0426 16.5967 40.1014 16.8613C35.0005 16.9348 30.8845 21.0949 30.8845 26.2105C30.8845 29.3122 32.3986 32.0611 34.7359 33.7663C33.8686 35.1775 33.3688 36.8386 33.3688 38.632C33.3688 43.8064 37.5583 47.9959 42.7327 47.9959C47.9071 47.9959 52.0966 43.8064 52.0966 38.632C52.0966 38.5291 52.0966 38.4262 52.0819 38.3233C53.3314 38.9407 54.7279 39.2935 56.2126 39.2935C61.1665 39.2935 65.209 35.4421 65.5471 30.5911C67.2376 32.311 69.5896 33.3694 72.1915 33.3694C76.0576 33.3694 79.3798 31.0174 80.8057 27.6658C81.5848 32.0611 85.4068 35.398 90.0226 35.398C95.197 35.398 99.3865 31.2085 99.3865 26.0341C99.3865 22.3738 97.2844 19.2133 94.2121 17.6698H94.1827Z" fill="#441D39"/>
</g>
<defs>
<clipPath id="clip0_62_13983">
<rect width="147" height="147" rx="73.5" fill="white"/>
</clipPath>
</defs>
</svg>
