<svg width="147" height="147" viewBox="0 0 147 147" fill="none" xmlns="http://www.w3.org/2000/svg">
<g clip-path="url(#clip0_62_13979)">
<rect width="147" height="147" rx="73.5" fill="white"/>
<circle cx="73.5" cy="73.5" r="73.5" fill="#A4BDFF"/>
<path d="M129.698 102.149C134.755 89.801 126.538 88.5368 117.982 82.157C109.427 75.7772 123.362 73.043 126.214 66.4868C129.066 59.9306 123.995 55.3148 117.674 51.8309C111.338 48.347 102.136 34.7936 102.136 34.7936L101.724 34.6025C106.502 44.1869 106.296 55.1384 106.222 56.7701C107.751 56.8583 110.603 57.4904 110.956 61.1066C111.426 66.0605 109.765 69.8678 106.678 71.5142C106.678 71.5142 106.09 71.7788 104.84 72.0287C101.004 87.6695 89.5818 99.0326 76.0725 99.0326C62.5632 99.0326 51.1266 87.6695 47.3046 71.9993V72.1022C45.7905 71.8376 45.129 71.5142 45.129 71.5142C42.042 69.8678 40.3809 66.0605 40.8513 61.1066C41.2188 57.1964 44.541 56.7701 45.9228 56.7554C45.8934 55.844 45.8199 52.1543 46.5255 47.4503C44.1882 48.5969 37.1763 52.3895 37.3086 56.7554C37.485 62.0033 38.9844 69.2063 32.2371 71.1614C25.4898 73.1165 25.2546 85.685 28.0917 92.0648C30.9288 98.4446 32.8398 102.458 23.9316 106.353C15.0234 110.249 24.9312 117.658 23.9757 131.887C23.0202 146.117 36.0003 139.81 61.8429 135.062C87.6855 130.314 106.252 136.65 120.187 135.062C134.108 133.475 132.535 129.065 127.464 122.509C122.392 115.952 124.612 114.497 129.683 102.149H129.698Z" fill="#441D39"/>
<path d="M80.3799 24.6224L101.739 34.6037C97.7259 26.5628 90.1995 19.4774 76.0875 19.6685C54.3609 19.3598 48.231 36.3089 46.5405 47.4515C47.0109 47.2163 47.3049 47.084 47.3049 47.084L80.3799 24.6077V24.6224Z" fill="#C1735C"/>
<path d="M132.55 129.067C120.378 124.966 89.9639 109.222 89.9639 109.222H59.726C59.726 109.222 29.3264 124.966 17.1401 129.067C4.96851 133.168 4.96851 153.954 4.96851 153.954H144.736C144.736 153.954 144.736 133.168 132.564 129.067H132.55Z" fill="#4598C4"/>
<path d="M88.0975 94.8438H61.4464L59.4619 111.514L75.1321 145.103L90.1555 110.632L88.0975 94.8438Z" fill="#FFC7A4"/>
<path opacity="0.3" d="M61.4898 94.1978L60.2991 104.458C60.2991 104.458 80.9526 106.355 88.2291 97.2995V95.7559C84.51 97.858 80.4087 99.0341 76.0722 99.0341C70.7802 99.0341 65.8116 97.2701 61.4898 94.1978Z" fill="#A5503C"/>
<path d="M110.97 61.108C110.632 57.4918 107.765 56.8597 106.237 56.7715C106.295 55.1398 106.516 44.1883 101.738 34.6039L80.3793 24.6226L47.3043 47.0989C47.3043 47.0989 47.0103 47.2312 46.5399 47.4664C45.8196 52.1704 45.8931 55.8601 45.9372 56.7715C44.5554 56.7715 41.2332 57.2125 40.8657 61.1227C40.3953 66.0766 42.0564 69.8839 45.1434 71.5303C45.1434 71.5303 45.8049 71.8537 47.319 72.1183V72.0154C49.6416 81.541 54.7866 89.4643 61.5045 94.2124C65.8263 97.2847 70.7949 99.0487 76.0869 99.0487C80.4087 99.0487 84.5247 97.8727 88.2438 95.7706C96.1377 91.3165 102.253 82.6729 104.855 72.0448C106.119 71.7949 106.692 71.5303 106.692 71.5303C109.779 69.8839 111.44 66.0766 110.97 61.1227V61.108Z" fill="#FFC7A4"/>
<path d="M55.3305 52.0977C60.3726 51.7449 64.665 52.9209 66.8406 53.5824C67.5021 53.7882 68.193 53.5236 68.4723 53.0091C68.7663 52.4064 68.3988 51.7155 67.6638 51.4803C65.1942 50.7159 60.7254 49.4958 55.7715 50.6571C55.0071 50.8335 53.64 51.4068 53.9634 52.0389C54.1545 52.2594 54.669 52.1565 55.3305 52.1124V52.0977Z" fill="#441D39"/>
<path d="M97.1223 52.3463C92.0949 51.7877 87.7731 52.802 85.5681 53.39C84.9066 53.5664 84.2157 53.2871 83.9658 52.7432C83.6865 52.1258 84.0834 51.4349 84.8331 51.2438C87.3321 50.5676 91.845 49.5239 96.7548 50.8763C97.5045 51.0821 98.8569 51.7142 98.5041 52.3316C98.2983 52.5521 97.7985 52.4198 97.137 52.3316L97.1223 52.3463Z" fill="#441D39"/>
<path d="M90.3319 63.5615C91.3143 63.5615 92.1106 62.1794 92.1106 60.4744C92.1106 58.7695 91.3143 57.3875 90.3319 57.3875C89.3496 57.3875 88.5532 58.7695 88.5532 60.4744C88.5532 62.1794 89.3496 63.5615 90.3319 63.5615Z" fill="#441D39"/>
<path d="M63.6508 62.9299C64.6331 62.9299 65.4295 61.5478 65.4295 59.8429C65.4295 58.138 64.6331 56.7559 63.6508 56.7559C62.6684 56.7559 61.8721 58.138 61.8721 59.8429C61.8721 61.5478 62.6684 62.9299 63.6508 62.9299Z" fill="#441D39"/>
<path d="M78.1745 74.3525H75.3668C74.1173 74.3525 73.0148 73.8674 72.4268 73.0589C72.0005 72.4856 71.8829 71.8094 72.0887 71.1479C72.7355 69.0458 73.2794 67.0319 73.2794 67.0172C73.3823 66.6203 73.7792 66.3998 74.1761 66.5027C74.573 66.6056 74.8082 67.0172 74.6906 67.3994C74.6906 67.3994 74.1467 69.4427 73.4852 71.5742C73.4264 71.7947 73.4558 71.9858 73.6028 72.1916C73.9115 72.6179 74.6024 72.8825 75.3668 72.8825H78.1745C78.5861 72.8825 78.9095 73.2059 78.9095 73.6175C78.9095 74.0291 78.5861 74.3525 78.1745 74.3525Z" fill="#A5503C"/>
<path d="M75.4849 83.5988C72.0598 83.5988 69.4579 83.1284 69.2668 83.0843C68.8699 83.0108 68.6053 82.6286 68.6788 82.2317C68.7523 81.8348 69.1345 81.5702 69.5314 81.6437C69.6049 81.6437 77.8075 83.1578 84.2167 80.7617C84.5989 80.6147 85.0252 80.8058 85.1575 81.188C85.3045 81.5702 85.0987 81.9965 84.7312 82.1288C81.6589 83.2754 78.2926 83.5988 75.4702 83.5988H75.4849Z" fill="#A5503C"/>
<path d="M91.8014 68.3989C94.6348 68.3989 96.9317 67.8724 96.9317 67.2229C96.9317 66.5734 94.6348 66.0469 91.8014 66.0469C88.9681 66.0469 86.6711 66.5734 86.6711 67.2229C86.6711 67.8724 88.9681 68.3989 91.8014 68.3989Z" fill="#AF5D4E"/>
<path d="M61.8718 68.3989C64.7051 68.3989 67.0021 67.8724 67.0021 67.2229C67.0021 66.5734 64.7051 66.0469 61.8718 66.0469C59.0384 66.0469 56.7415 66.5734 56.7415 67.2229C56.7415 67.8724 59.0384 68.3989 61.8718 68.3989Z" fill="#AF5D4E"/>
<path d="M44.864 48.4215L44.9522 49.1124L40.7774 53.4489L37.5728 62.9304C37.5728 62.9304 41.3213 75.0873 46.6574 82.6284C51.9788 90.1842 49.5533 78.777 47.3042 71.9856C45.0551 65.1942 49.2593 65.106 50.2442 60.4755C50.8616 57.5502 49.7738 54.8601 48.8918 53.2872C48.1127 50.5971 48.8036 47.3631 52.4933 46.3635C61.1369 43.9968 55.4774 29.6643 55.4774 29.6643C50.5088 32.8542 46.187 45.7314 44.8787 48.4068L44.864 48.4215Z" fill="#441D39"/>
<path d="M111.043 53.4489L107.986 53.6841C106.736 47.2308 103.987 34.5006 101.503 33.1776C98.1513 31.3989 94.344 34.2948 94.344 34.2948C94.344 34.2948 96.255 44.7171 100.444 47.0691C102.929 48.4656 102.914 51.6114 102.973 53.934C101.532 61.4457 97.7985 69.7953 106.222 77.3364C115.409 85.5537 117.394 63.5625 117.394 63.5625L111.043 53.4489Z" fill="#441D39"/>
<path d="M106.458 22.022C101.71 14.1281 83.4523 10.2179 68.2525 13.3196L67.2382 9.89451C67.0471 9.26241 66.3856 8.89491 65.7388 9.08601C65.1067 9.27711 64.7392 9.93861 64.9303 10.5854L65.9005 13.8929C54.1552 16.9652 41.9248 25.7117 36.5593 36.7073C31.0321 48.0263 44.9677 48.2762 44.9677 48.2762C56.8306 30.3863 102.136 34.7963 102.136 34.7963C104.767 34.2377 111.338 30.1658 106.443 22.0367L106.458 22.022Z" fill="#FF7C59"/>
<path d="M52.729 121.657C52.4497 121.657 52.1851 121.51 52.0675 121.246C51.8911 120.878 52.0528 120.437 52.4056 120.261L57.9475 117.6C58.315 117.423 58.756 117.585 58.9324 117.953C59.1088 118.32 58.9471 118.761 58.5943 118.938L53.0524 121.598C52.9495 121.642 52.8466 121.672 52.729 121.672V121.657Z" fill="#2A5E70"/>
<path d="M55.2571 130.403C54.9778 130.403 54.7132 130.256 54.5956 129.991C54.4192 129.624 54.5809 129.183 54.9337 129.006L60.4756 126.346C60.8431 126.169 61.2841 126.331 61.4605 126.684C61.6369 127.036 61.4752 127.492 61.1224 127.669L55.5805 130.329C55.4776 130.373 55.3747 130.403 55.2571 130.403Z" fill="#2A5E70"/>
<path d="M58.4768 140.739C58.1975 140.739 57.9329 140.592 57.8153 140.327C57.6389 139.96 57.8006 139.519 58.1534 139.342L63.6953 136.682C64.0628 136.505 64.5038 136.667 64.6802 137.02C64.8566 137.387 64.6949 137.828 64.3421 138.005L58.8002 140.665C58.6973 140.709 58.5944 140.739 58.4768 140.739Z" fill="#2A5E70"/>
<path d="M95.9765 121.657C95.8736 121.657 95.756 121.628 95.6531 121.584L90.1112 118.923C89.7437 118.747 89.5967 118.306 89.7731 117.938C89.9495 117.571 90.3905 117.409 90.758 117.585L96.2999 120.246C96.6674 120.423 96.8144 120.864 96.638 121.231C96.5057 121.496 96.2558 121.643 95.9765 121.643V121.657Z" fill="#2A5E70"/>
<path d="M93.4487 130.402C93.3458 130.402 93.2282 130.373 93.1253 130.329L87.5834 127.668C87.2159 127.492 87.0689 127.051 87.2453 126.683C87.4217 126.316 87.8627 126.169 88.2302 126.345L93.7721 129.006C94.1396 129.182 94.2866 129.623 94.1102 129.991C93.9779 130.255 93.728 130.402 93.4487 130.402Z" fill="#2A5E70"/>
<path d="M90.2285 140.738C90.1256 140.738 90.008 140.709 89.9051 140.665L84.3632 138.004C83.9957 137.828 83.8487 137.387 84.0251 137.019C84.2015 136.652 84.6425 136.505 85.01 136.681L90.5519 139.342C90.9194 139.518 91.0664 139.959 90.89 140.327C90.7577 140.591 90.5078 140.738 90.2285 140.738Z" fill="#2A5E70"/>
</g>
<defs>
<clipPath id="clip0_62_13979">
<rect width="147" height="147" rx="73.5" fill="white"/>
</clipPath>
</defs>
</svg>
