<svg width="150" height="171" viewBox="0 0 150 171" fill="none" xmlns="http://www.w3.org/2000/svg">
<mask id="mask0_62_1618" style="mask-type:luminance" maskUnits="userSpaceOnUse" x="1" y="0" width="148" height="149">
<path d="M1 0.994873H148.443V148.604H1V0.994873Z" fill="white"/>
</mask>
<g mask="url(#mask0_62_1618)">
<mask id="mask1_62_1618" style="mask-type:luminance" maskUnits="userSpaceOnUse" x="0" y="0" width="150" height="150">
<path d="M0 74.8022C0 116.109 33.4896 149.599 74.8021 149.599C116.115 149.599 149.604 116.109 149.604 74.8022C149.604 33.4897 116.115 0.00012207 74.8021 0.00012207C33.4896 0.00012207 0 33.4897 0 74.8022Z" fill="white"/>
</mask>
<g mask="url(#mask1_62_1618)">
<mask id="mask2_62_1618" style="mask-type:luminance" maskUnits="userSpaceOnUse" x="1" y="1" width="148" height="148">
<path d="M74.8022 1.198C115.453 1.198 148.406 34.1511 148.406 74.8022C148.406 115.448 115.453 148.401 74.8022 148.401C34.1511 148.401 1.198 115.448 1.198 74.8022C1.198 34.1511 34.1511 1.198 74.8022 1.198Z" fill="white"/>
</mask>
<g mask="url(#mask2_62_1618)">
<path d="M149.604 74.8022C149.604 77.2501 149.484 79.6928 149.245 82.1303C149 84.5678 148.646 86.9897 148.167 89.3907C147.688 91.797 147.094 94.1668 146.38 96.5105C145.672 98.8595 144.849 101.162 143.911 103.422C142.974 105.688 141.927 107.901 140.771 110.063C139.615 112.219 138.359 114.318 136.995 116.354C135.635 118.396 134.177 120.36 132.625 122.25C131.068 124.146 129.427 125.958 127.693 127.693C125.964 129.422 124.151 131.068 122.255 132.62C120.359 134.177 118.396 135.63 116.359 136.995C114.323 138.354 112.224 139.615 110.062 140.766C107.901 141.922 105.693 142.969 103.427 143.906C101.161 144.844 98.8594 145.667 96.5156 146.38C94.1719 147.089 91.7969 147.682 89.3958 148.162C86.9948 148.641 84.5729 149 82.1354 149.24C79.6979 149.479 77.25 149.599 74.8021 149.599C72.3542 149.599 69.9062 149.479 67.4688 149.24C65.0312 149 62.6146 148.641 60.2083 148.162C57.8073 147.682 55.4323 147.089 53.0885 146.38C50.7448 145.667 48.4427 144.844 46.1771 143.906C43.9115 142.969 41.7031 141.922 39.5417 140.766C37.3802 139.615 35.2812 138.354 33.2448 136.995C31.2083 135.63 29.2448 134.177 27.349 132.62C25.4531 131.068 23.6406 129.422 21.9115 127.693C20.1771 125.958 18.5365 124.146 16.9792 122.25C15.4271 120.36 13.9688 118.396 12.6094 116.354C11.2448 114.318 9.98958 112.219 8.83333 110.063C7.67708 107.901 6.63542 105.688 5.69792 103.422C4.76042 101.162 3.93229 98.8595 3.22396 96.5105C2.51042 94.1668 1.91667 91.797 1.4375 89.3907C0.963541 86.9897 0.604167 84.5678 0.359375 82.1303C0.119791 79.6928 0 77.2501 0 74.8022C0 72.3491 0.119791 69.9064 0.359375 67.4689C0.604167 65.0314 0.963541 62.6095 1.4375 60.2085C1.91667 57.8022 2.51042 55.4324 3.22396 53.0887C3.93229 50.7397 4.76042 48.4376 5.69792 46.1772C6.63542 43.9116 7.67708 41.698 8.83333 39.5366C9.98958 37.3803 11.2448 35.2814 12.6094 33.2449C13.9688 31.2032 15.4271 29.2397 16.9792 27.3491C18.5365 25.4532 20.1771 23.6407 21.9115 21.9064C23.6406 20.1772 25.4531 18.5314 27.349 16.9793C29.2448 15.422 31.2083 13.9689 33.2448 12.6043C35.2812 11.2449 37.3802 9.9845 39.5417 8.83346C41.7031 7.67721 43.9115 6.63033 46.1771 5.69283C48.4427 4.75533 50.7448 3.93241 53.0885 3.21887C55.4323 2.51054 57.8073 1.91679 60.2083 1.43762C62.6146 0.958454 65.0312 0.59908 67.4688 0.359497C69.9062 0.119913 72.3542 0.00012207 74.8021 0.00012207C77.25 0.00012207 79.6979 0.119913 82.1354 0.359497C84.5729 0.59908 86.9948 0.958454 89.3958 1.43762C91.7969 1.91679 94.1719 2.51054 96.5156 3.21887C98.8594 3.93241 101.161 4.75533 103.427 5.69283C105.693 6.63033 107.901 7.67721 110.062 8.83346C112.224 9.9845 114.323 11.2449 116.359 12.6043C118.396 13.9689 120.359 15.422 122.255 16.9793C124.151 18.5314 125.964 20.1772 127.693 21.9064C129.427 23.6407 131.068 25.4532 132.625 27.3491C134.177 29.2397 135.635 31.2032 136.995 33.2449C138.359 35.2814 139.615 37.3803 140.771 39.5366C141.927 41.698 142.974 43.9116 143.911 46.1772C144.849 48.4376 145.672 50.7397 146.38 53.0887C147.094 55.4324 147.688 57.8022 148.167 60.2085C148.646 62.6095 149 65.0314 149.245 67.4689C149.484 69.9064 149.604 72.3491 149.604 74.8022Z" fill="white"/>
</g>
</g>
</g>
<mask id="mask3_62_1618" style="mask-type:luminance" maskUnits="userSpaceOnUse" x="0" y="0" width="150" height="150">
<path d="M0 0H149.604V149.599H0V0Z" fill="white"/>
</mask>
<g mask="url(#mask3_62_1618)">
<mask id="mask4_62_1618" style="mask-type:luminance" maskUnits="userSpaceOnUse" x="0" y="0" width="150" height="150">
<path d="M0 74.8021C0 116.109 33.4896 149.599 74.8021 149.599C116.115 149.599 149.604 116.109 149.604 74.8021C149.604 33.4896 116.115 0 74.8021 0C33.4896 0 0 33.4896 0 74.8021Z" fill="white"/>
</mask>
<g mask="url(#mask4_62_1618)">
<mask id="mask5_62_1618" style="mask-type:luminance" maskUnits="userSpaceOnUse" x="0" y="0" width="150" height="150">
<path d="M0 74.8021C0 116.109 33.4896 149.599 74.8021 149.599C116.115 149.599 149.604 116.109 149.604 74.8021C149.604 33.4896 116.115 0 74.8021 0C33.4896 0 0 33.4896 0 74.8021Z" fill="white"/>
</mask>
<g mask="url(#mask5_62_1618)">
<path d="M0 74.8021C0 116.109 33.4896 149.599 74.8021 149.599C116.115 149.599 149.604 116.109 149.604 74.8021C149.604 33.4896 116.115 0 74.8021 0C33.4896 0 0 33.4896 0 74.8021Z" fill="#FFF5EA" stroke="black" stroke-opacity="0.2" stroke-width="1.99468"/>
</g>
</g>
</g>
<path fill-rule="evenodd" clip-rule="evenodd" d="M52.396 24.2812H103.11V93.1771H52.396V24.2812Z" fill="#703C25"/>
<path fill-rule="evenodd" clip-rule="evenodd" d="M50.1304 88.7397L52.396 92.4481H102.037L98.1043 88.7397H50.1304Z" fill="#EAE6DB"/>
<mask id="mask6_62_1618" style="mask-type:luminance" maskUnits="userSpaceOnUse" x="47" y="19" width="53" height="71">
<path d="M47.1094 19.8125H99.1094V89.2812H47.1094V19.8125Z" fill="white"/>
</mask>
<g mask="url(#mask6_62_1618)">
<path fill-rule="evenodd" clip-rule="evenodd" d="M47.3958 19.8438H98.1041V88.7396H47.3958V19.8438Z" fill="#CC7B45"/>
</g>
<path fill-rule="evenodd" clip-rule="evenodd" d="M93.5574 90.2034H95.8282C95.8282 90.2034 95.6563 95.594 95.8282 99.1044C96.0001 102.615 94.599 97.068 94.599 97.068L93.5574 100.011V90.2034Z" fill="#CC7B45"/>
<mask id="mask7_62_1618" style="mask-type:luminance" maskUnits="userSpaceOnUse" x="97" y="19" width="7" height="75">
<path d="M97.7761 19.8125H103.109V93.2812H97.7761V19.8125Z" fill="white"/>
</mask>
<g mask="url(#mask7_62_1618)">
<path fill-rule="evenodd" clip-rule="evenodd" d="M98.1042 88.7396L103.109 93.1771V24.2812L98.1042 19.8438V88.7396Z" fill="#703C25"/>
</g>
<path fill-rule="evenodd" clip-rule="evenodd" d="M87.9219 48.0991C87.9479 48.1095 87.9584 48.1407 87.9531 48.172C87.9427 48.2032 87.9063 48.2189 87.875 48.2137C87.849 48.2084 87.7813 48.1355 87.6979 48.0053C87.5417 47.7657 87.2969 47.3282 87.0625 46.9324C87.1146 47.2293 87.1771 47.5678 87.2344 47.8959C87.3646 48.6251 87.4792 49.323 87.5 49.4845C87.5833 50.2189 87.6875 50.9532 87.7656 51.6928C87.875 52.797 87.9531 53.9064 88.0834 55.0053C88.1979 56.1616 88.3906 57.323 88.4427 58.4845C88.4792 59.2761 88.4531 60.0626 88.3073 60.8543C88.2917 60.9532 88.1979 61.0209 88.099 61.0105C88 60.9949 87.9271 60.9012 87.9427 60.8022C88.0104 60.0366 87.9531 59.2866 87.8542 58.5366C87.6979 57.3959 87.4167 56.2657 87.2083 55.1303C87.0521 54.2084 86.9063 53.2866 86.7969 52.3543C86.7396 51.8907 86.6927 51.4272 86.6563 50.9636C86.6198 50.5001 86.5938 50.0314 86.5677 49.5678C86.5573 49.3126 86.4271 47.698 86.3906 46.7397C86.3802 46.4324 86.3802 46.1928 86.3854 46.073C86.3958 45.9584 86.4167 45.8907 86.4323 45.8699C86.4583 45.8387 86.4688 45.8178 86.4896 45.797C86.5156 45.7762 86.5469 45.7501 86.599 45.7397C86.6563 45.7241 86.724 45.7189 86.7917 45.7501C86.8542 45.7814 86.9583 45.8647 87.0469 46.0262C87.25 46.3959 87.5521 47.2189 87.7552 47.7189C87.8125 47.8647 87.8594 47.9793 87.8958 48.047C87.9011 48.0626 87.9115 48.0834 87.9167 48.0939C87.9167 48.0991 87.9219 48.0991 87.9219 48.0991ZM87.9167 48.0939C87.9219 48.0939 87.9271 48.0939 87.9219 48.0991C87.9219 48.0939 87.9167 48.0939 87.9167 48.0939ZM70.4427 45.1043C70.4375 45.1095 70.4375 45.1095 70.4323 45.1095C70.4271 45.1095 70.4427 45.1043 70.4479 45.0991C70.4427 45.1043 70.4427 45.1043 70.4427 45.1043ZM58.9011 57.9741C58.7292 57.9793 58.5573 57.9689 58.3854 57.9376C57.9375 57.8439 57.5365 57.6668 57.1979 57.4064C56.8646 57.1564 56.5833 56.8334 56.3542 56.4532C55.875 55.6355 55.8333 54.8074 56.0625 54.0209C56.375 52.9584 57.1875 51.9636 57.9531 51.1876C57.9948 51.1459 58.0886 51.0574 58.1927 50.9636C58.099 50.9376 58.0052 50.9011 57.9167 50.8543C57.6198 50.6928 57.4219 50.4741 57.3177 50.2136C57.2188 49.9689 57.1927 49.6824 57.2604 49.3699C57.3802 48.8334 57.6719 48.3074 58.0625 47.8595C58.4479 47.4272 58.9219 47.073 59.4167 46.8699C59.5104 46.8282 59.6198 46.8699 59.6615 46.9584C59.7031 47.0522 59.6615 47.1616 59.5677 47.2032C59.1406 47.4116 58.7344 47.7501 58.4167 48.1564C58.1042 48.5522 57.875 49.0105 57.8021 49.4741C57.7656 49.6668 57.7813 49.8386 57.849 49.9845C57.9167 50.1199 58.0313 50.2241 58.1979 50.3022C58.2656 50.3334 58.3438 50.3543 58.4167 50.3647C58.5 50.3803 58.5833 50.3803 58.6667 50.3803C58.6875 50.3803 58.7917 50.3699 58.8646 50.3803C58.9375 50.3907 58.9896 50.4168 59.0313 50.4376C59.1615 50.5209 59.1979 50.6407 59.1823 50.7761C59.1719 50.8699 59.125 50.9897 59.0365 51.1095C58.8802 51.3126 58.5781 51.5574 58.474 51.6772C57.8281 52.3907 57.1302 53.2918 56.8958 54.2449C56.7552 54.8074 56.7969 55.3959 57.1615 55.9636C57.3281 56.2293 57.5313 56.4532 57.7708 56.6251C58.0052 56.7866 58.2708 56.9011 58.5677 56.948C58.9219 57.0105 59.2813 56.9168 59.6458 56.7501C60.0156 56.5834 60.3802 56.3386 60.7448 56.0626C61.9323 55.1511 63.0729 53.8595 63.8386 53.198C64.3281 52.7918 64.8229 52.3959 65.349 52.0314C65.6823 51.8022 66.0208 51.5834 66.375 51.3803C66.2083 51.2814 66.0469 51.1772 65.8854 51.0782C65.3958 50.7762 64.9219 50.4637 64.4375 50.1616C63.7188 49.6876 62.9531 49.2032 62.25 48.6564C61.7708 48.2814 61.3229 47.8751 60.9271 47.4376C60.7865 47.2814 60.6563 47.1199 60.5313 46.948C60.3542 46.6928 60.1927 46.4272 60.0417 46.1564C59.9896 46.0574 59.9375 45.9637 59.9011 45.8595C59.8698 45.7918 59.849 45.7241 59.8333 45.6459C59.8229 45.6043 59.8125 45.5209 59.8021 45.4532C59.8021 45.4532 59.7969 45.448 59.7969 45.4428C59.7396 45.3595 59.7552 45.2449 59.8386 45.1876C61.3958 44.0001 63.1302 42.9637 64.9479 42.0834C65.849 41.6459 66.7708 41.2501 67.6979 40.8959C68.6458 40.5366 69.599 40.2241 70.5417 39.9428C71.0052 39.8178 71.4688 39.6928 71.9375 39.5782C72.4115 39.4637 72.8854 39.3647 73.3594 39.2762C74.4531 39.0834 75.0729 39.3595 75.2813 39.8178C75.3646 40.0105 75.4011 40.2397 75.349 40.5157C75.2917 40.8282 75.125 41.2137 74.8281 41.6512C74.4531 42.1876 73.9792 42.9428 73.4688 43.6095C73.1146 44.0834 72.7448 44.5105 72.3906 44.797C72.3698 44.823 72.3281 44.823 72.3021 44.797C72.2813 44.7709 72.2813 44.7345 72.3073 44.7084C72.5417 44.4584 72.7656 44.1303 72.9948 43.7657C73.4844 42.9637 73.9479 42.0001 74.2969 41.3334C74.4636 41.0314 74.5625 40.7605 74.6094 40.5366C74.6354 40.3855 74.6302 40.2605 74.5833 40.1668C74.5417 40.0939 74.4479 40.0834 74.3386 40.0678C74.1354 40.0418 73.8802 40.0782 73.5573 40.1668C73.1927 40.2553 72.8281 40.3595 72.4636 40.4584C71.9167 40.6147 71.3698 40.7709 70.8281 40.9376C69.9011 41.1928 68.9636 41.4845 68.0261 41.8022C67.1042 42.1147 66.1823 42.448 65.2761 42.8178C63.4375 43.5626 61.6615 44.4376 60.0521 45.4897C60.0208 45.5105 59.9896 45.5209 59.9583 45.5209C59.9688 45.5522 59.9844 45.5834 59.9896 45.6043C60.0104 45.6616 60.0417 45.7241 60.0729 45.7762C60.125 45.8647 60.1823 45.948 60.2448 46.0262C60.3906 46.2293 60.5469 46.422 60.7136 46.6095C60.875 46.7918 61.0469 46.9637 61.2344 47.1251C61.6563 47.4949 62.1302 47.8178 62.6198 48.1199C63.3646 48.5834 64.1511 48.9949 64.8958 49.3907C65.5208 49.7345 66.1511 50.073 66.7708 50.4324C67 50.5626 67.2292 50.698 67.4583 50.8386C67.5469 50.8022 67.6354 50.7657 67.724 50.7345C67.974 50.6407 68.2292 50.5574 68.4896 50.4897L68.6979 50.4376C69.3333 50.297 69.9636 50.2605 70.5781 50.3439C71.0938 50.4168 71.599 50.5678 72.0833 50.797C71.8646 50.5626 71.6563 50.3282 71.4583 50.0834C71.2031 49.7657 70.9792 49.4376 70.7708 49.0939C70.5573 48.7345 70.3646 48.3647 70.1979 47.9689C70.125 47.8022 70.0625 47.6355 70.0104 47.4637C69.8906 47.0887 69.8125 46.698 69.7396 46.297C69.7188 46.1616 69.6823 45.8751 69.6667 45.5626C69.6406 45.1199 69.6458 44.6407 69.7083 44.4116C69.7761 44.1668 69.9115 44.0782 70.0313 44.0991C70.0833 44.1043 70.1563 44.1147 70.2188 44.1876C70.2865 44.2605 70.3854 44.422 70.4844 44.7293C70.4948 44.7657 70.5625 44.9428 70.5677 45.0522C70.5729 45.1199 70.5625 45.1668 70.5313 45.1876C70.5104 45.2137 70.4688 45.2137 70.4479 45.1876C70.4219 45.1668 70.4219 45.1303 70.4427 45.1043C70.4896 45.0782 70.3177 44.9064 70.2708 44.8595C70.3073 45.0053 70.3594 45.172 70.4063 45.3387C70.4948 45.6512 70.5886 45.948 70.6354 46.0834C70.7031 46.3022 70.7813 46.5105 70.849 46.7189C70.9219 46.9324 70.9896 47.1407 71.0625 47.3491C71.1667 47.6668 71.2708 47.9793 71.3958 48.2814C71.5156 48.5939 71.6406 48.8959 71.7865 49.198C72.1094 49.8595 72.4792 50.5001 72.9531 51.1251C73.0208 51.198 73.0208 51.3126 72.9427 51.3803C72.8698 51.4532 72.7552 51.448 72.6823 51.3699C72.599 51.297 72.5156 51.2189 72.4323 51.1407C72.3438 51.1095 72.2708 51.0887 72.2604 51.0834C71.6979 50.8543 71.125 50.7241 70.5417 50.698C69.974 50.6668 69.4011 50.7449 68.8281 50.9272L68.6406 50.9897C68.4479 51.0574 68.2604 51.1303 68.0781 51.2136C68.2552 51.323 68.4323 51.4324 68.6042 51.547C69.8177 52.3178 70.9948 53.1459 72.1406 54.0053C73.2656 54.8699 74.0469 55.9532 75.0833 56.7345C75.3333 56.9168 75.5938 57.0886 75.8802 57.2293L74.9323 49.9532C74.8906 49.5939 74.5833 47.5782 74.5365 46.3855C74.5208 45.9689 74.5365 45.6459 74.5938 45.4949C74.6302 45.3959 74.6771 45.3334 74.724 45.3022C74.8073 45.2501 74.9011 45.2293 75 45.2709C75.0886 45.3022 75.2083 45.4064 75.3177 45.5782C75.5833 46.0105 75.8802 46.8647 75.9271 47.1043C75.9323 47.1095 75.9219 47.2397 75.9427 47.2866C75.9479 47.3022 75.9531 47.3074 75.9636 47.3022C75.974 47.3126 75.9792 47.3282 75.9792 47.3439C75.9844 47.3751 75.9583 47.4064 75.9219 47.4064C75.9063 47.4116 75.8698 47.4012 75.849 47.3543C75.8229 47.3022 75.7813 47.1564 75.7761 47.1459C75.6979 46.9428 75.3281 46.2084 75.0313 45.8439C75.0521 46.1668 75.1511 46.6564 75.2604 47.1928C75.4844 48.2814 75.7917 49.5262 75.849 49.8022C75.9583 50.3491 76.0625 50.8907 76.1511 51.4428C76.2396 51.9897 76.3125 52.5418 76.375 53.0939C76.4479 53.7553 76.5104 54.4168 76.5625 55.0834C76.625 55.8595 76.6719 56.6355 76.7136 57.4116C77.0469 57.4376 77.349 57.4741 77.6354 57.4064C77.8021 57.3647 77.9636 57.2814 78.1302 57.1303C78.4427 56.8491 78.625 56.3907 78.7292 55.8178C78.8542 55.1511 78.8594 54.3334 78.8021 53.4376C78.7448 52.547 78.6094 51.5887 78.4531 50.6199C78.2969 49.6616 78.1094 48.7032 77.9375 47.8022C77.8125 47.1303 77.6927 46.4897 77.5938 45.9168C77.4531 45.1303 77.349 44.4637 77.2969 43.9949C77.2136 43.1824 77.1094 42.3543 77.0625 41.5262C77.0313 40.9637 77.0208 40.4012 77.0521 39.8491C77.0573 39.7918 77.0729 39.5418 77.1354 39.422C77.1979 39.3126 77.2813 39.2553 77.3802 39.2501C77.4375 39.2501 77.5052 39.2605 77.5729 39.3178C77.6406 39.3803 77.7448 39.5418 77.8438 39.7709C78.0573 40.2657 78.3125 41.073 78.4427 41.4324C78.4636 41.4845 78.474 41.547 78.4844 41.573C78.4792 41.573 78.474 41.5678 78.474 41.5678C78.4792 41.573 78.4844 41.573 78.4896 41.573C78.4948 41.5834 78.5 41.5834 78.5052 41.5834C78.5208 41.5939 78.5313 41.6147 78.5261 41.6355C78.5261 41.672 78.4948 41.698 78.4583 41.6928C78.4427 41.6928 78.3698 41.6147 78.2969 41.4689C78.125 41.1407 77.8021 40.448 77.5417 40.0001C77.5781 40.4845 77.6458 40.9689 77.724 41.4532C77.8542 42.2657 78.0156 43.073 78.1719 43.8647C78.25 44.3178 78.4063 44.9584 78.5729 45.7241C78.6979 46.297 78.8333 46.9324 78.9583 47.6147C79.125 48.5262 79.2813 49.5105 79.3958 50.4897C79.5156 51.4897 79.5886 52.4897 79.5886 53.4116C79.599 55.3126 79.2813 56.8751 78.4479 57.5157C78.2031 57.7084 77.9688 57.8074 77.724 57.8439C77.4063 57.8959 77.0886 57.8491 76.7344 57.7866C76.7396 57.8803 76.7448 57.9741 76.75 58.0678C76.7917 59.0001 76.8594 59.9324 76.875 60.8699C76.8854 61.5001 76.8698 62.1251 76.8073 62.7553C76.8021 62.8543 76.7188 62.9324 76.6146 62.9272C76.5156 62.922 76.4375 62.8387 76.4427 62.7345C76.4479 62.1199 76.4063 61.5105 76.3438 60.9012C76.25 59.9741 76.1146 59.0522 75.9948 58.1303L75.9427 57.7084C75.5261 57.5678 75.1458 57.3751 74.7969 57.1511C73.7031 56.4584 72.8542 55.4376 71.6719 54.6616C71.2031 54.3491 70.724 54.0418 70.2448 53.7397C69.6979 53.3959 69.1511 53.0626 68.599 52.7293C68.6615 52.8074 68.7292 52.8855 68.7917 52.9636C69.224 53.4897 69.9792 54.3126 70.4844 55.1772C70.7136 55.5678 70.8854 55.9741 70.9688 56.3647C71.1198 57.0678 70.9688 57.7241 70.3698 58.2657C69.9375 58.6564 69.4323 58.9584 68.8906 59.2136C68.3125 59.4897 67.6875 59.7137 67.0677 59.9272C66.474 60.1355 65.8854 60.3334 65.3594 60.5991C64.8333 60.8491 64.1146 61.4741 63.3177 62.0782C63.0208 62.3074 62.7083 62.5314 62.3958 62.7449C61.9636 64.073 62.3333 65.1407 63.1458 65.8439C63.9844 66.573 65.2813 66.9012 66.6042 66.7397C67.2969 66.6616 67.9688 66.4793 68.6198 66.2345C68.7344 65.6095 68.8906 65.0522 69.0208 64.6876C69.1354 64.3647 69.4219 63.8699 69.4792 63.448C69.5104 63.2293 69.4688 63.0262 69.2188 62.9272C69.125 62.8959 69.0729 62.7866 69.1042 62.6928C69.1406 62.5991 69.2448 62.547 69.3386 62.5782C69.7031 62.6928 69.8594 62.9324 69.9063 63.2189C69.9844 63.7137 69.6458 64.422 69.5313 64.8439C69.4531 65.1251 69.3698 65.5157 69.3021 65.9584C69.8229 65.7241 70.3333 65.4584 70.8125 65.1668C71.25 64.9168 71.6875 64.6459 72.0938 64.3387C72.4844 64.0418 72.8438 63.7084 73.1042 63.323C73.4375 62.8387 73.625 62.2709 73.5417 61.573C73.4948 61.1459 73.0156 59.7605 72.8958 58.8959C72.8438 58.5157 72.8698 58.2189 72.974 58.0939C73.0938 57.9584 73.224 57.9532 73.3594 58.0626C73.5781 58.2345 73.8073 58.8126 73.8646 58.8803C73.8854 58.9011 73.8854 58.9428 73.8594 58.9689C73.8386 58.9897 73.7969 58.9897 73.7761 58.9636C73.724 58.922 73.5469 58.6043 73.3646 58.3907C73.3229 58.3491 73.2865 58.3074 73.2448 58.2761C73.224 58.2605 73.1823 58.2501 73.1823 58.2501C73.1823 58.2501 73.1927 58.2657 73.1927 58.2605C73.1667 58.3074 73.1719 58.3803 73.1823 58.4741C73.2031 58.6564 73.2656 58.8855 73.349 59.1459C73.625 59.9949 74.1198 61.0887 74.2083 61.4637C74.3958 62.3543 74.2188 63.1147 73.8386 63.7814C73.2969 64.7137 72.3073 65.4324 71.3438 66.047C70.6667 66.4532 69.9479 66.8178 69.1927 67.0939C69.1771 67.547 69.1927 68.0053 69.2708 68.422C69.4011 69.1303 69.7031 69.7189 70.4323 69.7501C71.0625 69.7814 71.625 69.3959 72.1511 68.9012C72.5521 68.5262 72.9271 68.0834 73.2761 67.6512C73.6979 67.1303 74.0833 66.6355 74.4167 66.2709C74.7969 65.8751 75.1927 65.4793 75.625 65.1303C76.0625 64.7709 76.5365 64.4532 77.0521 64.2084C77.5 64.0001 77.9688 63.8543 78.4479 63.7397C79.1302 63.5782 79.8229 63.4689 80.4792 63.2553C80.6406 63.2032 80.7969 63.1459 80.9479 63.0834C80.4479 62.2084 80.1042 61.2293 80.0729 60.3855C80.0469 59.6459 80.2396 59.0053 80.7188 58.5782C81.2708 58.0887 81.8229 58.1355 82.2813 58.4949C82.7396 58.8595 83.0938 59.5991 83.1615 60.4012C83.2448 61.3959 82.9063 62.4793 81.8333 62.9689C82.3646 63.7345 83.0261 64.3751 83.6719 64.6251C84.099 64.7918 84.5104 64.7501 84.8281 64.3595C84.9948 64.1616 85.0521 63.7397 85.1094 63.172C85.1927 62.2762 85.1771 61.0678 85.1146 59.7189C85.0729 58.7918 85.0104 57.8022 84.9375 56.8022C84.8646 55.823 84.7865 54.8282 84.7031 53.8803C84.4844 51.3022 84.2552 49.0157 84.1615 48.0209C84.1198 47.5157 83.6771 45.448 83.5521 44.1876C83.4948 43.6459 83.5156 43.2397 83.6094 43.1147C83.6615 43.047 83.724 43.0157 83.7917 43.0157C83.8594 43.0157 83.9375 43.0418 84 43.0939C84.2031 43.2709 84.5365 43.7657 84.75 44.2501C84.9063 44.5939 85 44.9324 84.9583 45.1459C84.9479 45.1772 84.9167 45.198 84.8854 45.1928C84.849 45.1876 84.8281 45.1564 84.8333 45.1199C84.8594 44.9272 84.7448 44.6303 84.5833 44.3334C84.3594 43.9168 84.0417 43.5001 83.8438 43.3334C83.8386 43.3751 83.8386 43.4272 83.8438 43.4897C83.8438 43.7501 83.9115 44.1512 84.0052 44.6095C84.2604 45.8595 84.7083 47.5001 84.7761 47.948C84.9219 48.9376 85.2917 51.2137 85.6146 53.7814C85.7344 54.7345 85.8438 55.7345 85.9375 56.7189C86.0313 57.7293 86.1094 58.7345 86.1511 59.672C86.224 61.3699 86.1875 62.8543 86.0156 63.8074C85.9115 64.3543 85.7552 64.7501 85.5625 64.9689C84.9323 65.7084 84.1406 65.8074 83.3281 65.4637C82.7761 65.2293 82.2083 64.7709 81.7083 64.1772C81.5052 63.9324 81.3125 63.6668 81.1354 63.3907C80.974 63.4845 80.8073 63.5678 80.6302 63.6459C79.5886 64.1147 78.4063 64.3074 77.4115 64.8959C77.0625 65.0939 76.7448 65.3387 76.4375 65.5991C75.974 66.0053 75.5469 66.4637 75.1563 66.9272C74.7917 67.3491 74.375 67.948 73.8906 68.5314C73.4219 69.0991 72.8906 69.6512 72.3281 70.047C71.7136 70.4793 71.0521 70.7293 70.3646 70.6668C69.4427 70.573 68.9011 70.0262 68.6458 69.2293C68.4688 68.6824 68.4271 68.0157 68.474 67.3439C68.474 67.3387 68.474 67.3334 68.474 67.323C67.8906 67.4897 67.2917 67.5991 66.6875 67.6407C65.1198 67.7345 63.6198 67.2501 62.6927 66.3282C61.8854 65.5262 61.4844 64.4064 61.8698 63.073C61.5729 63.2501 61.2761 63.4012 60.9896 63.5157C60.0521 63.8855 59.1667 63.8959 58.4688 63.2397C58.0521 62.8439 57.8802 62.3334 57.8646 61.7762C57.8438 61.0626 58.0781 60.2866 58.2604 59.6876C58.375 59.323 58.5 58.9584 58.6406 58.5991C58.724 58.3907 58.8073 58.1824 58.9011 57.9741ZM75.9427 47.2866C75.9636 47.2918 75.9844 47.297 75.9636 47.3022C75.9583 47.297 75.9479 47.2918 75.9427 47.2866ZM78.4844 41.573C78.5 41.573 78.5156 41.5782 78.5052 41.5834C78.5 41.5782 78.4948 41.5782 78.4896 41.573C78.4896 41.573 78.4896 41.573 78.4844 41.573ZM67.0313 51.7866C66.6094 52.0522 66.2031 52.3491 65.8125 52.6564C65.3333 53.0366 64.8802 53.4428 64.4323 53.8595C63.9792 54.2866 63.3958 54.9689 62.7344 55.6407C62.1198 56.2657 61.4427 56.8803 60.7604 57.3178C60.2917 57.6147 59.8177 57.8282 59.349 57.922C59.2448 58.1928 59.1458 58.4689 59.0573 58.7501C58.9427 59.1043 58.849 59.4637 58.7604 59.823C58.6302 60.3751 58.4479 61.0939 58.5052 61.7397C58.5365 62.1095 58.6615 62.4532 58.9531 62.7032C59.4427 63.1199 60.0417 63.0209 60.6615 62.7397C61.349 62.4272 62.0573 61.8751 62.724 61.3282C63.5625 60.6407 64.3386 59.9689 64.8958 59.6824C65.4688 59.3959 66.099 59.172 66.7396 58.9584C67.3333 58.7657 67.9375 58.5834 68.5 58.3491C68.974 58.1512 69.4271 57.922 69.8177 57.6095C70.3386 57.2032 70.3229 56.6147 70.1302 56.0053C69.7865 54.9584 68.9323 53.8439 68.4896 53.1824L67.8542 52.2814C67.6823 52.1772 67.5104 52.073 67.3386 51.9689C67.2344 51.9116 67.1354 51.8491 67.0313 51.7866ZM81.6198 62.6459C82.5156 62.2032 82.7604 61.2866 82.6563 60.4532C82.5938 59.9376 82.3906 59.448 82.1146 59.1355C81.9688 58.9741 81.8021 58.8595 81.625 58.8386C81.4688 58.823 81.3125 58.8959 81.1563 59.047C80.7969 59.3959 80.7188 59.9272 80.7969 60.5157C80.8906 61.198 81.1979 61.9584 81.6198 62.6459ZM60.2188 58.8855C60.2188 58.8803 60.2136 58.8803 60.2188 58.8803C60.2188 58.8855 60.2188 58.8855 60.2188 58.8855ZM60.25 60.9689C60.2448 60.9741 60.2396 60.9741 60.2396 60.9741C60.2292 60.9584 60.1875 60.9793 60.1875 60.9793C60.1875 60.9793 60.2136 60.9845 60.2292 60.9793C60.2865 60.9637 60.3542 60.9324 60.4427 60.8751C60.4844 60.8282 60.5625 60.823 60.6094 60.8699C60.6563 60.9168 60.6563 60.9897 60.6146 61.0366C60.5104 61.198 60.4115 61.2762 60.3281 61.3282C60.2761 61.3595 60.2188 61.3647 60.1719 61.3699C59.974 61.3907 59.8125 61.2084 59.7188 60.8699C59.6771 60.7293 59.6563 60.5522 59.6563 60.3543C59.6563 60.2501 59.6615 60.1355 59.6823 60.0262C59.7136 59.8647 59.7656 59.7084 59.8229 59.5626C59.8542 59.4845 59.8802 59.422 59.9167 59.3595C60.0313 59.1303 60.1302 58.9793 60.1927 58.9064C60.1979 58.9012 60.2136 58.8959 60.2188 58.8855C60.2188 58.8907 60.2188 58.8907 60.2188 58.8907C60.2188 58.8699 60.2396 58.8543 60.2604 58.8543C60.2813 58.8543 60.2969 58.8751 60.2969 58.8959L60.2865 58.948C60.2761 59.0418 60.3021 59.2293 60.3177 59.4897C60.3281 59.6043 60.3333 59.7189 60.3386 59.8439C60.3386 59.9428 60.3386 60.0366 60.3333 60.1355C60.3281 60.2293 60.3125 60.323 60.3021 60.4116C60.2813 60.5782 60.25 60.7293 60.2552 60.8491C60.2552 60.8855 60.2448 60.9168 60.2552 60.948C60.2552 60.9532 60.25 60.9689 60.25 60.9689ZM65.1927 55.5366C65.3438 55.5522 65.3802 55.5209 65.5365 55.5314C65.599 55.5314 65.625 55.547 65.6823 55.5522C65.75 55.573 65.7969 55.573 65.8542 55.6043C65.9063 55.6251 65.9531 55.6564 65.9896 55.6928C66.0625 55.7761 66.099 55.8647 66.1458 55.9636C66.2292 56.1355 66.2552 56.2605 66.3177 56.4376C66.3958 56.5053 66.4011 56.6199 66.3333 56.698C66.2656 56.7709 66.1511 56.7814 66.0729 56.7136C65.8854 56.6668 65.7604 56.6564 65.5781 56.5886C65.474 56.5522 65.3802 56.5262 65.2917 56.4584C65.25 56.4272 65.2188 56.3803 65.1875 56.3334C65.1563 56.2762 65.1458 56.2293 65.125 56.1668L65.0521 55.6668C65.0521 55.6512 65.0469 55.6251 65.0469 55.6251C65.0469 55.6251 65.0625 55.6251 65.0677 55.6355C65.0729 55.6564 65.0833 55.6512 65.099 55.6407C65.0886 55.6407 65.0781 55.6407 65.0677 55.6303C65.0365 55.6147 65.0313 55.573 65.0469 55.547C65.0365 55.5053 65.0833 55.5314 65.1042 55.5105C65.1198 55.4949 65.1875 55.5522 65.1875 55.5522L65.1927 55.5366ZM65.1302 55.6355C65.1354 55.6355 65.1406 55.6303 65.1406 55.6251C65.1354 55.6303 65.1354 55.6303 65.1302 55.6355ZM67 55.547C67 55.5366 67.0052 55.5209 67.0052 55.5314C67 55.5418 67.0209 55.5261 67.0365 55.5314C67.1354 55.5522 67.2292 55.5261 67.4792 55.5886C67.5677 55.6095 67.6406 55.6251 67.7292 55.6772C67.7761 55.7032 67.8177 55.7397 67.8542 55.7814C67.9271 55.8699 67.9688 55.9689 68.0156 56.073C68.1302 56.3334 68.1719 56.5053 68.1927 56.5939C68.2604 56.672 68.25 56.7866 68.1771 56.8543C68.099 56.922 67.9844 56.9116 67.9167 56.8334C67.849 56.8074 67.7396 56.7918 67.5573 56.7241C67.4792 56.6928 67.4115 56.6668 67.3229 56.6251C67.2552 56.5887 67.1823 56.5574 67.1198 56.5053C67.0781 56.4689 67.0469 56.4272 67.0208 56.3803C66.9636 56.2814 66.9479 56.2084 66.9271 56.1095C66.8438 55.7345 66.8542 55.5991 66.875 55.5626C66.8698 55.5314 66.8958 55.5001 66.9323 55.4949C66.9636 55.4949 66.9948 55.5157 67 55.547ZM62.6979 58.1876C62.7344 57.9532 62.7865 57.6928 62.8906 57.4689C63.0521 57.1303 63.3073 56.8491 63.7656 56.8178C63.8333 56.8074 63.8958 56.8491 63.9063 56.9116C63.9167 56.9793 63.875 57.0418 63.8125 57.0522C63.5938 57.1251 63.474 57.2709 63.4011 57.4428C63.3281 57.6095 63.3177 57.8074 63.3125 58.0053C63.3021 58.2449 63.3177 58.4793 63.3125 58.6616C63.3073 58.7866 63.2917 58.8907 63.2656 58.9689C63.224 59.0887 63.1615 59.172 63.0886 59.2189C63.0104 59.2657 62.9375 59.2918 62.8594 59.2814C62.8125 59.2762 62.7708 59.2709 62.7292 59.2501C62.6667 59.2137 62.599 59.1564 62.5729 59.1147C62.5313 59.0522 62.4948 58.9897 62.4636 58.9272C62.4219 58.8178 62.3906 58.7136 62.3542 58.6043C62.3229 58.5261 62.3073 58.448 62.25 58.3855C62.2188 58.3491 62.1927 58.3126 62.1563 58.2814C62.1198 58.2501 62.0833 58.2189 62.0469 58.1928C62.0313 58.1876 61.9375 58.1511 61.8438 58.1355C61.7917 58.1303 61.7448 58.1199 61.7083 58.1251C61.6875 58.1251 61.6667 58.1095 61.6719 58.1199C61.6771 58.1407 61.6667 58.1668 61.6458 58.172C61.625 58.1824 61.6042 58.172 61.5938 58.1511C61.5521 58.0834 61.6146 58.0209 61.724 57.9793C61.8646 57.9168 62.1042 57.9064 62.1406 57.9064C62.2083 57.9168 62.2708 57.9376 62.3386 57.9584C62.4063 57.9845 62.4636 58.0157 62.5261 58.047C62.5938 58.0886 62.6511 58.1355 62.6979 58.1876ZM84.5 62.323C84.4792 62.3178 84.4375 62.323 84.4375 62.3387C84.4531 62.4793 84.7604 62.1407 84.8386 61.9793C84.8542 61.9168 84.9219 61.8803 84.9844 61.8959C85.0469 61.9168 85.0833 61.9845 85.0625 62.047C85.0417 62.2345 84.9427 62.4428 84.8229 62.5991C84.7448 62.7032 84.6406 62.7605 84.5469 62.797C84.474 62.8282 84.4011 62.8178 84.3229 62.8074C84.1719 62.7814 84.0156 62.6459 83.8958 62.3126C83.8386 62.1095 83.8073 61.8959 83.8177 61.6772C83.8281 61.5314 83.8594 61.3803 83.8958 61.2397C83.9375 61.0991 83.9896 60.9689 84.0365 60.8334L84.2396 60.3491C84.2656 60.3022 84.3125 60.1824 84.3333 60.1564C84.3698 60.1095 84.4011 60.1147 84.4115 60.1355C84.4167 60.1407 84.4323 60.1512 84.4271 60.172C84.4271 60.1824 84.4271 60.1928 84.4219 60.198C84.4271 60.2345 84.4375 60.3439 84.4427 60.3907L84.4844 60.9064C84.4844 61.0418 84.4948 61.1772 84.4896 61.323C84.4896 61.4428 84.4896 61.5678 84.4896 61.6876C84.4844 61.7553 84.4792 61.823 84.4792 61.8907C84.474 61.9897 84.4688 62.0834 84.4844 62.1824C84.4896 62.2241 84.4896 62.2657 84.5 62.297C84.5 62.3022 84.5 62.3126 84.5 62.323ZM81.9844 67.7814C81.9896 67.7814 82.0469 67.7605 82.0729 67.7345C82.1198 67.6772 82.1667 67.6199 82.1979 67.5574C82.2188 67.4949 82.2813 67.4637 82.3438 67.4845C82.4063 67.5001 82.4427 67.5678 82.4219 67.6303C82.4115 67.7345 82.3802 67.8491 82.3281 67.9584C82.2865 68.047 82.224 68.1147 82.1511 68.172C82.0417 68.2605 81.9375 68.2605 81.8438 68.2553C81.6979 68.2501 81.5833 68.1355 81.4844 67.9637C81.3854 67.8022 81.3281 67.547 81.3021 67.323C81.2969 67.2501 81.2917 67.1824 81.2969 67.1251C81.2969 67.0366 81.3073 66.9637 81.3073 66.9324C81.3177 66.8543 81.3281 66.7762 81.3438 66.7032C81.3698 66.5887 81.3906 66.4793 81.4271 66.3699C81.4896 66.1772 81.5573 66.0157 81.625 65.8282C81.6302 65.8178 81.6458 65.7814 81.6511 65.7762C81.6511 65.7709 81.6511 65.7605 81.6563 65.7501C81.6615 65.7345 81.6719 65.7345 81.6771 65.7345C81.6979 65.7189 81.7136 65.7293 81.7344 65.7657C81.7396 65.7762 81.7448 65.8178 81.75 65.8387C81.7865 66.0314 81.8333 66.198 81.8646 66.3959C81.8958 66.5782 81.9167 66.7501 81.9479 66.9324C81.9479 66.9741 81.9636 67.0678 81.9636 67.1876C81.9688 67.2657 81.9636 67.3491 81.9636 67.4324C81.9636 67.5262 81.9636 67.6199 81.974 67.7032C81.9792 67.7293 81.9792 67.7553 81.9844 67.7814ZM78.7813 69.0366C78.7813 69.0418 78.7865 69.0418 78.7865 69.047C78.7865 69.0418 78.7761 69.0366 78.7813 69.0366ZM77.6094 67.5053C77.5938 67.5157 77.5781 67.5157 77.5625 67.5105C77.5469 67.4949 77.5365 67.4741 77.5521 67.4532C77.5625 67.4168 77.6458 67.4116 77.7552 67.4532C77.9583 67.5314 78.2917 67.7345 78.3177 67.7553C78.5417 67.9168 78.7761 68.0834 78.9792 68.2866C79.0052 68.3074 79.0313 68.3387 79.0573 68.3647C79.0677 68.2866 79.0781 68.2084 79.0938 68.1303C79.1615 67.7762 79.2656 67.422 79.4375 67.198C79.6458 66.9324 79.9219 66.797 80.3229 67.0262C80.3802 67.0522 80.4063 67.1251 80.3802 67.1824C80.3542 67.2449 80.2813 67.2709 80.224 67.2397C80.0677 67.1876 79.9531 67.2084 79.8698 67.2709C79.7761 67.3387 79.7344 67.4637 79.6979 67.6095C79.6563 67.7762 79.6458 67.9741 79.6354 68.1668C79.6198 68.5314 79.6406 68.8855 79.6406 69.073C79.6406 69.1043 79.6406 69.3699 79.6094 69.4689C79.5417 69.6616 79.3906 69.7084 79.2865 69.7137C79.2188 69.7189 79.0469 69.698 78.9427 69.5053C78.9115 69.448 78.8698 69.3387 78.8386 69.2397C78.8125 69.1564 78.8177 69.0314 78.7813 69.0366C78.724 68.8907 78.6511 68.7553 78.5625 68.6251C78.4167 68.4012 78.2604 68.1928 78.0938 67.9897C78.0729 67.9637 77.7761 67.6147 77.6354 67.5262C77.625 67.5209 77.6146 67.5105 77.6094 67.5053ZM77.6094 67.5053C77.6094 67.5105 77.6042 67.5105 77.6042 67.5053H77.6094ZM72.0365 60.4272C72.0417 60.4272 72.0417 60.4324 72.0417 60.4324C72.0625 60.4428 72.0677 60.4689 72.0521 60.4845C72.0521 60.4897 72.0313 60.5157 71.9948 60.5001C71.9896 60.4949 71.9792 60.4897 71.9636 60.4793C71.9427 60.4689 71.9167 60.4532 71.8906 60.4376C71.7969 60.5887 71.6927 60.7397 71.5729 60.8803C71.3646 61.1303 71.1198 61.3699 70.8594 61.5834C70.4636 61.9064 70.0365 62.1876 69.6615 62.4272C69.6094 62.4689 69.5365 62.4584 69.4948 62.4064C69.4531 62.3543 69.4636 62.2814 69.5208 62.2397C70.0521 61.7762 70.6875 61.198 71.125 60.5418C71.224 60.3959 71.3073 60.2397 71.3802 60.0834C71.1615 59.8907 70.9375 59.6303 70.8333 59.3699C70.6875 59.0157 70.7604 58.6668 71.1406 58.3907C71.25 58.3178 71.3594 58.2814 71.474 58.2709C71.5677 58.2605 71.6615 58.2814 71.7604 58.323C71.9531 58.4116 72.0886 58.5626 72.1771 58.7397C72.25 58.8959 72.2813 59.0834 72.2761 59.2657C72.2604 59.4532 72.2344 59.6355 72.1771 59.8074C72.1198 59.9949 72.0417 60.172 71.9479 60.3387C71.974 60.3647 72 60.3907 72.0156 60.4064C72.0208 60.4116 72.0261 60.4168 72.0313 60.422C72.0261 60.422 72.0261 60.422 72.0208 60.4272C72.0261 60.4272 72.0313 60.4272 72.0313 60.4272C72.0365 60.4272 72.0365 60.4324 72.0365 60.4272ZM72.0313 60.422C72.0417 60.4168 72.0469 60.4168 72.0365 60.4272C72.0365 60.4272 72.0365 60.4272 72.0313 60.4272V60.422ZM71.4792 58.8699C71.4844 58.8751 71.5 58.8699 71.4948 58.8647C71.4948 58.8439 71.4583 58.8699 71.4375 58.8803C71.2083 58.9897 71.2188 59.198 71.2969 59.4012C71.3438 59.5418 71.4167 59.6772 71.4948 59.8022C71.5 59.7918 71.5052 59.7762 71.5052 59.7657C71.5625 59.5939 71.599 59.4168 71.6042 59.2293C71.6094 59.1511 71.6094 59.073 71.5781 59.0053C71.5573 58.9532 71.5313 58.9012 71.4792 58.8699ZM71.724 61.6199C71.724 61.6095 71.7292 61.5991 71.7396 61.5887C71.7552 61.5782 71.7813 61.5782 71.7969 61.5939C71.8021 61.5991 71.8073 61.6147 71.8073 61.6459C71.8021 61.672 71.7917 61.7449 71.7865 61.7501C71.75 61.9689 71.6875 62.3022 71.6875 62.6043C71.6875 62.7241 71.7031 62.8334 71.7865 62.9012C71.8073 62.922 71.8333 62.922 71.8594 62.922C71.9167 62.922 71.974 62.9168 72.0261 62.8907C72.1458 62.8334 72.2656 62.7397 72.2708 62.5991C72.2761 62.4168 72.1771 62.2084 71.8958 61.9793C71.8386 61.9428 71.8229 61.8699 71.8542 61.8126C71.8906 61.7605 71.9636 61.7397 72.0208 61.7762C72.7188 62.0834 72.8229 62.5522 72.7396 62.8959C72.6615 63.2293 72.3542 63.4897 72.0417 63.5678C71.7761 63.6303 71.5 63.5522 71.3073 63.3439C71.1719 63.1616 71.099 62.9428 71.1458 62.698C71.1719 62.547 71.224 62.3907 71.3073 62.2449C71.4219 62.0262 71.5677 61.8439 71.6615 61.7032C71.6667 61.698 71.7188 61.6564 71.724 61.6355C71.7292 61.6355 71.7292 61.6355 71.7292 61.6407C71.7292 61.6355 71.7292 61.6355 71.7292 61.6303C71.7292 61.6303 71.7292 61.6251 71.724 61.6199ZM71.724 61.6355C71.7188 61.6251 71.7136 61.6147 71.724 61.6199C71.724 61.6251 71.724 61.6303 71.7292 61.6303C71.7292 61.6303 71.7292 61.6355 71.724 61.6355ZM67.3021 63.6355C67.2656 63.5834 67.2188 63.5314 67.1667 63.4845C67.1302 63.4532 67.0886 63.4428 67.0417 63.4428C66.9896 63.448 66.974 63.5001 66.9531 63.5418C66.9219 63.6095 66.9167 63.698 66.9115 63.7657C66.8854 63.9428 66.9011 64.1147 66.9063 64.2918C66.9115 64.4793 66.9271 64.6668 66.9271 64.8543C66.9271 65.0262 66.9115 65.198 66.8854 65.3751C66.875 65.4376 66.8281 65.6303 66.7448 65.698C66.6615 65.7814 66.5625 65.8282 66.4427 65.8022C66.3281 65.7762 66.1979 65.7084 66.1042 65.5522C66.0469 65.4637 65.9844 65.3334 65.9323 65.1876C65.8802 65.0366 65.8281 64.8699 65.7656 64.7084C65.7083 64.5574 65.6458 64.4116 65.5573 64.3126C65.4948 64.2501 65.4323 64.2032 65.349 64.198C65.2813 64.2032 65.2292 64.1512 65.224 64.0834C65.2188 64.0209 65.2656 63.9637 65.3333 63.9584C65.5729 63.9168 65.7761 64.0522 65.9636 64.2553C66.0729 64.3803 66.1719 64.5366 66.2656 64.698C66.2708 64.5782 66.2813 64.4584 66.2969 64.3439C66.3281 64.1043 66.3854 63.8751 66.4792 63.6459C66.5365 63.5209 66.6094 63.3647 66.7292 63.2762C66.8281 63.2032 66.9375 63.1512 67.0781 63.1928C67.1563 63.2189 67.2292 63.2605 67.2761 63.3334C67.3281 63.4168 67.3594 63.5157 67.3802 63.5991C67.3802 63.6043 67.3854 63.6199 67.3854 63.6251C67.3854 63.6459 67.3802 63.6564 67.375 63.6616C67.3646 63.6668 67.3386 63.6928 67.3177 63.6616C67.3125 63.6564 67.3073 63.6512 67.3073 63.6407C67.3073 63.6355 67.3073 63.6355 67.3073 63.6303C67.3073 63.6355 67.3021 63.6355 67.3021 63.6355ZM67.3073 63.6407C67.3021 63.6459 67.3021 63.6407 67.3021 63.6355C67.3073 63.6355 67.3073 63.6407 67.3073 63.6407ZM67.3073 63.6251C67.3073 63.6147 67.3125 63.6095 67.3177 63.6043C67.3177 63.5991 67.3229 63.5991 67.3281 63.5939C67.3125 63.5991 67.3073 63.6043 67.3073 63.6251ZM63.6719 44.198C63.6719 44.198 63.6719 44.2032 63.6719 44.2084C63.6719 44.297 63.7031 44.5053 63.7031 44.5209C63.7136 44.5991 63.7344 44.7501 63.7448 44.9584C63.7552 45.0887 63.7656 45.2293 63.7656 45.3803C63.7656 45.4897 63.7604 45.6043 63.7552 45.7189C63.7448 45.8907 63.7188 46.0522 63.7396 46.1772C63.7448 46.2137 63.7396 46.2501 63.75 46.2762C63.7552 46.2866 63.724 46.3022 63.7344 46.3022C63.7396 46.3074 63.7396 46.3178 63.7448 46.3178C63.7761 46.3126 63.8073 46.3022 63.8333 46.2866C63.9011 46.2345 63.9636 46.1772 64.0104 46.1303C64.0417 46.073 64.1146 46.0522 64.1719 46.0887C64.2292 46.1199 64.2448 46.1928 64.2136 46.2501C64.1719 46.3647 64.0833 46.5209 63.974 46.6251C63.9011 46.698 63.8073 46.7189 63.7083 46.7293C63.5104 46.7501 63.3646 46.6199 63.25 46.4064C63.1927 46.3022 63.1563 46.172 63.1302 46.0209C63.1042 45.8959 63.0938 45.7605 63.0938 45.6199C63.0938 45.5366 63.1042 45.4532 63.1146 45.3647C63.1458 45.2032 63.1875 45.047 63.2396 44.9064C63.3125 44.698 63.3854 44.5522 63.4219 44.4741C63.4271 44.4584 63.5208 44.2553 63.5729 44.1772C63.6094 44.1303 63.6354 44.1199 63.6458 44.1251C63.6719 44.1303 63.6823 44.1512 63.6771 44.172C63.6771 44.1824 63.6667 44.198 63.6719 44.198ZM66.75 45.5053C66.7552 45.5053 66.9063 45.4012 67.0052 45.3022C67.0417 45.2501 67.1146 45.2345 67.1667 45.2709C67.224 45.3074 67.2396 45.3803 67.1979 45.4376C67.0886 45.6824 66.9688 45.8074 66.875 45.8751C66.7917 45.9324 66.7136 45.9324 66.6406 45.9324C66.5 45.9324 66.3802 45.823 66.2761 45.6512C66.2083 45.5418 66.1615 45.3959 66.1198 45.2293C66.0886 45.1043 66.0677 44.9637 66.0625 44.8334C66.0573 44.7397 66.0625 44.6512 66.0677 44.5678C66.0781 44.4532 66.099 44.3647 66.1094 44.3022C66.1563 44.1564 66.1927 44.0157 66.25 43.8751C66.2865 43.7814 66.3281 43.6928 66.375 43.5991L66.5052 43.3543C66.5104 43.3439 66.5261 43.3126 66.5313 43.297C66.5313 43.297 66.5313 43.297 66.5313 43.2918C66.5313 43.2866 66.5365 43.2866 66.5417 43.2814C66.5521 43.2762 66.5573 43.2762 66.5677 43.2762C66.5886 43.2709 66.6094 43.2814 66.6146 43.3126C66.6146 43.3282 66.6198 43.3647 66.625 43.3751L66.6458 43.6564L66.7031 44.3647C66.7031 44.4376 66.724 44.5678 66.7292 44.7241C66.7292 44.7918 66.7292 44.8647 66.7292 44.9428C66.724 45.0522 66.7188 45.1616 66.7292 45.2605C66.7344 45.3334 66.7292 45.4012 66.75 45.4584C66.75 45.4689 66.75 45.5053 66.75 45.5053ZM67.224 48.9689C67.2083 48.9168 67.1563 48.4272 67.1146 48.2657C67.0781 48.1095 67.0313 47.9532 66.9427 47.823C66.8854 47.7241 66.8177 47.6251 66.7396 47.5366C66.6667 47.4428 66.5886 47.3595 66.4948 47.2814C66.4688 47.2605 66.4427 47.2397 66.4167 47.2241C66.3906 47.2084 66.3594 47.1928 66.3281 47.1824C66.3021 47.172 66.224 47.1668 66.2083 47.1564C66.1927 47.1459 66.1823 47.1355 66.1823 47.1199C66.1823 47.1095 66.1771 47.0887 66.2083 47.073C66.2188 47.0678 66.2344 47.0678 66.25 47.073C66.2708 47.073 66.3281 47.0626 66.3542 47.0626C66.3958 47.0626 66.4323 47.0678 66.474 47.0782C66.5156 47.0887 66.5521 47.0991 66.5938 47.1147C66.7188 47.1668 66.8333 47.2293 66.9479 47.3074C67.0625 47.3803 67.1615 47.4689 67.2604 47.5574C67.3021 47.5939 67.3386 47.6303 67.375 47.6772C67.4063 47.5314 67.4375 47.3491 67.4948 47.1616C67.5938 46.8022 67.7448 46.4168 67.9636 46.1824C68.1719 45.9532 68.4323 45.8282 68.7656 45.9584C68.8281 45.9741 68.8646 46.0418 68.849 46.1043C68.8333 46.1668 68.7656 46.2032 68.7031 46.1876C68.4219 46.1355 68.2761 46.3334 68.1719 46.5887C68.099 46.7814 68.0625 47.0053 68.0313 47.2241C67.9948 47.5001 67.9792 47.7553 67.9688 47.9116L67.9063 48.5834C67.9063 48.5991 67.8802 48.8022 67.8646 48.8803C67.8021 49.1928 67.474 49.1772 67.4427 49.172C67.375 49.1459 67.2708 49.0991 67.224 48.9689ZM71.8542 43.5678C71.9271 43.5262 72.0104 43.4532 72.1146 43.3178C72.1458 43.2605 72.2188 43.2397 72.2761 43.2709C72.3333 43.3022 72.3542 43.3751 72.3281 43.4324C72.2448 43.6772 72.1511 43.823 72.0729 43.9168C72.0156 43.9793 71.9479 44.0053 71.8906 44.0262C71.7083 44.1043 71.5313 44.0053 71.3698 43.797C71.3073 43.7137 71.25 43.6043 71.2031 43.4689C71.1511 43.3334 71.1094 43.1772 71.0938 43.0105C71.0834 42.9116 71.0834 42.8126 71.0938 42.7084C71.1042 42.547 71.1302 42.4012 71.1667 42.2605C71.2656 41.8959 71.3959 41.6459 71.4948 41.6199C71.5156 41.6095 71.5417 41.6147 71.5521 41.6303C71.5625 41.6512 71.5573 41.6772 71.5365 41.6876C71.5156 41.7136 71.5313 41.7762 71.5417 41.8647C71.5521 41.9949 71.5938 42.1459 71.6302 42.3387C71.6615 42.4689 71.6927 42.5991 71.7188 42.7397C71.7344 42.823 71.7552 42.9116 71.7656 42.9949C71.7761 43.1043 71.7813 43.2032 71.7969 43.297C71.8073 43.3647 71.8125 43.422 71.8281 43.4741C71.8386 43.5053 71.8386 43.5314 71.849 43.5522C71.8542 43.5574 71.849 43.5626 71.849 43.5678C71.8386 43.5626 71.7865 43.5678 71.7865 43.5887C71.7865 43.5887 71.7865 43.5991 71.7917 43.5991C71.8125 43.5887 71.8281 43.5834 71.849 43.5678C71.849 43.573 71.849 43.5782 71.849 43.5782C71.8542 43.573 71.8542 43.573 71.8542 43.5678ZM71.8854 47.6616C71.875 47.6668 71.8646 47.672 71.849 47.6668C71.8281 47.6616 71.8177 47.6407 71.8229 47.6199C71.8229 47.5991 71.8386 47.5887 71.8594 47.5782C71.8802 47.5626 71.9271 47.5626 71.9375 47.5574C72.0417 47.5418 72.1406 47.5522 72.25 47.5678C72.4063 47.5939 72.5469 47.6564 72.6823 47.7189C72.7917 47.7709 72.8958 47.8178 73 47.8803C73.0677 47.9168 73.125 47.9584 73.1823 48.0053C73.2344 47.7241 73.2969 47.4324 73.4271 47.1772C73.5521 46.9376 73.7136 46.7345 73.9583 46.5991C74.0104 46.5626 74.0833 46.5782 74.1198 46.6303C74.1615 46.6824 74.1458 46.7553 74.0938 46.797C73.9323 46.9376 73.8542 47.1199 73.8021 47.3178C73.724 47.6303 73.7396 47.9793 73.75 48.2918C73.75 48.323 73.7708 48.5314 73.7708 48.7084C73.7708 48.8022 73.7604 48.8855 73.75 48.9428C73.7083 49.172 73.5417 49.2449 73.4583 49.2605C73.3802 49.2762 73.3021 49.2657 73.2292 49.2241C73.1875 49.2032 73.1406 49.1668 73.099 49.1095C73.0677 49.0626 73.0365 48.9897 73.0313 48.9689C72.9948 48.8439 72.9583 48.7189 72.9063 48.5939C72.8802 48.5314 72.8594 48.4637 72.8177 48.4064C72.7813 48.3595 72.7396 48.3074 72.6979 48.2605C72.6198 48.1824 72.5469 48.1043 72.4688 48.0314C72.375 47.9428 72.2813 47.8543 72.1667 47.7814C72.0938 47.7345 72.0208 47.6928 71.9375 47.672C71.9271 47.672 71.9063 47.6564 71.8906 47.6564C71.8906 47.6512 71.8958 47.6512 71.8958 47.6512C71.8906 47.6512 71.8906 47.6512 71.8906 47.6564C71.8854 47.6564 71.8854 47.6564 71.8854 47.6616ZM71.8906 47.6564C71.8906 47.6616 71.8854 47.6668 71.8854 47.6616C71.8854 47.6564 71.8906 47.6564 71.8906 47.6564ZM76.9688 49.2657C76.974 49.2814 76.9844 49.3126 76.9844 49.3178L77.0261 49.6303L77.1146 50.3334C77.1198 50.3803 77.1302 50.4741 77.1354 50.5886C77.1406 50.6668 77.1458 50.7501 77.1458 50.8386C77.1458 50.9897 77.1354 51.1564 77.1458 51.3126C77.1563 51.4064 77.1563 51.5001 77.1823 51.5678C77.1875 51.5939 77.1823 51.6147 77.1927 51.6303C77.1979 51.6355 77.1823 51.6511 77.1927 51.6511C77.2552 51.6511 77.3073 51.6407 77.349 51.6043C77.4219 51.5418 77.4844 51.4637 77.5365 51.3907C77.5625 51.3334 77.6354 51.3074 77.6927 51.3386C77.7552 51.3647 77.7761 51.4376 77.75 51.4949C77.7083 51.6303 77.6511 51.7709 77.5625 51.8855C77.4844 51.9845 77.375 52.0418 77.2396 52.0782C76.9583 52.1512 76.7448 51.948 76.6094 51.6043C76.5365 51.4116 76.4896 51.1668 76.4792 50.9324C76.474 50.8439 76.4792 50.7553 76.4844 50.6772C76.5 50.5053 76.5313 50.3699 76.5417 50.3074C76.5677 50.1824 76.5938 50.0678 76.625 49.948C76.6615 49.8282 76.7031 49.7189 76.7448 49.5991L76.8646 49.297C76.8646 49.2918 76.8854 49.2345 76.8958 49.2241C76.9271 49.1824 76.9531 49.1876 76.9688 49.2084C76.9688 49.2084 76.9792 49.2136 76.9792 49.2293C76.9792 49.2397 76.9792 49.2449 76.9792 49.2553C76.974 49.2553 76.974 49.2553 76.974 49.2553C76.974 49.2553 76.9688 49.2605 76.9688 49.2657ZM76.9792 49.2553C76.9844 49.2553 76.9792 49.2605 76.9688 49.2657C76.974 49.2605 76.974 49.2605 76.9792 49.2553ZM79.7917 46.2345C79.7708 46.2345 79.7396 46.2449 79.7396 46.2605C79.7448 46.2709 79.7656 46.2657 79.7761 46.2605C79.8542 46.2189 79.9479 46.1459 80.0625 46.0053C80.0886 45.948 80.1615 45.9272 80.2188 45.9584C80.2761 45.9897 80.3021 46.0574 80.2708 46.1147C80.2031 46.3439 80.1146 46.4845 80.0417 46.5782C79.9896 46.6355 79.9375 46.6616 79.8854 46.6876C79.8229 46.7241 79.7552 46.7189 79.6927 46.7189C79.5781 46.7189 79.4688 46.6459 79.3594 46.5314C79.2865 46.4584 79.224 46.3543 79.1667 46.2293C79.1094 46.1043 79.0573 45.9584 79.0313 45.8022C79.0156 45.7084 79.0104 45.6147 79.0104 45.5157C79.0156 45.3647 79.0313 45.2241 79.0573 45.0939C79.1354 44.7397 79.2396 44.5001 79.3125 44.4637C79.3281 44.448 79.3542 44.4532 79.3698 44.4689C79.3802 44.4845 79.3802 44.5105 79.3646 44.5262C79.349 44.5522 79.375 44.6043 79.3958 44.6928C79.4219 44.8178 79.474 44.9584 79.5313 45.1355C79.5677 45.2553 79.6094 45.3751 79.6406 45.5001C79.6615 45.5782 79.6823 45.6616 79.6979 45.7397C79.7188 45.8334 79.7292 45.9272 79.7448 46.0105C79.7604 46.073 79.7656 46.1251 79.7865 46.1668C79.7917 46.1876 79.7917 46.2189 79.7917 46.2345ZM79.7917 46.2345C79.8021 46.2345 79.8073 46.2345 79.8021 46.2397C79.7969 46.2449 79.7917 46.2397 79.7917 46.2345ZM64 40.7137C64.0261 40.6876 64.0521 40.6616 64.0729 40.6459L64.5573 40.3126C64.8073 40.1511 65.0469 39.9897 65.3021 39.8387C65.474 39.7345 65.6406 39.6355 65.8177 39.5418C66.0156 39.4376 66.2084 39.3282 66.4115 39.2345C66.6146 39.1355 66.8177 39.0522 67.0261 38.9689C67.4115 38.8126 67.8021 38.672 68.1927 38.5366C68.7813 38.3282 69.3698 38.1355 69.9583 37.922C70.0156 37.8959 70.0886 37.922 70.1146 37.9793C70.1406 38.0366 70.1146 38.1095 70.0573 38.1355C69.6615 38.3543 69.2761 38.5678 68.8802 38.7762C68.4844 38.9793 68.0886 39.1824 67.6875 39.3751C67.4219 39.5053 67.1563 39.6303 66.8854 39.7501C66.6146 39.8647 66.3386 39.9689 66.0677 40.0782L64.6823 40.573L64.1354 40.7657C64.0938 40.7814 63.9948 40.8282 63.9636 40.8334C63.9115 40.8491 63.8958 40.8074 63.8958 40.797C63.8958 40.7918 63.8958 40.7709 63.9219 40.7605C63.9219 40.7553 63.9271 40.7553 63.9271 40.7553C63.9323 40.7657 63.9427 40.7605 63.9583 40.7501C63.9636 40.7501 63.974 40.7553 63.9792 40.7657C63.9896 40.7762 63.9896 40.797 63.9844 40.8074C64.0156 40.7657 64.0156 40.7345 64 40.7137ZM63.9271 40.7553C63.8906 40.6928 63.9688 40.6824 64 40.7137C63.9844 40.7293 63.9688 40.7397 63.9583 40.7501C63.9479 40.7501 63.9375 40.7501 63.9271 40.7553ZM81.6198 50.8491C81.1615 51.1355 80.6771 51.3803 80.1979 51.6251C80.1406 51.6564 80.0677 51.6407 80.0365 51.5834C80.0052 51.5262 80.0209 51.4532 80.0781 51.422C80.5729 51.0782 81.0729 50.7241 81.5313 50.3282C81.5261 50.3178 81.5261 50.3074 81.5208 50.297C81.4011 49.5366 81.2656 48.7866 81.1354 48.0314C81.0521 47.5314 80.9688 47.0262 80.8906 46.5209C80.8229 46.1043 80.7604 45.6824 80.7031 45.2605C80.6511 44.8387 80.6042 44.4168 80.5573 43.9949C80.4896 43.323 80.3177 42.5574 80.2708 41.823C80.25 41.4793 80.2552 41.1407 80.3073 40.823C80.3177 40.7553 80.3386 40.6251 80.3958 40.5574C80.4375 40.5053 80.4844 40.4584 80.5521 40.4428C80.6615 40.4116 80.8802 40.4376 81.0313 40.6876C81.2448 41.0366 81.5156 41.8543 81.7083 42.3543C81.7604 42.4897 81.8021 42.5991 81.8386 42.6668C81.849 42.6824 81.849 42.7032 81.8542 42.7032C81.8906 42.7137 81.9115 42.7449 81.9011 42.7814C81.8958 42.8126 81.8646 42.8334 81.8281 42.8282C81.7813 42.8178 81.6615 42.672 81.5261 42.4428C81.3542 42.1564 81.125 41.7397 80.9219 41.4116C80.9375 41.5157 80.9583 41.6251 80.9792 41.7345C81.1198 42.4532 81.3594 43.198 81.4948 43.8543C81.5729 44.2762 81.6563 44.6928 81.724 45.1147C81.7917 45.5366 81.849 45.9584 81.9011 46.3803C81.9688 46.8855 82.0208 47.3959 82.0729 47.9064C82.1354 48.4793 82.1823 49.0574 82.2344 49.6303C82.4479 49.3803 82.6406 49.1095 82.7917 48.8022C82.8229 48.7397 82.8594 48.672 82.8958 48.5939C82.8646 48.5626 82.8386 48.5262 82.8125 48.4897C82.6875 48.3022 82.5313 48.0262 82.4844 47.7553C82.4427 47.5157 82.5052 47.297 82.6823 47.1251C82.7708 47.0418 82.8698 47.0053 82.9688 46.9949C83.0729 46.9793 83.1823 47.0157 83.2917 47.0782C83.599 47.2709 83.7136 47.5887 83.7188 47.9376C83.724 48.1459 83.6823 48.3647 83.6146 48.5678C83.5521 48.7762 83.4583 48.9689 83.375 49.1199C83.0833 49.6095 82.7188 50.0209 82.2917 50.3699C82.349 51.0834 82.4167 51.8022 82.4375 52.5157C82.4479 53.0418 82.4375 53.5626 82.3802 54.0834C82.375 54.1824 82.2865 54.2605 82.1875 54.2553C82.0833 54.2501 82.0052 54.1616 82.0156 54.0626C82.0156 53.5574 81.9688 53.0574 81.9011 52.5574C81.8281 51.9845 81.724 51.4168 81.6198 50.8491ZM82.9792 48.3959C82.9844 48.3803 82.9896 48.3699 82.9948 48.3543C83.0469 48.2137 83.0938 48.0626 83.1094 47.9168C83.125 47.7605 83.1198 47.5991 82.9896 47.4949C82.9844 47.4897 83.0052 47.4689 82.9948 47.4689C82.9844 47.4741 82.9792 47.4689 82.9688 47.4741C82.849 47.5522 82.8229 47.6928 82.8386 47.8387C82.8542 48.0366 82.9219 48.2449 82.9792 48.3959ZM80.9063 55.2814C80.875 55.2814 80.8542 55.2605 80.8438 55.2345C80.8386 55.2032 80.8594 55.1668 80.8906 55.1564C80.9115 55.1147 80.9479 55.1459 81.1511 55.1303C81.3386 55.1147 81.4792 55.1303 81.5313 55.1303C81.5833 55.1511 81.6406 55.1616 81.6875 55.198C81.7344 55.2345 81.7552 55.2866 81.7865 55.3386C81.8229 55.4116 81.8438 55.4636 81.8698 55.547C81.9115 55.6876 81.9271 55.7553 81.9531 55.8959C82.0209 55.9689 82.0156 56.0886 81.9427 56.1564C81.8698 56.2241 81.75 56.2241 81.6823 56.1459C81.5573 56.1199 81.4896 56.1303 81.3646 56.0991C81.2604 56.073 81.1823 56.0678 81.0833 56.0261C81.0521 56.0053 81.0156 55.9897 80.9896 55.9584C80.9583 55.9272 80.9531 55.8907 80.9323 55.8491C80.9271 55.8387 80.9011 55.8282 80.8958 55.7918C80.8854 55.7397 80.8802 55.7084 80.8698 55.6199C80.8646 55.5157 80.8802 55.4949 80.875 55.4011C80.875 55.3439 80.8906 55.3439 80.8854 55.3074C80.8854 55.297 80.8958 55.2918 80.8906 55.2918C80.8802 55.297 80.8906 55.2866 80.9063 55.2814ZM82.8386 55.3439C82.8594 55.3334 82.875 55.3282 82.8542 55.3074C82.849 55.297 82.875 55.2762 82.849 55.2657L82.8438 55.2501C82.8438 55.2501 82.9375 55.2501 82.9531 55.2501C83.0677 55.2605 83.0938 55.2501 83.2031 55.2657C83.2969 55.2814 83.3386 55.3022 83.4323 55.323C83.4896 55.3543 83.5521 55.3699 83.599 55.4168C83.6458 55.4584 83.6719 55.5209 83.7031 55.5782C83.7448 55.6616 83.7708 55.7293 83.7969 55.8178C83.8438 55.9689 83.8646 56.0626 83.8906 56.2189C83.9531 56.297 83.9427 56.4116 83.8646 56.4741C83.7865 56.5418 83.6667 56.5261 83.6042 56.448C83.474 56.4011 83.3854 56.3907 83.25 56.3386C83.1354 56.2918 83.0365 56.2657 82.9323 56.198C82.8906 56.172 82.8542 56.1355 82.8229 56.0991C82.7917 56.0522 82.7813 56.0053 82.7604 55.9532C82.7448 55.8647 82.7292 55.823 82.724 55.7293C82.7083 55.6147 82.7136 55.5886 82.7083 55.4689C82.7136 55.4532 82.7083 55.3855 82.7136 55.3491C82.7188 55.3178 82.6979 55.3178 82.6979 55.3074C82.7136 55.2918 82.6927 55.2814 82.7031 55.2709C82.7448 55.2501 82.7292 55.1876 82.7708 55.2189C82.7761 55.2241 82.7865 55.2084 82.7969 55.2189C82.8021 55.2293 82.8177 55.2136 82.8229 55.2345C82.8229 55.2397 82.8333 55.2397 82.8333 55.2605C82.8542 55.2814 82.8594 55.3178 82.8386 55.3439ZM82.7969 55.3699C82.7761 55.3699 82.7604 55.3647 82.7448 55.3491C82.7344 55.3491 82.7344 55.3543 82.7344 55.3543C82.7344 55.3751 82.7448 55.3699 82.75 55.3699C82.7761 55.3595 82.7865 55.3855 82.7917 55.3751C82.7917 55.3699 82.7917 55.3699 82.7969 55.3699ZM88.8021 51.5209C88.8073 51.5001 88.8281 51.4845 88.849 51.4897C88.8698 51.4949 88.8854 51.5209 88.8802 51.5418C88.8802 51.7293 88.9271 51.9272 88.974 52.1668C88.9896 52.2657 89.0104 52.3647 89.0313 52.4689C89.0469 52.573 89.0625 52.6668 89.0729 52.7709C89.0886 52.8751 89.0938 52.9845 89.0938 53.0886C89.1042 53.2605 89.0938 53.422 89.1094 53.5574C89.1146 53.6407 89.125 53.7397 89.1667 53.8178C89.1823 53.8439 89.1875 53.8751 89.2136 53.8959C89.2552 53.9324 89.3073 53.9636 89.3854 53.9272C89.4375 53.8907 89.5104 53.9012 89.5521 53.9532C89.5886 54.0053 89.5729 54.0834 89.5209 54.1199C89.3542 54.2918 89.1823 54.2709 89.0313 54.2136C88.8229 54.1407 88.6719 53.8907 88.5834 53.6772C88.5209 53.4949 88.4531 53.2709 88.4271 53.0157C88.4167 52.948 88.4167 52.8699 88.4167 52.797C88.4219 52.7241 88.4271 52.6512 88.4375 52.5782C88.4584 52.4272 88.4844 52.2814 88.5313 52.1407C88.6042 51.8907 88.6979 51.6928 88.8021 51.5209ZM83.3958 51.4636C83.375 51.4584 83.3646 51.4376 83.3698 51.4168C83.375 51.3959 83.3958 51.3803 83.4167 51.3855C83.4688 51.3855 83.4844 51.422 83.4948 51.4689C83.5156 51.5262 83.4896 51.6355 83.5 51.7032C83.5208 51.8334 83.5417 51.948 83.5625 52.073C83.5781 52.1928 83.5938 52.3126 83.6094 52.4324C83.6146 52.5105 83.625 52.5887 83.6302 52.6668C83.6302 52.7449 83.6302 52.8178 83.6354 52.8959C83.6354 52.9741 83.6406 53.0887 83.6615 53.2084C83.6771 53.323 83.6875 53.4376 83.7188 53.5366C83.7396 53.5991 83.7448 53.6564 83.7761 53.698C83.7865 53.7084 83.75 53.7293 83.7604 53.7293C83.7656 53.7293 83.7708 53.7397 83.7761 53.7345C83.8333 53.7136 83.8958 53.672 83.9688 53.5834C84 53.5262 84.0729 53.5053 84.1302 53.5366C84.1875 53.573 84.2083 53.6407 84.1771 53.698C84.0886 53.948 83.9583 54.047 83.8542 54.0939C83.7031 54.1616 83.5573 54.0939 83.4063 53.9584C83.2656 53.8282 83.1458 53.5886 83.0625 53.3543C83 53.1824 82.9792 53.0157 82.9688 52.9064C82.9688 52.8387 82.9688 52.7709 82.974 52.7032C82.9844 52.5991 83 52.5001 83.0208 52.4011C83.0469 52.2761 83.0781 52.1564 83.1198 52.0366C83.1615 51.9116 83.2031 51.8022 83.2448 51.6824C83.2552 51.6564 83.2656 51.6251 83.2813 51.5991C83.3125 51.5626 83.349 51.5262 83.3698 51.4897C83.3802 51.4741 83.4115 51.4741 83.3958 51.4636ZM78.3854 61.3022C78.3542 61.2918 78.3229 61.2814 78.2917 61.2657C78.0573 61.1355 77.875 60.9116 77.8594 60.6564C77.849 60.4116 77.9219 60.1616 78.1563 60.0314C78.25 59.9793 78.3438 59.948 78.4427 59.9741C78.5313 59.9949 78.6198 60.0262 78.6771 60.0991C78.6979 60.1251 78.7188 60.172 78.724 60.2241C78.7292 60.2449 78.7188 60.2814 78.7188 60.297C78.7344 60.297 78.7448 60.3022 78.7552 60.3126C78.7656 60.3282 78.7656 60.3543 78.7448 60.3699C78.724 60.3907 78.7031 60.3855 78.6823 60.3855C78.6511 60.3803 78.6146 60.2605 78.5625 60.2345C78.5261 60.2137 78.4792 60.2241 78.4375 60.2293C78.4063 60.2345 78.3906 60.2657 78.3646 60.2918C78.3125 60.3543 78.3281 60.4324 78.3386 60.5053C78.3542 60.5939 78.4323 60.6616 78.5261 60.6824C78.6146 60.7137 78.6979 60.7032 78.7761 60.6928C78.8958 60.6824 79.0104 60.6616 79.1354 60.6407C79.1719 60.6303 79.3594 60.6147 79.4271 60.6459C79.5104 60.6876 79.5729 60.7397 79.599 60.8178C79.625 60.8855 79.6719 61.0834 79.4792 61.2241C79.3386 61.3282 78.9427 61.5105 78.9011 61.5314L77.9219 61.9689C77.8698 62.0001 77.7969 61.9845 77.7604 61.9324C77.724 61.8751 77.7448 61.8022 77.7969 61.7657L78.3854 61.3022ZM78.724 60.3022C78.724 60.3022 78.724 60.3074 78.7292 60.3022C78.7396 60.3022 78.7344 60.297 78.724 60.3022ZM75.6198 67.8022C75.6094 67.7814 75.6198 67.7553 75.6406 67.7501C75.6615 67.7397 75.6823 67.7501 75.6927 67.7709C75.7448 67.8387 75.8073 68.1616 75.8594 68.5782C75.875 68.6928 75.8802 68.8022 75.8906 68.922C75.8906 68.9949 75.8958 69.0678 75.8958 69.1407C75.8958 69.2137 75.8906 69.2814 75.8906 69.3491C75.8854 69.4532 75.8698 69.547 75.8854 69.6199C75.8906 69.6616 75.8958 69.7032 75.9063 69.7293C75.9115 69.7449 75.9063 69.7657 75.9167 69.7762C75.9271 69.7814 75.8958 69.8022 75.9063 69.8022C75.9219 69.8022 75.9323 69.8178 75.9427 69.8126C76.0208 69.7814 76.1042 69.7241 76.1667 69.6147C76.1927 69.5522 76.2604 69.5209 76.3229 69.547C76.3802 69.5678 76.4167 69.6355 76.3906 69.698C76.3438 69.9897 76.1615 70.1616 75.9896 70.2241C75.7708 70.3022 75.5261 70.1928 75.3281 69.7866C75.2761 69.6512 75.2344 69.4584 75.2292 69.2449C75.224 69.1407 75.2344 69.0262 75.25 68.9168C75.2656 68.8387 75.2813 68.7605 75.3021 68.6824C75.3386 68.5574 75.375 68.448 75.4115 68.3387C75.4583 68.2084 75.5052 68.1043 75.5417 68.0053C75.5833 67.9012 75.6198 67.8334 75.6198 67.8022ZM67.0469 69.8595C67.0938 69.8178 67.1511 69.7553 67.2031 69.698C67.2396 69.6407 67.3073 69.6199 67.3646 69.6564C67.4219 69.6876 67.4427 69.7605 67.4115 69.8178C67.349 70.0001 67.2761 70.1095 67.2136 70.1824C67.1719 70.2293 67.125 70.2501 67.0833 70.2762C67.0313 70.3022 66.9792 70.297 66.9271 70.297C66.8021 70.3022 66.6823 70.198 66.5677 70.0314C66.4792 69.9012 66.4063 69.7032 66.3542 69.4793C66.3438 69.422 66.3334 69.3595 66.3281 69.3022C66.3281 69.2397 66.3229 69.1824 66.3281 69.1199C66.3386 69.0001 66.349 68.8803 66.375 68.7709C66.4323 68.5053 66.5052 68.3178 66.5261 68.2501L66.5781 68.1616C66.5677 68.1407 66.5677 68.1199 66.5886 68.1043C66.6042 68.0887 66.6302 68.0939 66.6406 68.1147L66.6927 68.2553C66.7136 68.3074 66.7604 68.4168 66.8177 68.5939C66.849 68.698 66.8854 68.8022 66.9219 68.9272C66.9427 69.0001 66.9636 69.0678 66.974 69.1459C66.9896 69.2137 67 69.2866 67.0104 69.3595C67.0208 69.5105 67.0208 69.6459 67.0417 69.7605C67.0469 69.7918 67.0365 69.8491 67.0469 69.8595ZM64.3698 63.547V63.5522C64.3698 63.5522 64.2656 63.4272 64.2396 63.3803C64.1979 63.3074 64.1615 63.2241 64.1354 63.1407C64.1198 63.0782 64.1146 63.0105 64.1146 62.9428C64.1198 62.7709 64.2031 62.6147 64.3125 62.4741C64.4636 62.2866 64.6823 62.1407 64.8542 62.0314C65.099 61.8907 65.3438 61.7501 65.5938 61.6199C65.7604 61.5366 65.9323 61.4584 66.1042 61.3855C66.5 61.2189 66.9115 61.0782 67.3177 60.9324C67.9219 60.7084 68.5313 60.5053 69.125 60.2449C69.1823 60.2137 69.2552 60.2345 69.2865 60.2918C69.3177 60.3491 69.2969 60.422 69.2396 60.4532C68.8438 60.7084 68.4427 60.948 68.0313 61.172C67.7604 61.323 67.4844 61.4637 67.2031 61.6043C66.9948 61.7084 66.7865 61.8074 66.5781 61.9064C66.4375 61.9689 66.2969 62.0314 66.1563 62.0887C66.0469 62.1355 65.9427 62.1772 65.8333 62.2189C65.5833 62.3126 65.3281 62.4012 65.0781 62.4949C64.9219 62.5522 64.7292 62.6199 64.5781 62.7397C64.4844 62.8074 64.4011 62.8803 64.375 62.9845C64.3594 63.0366 64.349 63.0887 64.3542 63.1459C64.3594 63.2084 64.3646 63.2709 64.375 63.3334C64.3854 63.3803 64.4323 63.4793 64.4427 63.5053C64.4479 63.5262 64.4531 63.5366 64.4531 63.5366C64.4479 63.5574 64.4427 63.5678 64.4271 63.573C64.4219 63.573 64.3958 63.5887 64.3802 63.5678C64.375 63.5626 64.375 63.5574 64.3698 63.5522C64.3698 63.5522 64.3698 63.5522 64.3698 63.547ZM61.1302 64.1355C61.1354 64.1355 61.1354 64.1355 61.1354 64.1355C61.1354 64.1355 61.1354 64.1772 61.1302 64.1928C61.1198 64.2709 61.125 64.3282 61.125 64.4012C61.1198 64.5105 61.1302 64.5991 61.1406 64.7084C61.1354 64.7657 61.1458 64.8439 61.1354 64.948C61.1302 65.0157 61.1146 65.0939 61.099 65.172C61.0886 65.2345 61.0625 65.297 61.0521 65.3595C61.0365 65.422 61.0156 65.4793 61.0052 65.5366C60.9948 65.6095 60.9636 65.672 60.9844 65.7241C60.9896 65.7397 60.9792 65.7605 60.9948 65.7762C61.0156 65.797 61.0365 65.8282 61.0781 65.8387C61.1458 65.8334 61.1979 65.8855 61.2031 65.9532C61.2031 66.0157 61.1563 66.073 61.0886 66.073C60.9844 66.1095 60.9011 66.0834 60.8229 66.0626C60.6302 66.0053 60.5365 65.8074 60.474 65.5574C60.4323 65.3907 60.4271 65.2032 60.4479 65.0262C60.4583 64.9584 60.474 64.8907 60.4948 64.8334C60.5417 64.7189 60.5938 64.6303 60.625 64.573C60.6823 64.4845 60.724 64.4064 60.7917 64.3282C60.8646 64.2501 60.9219 64.1876 61.0104 64.1199C61.0365 64.1043 61.0729 64.0574 61.0886 64.0626C61.1094 64.0626 61.1406 64.0522 61.1406 64.0887C61.1511 64.1043 61.1458 64.1251 61.1302 64.1355ZM61.1198 64.1459C61.1094 64.1459 61.1042 64.1459 61.099 64.1459C61.1042 64.1512 61.1094 64.1512 61.1198 64.1459ZM61.8386 51.172C61.6667 51.0105 61.4896 50.8022 61.3906 50.5886C61.25 50.2866 61.2761 49.9793 61.5313 49.7136C61.6042 49.6407 61.6979 49.5939 61.7917 49.5626C61.9011 49.5314 62.0156 49.5366 62.125 49.573C62.5156 49.6928 62.6719 50.0157 62.6875 50.3959C62.6979 50.5939 62.6615 50.8178 62.6042 51.0209C62.5625 51.172 62.5052 51.3178 62.4479 51.4376C62.4844 51.4689 62.5156 51.4949 62.5521 51.5209C62.5677 51.5314 62.5938 51.5886 62.6146 51.6095C62.625 51.6043 62.6354 51.5991 62.6458 51.6043C62.6667 51.6095 62.6771 51.6303 62.6771 51.6511C62.6719 51.6824 62.6511 51.6876 62.6354 51.6928C62.6094 51.7032 62.5365 51.6355 62.4948 51.6147C62.4583 51.5991 62.4219 51.5834 62.3906 51.5626C62.3906 51.5678 62.3854 51.5678 62.3854 51.5678C62.0886 52.1095 61.7136 52.6147 61.2708 53.0678C60.625 53.7241 59.8542 54.2657 59.0938 54.7241C59.0417 54.7605 58.9688 54.7501 58.9271 54.6928C58.8906 54.6407 58.9063 54.5678 58.9583 54.5314C59.5261 54.0886 60.0833 53.5887 60.5781 53.0314C60.8229 52.7605 61.0469 52.4793 61.25 52.1824C61.4583 51.8907 61.6406 51.5886 61.7917 51.2709C61.8073 51.2397 61.8229 51.2084 61.8386 51.172ZM61.9531 50.8751C61.9688 50.8282 61.9844 50.7866 61.9948 50.7397C62.0313 50.6251 62.0573 50.5105 62.0625 50.4011C62.0677 50.2709 62.0625 50.1407 61.9375 50.0886C61.9271 50.0834 61.9167 50.073 61.9063 50.0782C61.8906 50.0834 61.875 50.0834 61.8646 50.0939C61.6979 50.2189 61.7292 50.4064 61.8073 50.5939C61.849 50.6876 61.9011 50.7866 61.9531 50.8751ZM75.7917 42.448C75.8177 42.4116 75.8698 42.3907 75.9167 42.4012C76.6198 42.4741 76.8594 42.8959 76.8854 43.2657C76.9011 43.5991 76.7031 43.9272 76.4219 44.0939C76.2292 44.2032 75.9844 44.2345 75.7344 44.1564C75.4688 44.047 75.3073 43.8699 75.2813 43.6251C75.2656 43.4689 75.2761 43.3022 75.3386 43.1355C75.4167 42.9116 75.5365 42.7084 75.6146 42.573C75.625 42.5574 75.6719 42.4584 75.7031 42.4272C75.7292 42.4012 75.7448 42.3907 75.7604 42.3959C75.7813 42.3959 75.7969 42.4168 75.7917 42.4376C75.7917 42.4428 75.7917 42.4428 75.7917 42.448ZM75.7708 42.4741C75.75 42.5001 75.7761 42.6095 75.7761 42.6199C75.7604 42.7866 75.7448 43.0522 75.7708 43.297C75.7761 43.3855 75.8125 43.4637 75.8594 43.5262C75.8698 43.5418 75.8958 43.5314 75.9219 43.5366C75.974 43.547 76.0208 43.5418 76.0625 43.5262C76.1146 43.5105 76.1667 43.4949 76.2083 43.4532C76.3021 43.3647 76.3802 43.2449 76.3542 43.1095C76.3125 42.9324 76.1719 42.7553 75.8594 42.6303C75.7969 42.6147 75.7604 42.5522 75.7761 42.4897C75.7761 42.4845 75.7761 42.4793 75.7761 42.4741H75.7708ZM75.7761 42.4741C75.7865 42.4741 75.7917 42.4689 75.7813 42.4689C75.7813 42.4689 75.7813 42.4689 75.7761 42.4741ZM75.7813 42.4689V42.4637C75.7813 42.4637 75.7813 42.4689 75.7761 42.4689H75.7813ZM73.8854 52.0991C73.8854 52.0991 73.8854 52.0939 73.8906 52.0886C73.8698 51.7553 73.9375 51.8595 73.9688 52.0886C73.974 52.0886 73.974 52.0939 73.9688 52.1043C73.9688 52.1043 73.9688 52.1043 73.9688 52.1095C73.974 52.1251 73.9792 52.1772 73.9844 52.2032L74.0104 52.3751L74.0781 52.8907C74.0781 52.9116 74.0938 53.0418 74.1042 53.2241C74.1094 53.2918 74.1094 53.3699 74.1042 53.448C74.1042 53.5001 74.099 53.5522 74.0938 53.6095C74.0833 53.7397 74.0625 53.8647 74.0521 53.9845C74.0417 54.1147 74.0261 54.2241 74.0365 54.3074C74.0625 54.2918 74.0886 54.2657 74.1198 54.2397C74.1563 54.1824 74.2292 54.172 74.2865 54.2084C74.3386 54.2449 74.3542 54.3178 74.3177 54.3699C74.2396 54.547 74.1563 54.6303 74.0886 54.6824C74.0261 54.7293 73.9636 54.7241 73.9011 54.7241C73.7813 54.7241 73.6667 54.6043 73.5781 54.3907C73.5156 54.2397 73.474 54.0314 73.4531 53.8074C73.4375 53.6824 73.4323 53.5574 73.4375 53.4376C73.4427 53.3491 73.4531 53.2657 73.4636 53.1928C73.5 52.9897 73.5521 52.8543 73.5573 52.8334C73.5781 52.7657 73.599 52.698 73.6302 52.6303C73.6719 52.5314 73.7083 52.4376 73.7552 52.3386L73.8386 52.1772C73.849 52.1564 73.8854 52.0886 73.8854 52.0886V52.0991ZM73.974 54.3543C73.9531 54.3543 73.9323 54.3647 73.9323 54.3647C73.9323 54.3647 73.9583 54.3647 73.974 54.3543ZM78.625 54.1459C78.6302 54.1407 78.6354 54.1407 78.6354 54.1355C78.6511 54.1199 78.6667 54.1355 78.6719 54.1303C78.6979 54.1303 78.6927 54.1511 78.7031 54.172C78.7031 54.1772 78.6979 54.1876 78.6875 54.2084C78.6823 54.2189 78.6563 54.2605 78.6458 54.2761L78.5469 54.448C78.4896 54.5366 78.4427 54.6147 78.375 54.7032C78.3333 54.7553 78.2917 54.8022 78.25 54.8543C78.1979 54.9064 78.1511 54.9584 78.0886 55.0053C78 55.073 77.9063 55.1251 77.8073 55.1772C77.6823 55.2449 77.5573 55.297 77.4271 55.3543C77.2917 55.4116 77.1667 55.4532 77.0313 55.5105C76.9792 55.547 76.9011 55.5366 76.8646 55.4845C76.8281 55.4324 76.8386 55.3543 76.8906 55.3178C76.9844 55.2032 77.0677 55.0991 77.1615 54.9897C77.2552 54.8855 77.3438 54.7814 77.4479 54.6824C77.5261 54.6043 77.6042 54.5314 77.6979 54.4689C77.7552 54.4272 77.8281 54.4011 77.8906 54.3647C77.9531 54.3386 78.0104 54.3126 78.0781 54.2866C78.1771 54.2553 78.2656 54.2345 78.3698 54.2032L78.5573 54.1616C78.5729 54.1564 78.625 54.1459 78.625 54.1459Z" fill="white"/>
<path fill-rule="evenodd" clip-rule="evenodd" d="M55.474 38.5209V37.0938C55.474 36.8803 55.651 36.7032 55.8646 36.7032H57.5729C57.3958 35.4011 57.3073 33.9063 57.5104 32.6407C57.6615 31.6928 57.9792 30.8699 58.5365 30.3282C59.8854 29.0053 62.599 27.8907 65.3958 26.6615C68.0625 25.4897 70.8073 24.2136 72.4688 22.5053C72.5417 22.4272 72.6458 22.3855 72.75 22.3855C72.8542 22.3855 72.9583 22.4272 73.0312 22.5053C74.6875 24.2136 77.4375 25.4897 80.1042 26.6615C82.901 27.8907 85.6146 29.0053 86.9635 30.3282C87.5208 30.8699 87.8385 31.6928 87.9896 32.6407C88.1927 33.9063 88.099 35.4011 87.9271 36.7032H89.6354C89.849 36.7032 90.026 36.8803 90.026 37.0938V38.5209C91.349 38.573 92.4062 38.8647 93.1302 39.4428C93.9167 40.0678 94.3385 41.0261 94.2917 42.3855V66.198C94.3333 67.5574 93.9167 68.5157 93.1302 69.1407C92.4062 69.7188 91.349 70.0105 90.026 70.0626V71.4897C90.026 71.7032 89.849 71.8803 89.6354 71.8803H87.9271C88.099 73.1772 88.1927 74.6772 87.9896 75.9428C87.8385 76.8907 87.5208 77.7136 86.9635 78.2553C85.6146 79.5782 82.901 80.6928 80.1042 81.922C77.4375 83.0938 74.6875 84.3699 73.0312 86.0782C72.9583 86.1563 72.8542 86.198 72.75 86.198C72.6458 86.198 72.5417 86.1563 72.4688 86.0782C70.8073 84.3699 68.0625 83.0938 65.3958 81.922C62.599 80.6928 59.8854 79.5782 58.5365 78.2553C57.9792 77.7136 57.6615 76.8907 57.5104 75.9428C57.3073 74.6772 57.3958 73.1772 57.5729 71.8803H55.8646C55.651 71.8803 55.474 71.7032 55.474 71.4897V70.0626C54.1458 70.0105 53.0938 69.7188 52.3698 69.1407C51.5833 68.5157 51.1667 67.5678 51.2083 66.2188C51.2083 66.2032 51.2031 66.1876 51.2031 66.1772L51.2083 54.2917L51.2031 42.4115C51.2031 42.3959 51.2083 42.3803 51.2083 42.3647C51.1667 41.0157 51.5833 40.0678 52.3698 39.4428C53.0938 38.8647 54.1458 38.573 55.474 38.5209ZM93.5052 43.7865V42.3803C93.5052 42.3751 93.5052 42.3699 93.5052 42.3595C93.5417 41.3022 93.2552 40.5417 92.6406 40.0522C91.9896 39.5365 91.0156 39.3178 89.8021 39.297C89.474 39.2917 89.2396 39.0365 89.2396 38.7553V37.4845H87.6771C87.5208 37.4845 87.375 37.422 87.276 37.3282C87.1458 37.2032 87.0885 37.0365 87.1146 36.8699C87.3021 35.5834 87.4219 34.047 87.2188 32.7605C87.0938 32.0001 86.8646 31.323 86.4167 30.8855C85.1146 29.6095 82.4844 28.5626 79.7865 27.3803C77.1667 26.2292 74.4844 24.9584 72.75 23.323C71.0104 24.9584 68.3281 26.2292 65.7083 27.3803C63.0156 28.5626 60.3854 29.6095 59.0833 30.8855C58.6354 31.323 58.4062 32.0001 58.2812 32.7605C58.0729 34.047 58.1979 35.5834 58.3854 36.8699C58.4062 37.0365 58.3542 37.2032 58.224 37.3282C58.1198 37.422 57.974 37.4845 57.8229 37.4845H56.2552V38.7553C56.2552 39.0365 56.026 39.2917 55.6979 39.297C54.4792 39.3178 53.5104 39.5365 52.8594 40.0522C52.2448 40.5417 51.9531 41.3022 51.9896 42.3595C51.9948 42.3855 51.9896 42.4115 51.9896 42.4376V54.2917V66.1459C51.9896 66.172 51.9948 66.1928 51.9896 66.224C51.9531 67.2813 52.2448 68.0417 52.8594 68.5313C53.5104 69.047 54.4792 69.2657 55.6979 69.2865C56.026 69.2917 56.2552 69.5522 56.2552 69.8282V71.099H57.8229C57.974 71.099 58.1198 71.1563 58.224 71.2553C58.3542 71.3803 58.4062 71.547 58.3854 71.7136C58.1979 73.0001 58.0729 74.5365 58.2812 75.8178C58.4062 76.5834 58.6354 77.2605 59.0833 77.698C60.3854 78.974 63.0156 80.0209 65.7083 81.2032C68.3281 82.3543 71.0104 83.6251 72.75 85.2605C74.4844 83.6251 77.1667 82.3543 79.7865 81.2032C82.4844 80.0209 85.1146 78.974 86.4167 77.698C86.8646 77.2605 87.0938 76.5834 87.2188 75.8178C87.4219 74.5365 87.3021 73.0001 87.1146 71.7136C87.0885 71.547 87.1458 71.3803 87.276 71.2553C87.375 71.1563 87.5208 71.099 87.6771 71.099H89.2396V69.8282C89.2396 69.5522 89.474 69.2917 89.8021 69.2865C91.0156 69.2657 91.9896 69.047 92.6406 68.5313C93.2552 68.0417 93.5417 67.2813 93.5052 66.224C93.5052 66.2136 93.5052 66.2084 93.5052 66.2032V43.7865Z" fill="white"/>
<path fill-rule="evenodd" clip-rule="evenodd" d="M108.219 130.813C101.844 130.339 95.448 129.985 89.1042 129.917C88.9011 129.917 88.172 129.969 87.2449 130.016C89.5313 103.547 98.2709 75.6252 98.349 75.3543V75.2814C97.6772 73.9533 97.0313 72.1564 96.2188 68.9845C95.7865 67.2814 95.3542 65.5783 95.1095 63.8387C94.7345 61.1043 95.4428 58.37 95.5626 55.6252C95.5886 55.047 95.6042 54.4637 95.7657 53.9064C96.5001 51.3127 99.2188 52.6981 99.9063 54.5106C99.9688 54.6825 100.026 54.8543 100.063 55.0262C100.302 56.0575 100.141 57.1616 100.078 58.2085C100.042 58.8231 100.026 59.4429 100.141 60.0523C100.24 60.5575 100.281 61.2606 100.849 61.4845C101.375 61.6825 102.156 61.4481 102.609 61.1773C103.156 60.8491 103.537 60.3439 103.833 59.7814C104.047 59.3648 104.219 58.9168 104.37 58.4793C104.776 57.3283 105.109 56.1773 105.484 55.021C106.005 53.4273 106.302 51.87 106.047 50.2033C105.792 48.5106 105.162 46.9116 104.625 45.2918C104.052 43.5523 103.182 41.2189 104.203 39.4845C104.677 38.6825 105.859 38.7502 106.427 39.3804C106.745 39.7293 106.912 40.1825 107.073 40.6252C108.109 43.4585 109.198 46.2658 109.813 49.2241C110.391 52.0158 110.193 54.9585 110.021 57.7918C109.75 61.9845 107.203 77.0887 107.203 77.0887C107.193 77.2137 107.958 118.156 108.219 130.813Z" fill="#FFCFCA"/>
<mask id="mask8_62_1618" style="mask-type:luminance" maskUnits="userSpaceOnUse" x="84" y="77" width="36" height="56">
<path d="M84.4429 77.2815H119.11V132.516H84.4429V77.2815Z" fill="white"/>
</mask>
<g mask="url(#mask8_62_1618)">
<path fill-rule="evenodd" clip-rule="evenodd" d="M117.787 132.469C109.469 132.047 87.0678 130.75 85.4792 130.776C86.4115 109.318 94.3386 79.4116 94.3386 79.4116C102.714 76.2241 110.885 80.2814 110.885 80.2814C110.885 80.2814 115.422 110.964 117.787 132.469Z" fill="#703C25"/>
</g>
<path fill-rule="evenodd" clip-rule="evenodd" d="M38.8022 130.563C45.1929 130.401 51.5991 130.359 57.9377 130.599C58.1408 130.604 58.87 130.693 59.7918 130.786C58.797 104.234 51.4325 75.9271 51.3647 75.6459L51.37 75.5834V75.5781C52.1043 74.2813 52.8387 72.5156 53.8022 69.3906C54.3179 67.7136 54.8387 66.0313 55.1616 64.3021C55.672 61.5886 55.0991 58.8281 55.1095 56.0781C55.1147 55.5 55.1252 54.9167 54.9897 54.3542C54.3856 51.7292 51.6043 52.9792 50.8283 54.7552C50.7554 54.9219 50.6929 55.0938 50.646 55.2656C50.3543 56.2813 50.4637 57.3906 50.4741 58.4375C50.4845 59.0573 50.4689 59.6771 50.3231 60.2761C50.2033 60.7761 50.1252 61.4792 49.5418 61.6719C49.0106 61.8438 48.245 61.5729 47.8022 61.2813C47.271 60.9271 46.9168 60.4063 46.6512 59.8281C46.4533 59.4063 46.3075 58.9479 46.172 58.5C45.8231 57.3333 45.5522 56.1667 45.2293 54.9948C44.7866 53.3802 44.5679 51.8073 44.9012 50.1563C45.2397 48.474 45.9481 46.9063 46.5627 45.3177C47.2189 43.6094 48.2085 41.3229 47.2658 39.5417C46.8335 38.7136 45.6512 38.724 45.0522 39.3229C44.7189 39.6563 44.5314 40.1042 44.3439 40.5417C43.172 43.3125 41.9533 46.0677 41.1929 48.9948C40.4741 51.7552 40.5314 54.7031 40.5627 57.5417C40.6304 61.7396 42.4377 76.9479 42.4377 76.9479C42.4429 77.0729 39.6825 117.938 38.8022 130.563Z" fill="#FFCFCA"/>
<mask id="mask9_62_1618" style="mask-type:luminance" maskUnits="userSpaceOnUse" x="28" y="77" width="34" height="55">
<path d="M28.948 77.2815H61.7761V131.948H28.948V77.2815Z" fill="white"/>
</mask>
<g mask="url(#mask9_62_1618)">
<path fill-rule="evenodd" clip-rule="evenodd" d="M29.1667 131.755C37.4949 131.735 59.9324 131.526 61.5157 131.63C61.6303 110.156 55.172 79.896 55.172 79.896C46.9636 76.3075 38.6042 79.9637 38.6042 79.9637C38.6042 79.9637 32.5782 110.386 29.1667 131.755Z" fill="#703C25"/>
</g>
<path d="M6.23307 139.137L4.81641 137.637L13.0664 129.783L15.0872 131.929L11.0247 139.783L11.1497 139.908L19.1706 136.2L21.1497 138.283L12.8997 146.137L11.4414 144.595L16.8789 139.408L16.7956 139.262L9.48307 142.554L8.19141 141.2L11.8581 134.075L11.6706 133.95L6.23307 139.137Z" fill="black"/>
<path d="M19.4851 151.641C18.6518 151 18.0476 150.271 17.6726 149.453C17.2976 148.63 17.1935 147.74 17.3601 146.766C17.5372 145.797 18.0164 144.797 18.7976 143.766C19.5893 142.724 20.4278 141.995 21.3185 141.578C22.2195 141.151 23.1153 141.01 24.006 141.162C24.8914 141.302 25.756 141.693 26.5893 142.328C27.4226 142.953 28.0268 143.677 28.4018 144.495C28.7768 145.318 28.8705 146.214 28.6935 147.182C28.5112 148.151 28.0268 149.162 27.2351 150.203C26.4539 151.229 25.6205 151.958 24.7351 152.391C23.8445 152.818 22.9539 152.958 22.0685 152.807C21.1778 152.651 20.3185 152.266 19.4851 151.641ZM20.6726 150.099C21.4487 150.682 22.2247 150.875 23.006 150.682C23.782 150.5 24.5789 149.87 25.4018 148.787C26.2351 147.703 26.6362 146.76 26.6101 145.953C26.5789 145.151 26.1778 144.453 25.4018 143.87C24.6205 143.276 23.8393 143.073 23.0476 143.266C22.2664 143.448 21.4643 144.078 20.631 145.162C19.808 146.245 19.4122 147.193 19.4435 147.995C19.4851 148.797 19.8914 149.5 20.6726 150.099Z" fill="black"/>
<path d="M30.3795 158.779C29.015 158.014 28.1816 157.123 27.8795 156.113C27.5722 155.102 27.7806 153.946 28.5045 152.654L31.9629 146.425L33.9004 147.508L30.442 153.717C30.0358 154.441 29.9056 155.081 30.0462 155.633C30.1972 156.185 30.6295 156.665 31.3379 157.071C32.7545 157.847 33.8639 157.508 34.6712 156.05L38.1295 149.842L40.0462 150.925L36.5879 157.154C35.8639 158.446 34.9889 159.227 33.9629 159.508C32.9472 159.784 31.7545 159.54 30.3795 158.779Z" fill="black"/>
<path d="M41.0363 163.828C40.3123 163.537 39.6925 163.183 39.1821 162.766C38.6821 162.36 38.2967 161.938 38.0363 161.495C37.7707 161.052 37.6092 160.615 37.5571 160.183L39.2863 159.224L39.4738 159.308C39.5988 159.907 39.8488 160.443 40.2238 160.912C40.5988 161.386 41.1092 161.755 41.7655 162.016C42.3332 162.235 42.7967 162.287 43.1613 162.162C43.5363 162.047 43.8071 161.787 43.9738 161.37C44.0832 161.11 44.1248 160.88 44.0988 160.683C44.0675 160.474 43.9738 160.276 43.8071 160.078C43.6509 159.87 43.4165 159.651 43.0988 159.412L41.8488 158.537C40.9842 157.953 40.4217 157.318 40.1613 156.62C39.8957 155.927 39.9217 155.177 40.2446 154.37C40.479 153.787 40.8332 153.328 41.3071 152.995C41.7915 152.662 42.3748 152.49 43.0571 152.474C43.7342 152.448 44.4634 152.589 45.2446 152.891C46.0623 153.224 46.7134 153.615 47.203 154.058C47.703 154.505 48.0675 155.032 48.3071 155.641L46.703 156.641L46.5363 156.558C46.354 156.13 46.0988 155.761 45.7655 155.453C45.4321 155.151 45.0155 154.891 44.5155 154.683C43.9425 154.464 43.4738 154.391 43.0988 154.474C42.7238 154.547 42.4634 154.761 42.328 155.12C42.1873 155.453 42.1821 155.766 42.3071 156.058C42.4425 156.339 42.7498 156.636 43.2238 156.953L44.4946 157.787C45.4373 158.427 46.0363 159.094 46.2863 159.787C46.5467 160.485 46.5155 161.245 46.1821 162.078C45.9165 162.745 45.5415 163.266 45.0571 163.641C44.5832 164.016 43.9998 164.224 43.3071 164.266C42.6248 164.308 41.8696 164.162 41.0363 163.828Z" fill="black"/>
<path d="M56.4685 161.06L57.531 156.893L59.7185 157.435L56.906 168.476L54.7185 167.935L55.9893 162.914L51.031 161.643L49.7602 166.664L47.5935 166.122L50.406 155.081L52.5727 155.622L51.5102 159.789L56.4685 161.06Z" fill="black"/>
<path d="M69.972 170.145L67.597 169.874L67.0553 167.187L62.7012 166.708L61.5553 169.208L59.2637 168.958L64.4512 158.062L67.3262 158.374L69.972 170.145ZM65.472 160.583L63.5345 164.874L66.6387 165.228L65.6595 160.603L65.472 160.583Z" fill="black"/>
<path d="M79.4113 158.685V160.581L74.4321 160.623L74.4738 163.623L78.9946 163.581V165.456L74.4738 165.498L74.5155 170.123H72.2655L72.1821 158.727L79.4113 158.685Z" fill="black"/>
<path d="M88.1825 157.575C90.0002 157.241 91.4742 157.465 92.5992 158.241C93.7242 159.007 94.4534 160.32 94.7867 162.179C95.12 164.028 94.8909 165.507 94.0992 166.616C93.3075 167.731 92.0002 168.45 90.1825 168.783L86.1409 169.491L84.1409 158.283L88.1825 157.575ZM89.7034 166.929C90.87 166.721 91.6825 166.278 92.1409 165.596C92.6096 164.903 92.7294 163.898 92.495 162.575C92.2555 161.257 91.7971 160.356 91.12 159.866C90.4534 159.382 89.5367 159.241 88.37 159.45L86.6825 159.741L88.0159 167.221L89.7034 166.929Z" fill="black"/>
<path d="M99.4022 161.478L100.34 164.436L105.527 162.811L106.09 164.624L98.7563 166.936L95.3188 156.061L102.527 153.77L103.111 155.582L98.048 157.186L98.8397 159.728L103.256 158.332L103.819 160.082L99.4022 161.478ZM99.5688 154.02L98.1105 154.499L98.0688 154.353L98.4022 151.936L100.777 151.186L100.84 151.353L99.5688 154.02Z" fill="black"/>
<path d="M113.053 161.786C112.095 162.218 111.158 162.406 110.241 162.348C109.335 162.281 108.496 161.942 107.72 161.327C106.96 160.718 106.314 159.838 105.783 158.682C105.241 157.505 105.001 156.421 105.053 155.432C105.095 154.447 105.397 153.593 105.949 152.869C106.491 152.135 107.241 151.551 108.199 151.119C109.199 150.661 110.126 150.473 110.991 150.557C111.866 150.63 112.637 150.989 113.303 151.64L112.22 153.244L112.033 153.327C111.559 152.869 111.079 152.614 110.595 152.557C110.121 152.505 109.585 152.614 108.991 152.89C108.126 153.281 107.585 153.88 107.366 154.682C107.147 155.473 107.319 156.489 107.887 157.723C108.439 158.947 109.085 159.734 109.824 160.077C110.574 160.426 111.376 160.406 112.241 160.015C113.574 159.406 114.1 158.38 113.824 156.932L114.012 156.848L115.866 156.932C116.033 158.046 115.876 159.005 115.408 159.807C114.949 160.614 114.163 161.275 113.053 161.786Z" fill="black"/>
<path d="M123.491 156.072C122.616 156.629 121.726 156.942 120.825 157.009C119.934 157.082 119.059 156.863 118.2 156.363C117.34 155.863 116.57 155.072 115.887 153.988C115.179 152.879 114.783 151.837 114.7 150.863C114.616 149.879 114.799 148.988 115.241 148.197C115.674 147.405 116.325 146.733 117.2 146.176C118.09 145.624 118.981 145.311 119.887 145.238C120.788 145.155 121.663 145.374 122.512 145.884C123.356 146.384 124.137 147.192 124.846 148.301C125.523 149.384 125.913 150.421 126.012 151.405C126.122 152.379 125.95 153.259 125.491 154.051C125.044 154.843 124.377 155.52 123.491 156.072ZM122.45 154.405C123.283 153.895 123.741 153.238 123.825 152.447C123.919 151.645 123.606 150.671 122.887 149.53C122.148 148.379 121.398 147.676 120.637 147.426C119.887 147.176 119.096 147.311 118.262 147.822C117.445 148.353 116.986 149.02 116.887 149.822C116.794 150.613 117.111 151.587 117.846 152.738C118.564 153.879 119.309 154.572 120.075 154.822C120.835 155.072 121.627 154.936 122.45 154.405Z" fill="black"/>
<path d="M126.08 139.828C127.486 138.636 128.867 138.089 130.226 138.182C131.585 138.266 132.882 139.026 134.122 140.453C135.341 141.87 135.898 143.266 135.789 144.641C135.674 146.005 134.919 147.281 133.518 148.474L130.414 151.162L122.976 142.516L126.08 139.828ZM132.184 147.141C133.07 146.365 133.544 145.568 133.601 144.745C133.653 143.912 133.247 142.99 132.372 141.974C131.497 140.948 130.643 140.401 129.809 140.328C128.976 140.245 128.117 140.594 127.226 141.37L125.934 142.474L130.893 148.245L132.184 147.141Z" fill="black"/>
<path d="M137.768 137.527L140.06 139.59L143.685 135.548L145.102 136.819L139.956 142.527L131.477 134.902L136.539 129.277L137.956 130.548L134.414 134.506L136.393 136.298L139.497 132.84L140.872 134.069L137.768 137.527ZM134.102 131.006L133.081 132.152L132.977 132.048L132.06 129.798L133.706 127.944L133.831 128.048L134.102 131.006Z" fill="black"/>
</svg>
