<svg width="165" height="241" viewBox="0 0 165 241" fill="none" xmlns="http://www.w3.org/2000/svg">
<path d="M133.771 101.029C135.303 99.0874 135.772 96.9831 133.163 99.159C133.859 96.6768 133.902 95.3283 131.42 98.2003C132.073 93.24 130.346 95.937 129.3 98.6339C128.604 98.809 128.668 96.7206 127.765 96.7643C126.85 96.8081 126.806 98.2879 127.446 102.409C125.939 103.873 124.475 105.341 123.059 106.793C123.385 103.105 123.103 98.9402 122.025 94.2305C130.8 88.7132 129.384 80.0812 126.269 75.6937C123.154 71.3061 109.653 67.0617 104.379 78.5219C92.4533 72.2966 78.5865 76.1153 75.4718 81.211C66.0483 79.3255 63.4189 87.5556 69.2783 90.7976C69.7954 99.8392 69.5448 105.364 66.1676 112.059C62.4563 119.418 69.338 129.029 80.3885 131.165L78.7416 131.372L60.8612 133.746L60.5111 135.604C53.3908 134.685 45.6817 134.86 45.6817 134.86L41.7436 123.046C41.6681 119.935 43.3149 116.447 41.8192 116.136C40.6259 115.89 39.6115 120.528 39.6115 117.314C39.6115 114.1 37.4436 112.978 37.4038 116.841C36.0553 114.72 34.2892 113.451 35.3552 118.261C33.0441 116.204 32.519 117.668 34.7506 120.504C32.3082 119.991 33.1435 121.145 37.6186 124.172C39.1063 140.362 37.2765 146.396 58.3233 147.219L57.9096 149.423L64.5566 151.229L63.1007 154.821L60.2208 161.925C60.2208 161.925 60.181 161.937 60.1173 161.957C59.107 162.28 50.4074 165.084 43.7326 167.781C40.9123 168.923 38.45 170.044 37.0896 170.947C35.1285 172.256 35.0449 174.627 35.0449 176.755C35.0449 178.883 31.6916 201.7 30.6295 205.463C25.7845 208.168 22.7693 212.894 28.9469 212.91C36.3775 212.929 41.5965 214.015 39.3808 206.426C42.8336 200.328 46.1392 187.252 47.4519 182.36C47.4757 182.268 47.5076 182.157 47.5314 182.069C51.8633 182.543 57.2294 182.674 61.8636 182.678H66.7842C66.7763 182.666 66.7683 182.65 66.7603 182.634C70.0858 182.575 72.3413 182.479 72.3413 182.479C72.2418 183.593 72.1543 184.731 72.0787 185.864V185.912C72.0031 187.014 71.9395 188.116 71.8838 189.206V189.257C71.4542 197.989 71.6093 205.948 71.6093 205.948C71.6093 205.948 71.9594 206.139 72.6317 206.402C72.2896 217.122 69.8551 230.969 68.8288 233.479C67.8025 235.989 58.4904 240.735 67.3888 240.508C76.2873 240.281 76.514 236.061 75.9452 234.346C79.3661 228.415 87.7952 219.648 85.1778 208.005C85.5318 207.981 85.8898 207.953 86.2558 207.917C89.5415 200.375 91.4429 193.621 92.5368 188.104L92.5448 188.068C92.684 187.364 92.8073 186.688 92.9227 186.023L92.9545 185.856C94.3189 177.857 93.933 172.996 93.933 172.996C94.0166 172.877 94.0961 172.749 94.1757 172.626C95.7469 170.267 97.0914 167.471 98.2013 163.91C99.5338 159.642 100.532 154.288 101.189 147.263C101.189 147.263 106.121 139.494 110.063 132.1C119.451 125.421 130.088 108.4 130.84 104.521C134.264 103.149 136.703 99.6682 133.787 101.017L133.771 101.029Z" fill="black" fill-opacity="0.25"/>
<path d="M147.579 222.126C148.255 217.99 151.911 215.316 154.719 214.139C147.213 201.756 158.749 199.154 163.088 200.889C164.62 201.513 163.745 204.31 162.138 203.86C159.15 203.001 155.367 204.437 156.533 209.015C157.818 214.036 159.226 213.984 161.907 214.421C163.999 214.763 163.482 217.946 161.159 217.568C157.022 216.892 151.584 218.435 151.091 222.604C150.872 224.808 152.09 226.781 156.724 228.423C159.142 229.33 157.985 232.131 155.332 231.51C151.199 230.508 146.704 227.441 147.571 222.123L147.579 222.126Z" fill="#FF917B"/>
<path d="M156.083 232.401C155.793 232.401 155.483 232.366 155.157 232.29C152.698 231.693 150.518 230.524 149.015 229C147.125 227.079 146.358 224.66 146.791 221.999C147.428 218.085 150.582 215.269 153.585 213.781C150.264 207.87 151.401 204.413 152.993 202.54C155.658 199.393 160.829 199.131 163.383 200.153C164.477 200.598 164.954 201.828 164.528 203.081C164.111 204.306 163.041 204.942 161.923 204.628C160.399 204.19 158.788 204.465 157.909 205.316C157.122 206.08 156.915 207.289 157.305 208.821C158.391 213.061 159.333 213.212 161.613 213.57L162.038 213.638C162.909 213.781 163.574 214.306 163.868 215.078C164.17 215.881 164.011 216.84 163.458 217.512C162.894 218.204 162.006 218.511 161.036 218.352C158.355 217.914 155.371 218.507 153.621 219.823C152.607 220.587 152.026 221.554 151.891 222.691C151.752 224.108 152.201 225.969 156.998 227.668C158.637 228.284 159.059 229.625 158.757 230.611C158.462 231.578 157.488 232.393 156.083 232.393V232.401ZM148.362 222.254C147.579 227.051 151.732 229.824 155.523 230.743C156.457 230.961 157.09 230.615 157.229 230.158C157.344 229.772 157.046 229.394 156.445 229.171C151.962 227.584 150.005 225.468 150.3 222.528C150.487 220.949 151.302 219.581 152.655 218.558C154.763 216.971 158.152 216.275 161.286 216.784C161.696 216.852 162.018 216.756 162.221 216.506C162.416 216.267 162.48 215.917 162.372 215.639C162.281 215.4 162.082 215.257 161.776 215.205L161.362 215.137C158.566 214.696 157.042 214.234 155.761 209.21C155.081 206.537 155.952 204.994 156.803 204.171C158.096 202.918 160.276 202.492 162.357 203.093C162.774 203.212 162.985 202.671 163.021 202.559C163.108 202.305 163.172 201.776 162.786 201.621C160.678 200.777 156.278 201.112 154.206 203.562C152.312 205.797 152.722 209.31 155.395 213.721C155.515 213.92 155.542 214.159 155.471 214.382C155.399 214.6 155.236 214.779 155.021 214.871C152.189 216.056 148.951 218.622 148.358 222.254H148.362Z" fill="#FF917B"/>
<path d="M161.808 203.617C162.559 203.617 163.168 203.008 163.168 202.257C163.168 201.506 162.559 200.897 161.808 200.897C161.057 200.897 160.448 201.506 160.448 202.257C160.448 203.008 161.057 203.617 161.808 203.617Z" fill="white"/>
<path d="M149.628 225.524C150.379 225.524 150.988 224.915 150.988 224.163C150.988 223.412 150.379 222.803 149.628 222.803C148.876 222.803 148.267 223.412 148.267 224.163C148.267 224.915 148.876 225.524 149.628 225.524Z" fill="white"/>
<path d="M126.667 8.31784C126.424 6.5835 126.432 5.00031 127.94 4.78948C129.356 4.59059 129.682 6.59145 129.861 7.86834C130.398 11.703 131.786 12.6219 141.094 11.3171C148.76 10.2391 152.057 10.5216 150.446 2.69713C150.021 0.338269 153.02 -0.178851 153.569 1.74643C156.266 12.9998 151.385 13.0356 141.528 14.4199C131.078 15.8877 127.586 14.8892 126.663 8.31784H126.667ZM140.514 20.1002C140.132 19.0381 140.721 17.9323 141.771 17.7851C142.821 17.6379 143.947 17.7135 144.237 18.7875C144.567 19.8099 143.891 21.3015 142.845 21.4487C141.751 21.6038 140.896 21.1623 140.514 20.1002Z" fill="#A4BDFF"/>
<path d="M141.844 22.4964C140.587 22.4964 139.609 21.8083 139.171 20.5911C138.897 19.8233 138.969 19.0039 139.37 18.3396C139.74 17.727 140.357 17.3173 141.065 17.2178C143.388 16.8917 144.168 17.8981 144.41 18.801C144.653 19.5489 144.51 20.5195 144.02 21.2951C143.607 21.9515 143.018 22.3652 142.358 22.4567C142.183 22.4805 142.008 22.4925 141.841 22.4925L141.844 22.4964ZM141.92 18.7453C141.745 18.7453 141.538 18.7612 141.292 18.7931C140.993 18.8368 140.826 19.0158 140.739 19.163C140.587 19.4176 140.564 19.7438 140.675 20.0541C140.826 20.4757 141.144 21.0246 142.147 20.8814C142.33 20.8536 142.529 20.6985 142.684 20.4479C142.915 20.0779 143.002 19.5847 142.895 19.2505C142.847 19.0795 142.755 18.7414 141.924 18.7414L141.92 18.7453ZM134.227 16.0324C128.809 16.0324 126.068 14.2225 125.285 8.65353C125.173 7.86194 125.074 6.84361 125.285 6.01224C125.539 5.00187 126.231 4.36541 127.238 4.22618C127.811 4.14663 128.857 4.22618 129.501 5.6781C129.819 6.39411 129.955 7.2414 130.058 7.98128C130.325 9.87871 130.762 10.6106 131.86 10.9925C133.24 11.4699 135.794 11.3983 140.397 10.7538C141.025 10.6663 141.626 10.5868 142.199 10.5112C145.683 10.0498 147.986 9.74744 148.905 8.45464C149.581 7.50393 149.637 5.79744 149.08 3.08454C148.77 1.36213 149.8 0.315954 150.886 0.0653497C152.155 -0.229011 153.388 0.494957 153.746 1.75594C154.864 6.42195 154.761 9.36557 153.412 11.3386C151.598 13.9918 147.799 14.5089 142.541 15.2329C142.059 15.3005 141.562 15.3681 141.053 15.4397C138.42 15.8097 136.156 16.0364 134.231 16.0364L134.227 16.0324ZM126.864 8.43078C127.683 14.2543 130.424 15.3164 140.83 13.8566C141.339 13.785 141.841 13.7173 142.322 13.6497C147.175 12.9854 150.683 12.5041 152.095 10.4356C153.154 8.88822 153.189 6.25489 152.207 2.15372C152.048 1.59284 151.527 1.54511 151.244 1.60876C151.061 1.65251 150.476 1.86334 150.64 2.77825C151.308 6.0202 151.177 7.99719 150.198 9.37352C148.877 11.2312 146.304 11.5693 142.401 12.0864C141.837 12.162 141.24 12.2416 140.611 12.3291C135.611 13.0331 133.014 13.0769 131.335 12.4961C129.151 11.7403 128.718 9.88269 128.479 8.20403C128.391 7.57156 128.276 6.85157 128.041 6.32251C127.791 5.75368 127.576 5.7855 127.457 5.80142C127.087 5.85313 126.924 6.00826 126.824 6.40207C126.681 6.97488 126.776 7.8341 126.86 8.43475L126.864 8.43078Z" fill="#A4BDFF"/>
<path d="M149.014 12.7213C149.766 12.7213 150.375 12.1122 150.375 11.3609C150.375 10.6095 149.766 10.0005 149.014 10.0005C148.263 10.0005 147.654 10.6095 147.654 11.3609C147.654 12.1122 148.263 12.7213 149.014 12.7213Z" fill="white"/>
<path d="M112.479 98.1013C112.761 96.3749 113.239 94.8633 114.742 95.11C116.15 95.3407 115.872 97.3495 115.665 98.6224C115.041 102.441 116.091 103.734 125.371 105.246C133.012 106.491 136.075 107.74 136.859 99.7879C137.153 97.4092 140.169 97.8069 140.125 99.8078C139.361 111.356 134.691 109.939 124.866 108.34C114.452 106.642 111.413 104.653 112.483 98.1013H112.479ZM121.89 95.9453C122.352 93.125 126.334 93.308 125.876 96.1283C125.713 97.1307 125.033 98.1371 123.816 98.1729C122.746 98.1371 121.719 96.9915 121.89 95.9453ZM125.22 90.981C125.399 89.891 126.592 89.1511 127.615 89.4574C128.768 89.8314 129.134 91.0128 128.963 92.0589C128.792 93.1051 127.591 93.8888 126.568 93.5825C125.466 93.1688 125.057 91.9834 125.22 90.981ZM126.755 96.7409C126.926 95.6947 127.65 94.6923 128.86 94.7042C129.882 94.7321 130.825 95.818 130.65 96.9119C130.487 97.9143 129.715 98.9088 128.541 98.9486C127.471 98.9128 126.584 97.7871 126.751 96.7409H126.755Z" fill="#6AB7E0"/>
<path d="M133.144 110.198C131.198 110.198 128.899 109.816 126.218 109.366C125.737 109.287 125.244 109.203 124.738 109.12C114.73 107.489 110.47 105.492 111.699 97.97C111.882 96.8601 112.363 93.9125 114.873 94.3183C115.442 94.4098 116.421 94.7996 116.604 96.3748C116.695 97.1505 116.572 98.0058 116.453 98.7417C116.142 100.635 116.345 101.463 117.28 102.151C118.457 103.018 120.916 103.706 125.502 104.454C126.131 104.557 126.727 104.661 127.296 104.756C130.761 105.353 133.052 105.743 134.313 104.78C135.244 104.072 135.801 102.457 136.071 99.7043C136.286 97.97 137.571 97.2738 138.693 97.3574C139.993 97.4528 140.952 98.5109 140.924 99.8197C140.61 104.605 139.635 107.386 137.762 108.869C136.533 109.844 135.001 110.19 133.152 110.19L133.144 110.198ZM113.266 98.2285C112.32 104.032 114.623 105.862 124.993 107.553C125.502 107.636 125.995 107.72 126.481 107.799C131.314 108.603 134.802 109.187 136.767 107.632C138.239 106.467 139.051 103.965 139.329 99.756C139.341 99.1713 138.86 98.9724 138.569 98.9525C138.382 98.9405 137.758 98.9644 137.647 99.8873C137.324 103.181 136.612 105.031 135.272 106.053C133.462 107.433 130.9 106.996 127.022 106.331C126.457 106.236 125.864 106.132 125.244 106.033C120.263 105.222 117.765 104.494 116.333 103.439C114.472 102.067 114.607 100.166 114.881 98.495C114.957 98.0376 115.096 97.1903 115.02 96.5658C114.949 95.9492 114.738 95.9134 114.615 95.8935C114.265 95.8338 113.672 95.7424 113.266 98.2285ZM128.545 99.7401C128.545 99.7401 128.529 99.7401 128.521 99.7401C127.793 99.7162 127.089 99.3542 126.588 98.7456C126.341 98.4473 126.162 98.1092 126.055 97.7591C125.574 98.4393 124.834 98.9405 123.839 98.9684C123.823 98.9684 123.808 98.9684 123.792 98.9684C123.036 98.9445 122.264 98.5428 121.731 97.8904C121.222 97.2699 120.995 96.5141 121.111 95.8179C121.305 94.6286 122.018 93.7216 123.072 93.3198C123.684 93.0891 124.337 93.0613 124.921 93.2323C124.448 92.5123 124.317 91.6133 124.44 90.8496C124.563 90.1018 125.017 89.4335 125.689 89.0118C126.353 88.5942 127.141 88.4788 127.849 88.6896C129.48 89.2187 129.977 90.8218 129.754 92.1822C129.643 92.8624 129.241 93.4829 128.645 93.9086C128.72 93.9046 128.796 93.9006 128.871 93.9006C129.611 93.9205 130.315 94.2825 130.824 94.8951C131.338 95.5116 131.56 96.2913 131.441 97.0312C131.234 98.2922 130.252 99.6764 128.577 99.7361C128.569 99.7361 128.557 99.7361 128.549 99.7361L128.545 99.7401ZM128.828 95.4957C128.044 95.4957 127.642 96.2316 127.539 96.8681C127.495 97.1465 127.594 97.4727 127.813 97.7353C128.016 97.9819 128.283 98.133 128.541 98.149C129.269 98.1052 129.754 97.4329 129.862 96.7806C129.91 96.4942 129.81 96.1799 129.591 95.9174C129.381 95.6628 129.098 95.5077 128.84 95.4997C128.84 95.4997 128.832 95.4997 128.828 95.4997V95.4957ZM124.13 94.7161C123.967 94.7161 123.792 94.7479 123.629 94.8115C123.33 94.9229 122.809 95.2372 122.674 96.0765C122.634 96.3191 122.742 96.6215 122.956 96.884C123.195 97.1744 123.521 97.3653 123.819 97.3812C124.826 97.3335 125.057 96.2277 125.092 96.0049C125.148 95.6708 125.144 95.2093 124.81 94.9388C124.635 94.7956 124.392 94.72 124.134 94.72L124.13 94.7161ZM126.369 94.3501C126.489 94.557 126.576 94.7797 126.632 95.0184C126.795 94.7996 126.99 94.6007 127.209 94.4336C126.922 94.4535 126.64 94.4257 126.365 94.3461L126.369 94.3501ZM126.823 92.8266C127.077 92.8942 127.376 92.8345 127.646 92.6675C127.937 92.4845 128.135 92.21 128.183 91.9316C128.287 91.2951 128.135 90.4637 127.372 90.2131C127.121 90.1376 126.807 90.1933 126.528 90.3643C126.242 90.5433 126.051 90.8138 126.003 91.1082C125.896 91.7605 126.147 92.5561 126.823 92.8266Z" fill="#6AB7E0"/>
<path d="M127.097 92.882C127.848 92.882 128.457 92.2729 128.457 91.5216C128.457 90.7702 127.848 90.1611 127.097 90.1611C126.345 90.1611 125.736 90.7702 125.736 91.5216C125.736 92.2729 126.345 92.882 127.097 92.882Z" fill="white"/>
<path d="M121.075 106.952C121.826 106.952 122.435 106.343 122.435 105.591C122.435 104.84 121.826 104.231 121.075 104.231C120.323 104.231 119.714 104.84 119.714 105.591C119.714 106.343 120.323 106.952 121.075 106.952Z" fill="white"/>
<path d="M36.8912 213.753C38.3351 222.811 28.0404 226.737 21.2701 223.196C19.7228 223.722 18.1356 224.024 16.2223 224.326C14.9931 224.521 14.4839 221.335 15.7131 221.14C16.5763 221.001 17.352 220.877 18.1157 220.71C16.9582 219.31 16.1069 217.484 15.7529 215.253C14.7863 209.198 18.2669 206.732 20.8167 206.326C22.6385 206.036 24.17 206.585 25.3594 207.607C25.5782 207.524 25.8447 207.436 26.1629 207.384C31.1869 206.398 36.1592 209.198 36.8832 213.749L36.8912 213.753ZM21.2264 219.7C21.9265 219.402 22.6027 218.968 23.2591 218.395C26.3976 215.841 25.0133 208.315 21.2343 208.92C19.5517 209.186 18.1475 211.514 18.7363 215.197C19.0624 217.246 20.0012 218.729 21.2264 219.7ZM33.4265 214.258C33.0844 212.118 31.2705 210.404 27.3085 210.428C28.8082 213.968 28.2712 218.813 25.0252 221.291C29.3611 221.86 34.1982 219.127 33.4225 214.258H33.4265Z" fill="#6ACFAF"/>
<path d="M28.8005 225.11C26.2428 225.52 23.5299 225.178 21.2108 224.052C19.7549 224.517 18.2552 224.808 16.3538 225.11C15.3474 225.269 14.4922 224.406 14.2694 223.006C14.0467 221.606 14.5916 220.516 15.598 220.357C16.0038 220.293 16.3817 220.233 16.7476 220.17C15.8606 218.785 15.2639 217.182 14.9775 215.384C14.3927 211.729 15.3991 209.461 16.3419 208.2C17.4 206.784 18.9911 205.817 20.7016 205.547C22.4121 205.277 24.1305 205.67 25.5307 206.724C25.6859 206.681 25.8609 206.637 26.0478 206.609C28.9238 206.044 31.9072 206.629 34.1945 208.228C36.0959 209.557 37.333 211.474 37.6791 213.634C38.2996 217.52 36.9591 220.874 33.9041 223.069C32.4243 224.135 30.6502 224.824 28.8005 225.118V225.11ZM21.1471 222.409C21.3142 222.381 21.4892 222.409 21.6404 222.489C25.1648 224.33 29.8228 224.036 32.9733 221.769C35.5111 219.943 36.6249 217.138 36.1038 213.877C35.8294 212.15 34.8269 210.603 33.2796 209.525C31.3423 208.172 28.8085 207.679 26.3223 208.168C26.0399 208.212 25.8211 208.288 25.6421 208.355C25.3716 208.455 25.0653 208.403 24.8465 208.212C23.7248 207.25 22.4161 206.88 20.9482 207.114C16.5766 207.81 16.1231 212.48 16.5448 215.13C16.863 217.119 17.5989 218.825 18.7365 220.205C18.9116 220.42 18.9673 220.711 18.8758 220.969C18.7843 221.228 18.5655 221.427 18.295 221.486C17.5193 221.657 16.7317 221.785 15.8964 221.916C15.8447 222.011 15.7651 222.302 15.8367 222.751C15.9083 223.201 16.0714 223.455 16.1509 223.527C18.0842 223.217 19.5759 222.926 21.0159 222.437C21.0596 222.421 21.1034 222.413 21.1471 222.405V222.409ZM27.7424 222.039C26.8275 222.186 25.8728 222.202 24.9261 222.079C24.6078 222.035 24.3453 221.808 24.2618 221.494C24.1782 221.18 24.2896 220.854 24.5482 220.655C27.6072 218.32 27.8776 213.801 26.5809 210.734C26.4774 210.487 26.5013 210.209 26.6485 209.986C26.7957 209.764 27.0423 209.628 27.3088 209.628C32.8897 209.592 33.9996 212.763 34.2183 214.131C34.5565 216.263 33.9717 218.181 32.5158 219.672C31.3066 220.917 29.604 221.741 27.7464 222.035L27.7424 222.039ZM26.923 220.536C28.6573 220.376 30.2962 219.672 31.3702 218.567C32.4601 217.449 32.8977 216.001 32.6391 214.382C32.3527 212.588 30.8769 211.506 28.4465 211.271C29.2977 214.227 28.9914 217.922 26.923 220.536ZM21.354 220.488C21.1392 220.524 20.9124 220.468 20.7334 220.325C19.2457 219.151 18.2831 217.421 17.9489 215.325C17.2647 211.044 19.0229 208.467 21.1073 208.137C22.7741 207.87 24.2737 208.837 25.113 210.718C26.2467 213.256 26.0518 217.15 23.7566 219.016C23.0605 219.621 22.3087 220.106 21.533 220.436C21.4733 220.46 21.4097 220.48 21.346 220.492L21.354 220.488ZM21.3619 209.708C20.0691 209.915 19.0309 211.979 19.5242 215.074C19.7668 216.586 20.3953 217.85 21.3579 218.761C21.8273 218.515 22.2888 218.193 22.7383 217.799C24.3891 216.454 24.5482 213.336 23.6651 211.367C23.3509 210.659 22.6309 209.505 21.3619 209.708Z" fill="#6ACFAF"/>
<path d="M21.9029 222.711C22.6542 222.711 23.2633 222.102 23.2633 221.351C23.2633 220.6 22.6542 219.99 21.9029 219.99C21.1516 219.99 20.5425 220.6 20.5425 221.351C20.5425 222.102 21.1516 222.711 21.9029 222.711Z" fill="white"/>
<path d="M34.8148 215.679C35.5661 215.679 36.1752 215.07 36.1752 214.318C36.1752 213.567 35.5661 212.958 34.8148 212.958C34.0634 212.958 33.4543 213.567 33.4543 214.318C33.4543 215.07 34.0634 215.679 34.8148 215.679Z" fill="white"/>
<path d="M26.6111 65.434C25.907 66.1619 25.1353 66.8262 24.3636 67.4269C27.2754 72.0372 27.156 76.6038 22.9554 80.9436C20.0397 83.9588 14.1047 85.8483 9.78477 82.6938C8.13397 81.4846 6.73774 79.615 5.62395 77.451C4.6812 75.5775 6.84116 74.2051 7.67651 75.3308C8.846 76.9737 10.2144 79.1337 12.1238 80.2753C15.1191 81.954 18.6832 80.7845 20.7 78.7001C23.8385 75.4542 23.755 72.3594 21.7183 69.2328C15.7158 72.7214 8.93749 72.7691 7.31851 67.5462C5.77113 62.7171 8.52778 57.8164 14.061 59.32C16.9091 60.0877 19.9721 62.1562 22.3985 64.885C23.1066 64.352 23.7152 63.7871 24.292 63.1904L26.6111 65.434ZM1.34776 61.1896C0.552188 60.4219 0.627764 59.0177 1.46311 58.3534C2.42973 57.6215 3.60717 57.9914 4.37092 58.7313C5.13069 59.4672 5.09091 60.9032 4.25557 61.5675C3.28895 62.2358 2.0757 61.8976 1.34776 61.1936V61.1896ZM19.6896 66.687L18.9259 65.9511C14.948 61.8459 9.08865 60.215 10.1388 66.683C10.6798 69.9011 15.3617 69.1055 19.6856 66.687H19.6896ZM4.71302 57.7129C2.66044 55.728 5.74726 53.1981 7.79983 55.187C8.5596 55.9229 8.42435 57.4584 7.589 58.1227C6.59056 58.8228 5.44096 58.417 4.71302 57.7129Z" fill="#FFB006"/>
<path d="M21.3243 83.2467C17.8317 85.3947 12.9589 85.9874 9.31912 83.3302C7.6524 82.109 6.17264 80.2513 4.91962 77.8089C4.19963 76.3809 4.7963 75.0404 5.75099 74.4516C6.65396 73.8947 7.73196 74.0658 8.3167 74.8534C8.4599 75.0523 8.59515 75.2472 8.7304 75.4421C9.78851 76.9497 10.9858 78.6602 12.5332 79.587C15.1666 81.0628 18.3488 79.9809 20.1309 78.1431C22.6131 75.5774 23.0308 73.131 21.4396 70.2948C17.414 72.4508 13.3248 73.0594 10.3732 71.9058C8.48775 71.1699 7.17108 69.7419 6.56247 67.7768C5.61574 64.8213 6.12888 61.8259 7.90301 59.9723C9.45039 58.3573 11.7098 57.8521 14.2715 58.5482C17.056 59.3 20.0195 61.1974 22.4858 63.799C22.8955 63.4569 23.2973 63.075 23.7229 62.6374C23.8701 62.4863 24.069 62.3988 24.2798 62.3948C24.4906 62.3948 24.6935 62.4704 24.8447 62.6175L27.1638 64.861C27.478 65.1673 27.486 65.6685 27.1836 65.9868C26.6546 66.5357 26.0698 67.0688 25.4055 67.6137C28.2696 72.5781 27.6411 77.2481 23.528 81.4964C22.8915 82.1528 22.1477 82.7455 21.3243 83.2506V83.2467ZM6.58634 75.8081C6.27209 76.003 6.0175 76.4525 6.33971 77.089C7.46146 79.2728 8.81791 80.9912 10.2579 82.0493C13.2214 84.2133 18.7029 84.1934 22.3864 80.3906C26.1415 76.5122 26.5671 72.411 23.6911 67.8524C23.4723 67.5063 23.5519 67.0489 23.8741 66.7983C24.4668 66.3368 24.9958 65.8913 25.4732 65.4418L24.2997 64.3081C23.8263 64.7616 23.3609 65.1554 22.8756 65.5214C22.5375 65.772 22.0761 65.7242 21.8016 65.414C19.4746 62.7926 16.5031 60.8036 13.8539 60.0876C11.853 59.5427 10.1903 59.8848 9.0526 61.0741C7.70014 62.4863 7.31826 64.9287 8.07803 67.2995C8.54742 68.815 9.51404 69.8652 10.95 70.4261C13.5794 71.4523 17.5533 70.7284 21.3203 68.5406C21.6863 68.3297 22.1556 68.4411 22.3864 68.7951C24.8248 72.5343 24.4628 75.9553 21.2726 79.2489C19.0688 81.5243 15.087 82.8449 11.7337 80.9634C9.87602 79.8536 8.5156 77.9124 7.42566 76.3531C7.29042 76.1581 7.15517 75.9672 7.0239 75.7842C6.90456 75.6251 6.65396 75.7604 6.57838 75.8041L6.58634 75.8081ZM20.107 67.3631C20.107 67.3631 20.0872 67.375 20.0792 67.379C16.3878 69.4435 13.0305 70.1198 11.0932 69.1929C10.1425 68.7394 9.54188 67.916 9.3589 66.8142C8.84178 63.6398 9.91978 62.3789 10.9103 61.8816C12.5889 61.0383 15.994 61.7782 19.5024 65.3981L20.2463 66.118C20.4253 66.2931 20.5128 66.5437 20.481 66.7943C20.4491 67.033 20.3139 67.2438 20.107 67.3671V67.3631ZM11.5388 63.3495C10.6437 63.8984 10.7671 65.581 10.9262 66.5556C11.0256 67.1443 11.2961 67.5302 11.7814 67.7609C13.0384 68.3655 15.6001 67.8564 18.3488 66.4959C15.9701 64.0535 12.9668 62.6295 11.6223 63.3017C11.5945 63.3176 11.5666 63.3335 11.5388 63.3495ZM4.57355 62.3073C3.22506 63.1347 1.68563 62.6215 0.798564 61.7623C0.253599 61.2372 -0.0328063 60.4814 0.00299439 59.6859C0.038795 58.9022 0.392825 58.1902 0.973591 57.7288C1.77314 57.1241 2.65622 57.0446 3.45179 57.2793C3.29665 56.9173 3.24892 56.5871 3.24494 56.3246C3.24096 55.6802 3.49952 55.0596 3.97289 54.5664C5.00315 53.5003 6.92445 53.2298 8.35648 54.6141C8.86565 55.1074 9.13216 55.8472 9.09636 56.6508C9.05658 57.4941 8.67868 58.2777 8.08598 58.7471C8.07405 58.759 8.06212 58.767 8.04621 58.7749C7.23075 59.3438 6.33971 59.3875 5.54812 59.129C5.67143 59.475 5.72712 59.849 5.71121 60.2388C5.67143 61.0264 5.32536 61.7384 4.75652 62.1919C4.74061 62.2038 4.72868 62.2118 4.71277 62.2237C4.66901 62.2556 4.62128 62.2834 4.57752 62.3112L4.57355 62.3073ZM2.04761 58.9181C2.01579 58.938 1.97999 58.9619 1.94816 58.9858C1.74131 59.1489 1.61005 59.4353 1.59413 59.7654C1.57822 60.0996 1.69358 60.4138 1.90441 60.6207C2.37777 61.0821 3.17334 61.3287 3.78195 60.9309C3.98084 60.7599 4.10416 60.4814 4.12007 60.1632C4.13598 59.8211 4.0246 59.4989 3.82173 59.304C3.38417 58.8784 2.66815 58.5402 2.04761 58.9221V58.9181ZM5.36912 55.4654C5.27365 55.525 5.19011 55.5927 5.11055 55.6722C4.92757 55.8592 4.82813 56.0859 4.8321 56.3087C4.8321 56.6508 5.07077 56.9491 5.26569 57.14C5.42878 57.2952 6.27209 58.043 7.10744 57.4821C7.33417 57.2912 7.48136 56.9451 7.50125 56.5672C7.51716 56.2291 7.42169 55.9228 7.24666 55.7518C6.89263 55.4097 6.48291 55.2386 6.06126 55.2545C5.81463 55.2625 5.57199 55.3381 5.36912 55.4654Z" fill="#FFB006"/>
<path d="M21.9088 68.3975C22.6601 68.3975 23.2692 67.7885 23.2692 67.0371C23.2692 66.2858 22.6601 65.6767 21.9088 65.6767C21.1574 65.6767 20.5483 66.2858 20.5483 67.0371C20.5483 67.7885 21.1574 68.3975 21.9088 68.3975Z" fill="white"/>
<path d="M11.6702 83.5529C12.4216 83.5529 13.0307 82.9438 13.0307 82.1924C13.0307 81.4411 12.4216 80.832 11.6702 80.832C10.9189 80.832 10.3098 81.4411 10.3098 82.1924C10.3098 82.9438 10.9189 83.5529 11.6702 83.5529Z" fill="white"/>
<path d="M33.407 120.286C34.9066 136.603 33.0331 142.601 54.597 143.353C76.1609 144.105 64.3467 132.852 57.0354 131.821C49.7201 130.791 41.4701 130.978 41.4701 130.978L37.532 119.164L33.407 120.29V120.286Z" fill="#FFAF80"/>
<path d="M26.4254 201.581C21.5804 204.286 18.5652 209.011 24.7428 209.027C32.1734 209.047 37.3924 210.133 35.1767 202.543C35.1767 202.543 32.2172 201.087 26.4254 201.577V201.581Z" fill="#FFAF80"/>
<path d="M68.4195 202.523C68.0774 213.244 65.643 227.091 64.6167 229.601C63.5904 232.111 54.2783 236.856 63.1767 236.63C72.0752 236.403 72.3019 232.182 71.7331 230.468C75.154 224.537 83.5831 215.77 80.9656 204.127C78.3482 192.479 68.4235 202.523 68.4235 202.523H68.4195Z" fill="#FFAF80"/>
<path d="M105.843 128.225C115.231 121.547 125.868 104.525 126.62 100.647L123.243 98.5189C110.227 111.156 100.175 124.279 100.175 124.279L100.843 128.225H105.847H105.843Z" fill="#FFAF80"/>
<path d="M93.9774 160.036C95.31 155.768 96.3084 150.414 96.9648 143.389C96.9648 143.389 101.897 135.62 105.839 128.225C104.113 126.499 100.171 124.279 100.171 124.279L74.5337 127.485L56.6532 129.86L53.7017 145.537L60.3487 147.343L58.8928 150.935C69.8199 149.737 81.7256 150.724 93.9774 160.032V160.036Z" fill="#FF6473"/>
<path d="M39.5244 163.898C39.6437 168.453 41.3025 174.082 43.2437 178.481C43.2676 178.39 43.2994 178.278 43.3233 178.191C53.0849 179.253 68.1331 178.601 68.1331 178.601C67.1506 189.48 67.3972 202.074 67.3972 202.074C67.3972 202.074 72.6559 204.946 82.0397 204.047C90.8824 183.744 89.709 169.125 89.709 169.125C89.7925 169.006 89.8721 168.879 89.9516 168.755C81.0253 161.711 68.4633 158.687 55.9092 158.079C54.8988 158.401 46.1992 161.205 39.5244 163.902V163.898Z" fill="#AEAF22"/>
<path d="M58.8928 150.939L56.0128 158.043C56.0128 158.043 55.9731 158.055 55.9094 158.075C68.4635 158.684 81.0256 161.711 89.9519 168.752C91.5231 166.393 92.8676 163.596 93.9774 160.036C81.7257 150.728 69.816 149.742 58.8928 150.939Z" fill="#FBDF52"/>
<path d="M32.8853 167.065C30.9242 168.374 30.8406 170.745 30.8406 172.873C30.8406 175.001 27.4873 197.818 26.4252 201.581C25.3632 205.344 31.6601 208.761 35.1765 202.548C38.6293 196.449 41.9349 183.374 43.2476 178.482C41.3064 174.086 39.6476 168.453 39.5283 163.899C36.708 165.04 34.2457 166.162 32.8853 167.065Z" fill="#FFAF80"/>
<path d="M54.0835 158.668C54.1829 164.03 57.6556 178.796 57.6556 178.796H62.5762C58.5228 171.552 56.0127 158.039 56.0127 158.039L54.0875 158.664L54.0835 158.668Z" fill="#733E1D"/>
<path d="M67.871 181.982H88.7348L88.3211 184.23L67.6721 185.379L67.871 181.982Z" fill="#733E1D"/>
<path d="M64.8955 84.1187C65.6036 94.8748 65.6712 100.818 61.9599 108.173C58.2485 115.532 65.1302 125.142 76.1807 127.278C87.2311 129.414 98.0071 102.938 98.0071 102.938L88.1023 86.6645L64.8955 84.1187Z" fill="#FFAF80"/>
<path d="M71.2636 77.3246C61.3587 75.3437 58.9521 84.5405 66.0287 87.3727C73.1053 90.2009 74.6169 92.1859 72.3972 99.4017C71.8324 101.239 69.0002 103.789 69.8514 107.89C74.0958 104.072 78.3401 105.345 78.3401 110.862C78.3401 116.379 71.9716 118.221 71.9716 118.221C72.254 124.021 74.5174 128.269 82.1589 129.399C89.8003 130.532 125.883 125.58 117.816 90.3441C126.591 84.8269 125.175 76.1949 122.061 71.8074C118.946 67.4198 105.445 63.1754 100.171 74.6356C88.245 68.4103 74.3782 72.229 71.2636 77.3246Z" fill="#875944"/>
<path d="M33.4064 120.285C28.9353 117.262 28.1 116.105 30.5384 116.618C28.3029 113.782 28.8279 112.318 31.143 114.374C30.0809 109.565 31.8431 110.834 33.1916 112.954C33.2314 109.092 35.3993 110.214 35.3993 113.428C35.3993 116.642 36.4097 112 37.607 112.25C39.1067 112.56 37.4599 116.049 37.5315 119.16C37.607 122.27 33.4064 120.285 33.4064 120.285Z" fill="#FFAF80"/>
<path d="M123.238 98.5187C122.602 94.3977 122.645 92.9219 123.556 92.8742C124.467 92.8264 124.396 94.9188 125.092 94.7438C126.138 92.0468 127.864 89.3498 127.212 94.3102C129.694 91.4382 129.65 92.7867 128.954 95.2688C131.564 93.093 131.094 95.2012 129.563 97.1384C132.479 95.7899 130.04 99.2706 126.615 100.643C122.876 102.143 123.238 98.5148 123.238 98.5148V98.5187Z" fill="#FFAF80"/>
<path d="M64.3464 95.893C65.687 95.1492 67.9146 95.4992 68.8454 96.6488" stroke="#875944" stroke-width="4" stroke-linecap="round" stroke-linejoin="round"/>
<path d="M81.4585 152.266C81.6875 151.502 81.2539 150.697 80.4901 150.468C79.7262 150.239 78.9213 150.672 78.6922 151.436L78.0833 153.467C77.8543 154.231 78.2879 155.036 79.0518 155.265C79.8156 155.494 80.6206 155.06 80.8496 154.297L81.4585 152.266Z" stroke="#385069" stroke-width="3" stroke-miterlimit="10"/>
</svg>
