<svg width="150" height="171" viewBox="0 0 150 171" fill="none" xmlns="http://www.w3.org/2000/svg">
<mask id="mask0_62_1208" style="mask-type:luminance" maskUnits="userSpaceOnUse" x="0" y="1" width="149" height="148">
<path d="M0.994629 1.09375H148.604V148.604H0.994629V1.09375Z" fill="white"/>
</mask>
<g mask="url(#mask0_62_1208)">
<mask id="mask1_62_1208" style="mask-type:luminance" maskUnits="userSpaceOnUse" x="-1" y="0" width="151" height="150">
<path d="M-0.000244141 74.8021C-0.000244141 116.109 33.4893 149.599 74.7966 149.599C116.109 149.599 149.599 116.109 149.599 74.8021C149.599 33.4896 116.109 0 74.7966 0C33.4893 0 -0.000244141 33.4896 -0.000244141 74.8021Z" fill="white"/>
</mask>
<g mask="url(#mask1_62_1208)">
<mask id="mask2_62_1208" style="mask-type:luminance" maskUnits="userSpaceOnUse" x="1" y="1" width="148" height="148">
<path d="M74.7966 1.19794C115.448 1.19794 148.401 34.1511 148.401 74.8021C148.401 115.448 115.448 148.406 74.7966 148.406C34.1507 148.406 1.19238 115.448 1.19238 74.8021C1.19238 34.1511 34.1507 1.19794 74.7966 1.19794Z" fill="white"/>
</mask>
<g mask="url(#mask2_62_1208)">
<path d="M149.599 74.8021C149.599 77.25 149.479 79.6927 149.239 82.1302C149 84.5677 148.64 86.9896 148.161 89.3906C147.682 91.7969 147.088 94.1667 146.38 96.5156C145.666 98.8594 144.844 101.161 143.906 103.427C142.969 105.688 141.922 107.901 140.765 110.062C139.614 112.219 138.354 114.318 136.995 116.359C135.63 118.396 134.177 120.359 132.62 122.255C131.067 124.146 129.422 125.958 127.692 127.693C125.958 129.422 124.146 131.068 122.25 132.62C120.359 134.177 118.39 135.635 116.354 136.995C114.317 138.354 112.219 139.615 110.057 140.766C107.901 141.922 105.687 142.969 103.422 143.906C101.161 144.844 98.8539 145.667 96.5102 146.38C94.1664 147.089 91.7966 147.688 89.3904 148.161C86.9893 148.641 84.5675 149 82.13 149.24C79.6925 149.479 77.2498 149.599 74.7966 149.599C72.3487 149.599 69.906 149.479 67.4685 149.24C65.031 149 62.6091 148.641 60.2081 148.161C57.8018 147.688 55.432 147.089 53.0831 146.38C50.7393 145.667 48.4373 144.844 46.1716 143.906C43.9112 142.969 41.6977 141.922 39.5362 140.766C37.38 139.615 35.281 138.354 33.2393 136.995C31.2029 135.635 29.2393 134.177 27.3435 132.62C25.4529 131.068 23.6404 129.422 21.906 127.693C20.1768 125.958 18.531 124.146 16.9789 122.255C15.4216 120.359 13.9633 118.396 12.6039 116.359C11.2445 114.318 9.98413 112.219 8.82788 110.062C7.67684 107.901 6.62996 105.688 5.69246 103.427C4.75496 101.161 3.93205 98.8594 3.21851 96.5156C2.51017 94.1667 1.91121 91.7969 1.43726 89.3906C0.958088 86.9896 0.598714 84.5677 0.359131 82.1302C0.119547 79.6927 -0.000244141 77.25 -0.000244141 74.8021C-0.000244141 72.349 0.119547 69.9062 0.359131 67.4688C0.598714 65.0312 0.958088 62.6094 1.43726 60.2083C1.91121 57.8021 2.51017 55.4323 3.21851 53.0885C3.93205 50.7448 4.75496 48.4375 5.69246 46.1771C6.62996 43.9115 7.67684 41.6979 8.82788 39.5417C9.98413 37.3802 11.2445 35.2812 12.6039 33.2448C13.9633 31.2083 15.4216 29.2396 16.9789 27.349C18.531 25.4531 20.1768 23.6406 21.906 21.9062C23.6404 20.1771 25.4529 18.5313 27.3435 16.9792C29.2393 15.4219 31.2029 13.9688 33.2393 12.6042C35.281 11.2448 37.38 9.98438 39.5362 8.83333C41.6977 7.67708 43.9112 6.63021 46.1716 5.69271C48.4373 4.75521 50.7393 3.93229 53.0831 3.21875C55.432 2.51042 57.8018 1.91667 60.2081 1.4375C62.6091 0.958335 65.031 0.598958 67.4685 0.359375C69.906 0.119791 72.3487 0 74.7966 0C77.2498 0 79.6925 0.119791 82.13 0.359375C84.5675 0.598958 86.9893 0.958335 89.3904 1.4375C91.7966 1.91667 94.1664 2.51042 96.5102 3.21875C98.8539 3.93229 101.161 4.75521 103.422 5.69271C105.687 6.63021 107.901 7.67708 110.057 8.83333C112.219 9.98438 114.317 11.2448 116.354 12.6042C118.39 13.9688 120.359 15.4219 122.25 16.9792C124.146 18.5313 125.958 20.1771 127.692 21.9062C129.422 23.6406 131.067 25.4531 132.62 27.349C134.177 29.2396 135.63 31.2083 136.995 33.2448C138.354 35.2812 139.614 37.3802 140.765 39.5417C141.922 41.6979 142.969 43.9115 143.906 46.1771C144.844 48.4375 145.666 50.7448 146.38 53.0885C147.088 55.4323 147.682 57.8021 148.161 60.2083C148.64 62.6094 149 65.0312 149.239 67.4688C149.479 69.9062 149.599 72.349 149.599 74.8021Z" fill="white"/>
</g>
</g>
</g>
<mask id="mask3_62_1208" style="mask-type:luminance" maskUnits="userSpaceOnUse" x="0" y="0" width="150" height="150">
<path d="M0 0H149.599V149.599H0V0Z" fill="white"/>
</mask>
<g mask="url(#mask3_62_1208)">
<mask id="mask4_62_1208" style="mask-type:luminance" maskUnits="userSpaceOnUse" x="0" y="0" width="150" height="150">
<path d="M0 74.8021C0 116.109 33.4896 149.599 74.7969 149.599C116.109 149.599 149.599 116.109 149.599 74.8021C149.599 33.4896 116.109 0 74.7969 0C33.4896 0 0 33.4896 0 74.8021Z" fill="white"/>
</mask>
<g mask="url(#mask4_62_1208)">
<mask id="mask5_62_1208" style="mask-type:luminance" maskUnits="userSpaceOnUse" x="0" y="0" width="150" height="150">
<path d="M0 74.8021C0 116.109 33.4896 149.599 74.7969 149.599C116.109 149.599 149.599 116.109 149.599 74.8021C149.599 33.4896 116.109 0 74.7969 0C33.4896 0 0 33.4896 0 74.8021Z" fill="white"/>
</mask>
<g mask="url(#mask5_62_1208)">
<path d="M0 74.8021C0 116.109 33.4896 149.599 74.7969 149.599C116.109 149.599 149.599 116.109 149.599 74.8021C149.599 33.4896 116.109 0 74.7969 0C33.4896 0 0 33.4896 0 74.8021Z" fill="#FFE9EE" stroke="black" stroke-opacity="0.2" stroke-width="1.99468"/>
</g>
</g>
</g>
<path fill-rule="evenodd" clip-rule="evenodd" d="M87.4321 52.8698C87.4321 52.8698 84.6978 55.5625 83.4998 58.4062C82.3071 61.2552 79.1821 64.1823 79.1821 64.1823C79.1821 64.1823 79.354 64.8541 80.1248 65.4166C80.8644 65.9531 82.1821 66.3802 83.3175 66.6666C86.4009 67.4427 92.7603 67.9427 94.6457 68.0208C96.5363 68.1041 100.604 66.4114 100.745 64.4427C100.885 62.4687 99.5311 56.7916 97.3853 54.4583C95.2394 52.125 93.3071 50.7395 91.5311 50.7031C89.7603 50.6666 87.4321 52.8698 87.4321 52.8698Z" fill="#8A855F"/>
<path fill-rule="evenodd" clip-rule="evenodd" d="M97.8125 60.0312C97.7448 60 97.7188 59.9271 97.7448 59.8646C97.776 59.8021 97.849 59.7708 97.9115 59.8021C97.9115 59.8021 99.2292 60.3802 99.8906 61.1562C99.9323 61.2083 99.9271 61.2864 99.875 61.3333C99.8229 61.3802 99.7448 61.3698 99.6979 61.3177C99.0677 60.5781 97.8125 60.0312 97.8125 60.0312Z" fill="#53680D"/>
<path fill-rule="evenodd" clip-rule="evenodd" d="M96.9427 64.1093C96.9531 64.0416 97.0156 63.9947 97.0833 64.0051C97.151 64.0155 97.2031 64.078 97.1927 64.1457C97.1927 64.1457 97.1354 64.5676 97.3854 64.9582C97.5521 65.2239 97.8646 65.4687 98.4218 65.5728C98.4896 65.5832 98.5312 65.6509 98.5208 65.7187C98.5156 65.7864 98.4427 65.828 98.375 65.8176C97.7291 65.703 97.3698 65.4009 97.1718 65.0937C96.875 64.6197 96.9427 64.1093 96.9427 64.1093Z" fill="#53680D"/>
<path fill-rule="evenodd" clip-rule="evenodd" d="M86.276 57.4792C86.2812 57.4115 86.3385 57.3594 86.4062 57.3646C86.4739 57.3698 86.5312 57.4323 86.526 57.5L86.2968 60.3386C86.2916 60.4063 86.2343 60.4584 86.1666 60.4532C86.0989 60.448 86.0416 60.3907 86.052 60.323L86.276 57.4792Z" fill="#53680D"/>
<path fill-rule="evenodd" clip-rule="evenodd" d="M87.3385 53.4375C87.3281 53.3698 87.3698 53.3021 87.4323 53.2865C87.5052 53.2761 87.5729 53.3178 87.5833 53.3855C87.5833 53.3855 87.7864 54.3646 88.1823 55.2448C88.4271 55.8073 88.75 56.3334 89.1562 56.5053C89.2187 56.5365 89.2448 56.6094 89.2187 56.6719C89.1927 56.7344 89.1198 56.7657 89.0573 56.7396C88.7135 56.5886 88.4114 56.2292 88.1718 55.7865C87.625 54.8073 87.3385 53.4375 87.3385 53.4375Z" fill="#53680D"/>
<path fill-rule="evenodd" clip-rule="evenodd" d="M93.974 52.0156C94.0052 51.9531 94.0781 51.9219 94.1406 51.9479C94.2031 51.974 94.2344 52.0521 94.2031 52.1146C94.2031 52.1146 93.6198 53.5156 92.6875 54.7969C92.0469 55.6615 91.25 56.4636 90.3698 56.7604C90.3021 56.7813 90.2292 56.7448 90.2083 56.6771C90.1927 56.6146 90.224 56.5417 90.2865 56.5208C91.1302 56.2448 91.8802 55.4688 92.4844 54.6458C93.4062 53.3958 93.974 52.0156 93.974 52.0156Z" fill="#53680D"/>
<path fill-rule="evenodd" clip-rule="evenodd" d="M89.5521 55.3802C89.5469 55.3125 89.599 55.2552 89.6719 55.25C89.7396 55.25 89.7969 55.3021 89.8021 55.3698L89.9792 59.4635C89.9844 59.5312 89.9323 59.5938 89.8594 59.5938C89.7917 59.599 89.7344 59.5469 89.7344 59.474L89.5521 55.3802Z" fill="#53680D"/>
<path fill-rule="evenodd" clip-rule="evenodd" d="M89.2395 53.0312C89.2395 53.0312 88.9843 55.7812 89.6614 55.8228C90.3385 55.8697 92.3645 52.9947 92.3906 51.8593C92.4218 50.7291 89.2395 53.0312 89.2395 53.0312Z" fill="#FFC6BA"/>
<mask id="mask6_62_1208" style="mask-type:luminance" maskUnits="userSpaceOnUse" x="89" y="51" width="4" height="4">
<path d="M89.1616 51.5312H92.4064V54.4271H89.1616V51.5312Z" fill="white"/>
</mask>
<g mask="url(#mask6_62_1208)">
<mask id="mask7_62_1208" style="mask-type:luminance" maskUnits="userSpaceOnUse" x="89" y="51" width="4" height="5">
<path fill-rule="evenodd" clip-rule="evenodd" d="M89.2398 53.0313C89.2398 53.0313 88.9846 55.7813 89.6617 55.823C90.3387 55.8698 92.3648 52.9948 92.3908 51.8594C92.4221 50.7292 89.2398 53.0313 89.2398 53.0313Z" fill="white"/>
</mask>
<g mask="url(#mask7_62_1208)">
<path fill-rule="evenodd" clip-rule="evenodd" d="M88.4534 53.3021C88.4534 53.3021 88.0315 54.6719 89.1929 54.2969C90.3492 53.9219 93.7138 52.4792 93.3075 51.3021C92.8961 50.125 88.4534 53.3021 88.4534 53.3021Z" fill="#FF8C83"/>
</g>
</g>
<path fill-rule="evenodd" clip-rule="evenodd" d="M80.5574 40.2397C80.5574 40.2397 79.7189 43.0001 81.5627 47.6667C81.5627 47.6667 80.4897 51.6303 83.7554 52.9011C87.0106 54.1667 95.2866 53.5105 96.2606 48.4376C96.2606 48.4376 98.5106 48.6667 98.9429 46.7657C99.3804 44.8595 98.8856 43.2032 97.5939 42.7032C97.5939 42.7032 97.4272 37.1407 94.4585 37.3334C91.4949 37.5261 82.2345 34.4636 80.5574 40.2397Z" fill="#FFC6BA"/>
<mask id="mask8_62_1208" style="mask-type:luminance" maskUnits="userSpaceOnUse" x="90" y="45" width="6" height="7">
<path d="M90.0312 45.0938H95.3646V51.7604H90.0312V45.0938Z" fill="white"/>
</mask>
<g mask="url(#mask8_62_1208)">
<mask id="mask9_62_1208" style="mask-type:luminance" maskUnits="userSpaceOnUse" x="80" y="36" width="20" height="18">
<path fill-rule="evenodd" clip-rule="evenodd" d="M80.5572 40.2396C80.5572 40.2396 79.7187 43 81.5624 47.6667C81.5624 47.6667 80.4895 51.6302 83.7551 52.9011C87.0103 54.1667 95.2864 53.5104 96.2603 48.4375C96.2603 48.4375 98.5103 48.6667 98.9426 46.7656C99.3801 44.8594 98.8853 43.2031 97.5937 42.7031C97.5937 42.7031 97.427 37.1406 94.4582 37.3334C91.4947 37.5261 82.2343 34.4636 80.5572 40.2396Z" fill="white"/>
</mask>
<g mask="url(#mask9_62_1208)">
<path d="M95.3125 48.2344C95.3125 48.5261 95.2604 48.8021 95.1458 49.073C95.0365 49.3438 94.875 49.5834 94.6719 49.7865C94.4635 49.9948 94.2292 50.1511 93.9583 50.2657C93.6875 50.375 93.4115 50.4323 93.1198 50.4323C92.8281 50.4323 92.5469 50.375 92.276 50.2657C92.0104 50.1511 91.7708 49.9948 91.5677 49.7865C91.3594 49.5834 91.2031 49.3438 91.0885 49.073C90.9792 48.8021 90.9219 48.5261 90.9219 48.2344C90.9219 47.9427 90.9792 47.6615 91.0885 47.3907C91.2031 47.1198 91.3594 46.8855 91.5677 46.6771C91.7708 46.474 92.0104 46.3125 92.276 46.2032C92.5469 46.0886 92.8281 46.0365 93.1198 46.0365C93.4115 46.0365 93.6875 46.0886 93.9583 46.2032C94.2292 46.3125 94.4635 46.474 94.6719 46.6771C94.875 46.8855 95.0365 47.1198 95.1458 47.3907C95.2604 47.6615 95.3125 47.9427 95.3125 48.2344Z" fill="#FF8C83"/>
</g>
</g>
<mask id="mask10_62_1208" style="mask-type:luminance" maskUnits="userSpaceOnUse" x="80" y="46" width="4" height="8">
<path d="M80.3179 46.427H83.3647V53.0937H80.3179V46.427Z" fill="white"/>
</mask>
<g mask="url(#mask10_62_1208)">
<mask id="mask11_62_1208" style="mask-type:luminance" maskUnits="userSpaceOnUse" x="80" y="36" width="20" height="18">
<path fill-rule="evenodd" clip-rule="evenodd" d="M80.5574 40.2395C80.5574 40.2395 79.7189 43 81.5627 47.6666C81.5627 47.6666 80.4897 51.6302 83.7554 52.901C87.0106 54.1666 95.2866 53.5104 96.2606 48.4375C96.2606 48.4375 98.5106 48.6666 98.9429 46.7656C99.3804 44.8593 98.8856 43.2031 97.5939 42.7031C97.5939 42.7031 97.4272 37.1406 94.4585 37.3333C91.4949 37.526 82.2345 34.4635 80.5574 40.2395Z" fill="white"/>
</mask>
<g mask="url(#mask11_62_1208)">
<path d="M83.1617 49.7239C83.1617 50 83.1044 50.2708 83.0002 50.526C82.8909 50.7864 82.7398 51.0156 82.5419 51.2135C82.344 51.4114 82.12 51.5625 81.8596 51.6666C81.6044 51.776 81.3336 51.8281 81.0575 51.8281C80.7763 51.8281 80.5107 51.776 80.2502 51.6666C79.995 51.5625 79.7659 51.4114 79.568 51.2135C79.37 51.0156 79.219 50.7864 79.1148 50.526C79.0055 50.2708 78.9534 50 78.9534 49.7239C78.9534 49.4427 79.0055 49.177 79.1148 48.9166C79.219 48.6614 79.37 48.4323 79.568 48.2343C79.7659 48.0364 79.995 47.8854 80.2502 47.776C80.5107 47.6718 80.7763 47.6198 81.0575 47.6198C81.3336 47.6198 81.6044 47.6718 81.8596 47.776C82.12 47.8854 82.344 48.0364 82.5419 48.2343C82.7398 48.4323 82.8909 48.6614 83.0002 48.9166C83.1044 49.177 83.1617 49.4427 83.1617 49.7239Z" fill="#FF8C83"/>
</g>
</g>
<path fill-rule="evenodd" clip-rule="evenodd" d="M96.9115 47.7866C96.9011 47.8751 96.823 47.9428 96.7292 47.9376C96.6355 47.9272 96.5678 47.8491 96.5782 47.7553C96.5782 47.7553 96.7136 46.1355 97.1199 45.297C97.3334 44.8491 97.6407 44.6199 97.9949 44.771C98.4376 44.9585 98.547 45.3595 98.5105 45.7918C98.4584 46.3543 98.1303 46.948 98.1303 46.948C98.0886 47.0314 97.9845 47.0574 97.9063 47.0158C97.8282 46.9689 97.797 46.8699 97.8386 46.7866C97.8386 46.7866 98.1303 46.2605 98.1772 45.7605C98.2032 45.4793 98.1563 45.198 97.8647 45.0783C97.7657 45.0366 97.6824 45.073 97.6095 45.146C97.5417 45.2189 97.4792 45.323 97.4167 45.4428C97.0365 46.2397 96.9115 47.7866 96.9115 47.7866Z" fill="#FE6A5E"/>
<path fill-rule="evenodd" clip-rule="evenodd" d="M97.0469 46.1822C96.9531 46.1822 96.875 46.1093 96.875 46.0208C96.875 45.927 96.9427 45.8489 97.0365 45.8489C97.0365 45.8489 97.5 45.8385 97.7292 46.2552C97.8594 46.4947 97.9167 46.901 97.6823 47.5833C97.6563 47.6718 97.5625 47.7187 97.474 47.6874C97.3854 47.6562 97.3385 47.5624 97.3698 47.4739C97.5573 46.927 97.5417 46.6041 97.4323 46.4114C97.3073 46.177 97.0469 46.1822 97.0469 46.1822Z" fill="#FE6A5E"/>
<path fill-rule="evenodd" clip-rule="evenodd" d="M79.646 54.9792C79.646 54.9792 84.0991 56.849 85.8647 60.6511C85.8647 60.6511 91.745 56.6615 93.9533 55.9636C93.9533 55.9636 95.0418 57.0365 95.7762 57.0626L86.6564 65.7709L78.646 57.1095C78.646 57.1095 79.521 55.8386 79.646 54.9792Z" fill="#FFECE4"/>
<path fill-rule="evenodd" clip-rule="evenodd" d="M90.3228 69.7188C90.3228 69.7188 94.9321 70.901 94.6092 71.5625C94.2967 72.224 94.1457 72.5677 94.203 73.2083C94.2655 73.8542 94.2915 76.2344 88.6665 73.474C88.6665 73.474 89.1925 70.0833 90.3228 69.7188Z" fill="#FFC6BA"/>
<path fill-rule="evenodd" clip-rule="evenodd" d="M81.599 65.7084C81.599 65.7084 78.3177 65.8126 78.276 68.1042C78.2344 70.3959 81.4479 72.2136 84.5521 72.8334C87.6562 73.4584 88.974 74.0261 88.974 74.0261C88.974 74.0261 99.1875 73.3334 102.016 71.1667C104.432 69.3126 104.766 66.2188 102.229 65.3074C101.792 65.1511 100.63 64.9167 100.63 64.9167C100.63 64.9167 100.38 65.8803 98.8073 65.8803C98.151 65.8803 97.3385 65.4636 96.6302 65.6355C92.8229 66.547 88.7031 68.4688 88.7031 68.4688L81.599 65.7084Z" fill="#583247"/>
<path fill-rule="evenodd" clip-rule="evenodd" d="M87.7814 69.7864C87.7814 69.7864 83.4012 70.4635 83.3335 71.1926C83.271 71.7655 83.6929 72.2395 83.5731 72.8749C83.4429 73.5051 82.9845 75.9791 88.8491 73.7916C88.8491 73.7916 88.2293 73.026 87.9637 71.9687C87.771 71.1978 87.8543 70.7447 87.7814 69.7864Z" fill="#FFC6BA"/>
<path fill-rule="evenodd" clip-rule="evenodd" d="M93.8749 67.3022C93.9374 67.2761 94.0104 67.3074 94.0364 67.3699C94.0624 67.4376 94.026 67.5105 93.9635 67.5313C93.9635 67.5313 88.6145 69.5991 87.9062 69.8751C87.901 70.1251 87.9062 70.9272 88.0937 71.797C88.2395 72.4897 88.5051 73.2293 88.9791 73.7657C89.0208 73.8178 89.0156 73.8959 88.9635 73.9428C88.9114 73.9897 88.8333 73.9845 88.7864 73.9324C88.2864 73.3647 88.0051 72.5834 87.8489 71.8491C87.6145 70.7605 87.6562 69.7813 87.6562 69.7813C87.6614 69.7345 87.6874 69.6876 87.7395 69.672L93.8749 67.3022Z" fill="#56001B"/>
<path fill-rule="evenodd" clip-rule="evenodd" d="M78.4165 56.7812L81.2498 65.5469L87.7707 69.5885L97.0311 64.9167L95.7082 57.0938L85.9373 61.6875L78.4165 56.7812Z" fill="#CC9214"/>
<mask id="mask12_62_1208" style="mask-type:luminance" maskUnits="userSpaceOnUse" x="84" y="61" width="5" height="9">
<path d="M84.6978 61.0938H88.6978V69.5885H84.6978V61.0938Z" fill="white"/>
</mask>
<g mask="url(#mask12_62_1208)">
<mask id="mask13_62_1208" style="mask-type:luminance" maskUnits="userSpaceOnUse" x="78" y="56" width="20" height="14">
<path fill-rule="evenodd" clip-rule="evenodd" d="M78.4165 56.7812L81.2498 65.5469L87.7707 69.5885L97.0311 64.9167L95.7082 57.0938L85.9373 61.6875L78.4165 56.7812Z" fill="white"/>
</mask>
<g mask="url(#mask13_62_1208)">
<path fill-rule="evenodd" clip-rule="evenodd" d="M85.8175 61.5781C85.8019 61.5104 85.8435 61.4427 85.9112 61.4271C85.9737 61.4115 86.0414 61.4532 86.0571 61.5209L87.906 69.5573C87.9269 69.625 87.88 69.6927 87.8123 69.7084C87.7498 69.724 87.6821 69.6823 87.6664 69.6146L85.8175 61.5781Z" fill="#D8C85E"/>
</g>
</g>
<path fill-rule="evenodd" clip-rule="evenodd" d="M97.5833 59.75C97.5833 59.75 94.5729 59.5833 94.8958 60.1042C95.2188 60.6302 96.0469 60.6875 96.0469 60.6875C96.0469 60.6875 94.1979 61.3333 94.5781 61.6354C94.9635 61.9375 96.1146 61.9948 96.1146 61.9948C96.1146 61.9948 94.599 62.7448 95.1094 62.9792C95.6198 63.2135 96.2604 62.9896 96.2604 62.9896C96.2604 62.9896 95.0885 64.1354 95.5729 64.2552C96.0573 64.3698 98.2604 64.1198 98.4531 63.7917C98.7083 63.3698 98.1771 63.0469 98.1771 63.0469C98.1771 63.0469 98.8229 62.5312 98.3542 62.1771C97.9792 61.8854 97.8854 61.8229 97.8854 61.8229C97.8854 61.8229 98.776 61.0156 97.8229 60.7135C97.8229 60.7135 98.6979 59.9583 97.5833 59.75Z" fill="#FFC6BA"/>
<path fill-rule="evenodd" clip-rule="evenodd" d="M93.4478 38.3281C93.4478 38.3281 93.6978 42.4635 94.4946 42.5885C95.2967 42.7135 96.1665 42.901 96.5311 44.7135C96.5311 44.7135 97.6613 43.0468 98.9686 44.5885C98.9686 44.5885 99.7342 40.9218 99.3019 39.4374C98.8696 37.9479 93.9425 34.8124 93.4478 38.3281Z" fill="#373135"/>
<path fill-rule="evenodd" clip-rule="evenodd" d="M80.2343 40.6979C80.2343 40.6979 91.2916 35.4375 99.6301 41.5625C99.6301 41.5625 100.104 36.9167 97.3489 34.0521C94.2291 30.8021 86.4374 29.8907 82.8124 34.2292C79.9374 37.6719 80.2343 40.6979 80.2343 40.6979Z" fill="#CFC4A2"/>
<path d="M90.8387 46.0678C90.8387 46.3438 90.745 46.5782 90.547 46.7761C90.3543 46.9688 90.12 47.0678 89.8439 47.0678C89.5731 47.0678 89.3387 46.9688 89.1408 46.7761C88.9481 46.5782 88.8491 46.3438 88.8491 46.0678C88.8491 45.797 88.9481 45.5626 89.1408 45.3647C89.3387 45.172 89.5731 45.073 89.8439 45.073C90.12 45.073 90.3543 45.172 90.547 45.3647C90.745 45.5626 90.8387 45.797 90.8387 46.0678Z" fill="#373135"/>
<path d="M84.1509 46.8646C84.1509 47.125 84.0571 47.349 83.8748 47.5312C83.6873 47.7188 83.4634 47.8073 83.203 47.8073C82.9425 47.8073 82.7238 47.7188 82.5363 47.5312C82.354 47.349 82.2603 47.125 82.2603 46.8646C82.2603 46.6042 82.354 46.3802 82.5363 46.1979C82.7238 46.0104 82.9425 45.9219 83.203 45.9219C83.4634 45.9219 83.6873 46.0104 83.8748 46.1979C84.0571 46.3802 84.1509 46.6042 84.1509 46.8646Z" fill="#373135"/>
<path fill-rule="evenodd" clip-rule="evenodd" d="M85.5833 47.2499C85.6719 47.2291 85.7604 47.2863 85.7812 47.3749C85.8021 47.4634 85.7448 47.5572 85.6562 47.578C85.6562 47.578 85.4323 47.6249 85.2708 47.7238C85.2344 47.7447 85.2031 47.7655 85.1719 47.7916C85.1666 47.8072 85.1458 47.8176 85.151 47.8332C85.1562 47.8645 85.1875 47.8957 85.2396 47.9374C85.3229 48.0051 85.4479 48.0728 85.6302 48.1509C85.7135 48.1874 85.7552 48.2863 85.7135 48.3697C85.6823 48.453 85.5833 48.4947 85.5 48.4582C85.2344 48.3436 85.0625 48.2343 84.9687 48.1405C84.875 48.052 84.8333 47.9634 84.8177 47.8905C84.7969 47.7447 84.8646 47.6093 84.9948 47.5051C85.2031 47.3384 85.5833 47.2499 85.5833 47.2499Z" fill="#FE6A5E"/>
<path fill-rule="evenodd" clip-rule="evenodd" d="M86.0054 49.0155L89.3231 48.7239C89.3231 48.7239 89.5991 51.5468 87.9012 51.8072C86.1981 52.0676 86.4116 49.6405 86.0054 49.0155Z" fill="#FF5443"/>
<path fill-rule="evenodd" clip-rule="evenodd" d="M89.0677 42.3124C88.9636 42.4166 88.7917 42.4114 88.6875 42.302C88.5834 42.1926 88.5886 42.0208 88.6979 41.9166C88.6979 41.9166 89.2969 41.3645 90.0417 41.4843C90.5104 41.5624 91.0677 41.901 91.5469 42.8958C91.6094 43.0312 91.5521 43.1926 91.4167 43.2603C91.2813 43.3228 91.1198 43.2655 91.0573 43.1301C90.6979 42.3749 90.3125 42.078 89.9532 42.0208C89.4584 41.9374 89.0677 42.3124 89.0677 42.3124Z" fill="#373135"/>
<path fill-rule="evenodd" clip-rule="evenodd" d="M83.0521 42.4688C83.1875 42.5313 83.25 42.6927 83.1823 42.8281C83.125 42.9635 82.9636 43.026 82.8281 42.9635C82.8281 42.9635 82.4583 42.7917 82.1354 43.0208C81.8802 43.1979 81.6875 43.599 81.6302 44.3958C81.6198 44.5417 81.4896 44.6563 81.3438 44.6458C81.1927 44.6354 81.0833 44.5052 81.0886 44.3542C81.1615 43.3125 81.4896 42.8125 81.8281 42.5729C82.3906 42.1771 83.0521 42.4688 83.0521 42.4688Z" fill="#373135"/>
<path fill-rule="evenodd" clip-rule="evenodd" d="M78.823 60.3022C78.823 60.3022 81.7605 59.6147 81.5313 60.1824C81.3073 60.7553 80.5 60.9532 80.5 60.9532C80.5 60.9532 82.4271 61.2709 82.1094 61.6303C81.7865 61.9949 80.6563 62.2553 80.6563 62.2553C80.6563 62.2553 82.2813 62.7292 81.8177 63.0522C81.3594 63.3699 80.6875 63.2553 80.6875 63.2553C80.6875 63.2553 82.0417 64.1824 81.5834 64.3855C81.125 64.5886 78.9115 64.724 78.6667 64.4324C78.3386 64.0626 78.8073 63.6511 78.8073 63.6511C78.8073 63.6511 78.0834 63.2553 78.4844 62.823C78.8021 62.474 78.8855 62.3959 78.8855 62.3959C78.8855 62.3959 77.8698 61.7553 78.7553 61.2917C78.7553 61.2917 77.7605 60.698 78.823 60.3022Z" fill="#FFC6BA"/>
<path fill-rule="evenodd" clip-rule="evenodd" d="M64.3957 53.7916C64.3957 53.7916 67.1301 56.4843 68.3332 59.3333C69.5259 62.177 72.6457 65.1041 72.6457 65.1041C72.6457 65.1041 72.4739 65.776 71.7082 66.3385C70.9634 66.875 69.6457 67.302 68.5103 67.5885C65.427 68.3645 59.0676 68.8645 57.1822 68.9479C55.2916 69.026 51.2291 67.3333 51.0832 65.3645C50.9426 63.3906 52.2968 57.7187 54.4478 55.3802C56.5884 53.052 58.5259 51.6614 60.2968 51.625C62.0728 51.5885 64.3957 53.7916 64.3957 53.7916Z" fill="#CC9214"/>
<path fill-rule="evenodd" clip-rule="evenodd" d="M53.9219 60.7239C53.9792 60.6927 54.0522 60.7239 54.0834 60.7864C54.1147 60.8489 54.0834 60.9218 54.0209 60.9531C54.0209 60.9531 52.7605 61.5 52.1303 62.2396C52.0834 62.2968 52.0053 62.3021 51.9532 62.2552C51.9011 62.2083 51.8959 62.1302 51.9428 62.0781C52.599 61.3021 53.9219 60.7239 53.9219 60.7239Z" fill="#BF6F13"/>
<path fill-rule="evenodd" clip-rule="evenodd" d="M54.6354 65.0676C54.6302 64.9999 54.677 64.9374 54.7447 64.927C54.8125 64.9166 54.8802 64.9634 54.8906 65.0312C54.8906 65.0312 54.9583 65.5416 54.6562 66.0155C54.4635 66.3228 54.1041 66.6249 53.4531 66.7395C53.3854 66.7499 53.3177 66.7082 53.3072 66.6405C53.2968 66.5728 53.3385 66.5051 53.4114 66.4947C53.9635 66.3905 54.2812 66.1457 54.4479 65.8801C54.6979 65.4895 54.6354 65.0676 54.6354 65.0676Z" fill="#BF6F13"/>
<path fill-rule="evenodd" clip-rule="evenodd" d="M65.3022 58.4219C65.3022 58.3542 65.3543 58.2917 65.422 58.2865C65.4897 58.2813 65.5522 58.3334 65.5575 58.4011L65.7762 61.2448C65.7866 61.3125 65.7345 61.3698 65.6616 61.375C65.5939 61.3802 65.5366 61.3334 65.5314 61.2605L65.3022 58.4219Z" fill="#BF6F13"/>
<path fill-rule="evenodd" clip-rule="evenodd" d="M64.25 54.3073C64.2604 54.2396 64.3281 54.198 64.3958 54.2084C64.4583 54.224 64.5052 54.2917 64.4896 54.3594C64.4896 54.3594 64.2031 55.7292 63.6562 56.7084C63.4166 57.1511 63.1198 57.5105 62.776 57.6615C62.7083 57.6875 62.6354 57.6563 62.6146 57.5938C62.5833 57.5313 62.6146 57.4584 62.6771 57.4271C63.0781 57.2553 63.401 56.7292 63.651 56.1667C64.0416 55.2865 64.25 54.3073 64.25 54.3073Z" fill="#BF6F13"/>
<path fill-rule="evenodd" clip-rule="evenodd" d="M57.6251 53.0365C57.5938 52.974 57.6251 52.9011 57.6876 52.8698C57.7553 52.8438 57.8282 52.875 57.8542 52.9375C57.8542 52.9375 58.4271 54.3177 59.3438 55.5677C59.948 56.3906 60.7032 57.1667 61.5417 57.4427C61.6042 57.4636 61.6407 57.5365 61.6198 57.599C61.599 57.6667 61.5261 57.7031 61.4636 57.6823C60.5782 57.3906 59.7813 56.5833 59.1459 55.7188C58.2084 54.4375 57.6251 53.0365 57.6251 53.0365Z" fill="#BF6F13"/>
<path fill-rule="evenodd" clip-rule="evenodd" d="M62.026 56.2917C62.0313 56.224 62.0938 56.1719 62.1615 56.1719C62.2292 56.1771 62.2813 56.2344 62.276 56.3021L62.0938 60.3958C62.0938 60.4688 62.0365 60.5208 61.9688 60.5156C61.901 60.5156 61.8438 60.4583 61.849 60.3854L62.026 56.2917Z" fill="#BF6F13"/>
<path fill-rule="evenodd" clip-rule="evenodd" d="M62.5937 53.953C62.5937 53.953 62.8489 56.703 62.1719 56.7499C61.4896 56.7916 59.4687 53.9166 59.4375 52.7864C59.4062 51.651 62.5937 53.953 62.5937 53.953Z" fill="#FFC6BA"/>
<mask id="mask14_62_1208" style="mask-type:luminance" maskUnits="userSpaceOnUse" x="59" y="52" width="4" height="4">
<path d="M59.4219 52.4531H62.6667V55.7604H59.4219V52.4531Z" fill="white"/>
</mask>
<g mask="url(#mask14_62_1208)">
<mask id="mask15_62_1208" style="mask-type:luminance" maskUnits="userSpaceOnUse" x="59" y="52" width="4" height="5">
<path fill-rule="evenodd" clip-rule="evenodd" d="M62.5937 53.9532C62.5937 53.9532 62.8489 56.7032 62.1719 56.75C61.4896 56.7917 59.4687 53.9167 59.4375 52.7865C59.4062 51.6511 62.5937 53.9532 62.5937 53.9532Z" fill="white"/>
</mask>
<g mask="url(#mask15_62_1208)">
<path fill-rule="evenodd" clip-rule="evenodd" d="M63.3802 54.224C63.3802 54.224 63.7969 55.5938 62.6354 55.2188C61.4844 54.8438 58.1146 53.4011 58.5261 52.224C58.9323 51.0469 63.3802 54.224 63.3802 54.224Z" fill="#FF8C83"/>
</g>
</g>
<path fill-rule="evenodd" clip-rule="evenodd" d="M71.2761 41.1615C71.2761 41.1615 72.1094 43.922 70.2657 48.5886C70.2657 48.5886 71.3386 52.5522 68.0782 53.823C64.8177 55.0886 56.5469 54.4324 55.573 49.3595C55.573 49.3595 53.323 49.5886 52.8907 47.6876C52.4532 45.7813 52.9427 44.1251 54.2344 43.6251C54.2344 43.6251 54.4011 38.0626 57.3698 38.2553C60.3386 38.448 69.5938 35.3855 71.2761 41.1615Z" fill="#FFC6BA"/>
<mask id="mask16_62_1208" style="mask-type:luminance" maskUnits="userSpaceOnUse" x="55" y="46" width="8" height="6">
<path d="M55.3647 46.427H62.0314V51.7603H55.3647V46.427Z" fill="white"/>
</mask>
<g mask="url(#mask16_62_1208)">
<mask id="mask17_62_1208" style="mask-type:luminance" maskUnits="userSpaceOnUse" x="52" y="37" width="20" height="18">
<path fill-rule="evenodd" clip-rule="evenodd" d="M71.2763 41.1614C71.2763 41.1614 72.1097 43.9218 70.2659 48.5885C70.2659 48.5885 71.3388 52.552 68.0784 53.8229C64.818 55.0885 56.5472 54.4322 55.5732 49.3593C55.5732 49.3593 53.3232 49.5885 52.8909 47.6875C52.4534 45.7812 52.943 44.125 54.2347 43.625C54.2347 43.625 54.4013 38.0625 57.3701 38.2552C60.3388 38.4479 69.594 35.3854 71.2763 41.1614Z" fill="white"/>
</mask>
<g mask="url(#mask17_62_1208)">
<path d="M56.5159 49.1562C56.5159 49.4478 56.5732 49.7291 56.6825 49.9947C56.7971 50.2655 56.9534 50.5051 57.1565 50.7083C57.3648 50.9166 57.6044 51.0728 57.87 51.1874C58.1409 51.2968 58.4221 51.3541 58.7086 51.3541C59.0002 51.3541 59.2815 51.2968 59.5523 51.1874C59.818 51.0728 60.0575 50.9166 60.2659 50.7083C60.469 50.5051 60.6305 50.2655 60.7398 49.9947C60.8492 49.7291 60.9065 49.4478 60.9065 49.1562C60.9065 48.8645 60.8492 48.5833 60.7398 48.3124C60.6305 48.0416 60.469 47.8072 60.2659 47.5989C60.0575 47.3958 59.818 47.2343 59.5523 47.1249C59.2815 47.0103 59.0002 46.9583 58.7086 46.9583C58.4221 46.9583 58.1409 47.0103 57.87 47.1249C57.6044 47.2343 57.3648 47.3958 57.1565 47.5989C56.9534 47.8072 56.7971 48.0416 56.6825 48.3124C56.5732 48.5833 56.5159 48.8645 56.5159 49.1562Z" fill="#FF8C83"/>
</g>
</g>
<mask id="mask18_62_1208" style="mask-type:luminance" maskUnits="userSpaceOnUse" x="67" y="47" width="5" height="7">
<path d="M67.3647 47.7605H71.5106V53.0938H67.3647V47.7605Z" fill="white"/>
</mask>
<g mask="url(#mask18_62_1208)">
<mask id="mask19_62_1208" style="mask-type:luminance" maskUnits="userSpaceOnUse" x="52" y="37" width="20" height="18">
<path fill-rule="evenodd" clip-rule="evenodd" d="M71.2763 41.1615C71.2763 41.1615 72.1097 43.922 70.2659 48.5886C70.2659 48.5886 71.3388 52.5522 68.0784 53.823C64.818 55.0886 56.5472 54.4324 55.5732 49.3595C55.5732 49.3595 53.3232 49.5886 52.8909 47.6876C52.4534 45.7813 52.943 44.1251 54.2347 43.6251C54.2347 43.6251 54.4013 38.0626 57.3701 38.2553C60.3388 38.448 69.594 35.3855 71.2763 41.1615Z" fill="white"/>
</mask>
<g mask="url(#mask19_62_1208)">
<path d="M68.6721 50.6459C68.6721 50.922 68.7242 51.1928 68.8336 51.4532C68.9377 51.7084 69.0888 51.9376 69.2867 52.1355C69.4846 52.3334 69.7138 52.4845 69.969 52.5886C70.2242 52.698 70.495 52.7501 70.7711 52.7501C71.0523 52.7501 71.318 52.698 71.5784 52.5886C71.8336 52.4845 72.0627 52.3334 72.2607 52.1355C72.4586 51.9376 72.6096 51.7084 72.7138 51.4532C72.8232 51.1928 72.8752 50.922 72.8752 50.6459C72.8752 50.3647 72.8232 50.099 72.7138 49.8386C72.6096 49.5834 72.4586 49.3542 72.2607 49.1563C72.0627 48.9584 71.8336 48.8074 71.5784 48.698C71.318 48.5938 71.0523 48.5417 70.7711 48.5417C70.495 48.5417 70.2242 48.5938 69.969 48.698C69.7138 48.8074 69.4846 48.9584 69.2867 49.1563C69.0888 49.3542 68.9377 49.5834 68.8284 49.8386C68.7242 50.099 68.6721 50.3647 68.6721 50.6459Z" fill="#FF8C83"/>
</g>
</g>
<path fill-rule="evenodd" clip-rule="evenodd" d="M55.25 48.6771C55.2604 48.7709 55.1927 48.849 55.0989 48.8594C55.0052 48.8646 54.9271 48.7969 54.9167 48.7084C54.9167 48.7084 54.7969 47.1615 54.4114 46.3646C54.3542 46.2448 54.2917 46.1407 54.2187 46.0678C54.1458 45.9948 54.0625 45.9584 53.9635 46.0001C53.6771 46.1198 53.625 46.4011 53.651 46.6823C53.6979 47.1823 53.9896 47.7084 53.9896 47.7084C54.0312 47.7917 54.0052 47.8907 53.9271 47.9376C53.8489 47.9792 53.7448 47.9532 53.6979 47.8698C53.6979 47.8698 53.3698 47.2761 53.3229 46.7136C53.2812 46.2813 53.3958 45.8803 53.8385 45.6928C54.1927 45.5469 54.4948 45.7709 54.7135 46.2188C55.1146 47.0573 55.25 48.6771 55.25 48.6771Z" fill="#FE6A5E"/>
<path fill-rule="evenodd" clip-rule="evenodd" d="M54.7969 46.7708C54.8907 46.7708 54.9584 46.8489 54.9584 46.9427C54.9584 47.0364 54.8802 47.1093 54.7865 47.1041C54.7865 47.1041 54.5261 47.0989 54.3959 47.3333C54.2917 47.526 54.2761 47.8489 54.4636 48.401C54.4896 48.4843 54.4479 48.5781 54.3594 48.6093C54.2709 48.6406 54.1771 48.5937 54.1459 48.5052C53.9167 47.8229 53.9688 47.4166 54.1042 47.177C54.3282 46.7604 54.7969 46.7708 54.7969 46.7708Z" fill="#FE6A5E"/>
<path fill-rule="evenodd" clip-rule="evenodd" d="M72.1825 55.9011C72.1825 55.9011 67.7293 57.7709 65.9637 61.573C65.9637 61.573 60.0887 57.5834 57.8752 56.8855C57.8752 56.8855 56.7918 57.9584 56.0522 57.9845L65.172 66.6928L73.1877 58.0313C73.1877 58.0313 72.3127 56.7605 72.1825 55.9011Z" fill="#FFECE4"/>
<path fill-rule="evenodd" clip-rule="evenodd" d="M61.5053 70.6406C61.5053 70.6406 56.9011 71.8229 57.2188 72.4844C57.5313 73.1458 57.6824 73.4896 57.6251 74.1302C57.5626 74.776 57.5366 77.1563 63.1616 74.3958C63.1616 74.3958 62.6355 71.0052 61.5053 70.6406Z" fill="#FFC6BA"/>
<path fill-rule="evenodd" clip-rule="evenodd" d="M70.2342 66.6303C70.2342 66.6303 73.5155 66.7345 73.5519 69.0261C73.5936 71.3178 70.38 73.1355 67.2811 73.7553C64.1769 74.3803 62.8592 74.948 62.8592 74.948C62.8592 74.948 52.6405 74.2553 49.8123 72.0886C47.3957 70.2397 47.0623 67.1407 49.604 66.2292C50.0415 66.073 51.1978 65.8386 51.1978 65.8386C51.1978 65.8386 51.4478 66.8022 53.0207 66.8022C53.6821 66.8022 54.4894 66.3855 55.1978 66.5574C59.005 67.4688 63.13 69.3959 63.13 69.3959L70.2342 66.6303Z" fill="#006A78"/>
<path fill-rule="evenodd" clip-rule="evenodd" d="M64.0467 70.7083C64.0467 70.7083 68.4269 71.3853 68.4998 72.1145C68.5571 72.6874 68.1353 73.1614 68.255 73.7968C68.3853 74.427 68.8488 76.901 62.979 74.7135C62.979 74.7135 63.5988 73.953 63.8644 72.8905C64.0571 72.1197 63.9738 71.6666 64.0467 70.7083Z" fill="#FFC6BA"/>
<path fill-rule="evenodd" clip-rule="evenodd" d="M57.8646 68.4584C57.8021 68.4324 57.7657 68.3595 57.7917 68.2918C57.8177 68.2293 57.8907 68.198 57.9532 68.2241L64.0886 70.5938C64.1407 70.6095 64.1719 70.6563 64.1771 70.7032C64.1771 70.7032 64.2136 71.6824 63.9844 72.7709C63.8282 73.5053 63.5417 74.2866 63.0469 74.8543C62.9948 74.9063 62.9167 74.9116 62.8698 74.8647C62.8125 74.8178 62.8073 74.7397 62.8542 74.6876C63.323 74.1511 63.5886 73.4116 63.7396 72.7188C63.9219 71.8491 63.9271 71.047 63.9219 70.797L57.8646 68.4584Z" fill="#0B4F62"/>
<path fill-rule="evenodd" clip-rule="evenodd" d="M73.4116 57.7031L70.5835 66.4688L64.0575 70.5104L54.8022 65.8385L56.12 58.0156L65.896 62.6094L73.4116 57.7031Z" fill="#8A855F"/>
<mask id="mask20_62_1208" style="mask-type:luminance" maskUnits="userSpaceOnUse" x="63" y="61" width="4" height="10">
<path d="M63.3647 61.0938H66.0314V70.5104H63.3647V61.0938Z" fill="white"/>
</mask>
<g mask="url(#mask20_62_1208)">
<mask id="mask21_62_1208" style="mask-type:luminance" maskUnits="userSpaceOnUse" x="54" y="57" width="20" height="14">
<path fill-rule="evenodd" clip-rule="evenodd" d="M73.4116 57.7031L70.5835 66.4688L64.0575 70.5104L54.8022 65.8385L56.12 58.0156L65.896 62.6094L73.4116 57.7031Z" fill="white"/>
</mask>
<g mask="url(#mask21_62_1208)">
<path fill-rule="evenodd" clip-rule="evenodd" d="M65.7709 62.4427C65.7866 62.375 65.8543 62.3334 65.9168 62.349C65.9897 62.3646 66.0261 62.4323 66.0105 62.5L64.1668 70.5365C64.1511 70.6042 64.0834 70.6459 64.0157 70.6302C63.948 70.6146 63.9064 70.5469 63.922 70.4792L65.7709 62.4427Z" fill="#53680D"/>
</g>
</g>
<path fill-rule="evenodd" clip-rule="evenodd" d="M54.2447 60.6718C54.2447 60.6718 57.2551 60.5051 56.9322 61.0312C56.6145 61.552 55.7811 61.6093 55.7811 61.6093C55.7811 61.6093 57.6301 62.2551 57.2499 62.5572C56.8697 62.8593 55.7134 62.9166 55.7134 62.9166C55.7134 62.9166 57.2342 63.6666 56.7186 63.901C56.2082 64.1353 55.5728 63.9114 55.5728 63.9114C55.5728 63.9114 56.7395 65.0572 56.2603 65.177C55.7707 65.2968 53.5676 65.0416 53.3749 64.7187C53.1197 64.2916 53.6509 63.9687 53.6509 63.9687C53.6509 63.9687 53.0051 63.4531 53.4738 63.0989C53.854 62.8072 53.9426 62.7447 53.9426 62.7447C53.9426 62.7447 53.0572 61.9374 54.0103 61.6353C54.0103 61.6353 53.1301 60.8801 54.2447 60.6718Z" fill="#FFC6BA"/>
<path fill-rule="evenodd" clip-rule="evenodd" d="M61.7605 38.1458C61.7605 38.1458 61.4897 42.0625 60.698 42.2031C59.4428 42.4271 55.6668 43.8229 55.297 45.6354C55.297 45.6354 54.1668 43.9688 52.8595 45.5104C52.8595 45.5104 52.0991 41.8438 52.5314 40.3594C52.9585 38.8698 61.2657 34.6302 61.7605 38.1458Z" fill="#373135"/>
<path fill-rule="evenodd" clip-rule="evenodd" d="M69.9897 40.4688C69.9897 40.4688 71.3127 43.0729 71.4012 44.0782C71.4012 44.0782 71.4793 43.6719 71.5002 43.1094C71.5314 42.0729 71.4637 40.5157 71.1095 40.0782C70.5575 39.4011 69.9897 40.4688 69.9897 40.4688Z" fill="#373135"/>
<path fill-rule="evenodd" clip-rule="evenodd" d="M71.5939 41.6197C71.5939 41.6197 60.5366 36.3593 52.2033 42.4843C52.2033 42.4843 51.7241 37.8384 54.4793 34.9738C57.5991 31.7291 65.3908 30.8124 69.021 35.1509C71.896 38.5936 71.5939 41.6197 71.5939 41.6197Z" fill="#96C7C3"/>
<path d="M60.9897 46.9949C60.9897 47.2657 61.0887 47.5001 61.2814 47.698C61.4741 47.8907 61.7085 47.9897 61.9845 47.9897C62.2606 47.9897 62.495 47.8907 62.6877 47.698C62.8804 47.5001 62.9793 47.2657 62.9793 46.9949C62.9793 46.7188 62.8804 46.4845 62.6877 46.2865C62.495 46.0938 62.2606 45.9949 61.9845 45.9949C61.7085 45.9949 61.4741 46.0938 61.2814 46.2865C61.0887 46.4845 60.9897 46.7188 60.9897 46.9949Z" fill="#373135"/>
<path d="M67.6821 47.7865C67.6821 48.0469 67.7707 48.2708 67.9582 48.4531C68.1405 48.6406 68.3644 48.7292 68.6248 48.7292C68.8853 48.7292 69.1092 48.6406 69.2915 48.4531C69.4738 48.2708 69.5675 48.0469 69.5675 47.7865C69.5675 47.526 69.4738 47.3021 69.2915 47.1198C69.1092 46.9323 68.8853 46.8438 68.6248 46.8438C68.3644 46.8438 68.1405 46.9323 67.9582 47.1198C67.7707 47.3021 67.6821 47.526 67.6821 47.7865Z" fill="#373135"/>
<path fill-rule="evenodd" clip-rule="evenodd" d="M66.1718 48.4999C66.0832 48.4791 66.0259 48.3853 66.0468 48.2968C66.0728 48.2082 66.1613 48.1509 66.2499 48.1718C66.2499 48.1718 66.6249 48.2603 66.8332 48.427C66.9634 48.5311 67.0363 48.6666 67.0103 48.8124C66.9947 48.8853 66.953 48.9738 66.8645 49.0624C66.7707 49.1561 66.5988 49.2655 66.3332 49.3801C66.2499 49.4166 66.1509 49.3749 66.1145 49.2916C66.078 49.2082 66.1145 49.1093 66.1978 49.0728C66.3801 48.9947 66.5103 48.927 66.5936 48.8593C66.6405 48.8176 66.677 48.7863 66.6822 48.7551C66.6874 48.7395 66.6666 48.7291 66.6561 48.7134C66.6249 48.6874 66.5988 48.6666 66.5572 48.6457C66.3957 48.5468 66.1718 48.4999 66.1718 48.4999Z" fill="#FE6A5E"/>
<path fill-rule="evenodd" clip-rule="evenodd" d="M65.8231 49.9374L62.5106 49.6458C62.5106 49.6458 62.2293 52.4739 63.9272 52.7291C65.6356 52.9895 65.4168 50.5624 65.8231 49.9374Z" fill="#FF5443"/>
<path fill-rule="evenodd" clip-rule="evenodd" d="M63.1353 42.8385C63.2394 42.9426 63.2447 43.1145 63.1405 43.2239C63.0415 43.3333 62.8697 43.3385 62.7603 43.2343C62.7603 43.2343 62.3697 42.8645 61.8749 42.9426C61.5155 42.9999 61.1353 43.2968 60.7759 44.052C60.7082 44.1874 60.5467 44.2447 60.4113 44.1822C60.2759 44.1145 60.2186 43.953 60.2811 43.8176C60.7603 42.8228 61.3176 42.4843 61.7863 42.4062C62.5311 42.2864 63.1353 42.8385 63.1353 42.8385Z" fill="#373135"/>
<path fill-rule="evenodd" clip-rule="evenodd" d="M69 43.8854C68.8646 43.9479 68.7031 43.8854 68.6459 43.75C68.5834 43.6146 68.6406 43.4531 68.7761 43.3906C68.7761 43.3906 69.4375 43.099 70 43.4948C70.3386 43.7344 70.6719 44.2344 70.7396 45.2813C70.75 45.4271 70.6354 45.5573 70.4896 45.5677C70.3386 45.5781 70.2084 45.4635 70.1979 45.3177C70.1459 44.5208 69.9479 44.1198 69.6927 43.9427C69.375 43.7135 69 43.8854 69 43.8854Z" fill="#373135"/>
<path fill-rule="evenodd" clip-rule="evenodd" d="M73.0105 61.224C73.0105 61.224 70.073 60.5365 70.3022 61.1042C70.5262 61.6772 71.3335 61.8751 71.3335 61.8751C71.3335 61.8751 69.4012 62.1928 69.7189 62.5522C70.047 62.9167 71.172 63.1772 71.172 63.1772C71.172 63.1772 69.547 63.6511 70.0105 63.974C70.4741 64.2917 71.1408 64.1824 71.1408 64.1824C71.1408 64.1824 69.7918 65.1042 70.2449 65.3074C70.7033 65.5105 72.9168 65.6459 73.1616 65.3542C73.4897 64.9845 73.021 64.573 73.021 64.573C73.021 64.573 73.7449 64.1772 73.3491 63.7449C73.0262 63.3959 72.9428 63.3178 72.9428 63.3178C72.9428 63.3178 73.9585 62.6772 73.073 62.2136C73.073 62.2136 74.073 61.6251 73.0105 61.224Z" fill="#FFC6BA"/>
<path fill-rule="evenodd" clip-rule="evenodd" d="M117.802 69.5312C117.802 69.5312 118.302 70.8333 118.297 71.9895C118.297 71.9895 122.365 68.0103 122.735 66.5416L121.688 63.8176C121.688 63.8176 117.375 67.2291 117.802 69.5312Z" fill="#FFC6BA"/>
<mask id="mask22_62_1208" style="mask-type:luminance" maskUnits="userSpaceOnUse" x="117" y="63" width="6" height="9">
<path d="M117.76 63.802H122.031V71.7603H117.76V63.802Z" fill="white"/>
</mask>
<g mask="url(#mask22_62_1208)">
<mask id="mask23_62_1208" style="mask-type:luminance" maskUnits="userSpaceOnUse" x="117" y="63" width="6" height="9">
<path fill-rule="evenodd" clip-rule="evenodd" d="M117.802 69.5312C117.802 69.5312 118.302 70.8333 118.297 71.9895C118.297 71.9895 122.364 68.0103 122.734 66.5416L121.687 63.8176C121.687 63.8176 117.375 67.2291 117.802 69.5312Z" fill="white"/>
</mask>
<g mask="url(#mask23_62_1208)">
<path fill-rule="evenodd" clip-rule="evenodd" d="M117.114 71.4999C117.114 71.4999 121.219 69.4738 121.286 65.6665C121.354 61.8592 116.838 68.8072 116.838 68.8072L117.114 71.4999Z" fill="#FF8C83"/>
</g>
</g>
<path fill-rule="evenodd" clip-rule="evenodd" d="M106.484 58.3333C106.484 58.3333 106.208 61.927 107.589 65.2968C107.589 65.2968 106.615 66.6718 107.214 66.7552C107.912 66.8489 107.953 66.901 107.953 66.901C107.953 66.901 109.354 73.151 115.693 71.2239C122.026 69.2916 121.667 64.927 121.667 64.927C121.667 64.927 123.385 64.8958 123.708 63.0052C124.026 61.1145 123.537 56.2031 120.349 56.0468C117.162 55.8958 107.797 50.0833 106.484 58.3333Z" fill="#FFC6BA"/>
<path fill-rule="evenodd" clip-rule="evenodd" d="M125.448 56.1562C125.448 56.1562 126.411 57.9323 125.479 60.9062C124.542 63.8802 122.245 66.8333 122.245 66.8333L121.677 64.8281C121.677 64.8281 123.14 64.8385 123.448 63.0885C123.76 61.3385 123.432 60.2343 122.521 59.9531C121.609 59.6718 120.359 59.9166 119.927 61.5468C119.927 61.5468 119.109 59.7708 118.333 59.6979C117.557 59.6302 116.489 60.5937 116.078 58.625C115.667 56.6562 114.87 54.6875 114.87 54.6875C114.87 54.6875 124.25 53.5 125.448 56.1562Z" fill="#373135"/>
<path fill-rule="evenodd" clip-rule="evenodd" d="M106.427 58.1928C106.427 58.1928 116.125 54.0001 125.885 58.0469C125.885 58.0469 126.448 54.1876 123.693 50.6876C120.463 46.5782 106.031 45.4376 106.427 58.1928Z" fill="#FFE1B5"/>
<path fill-rule="evenodd" clip-rule="evenodd" d="M121.641 64.0781C121.672 64.1667 121.625 64.2604 121.536 64.2917C121.453 64.3229 121.354 64.2761 121.328 64.1927C121.328 64.1927 120.865 62.875 120.906 61.9323C120.927 61.4688 121.078 61.099 121.406 60.9427C121.745 60.7813 122.026 60.7969 122.234 60.9323C122.443 61.0573 122.589 61.3073 122.656 61.6615C122.729 62.0729 122.698 62.6406 122.531 63.2917C122.505 63.3802 122.417 63.4375 122.328 63.4115C122.234 63.3906 122.187 63.2969 122.203 63.2083C122.396 62.474 122.411 61.8594 122.26 61.4844C122.198 61.3333 122.115 61.2292 122 61.1823C121.875 61.1354 121.724 61.1563 121.547 61.2448C121.323 61.349 121.25 61.6302 121.24 61.9479C121.198 62.8386 121.641 64.0781 121.641 64.0781Z" fill="#FE6A5E"/>
<path fill-rule="evenodd" clip-rule="evenodd" d="M121.172 62.5C121.094 62.5469 120.99 62.5261 120.943 62.4479C120.896 62.3698 120.912 62.2656 120.99 62.2188C120.99 62.2188 121.11 62.1458 121.266 62.1094C121.438 62.0729 121.662 62.0833 121.844 62.2552C122.042 62.4427 122.219 62.8646 122.167 63.7708C122.162 63.8646 122.083 63.9323 121.995 63.9271C121.901 63.9219 121.833 63.8438 121.839 63.75C121.854 63.3594 121.839 63.0729 121.787 62.8646C121.75 62.6823 121.688 62.5677 121.615 62.5C121.526 62.4167 121.417 62.4167 121.333 62.4375C121.245 62.4583 121.172 62.5 121.172 62.5Z" fill="#FE6A5E"/>
<path d="M110.193 63.0312C110.193 63.3072 110.094 63.5416 109.901 63.7343C109.708 63.927 109.474 64.026 109.198 64.026C108.922 64.026 108.688 63.927 108.495 63.7343C108.302 63.5416 108.203 63.3072 108.203 63.0312C108.203 62.7551 108.302 62.5208 108.495 62.328C108.688 62.1353 108.922 62.0364 109.198 62.0364C109.474 62.0364 109.708 62.1353 109.901 62.328C110.094 62.5208 110.193 62.7551 110.193 63.0312Z" fill="#373135"/>
<path d="M117.766 64.0729C117.766 64.3646 117.714 64.6458 117.599 64.9167C117.49 65.1823 117.328 65.4219 117.125 65.625C116.917 65.8333 116.682 65.9948 116.411 66.1042C116.146 66.2135 115.865 66.2708 115.573 66.2708C115.281 66.2708 115 66.2135 114.734 66.1042C114.464 65.9948 114.224 65.8333 114.021 65.6302C113.812 65.4219 113.656 65.1823 113.542 64.9167C113.432 64.6458 113.375 64.3646 113.375 64.0729C113.375 63.7812 113.432 63.5 113.542 63.2344C113.656 62.9635 113.812 62.724 114.021 62.5208C114.224 62.3125 114.464 62.1562 114.734 62.0417C115 61.9323 115.281 61.875 115.573 61.875C115.865 61.875 116.146 61.9323 116.411 62.0417C116.682 62.1562 116.917 62.3125 117.125 62.5208C117.328 62.724 117.49 62.9635 117.599 63.2344C117.714 63.5 117.766 63.7812 117.766 64.0729Z" fill="#FF8C83"/>
<path fill-rule="evenodd" clip-rule="evenodd" d="M107.432 60.3074C107.349 60.4324 107.182 60.4688 107.057 60.3855C106.932 60.3074 106.896 60.1407 106.974 60.0105C106.974 60.0105 107.453 59.2865 108.167 59.1928C108.635 59.1303 109.234 59.3126 109.854 60.2032C109.937 60.3282 109.906 60.4949 109.786 60.5834C109.661 60.6667 109.495 60.6355 109.406 60.5157C108.963 59.8751 108.578 59.6824 108.234 59.7292C107.745 59.797 107.432 60.3074 107.432 60.3074Z" fill="#373135"/>
<path fill-rule="evenodd" clip-rule="evenodd" d="M109.885 67.599L112.682 66.1199C112.682 66.1199 114.146 68.6772 112.458 69.6459C111.146 70.3959 110.323 67.8647 109.885 67.599Z" fill="#FF5443"/>
<path fill-rule="evenodd" clip-rule="evenodd" d="M117.844 74.2396C117.844 74.2396 116.068 79.9323 115.172 79.7604C114.281 79.5886 109.318 76.0834 109.318 76.0834C109.318 76.0834 109.01 79.3229 110.656 81.9375C110.656 81.9375 116.266 84.0261 118.297 82.6198C120.333 81.2136 121.531 77.5782 121.073 75.9792C120.609 74.3854 118.922 71.875 117.844 74.2396Z" fill="#0B4F62"/>
<mask id="mask24_62_1208" style="mask-type:luminance" maskUnits="userSpaceOnUse" x="111" y="77" width="4" height="7">
<path d="M111.365 77.0938H114.031V83.1354H111.365V77.0938Z" fill="white"/>
</mask>
<g mask="url(#mask24_62_1208)">
<mask id="mask25_62_1208" style="mask-type:luminance" maskUnits="userSpaceOnUse" x="109" y="73" width="13" height="11">
<path fill-rule="evenodd" clip-rule="evenodd" d="M117.844 74.2396C117.844 74.2396 116.068 79.9323 115.172 79.7604C114.281 79.5886 109.318 76.0834 109.318 76.0834C109.318 76.0834 109.011 79.3229 110.656 81.9375C110.656 81.9375 116.266 84.0261 118.297 82.6198C120.334 81.2136 121.531 77.5782 121.068 75.9792C120.61 74.3854 118.922 71.875 117.844 74.2396Z" fill="white"/>
</mask>
<g mask="url(#mask25_62_1208)">
<path fill-rule="evenodd" clip-rule="evenodd" d="M111.75 77.8177C111.75 77.75 111.802 77.6927 111.875 77.6927C111.943 77.6927 111.995 77.7448 112 77.8177C112 77.8177 112.031 80.724 112.933 83.1094C112.959 83.1719 112.927 83.2448 112.86 83.2709C112.797 83.2969 112.729 83.2605 112.703 83.198C111.781 80.7709 111.75 77.8177 111.75 77.8177Z" fill="#25A9A0"/>
</g>
</g>
<path fill-rule="evenodd" clip-rule="evenodd" d="M108.396 90.8699C108.396 90.8699 106.844 91.0834 107.146 92.0574C107.453 93.0261 107.354 94.1719 107.974 95.2188C108.604 96.2605 115.469 96.7188 118.578 94.8334C121.682 92.9428 110.026 88.9949 108.396 90.8699Z" fill="#FFC6BA"/>
<path fill-rule="evenodd" clip-rule="evenodd" d="M106.604 85.2917C106.604 85.2917 104.083 87.7136 107.865 91.4011C107.865 91.4011 108.557 94.0626 117.057 95.1771C125.562 96.2969 132.964 95.2188 132.021 90.573C131.083 85.9324 118.214 83.8074 116.552 84.1563C114.885 84.5001 107.542 82.3386 106.604 85.2917Z" fill="#809E82"/>
<mask id="mask26_62_1208" style="mask-type:luminance" maskUnits="userSpaceOnUse" x="107" y="85" width="4" height="9">
<path d="M107.365 85.0938H110.031V93.0938H107.365V85.0938Z" fill="white"/>
</mask>
<g mask="url(#mask26_62_1208)">
<mask id="mask27_62_1208" style="mask-type:luminance" maskUnits="userSpaceOnUse" x="105" y="83" width="28" height="13">
<path fill-rule="evenodd" clip-rule="evenodd" d="M106.604 85.2917C106.604 85.2917 104.084 87.7188 107.865 91.4011C107.865 91.4011 108.558 94.0626 117.058 95.1771C125.563 96.2969 132.964 95.2188 132.021 90.573C131.084 85.9324 118.214 83.8074 116.552 84.1563C114.886 84.5001 107.542 82.3386 106.604 85.2917Z" fill="white"/>
</mask>
<g mask="url(#mask27_62_1208)">
<path fill-rule="evenodd" clip-rule="evenodd" d="M109.808 86.0522C109.881 86.0313 109.948 86.0626 109.969 86.1303C109.99 86.1928 109.964 86.2657 109.891 86.2917C109.891 86.2917 108.756 86.698 108.094 87.9272C107.651 88.7605 107.427 89.9636 107.896 91.6667C107.917 91.7292 107.881 91.8022 107.808 91.8178C107.745 91.8386 107.677 91.797 107.657 91.7292C107.162 89.948 107.407 88.6824 107.875 87.8126C108.584 86.4897 109.808 86.0522 109.808 86.0522Z" fill="#568662"/>
</g>
</g>
<mask id="mask28_62_1208" style="mask-type:luminance" maskUnits="userSpaceOnUse" x="115" y="65" width="18" height="29">
<path d="M115.365 65.0938H132.969V93.0938H115.365V65.0938Z" fill="white"/>
</mask>
<g mask="url(#mask28_62_1208)">
<path fill-rule="evenodd" clip-rule="evenodd" d="M116.526 72.5625C116.526 72.5625 120.385 70.0781 122.787 66.2969L124.281 67.5365C124.281 67.5365 129.698 71.5573 131.042 77.2188C132.375 82.8802 132.193 86.349 132.479 87.6823C132.76 89.0156 132.87 90.276 132.432 91.1146C132.083 91.7917 132.037 92.0781 132.037 92.0781C132.037 92.0781 130.37 92.625 128.995 91.4219C127.62 90.2188 122.464 87.1719 120.443 86.8698C118.412 86.5729 118.25 83.0781 118.25 83.0781C118.25 83.0781 117.766 75.0156 117.427 74.1198C117.208 73.5208 116.526 72.5625 116.526 72.5625Z" fill="#006A78"/>
</g>
<path fill-rule="evenodd" clip-rule="evenodd" d="M94.4009 75.4999L97.6457 81.5208L111.057 81.1562C111.057 81.1562 109.989 77.0468 108.526 75.8958L95.4061 74.1614L94.4009 75.4999Z" fill="#FCDBCC"/>
<mask id="mask29_62_1208" style="mask-type:luminance" maskUnits="userSpaceOnUse" x="94" y="74" width="6" height="8">
<path d="M94.3696 74.1355H99.3644V81.5626H94.3696V74.1355Z" fill="white"/>
</mask>
<g mask="url(#mask29_62_1208)">
<mask id="mask30_62_1208" style="mask-type:luminance" maskUnits="userSpaceOnUse" x="94" y="74" width="18" height="8">
<path fill-rule="evenodd" clip-rule="evenodd" d="M94.4009 75.5L97.6457 81.5209L111.057 81.1563C111.057 81.1563 109.989 77.0469 108.526 75.8959L95.4061 74.1615L94.4009 75.5Z" fill="white"/>
</mask>
<g mask="url(#mask30_62_1208)">
<path fill-rule="evenodd" clip-rule="evenodd" d="M94.5467 74.2552L98.2967 81.573L97.0259 82.6302L93.4009 75.0417L94.5467 74.2552Z" fill="#568662"/>
<path fill-rule="evenodd" clip-rule="evenodd" d="M95.3072 74.2344C95.2656 74.1771 95.2812 74.0989 95.3385 74.0573C95.3958 74.0208 95.4739 74.0312 95.5104 74.0885C95.5104 74.0885 96.5989 75.651 97.4166 77.4687C97.9739 78.6979 98.4062 80.0417 98.3124 81.1198C98.3072 81.1875 98.2499 81.2396 98.177 81.2344C98.1093 81.2292 98.0572 81.1667 98.0676 81.0989C98.151 80.0573 97.7291 78.7604 97.1926 77.5729C96.3801 75.776 95.3072 74.2344 95.3072 74.2344Z" fill="#DAB9AA"/>
</g>
</g>
<path fill-rule="evenodd" clip-rule="evenodd" d="M98.0571 81.3854C98.0571 81.3854 98.4217 80.3593 98.828 80.0416C100.401 78.8333 102.739 76.5885 104.479 77.1354L114.849 80.3489L115.161 81.1198L110.026 82.5052L98.0571 81.3854Z" fill="#FFECE4"/>
<path fill-rule="evenodd" clip-rule="evenodd" d="M97.646 81.5209L110.943 83.5782L115 81.1095L104.563 77.7761L97.646 81.5209Z" fill="#568662"/>
<path fill-rule="evenodd" clip-rule="evenodd" d="M109.459 82.3802C109.459 82.3802 106.625 80.6197 106.557 81.1354C106.49 81.651 106.979 82.3281 106.979 82.3281C106.979 82.3281 103.688 82.2552 103.12 82.1718C102.552 82.0937 103.781 83.4374 104.334 83.526C104.891 83.6145 104.875 84.4791 105.516 84.5885C106.151 84.6927 105.906 85.3802 106.547 85.3489C107.188 85.3177 108.469 86.1302 109.417 85.7499L109.459 82.3802Z" fill="#FFC6BA"/>
<path fill-rule="evenodd" clip-rule="evenodd" d="M121.656 73.6146C121.656 73.6146 119.906 78.9583 116.989 80.5156C114.073 82.0781 109.646 81.9323 109.646 81.9323C109.646 81.9323 108.656 83.6718 109.255 86.7552C109.255 86.7552 115.833 89.1146 120.453 86.7135C125.062 84.3073 126.588 80.4375 126.713 77.2656C126.838 74.0885 124.838 68.5729 121.656 73.6146Z" fill="#006A78"/>
<mask id="mask31_62_1208" style="mask-type:luminance" maskUnits="userSpaceOnUse" x="111" y="81" width="2" height="7">
<path d="M111.365 81.0938H112.698V87.7604H111.365V81.0938Z" fill="white"/>
</mask>
<g mask="url(#mask31_62_1208)">
<mask id="mask32_62_1208" style="mask-type:luminance" maskUnits="userSpaceOnUse" x="109" y="71" width="18" height="17">
<path fill-rule="evenodd" clip-rule="evenodd" d="M121.656 73.6146C121.656 73.6146 119.906 78.9584 116.99 80.5157C114.073 82.0782 109.646 81.9323 109.646 81.9323C109.646 81.9323 108.656 83.6719 109.255 86.7552C109.255 86.7552 115.833 89.1146 120.453 86.7136C125.063 84.3073 126.589 80.4375 126.714 77.2657C126.839 74.0886 124.839 68.5729 121.656 73.6146Z" fill="white"/>
</mask>
<g mask="url(#mask32_62_1208)">
<path fill-rule="evenodd" clip-rule="evenodd" d="M112.286 81.7657C112.302 81.698 112.365 81.6511 112.432 81.6667C112.5 81.6771 112.547 81.7396 112.536 81.8073C112.536 81.8073 112.297 83.2448 112.26 84.7709C112.24 85.7709 112.313 86.8125 112.604 87.4948C112.635 87.5573 112.604 87.6303 112.542 87.6615C112.479 87.6875 112.401 87.6563 112.375 87.5938C112.068 86.8855 111.99 85.8073 112.016 84.7657C112.047 83.224 112.286 81.7657 112.286 81.7657Z" fill="#25A9A0"/>
</g>
</g>
<path fill-rule="evenodd" clip-rule="evenodd" d="M120.505 86.8228C120.448 86.854 120.375 86.828 120.339 86.7707C120.307 86.7082 120.328 86.6301 120.391 86.5988C124.958 84.2238 126.464 80.4009 126.589 77.2603C126.594 77.1874 126.651 77.1353 126.719 77.1405C126.792 77.1405 126.844 77.1978 126.839 77.2707C126.708 80.479 125.172 84.3905 120.505 86.8228Z" fill="#0B4F62"/>
<path fill-rule="evenodd" clip-rule="evenodd" d="M121.536 73.5782C121.557 73.5105 121.625 73.474 121.693 73.4949C121.76 73.5157 121.792 73.5886 121.771 73.6511C121.771 73.6511 120.437 77.7397 118.146 79.8334C118.099 79.8803 118.021 79.8751 117.969 79.823C117.927 79.7761 117.932 79.6928 117.979 79.6511C120.224 77.5886 121.536 73.5782 121.536 73.5782Z" fill="#0B4F62"/>
<path fill-rule="evenodd" clip-rule="evenodd" d="M109.312 76.224C109.312 76.224 108.755 75.1303 107.922 74.9219C107.088 74.7136 106.12 75.1771 106.016 75.7396C105.911 76.3021 106.208 76.7709 106.864 76.2917C107.526 75.8125 107.864 76.2188 108.224 76.6459C108.484 76.9636 109.047 77.3386 109.266 76.9584C109.344 76.8282 109.338 76.5625 109.312 76.224Z" fill="#FFC6BA"/>
<path fill-rule="evenodd" clip-rule="evenodd" d="M124.578 86.1301C124.521 86.0937 124.505 86.0155 124.536 85.9583C124.578 85.8958 124.651 85.8801 124.713 85.9166C124.713 85.9166 127.594 87.7603 129.854 88.7187C130.432 88.9583 130.958 89.1458 131.39 89.2239C131.661 89.276 131.896 89.2864 132.062 89.2343C132.13 89.2187 132.198 89.2551 132.219 89.3228C132.239 89.3905 132.198 89.4583 132.13 89.4791C131.932 89.5364 131.661 89.5312 131.349 89.4687C130.901 89.3853 130.349 89.1978 129.755 88.9478C127.484 87.9843 124.578 86.1301 124.578 86.1301Z" fill="#0B4F62"/>
<path fill-rule="evenodd" clip-rule="evenodd" d="M31.4429 69.7969C31.4429 69.7969 30.9377 71.099 30.9429 72.2552C30.9429 72.2552 26.8804 68.276 26.5054 66.8073L27.5522 64.0781C27.5522 64.0781 31.87 67.4948 31.4429 69.7969Z" fill="#FFC6BA"/>
<mask id="mask33_62_1208" style="mask-type:luminance" maskUnits="userSpaceOnUse" x="27" y="64" width="5" height="9">
<path d="M27.3647 64.0676H31.4845V72.2812H27.3647V64.0676Z" fill="white"/>
</mask>
<g mask="url(#mask33_62_1208)">
<mask id="mask34_62_1208" style="mask-type:luminance" maskUnits="userSpaceOnUse" x="26" y="64" width="6" height="9">
<path fill-rule="evenodd" clip-rule="evenodd" d="M31.4429 69.7968C31.4429 69.7968 30.9377 71.0988 30.9429 72.2551C30.9429 72.2551 26.8804 68.2759 26.5054 66.8072L27.5522 64.078C27.5522 64.078 31.87 67.4947 31.4429 69.7968Z" fill="white"/>
</mask>
<g mask="url(#mask34_62_1208)">
<path fill-rule="evenodd" clip-rule="evenodd" d="M32.1303 71.7656C32.1303 71.7656 28.0261 69.7395 27.9584 65.927C27.8855 62.1197 32.4011 69.0729 32.4011 69.0729L32.1303 71.7656Z" fill="#FF8C83"/>
</g>
</g>
<path fill-rule="evenodd" clip-rule="evenodd" d="M42.7603 58.526C42.7134 59.8125 43.0363 62.1927 41.6561 65.5625C41.6561 65.5625 42.63 66.9375 42.0259 67.0208C41.328 67.1146 41.2915 67.1667 41.2915 67.1667C41.2915 67.1667 39.8905 73.4167 33.5519 71.4844C27.2186 69.5573 27.578 65.1875 27.578 65.1875C27.578 65.1875 25.8592 65.1615 25.5363 63.2708C25.2134 61.3802 25.7082 56.4688 28.8957 56.3125C32.0363 56.1615 41.2082 50.2292 42.7342 57.9479C42.7603 58.0625 42.7707 58.3073 42.7603 58.526Z" fill="#FFC6BA"/>
<path fill-rule="evenodd" clip-rule="evenodd" d="M23.797 56.4167C23.797 56.4167 23.0053 57.4427 23.0887 59.1094C23.1147 59.7292 23.2501 59.4896 23.5001 60.2917C23.6199 60.6667 23.3595 60.9375 23.448 61.3438C23.547 61.7813 23.6668 62.099 24.0678 62.3542C24.3647 62.5365 24.1303 63.1667 24.2501 63.4844C24.4012 63.8594 24.6616 63.9063 24.9012 64.1927C25.1043 64.4375 24.8387 64.8646 25.1147 65.2709C25.3595 65.625 25.9585 65.8646 26.2032 66.1146C26.7085 66.6511 27.0001 67.099 27.0001 67.099L27.5626 65.0938C27.5626 65.0938 26.1043 65.1042 25.797 63.3542C25.4793 61.6042 25.8074 60.5 26.7241 60.2188C27.6303 59.9323 28.8855 60.1771 29.3178 61.8073C29.3178 61.8073 30.1095 60.1719 30.8855 60.099C31.6616 60.0313 32.1876 60.5469 32.6928 59.2084C32.8282 58.849 33.6095 59.1667 33.8907 58.9323C34.4897 58.4375 34.4428 58.125 34.6772 57.9844C35.0157 57.7761 35.3178 57.724 35.4168 57.4688C36.1251 55.6615 35.5157 54.5625 35.5157 54.5625C35.5157 54.5625 24.9949 53.7657 23.797 56.4167Z" fill="#373135"/>
<path fill-rule="evenodd" clip-rule="evenodd" d="M42.8072 58.3699C42.8072 58.3699 31.0988 53.7658 23.0051 58.3751C23.0051 58.3751 22.5572 53.8491 25.3072 50.3491C28.0415 46.8699 39.1769 45.0001 42.2394 52.9168C42.7967 54.3543 42.8697 56.2449 42.8072 58.3699Z" fill="#CDB8C3"/>
<path fill-rule="evenodd" clip-rule="evenodd" d="M27.9168 64.4531C27.8855 64.5417 27.7918 64.5885 27.7084 64.5573C27.6199 64.526 27.573 64.4323 27.6043 64.3437C27.6043 64.3437 28.047 63.1042 28.0053 62.2135C27.9897 61.8906 27.922 61.6146 27.698 61.5052C27.5209 61.4219 27.3647 61.401 27.2449 61.4479C27.1251 61.4896 27.0418 61.599 26.9845 61.75C26.8334 62.125 26.8438 62.7344 27.0366 63.474C27.0574 63.5625 27.0105 63.651 26.9168 63.6771C26.8282 63.6979 26.7397 63.6458 26.7136 63.5573C26.5001 62.7292 26.5001 62.0469 26.672 61.625C26.7709 61.375 26.9324 61.2083 27.1251 61.1354C27.3178 61.0625 27.5574 61.0729 27.8386 61.2083C28.1616 61.3594 28.3178 61.7344 28.3334 62.1979C28.3803 63.1406 27.9168 64.4531 27.9168 64.4531Z" fill="#FE6A5E"/>
<path fill-rule="evenodd" clip-rule="evenodd" d="M28.2499 62.4792C28.3281 62.5313 28.3489 62.6354 28.302 62.7136C28.2499 62.7917 28.1458 62.8125 28.0676 62.7656C28.0676 62.7656 27.901 62.6511 27.7343 62.7031C27.6197 62.7344 27.5156 62.8594 27.4531 63.125C27.4062 63.3386 27.3853 63.625 27.4062 64.0156C27.4114 64.1094 27.3437 64.1875 27.2499 64.1927C27.1614 64.1979 27.0833 64.125 27.0781 64.0365C27.0208 63.1302 27.1978 62.7083 27.401 62.5208C27.5833 62.349 27.802 62.3386 27.9739 62.375C28.1353 62.4063 28.2499 62.4792 28.2499 62.4792Z" fill="#FE6A5E"/>
<path d="M39.0522 63.2968C39.0522 63.5676 39.146 63.802 39.3439 63.9999C39.5366 64.1926 39.771 64.2916 40.047 64.2916C40.3179 64.2916 40.5522 64.1926 40.7502 63.9999C40.9429 63.802 41.0366 63.5676 41.0366 63.2968C41.0366 63.0208 40.9429 62.7864 40.7502 62.5937C40.5522 62.3958 40.3179 62.302 40.047 62.302C39.771 62.302 39.5366 62.3958 39.3439 62.5937C39.146 62.7864 39.0522 63.0208 39.0522 63.2968Z" fill="#373135"/>
<path d="M31.4741 64.3385C31.4741 64.6302 31.5314 64.9115 31.6408 65.1771C31.7554 65.4479 31.9116 65.6875 32.12 65.8906C32.3231 66.099 32.5627 66.2552 32.8335 66.3698C33.0991 66.4792 33.3804 66.5365 33.672 66.5365C33.9637 66.5365 34.2397 66.4792 34.5106 66.3698C34.7814 66.2552 35.0158 66.099 35.2241 65.8906C35.4272 65.6875 35.5887 65.4479 35.6981 65.1771C35.8127 64.9115 35.8647 64.6302 35.8647 64.3385C35.8647 64.0469 35.8127 63.7656 35.6981 63.4948C35.5887 63.224 35.4272 62.9896 35.2241 62.7812C35.0158 62.5781 34.7814 62.4167 34.5106 62.3073C34.2397 62.1927 33.9637 62.1406 33.672 62.1406C33.3804 62.1406 33.0991 62.1927 32.8335 62.3073C32.5627 62.4167 32.3231 62.5781 32.12 62.7812C31.9116 62.9896 31.7554 63.224 31.6408 63.4948C31.5314 63.7656 31.4741 64.0469 31.4741 64.3385Z" fill="#FF8C83"/>
<path fill-rule="evenodd" clip-rule="evenodd" d="M42.2707 60.2759C42.3488 60.4009 42.3124 60.5676 42.1874 60.6509C42.0624 60.7291 41.8957 60.6926 41.8124 60.5676C41.8124 60.5676 41.4999 60.0572 41.0051 59.9947C40.6665 59.9478 40.2811 60.1353 39.8384 60.7759C39.7499 60.9009 39.5832 60.9322 39.4582 60.8437C39.3332 60.7603 39.3072 60.5937 39.3905 60.4687C40.0103 59.5728 40.6092 59.3905 41.0728 59.453C41.7915 59.552 42.2707 60.2759 42.2707 60.2759Z" fill="#373135"/>
<path fill-rule="evenodd" clip-rule="evenodd" d="M39.3541 67.8647L36.5573 66.3855C36.5573 66.3855 35.0937 68.9376 36.7864 69.9063C38.0989 70.6615 38.9166 68.1251 39.3541 67.8647Z" fill="#FF5443"/>
<path fill-rule="evenodd" clip-rule="evenodd" d="M31.4011 74.5053C31.4011 74.5053 33.1771 80.1928 34.0677 80.0261C34.9636 79.8543 39.9271 76.3491 39.9271 76.3491C39.9271 76.3491 40.2344 79.5886 38.5886 82.2032C38.5886 82.2032 32.9792 84.2918 30.9427 82.8855C28.9115 81.4793 27.7136 77.8438 28.1719 76.2449C28.6354 74.6459 30.3177 72.1355 31.4011 74.5053Z" fill="#56001B"/>
<mask id="mask35_62_1208" style="mask-type:luminance" maskUnits="userSpaceOnUse" x="35" y="77" width="4" height="7">
<path d="M35.3647 77.0938H38.0314V83.401H35.3647V77.0938Z" fill="white"/>
</mask>
<g mask="url(#mask35_62_1208)">
<mask id="mask36_62_1208" style="mask-type:luminance" maskUnits="userSpaceOnUse" x="28" y="73" width="12" height="11">
<path fill-rule="evenodd" clip-rule="evenodd" d="M31.4013 74.5052C31.4013 74.5052 33.1773 80.1927 34.068 80.0261C34.9638 79.8542 39.9273 76.349 39.9273 76.349C39.9273 76.349 40.2346 79.5886 38.5888 82.2032C38.5888 82.2032 32.9794 84.2917 30.943 82.8855C28.9117 81.4792 27.7138 77.8438 28.1721 76.2448C28.6357 74.6459 30.318 72.1355 31.4013 74.5052Z" fill="white"/>
</mask>
<g mask="url(#mask36_62_1208)">
<path fill-rule="evenodd" clip-rule="evenodd" d="M37.245 78.0834C37.2502 78.0105 37.3023 77.9584 37.37 77.9584C37.4377 77.9584 37.495 78.0157 37.495 78.0834C37.495 78.0834 37.4637 81.0365 36.5419 83.4636C36.5158 83.5261 36.4481 83.5573 36.3856 83.5365C36.3127 83.5105 36.2866 83.4375 36.3075 83.375C37.2137 80.9844 37.245 78.0834 37.245 78.0834Z" fill="#9C657A"/>
</g>
</g>
<path fill-rule="evenodd" clip-rule="evenodd" d="M40.8491 91.1302C40.8491 91.1302 42.4012 91.3438 42.0991 92.3177C41.7918 93.2917 41.8907 94.4375 41.2657 95.4792C40.6355 96.5261 33.7762 96.9844 30.6616 95.0938C27.5574 93.2083 39.2189 89.2604 40.8491 91.1302Z" fill="#FFC6BA"/>
<path fill-rule="evenodd" clip-rule="evenodd" d="M42.6356 85.5573C42.6356 85.5573 45.1564 87.9791 41.3803 91.6614C41.3803 91.6614 40.6876 94.3229 32.1876 95.4427C23.6824 96.5625 16.2762 95.4791 17.2189 90.8385C18.1616 86.1927 31.0262 84.0729 32.6928 84.4166C34.3595 84.7656 41.6981 82.6041 42.6356 85.5573Z" fill="#F9864F"/>
<mask id="mask37_62_1208" style="mask-type:luminance" maskUnits="userSpaceOnUse" x="38" y="85" width="5" height="9">
<path d="M38.0312 85.0938H42.0312V93.0938H38.0312V85.0938Z" fill="white"/>
</mask>
<g mask="url(#mask37_62_1208)">
<mask id="mask38_62_1208" style="mask-type:luminance" maskUnits="userSpaceOnUse" x="17" y="83" width="27" height="13">
<path fill-rule="evenodd" clip-rule="evenodd" d="M42.6353 85.5573C42.6353 85.5573 45.1561 87.9792 41.3801 91.6615C41.3801 91.6615 40.6874 94.3229 32.1874 95.4427C23.6822 96.5625 16.2759 95.4792 17.2186 90.8386C18.1613 86.1927 31.0259 84.0729 32.6926 84.4167C34.3593 84.7656 41.6978 82.6042 42.6353 85.5573Z" fill="white"/>
</mask>
<g mask="url(#mask38_62_1208)">
<path fill-rule="evenodd" clip-rule="evenodd" d="M39.3489 86.5521C39.2812 86.5313 39.25 86.4583 39.2708 86.3958C39.2968 86.3281 39.3645 86.2969 39.4322 86.3177C39.4322 86.3177 40.6562 86.75 41.3697 88.0729C41.8385 88.9479 42.0833 90.2083 41.5885 91.9948C41.5677 92.0625 41.5 92.099 41.4322 92.0833C41.3645 92.0625 41.3281 91.9948 41.3437 91.9271C41.8177 90.2292 41.5885 89.0261 41.151 88.1927C40.4843 86.9583 39.3489 86.5521 39.3489 86.5521Z" fill="#D65D00"/>
</g>
</g>
<mask id="mask39_62_1208" style="mask-type:luminance" maskUnits="userSpaceOnUse" x="16" y="66" width="19" height="28">
<path d="M16.2759 66.427H34.0311V93.0937H16.2759V66.427Z" fill="white"/>
</mask>
<g mask="url(#mask39_62_1208)">
<path fill-rule="evenodd" clip-rule="evenodd" d="M32.7186 72.8228C32.7186 72.8228 28.854 70.3436 26.4582 66.5624L24.9634 67.802C24.9634 67.802 19.5467 71.8228 18.203 77.4843C16.8697 83.1405 17.0467 86.6093 16.7655 87.9478C16.4842 89.2811 16.3697 90.5363 16.8072 91.3801C17.1613 92.0572 17.2082 92.3384 17.2082 92.3384C17.2082 92.3384 18.8697 92.8853 20.2499 91.6874C21.6249 90.4843 26.7759 87.4374 28.802 87.1353C30.8332 86.8332 30.9947 83.3436 30.9947 83.3436C30.9947 83.3436 31.479 75.2811 31.8124 74.3801C32.0363 73.7863 32.7186 72.8228 32.7186 72.8228Z" fill="#583247"/>
</g>
<path fill-rule="evenodd" clip-rule="evenodd" d="M54.8438 75.7655L51.599 81.7864L38.1875 81.4218C38.1875 81.4218 39.25 77.3124 40.7188 76.1614L53.8333 74.427L54.8438 75.7655Z" fill="#FCDBCC"/>
<mask id="mask40_62_1208" style="mask-type:luminance" maskUnits="userSpaceOnUse" x="50" y="74" width="5" height="8">
<path d="M50.0312 74.427H54.8698V81.828H50.0312V74.427Z" fill="white"/>
</mask>
<g mask="url(#mask40_62_1208)">
<mask id="mask41_62_1208" style="mask-type:luminance" maskUnits="userSpaceOnUse" x="38" y="74" width="17" height="8">
<path fill-rule="evenodd" clip-rule="evenodd" d="M54.8438 75.7655L51.599 81.7864L38.1875 81.4218C38.1875 81.4218 39.25 77.3124 40.7188 76.1614L53.8333 74.427L54.8438 75.7655Z" fill="white"/>
</mask>
<g mask="url(#mask41_62_1208)">
<path fill-rule="evenodd" clip-rule="evenodd" d="M54.6928 74.5208L50.948 81.8385L52.2188 82.8958L55.8438 75.302L54.6928 74.5208Z" fill="#E09A66"/>
</g>
</g>
<mask id="mask42_62_1208" style="mask-type:luminance" maskUnits="userSpaceOnUse" x="50" y="74" width="5" height="8">
<path d="M50.0312 74.427H54.0312V81.828H50.0312V74.427Z" fill="white"/>
</mask>
<g mask="url(#mask42_62_1208)">
<mask id="mask43_62_1208" style="mask-type:luminance" maskUnits="userSpaceOnUse" x="38" y="74" width="17" height="8">
<path fill-rule="evenodd" clip-rule="evenodd" d="M54.8438 75.7655L51.599 81.7864L38.1875 81.4218C38.1875 81.4218 39.25 77.3124 40.7188 76.1614L53.8333 74.427L54.8438 75.7655Z" fill="white"/>
</mask>
<g mask="url(#mask43_62_1208)">
<path fill-rule="evenodd" clip-rule="evenodd" d="M53.7291 74.3541C53.7708 74.2968 53.8489 74.2812 53.901 74.3229C53.9635 74.3593 53.9791 74.4374 53.9375 74.4947C53.9375 74.4947 52.8594 76.0364 52.0521 77.8385C51.5156 79.026 51.0937 80.3229 51.1771 81.3593C51.1875 81.4322 51.1302 81.4895 51.0625 81.4947C50.9948 81.4999 50.9375 81.4531 50.9323 81.3801C50.8385 80.3072 51.2708 78.9635 51.8229 77.7343C52.6458 75.9114 53.7291 74.3541 53.7291 74.3541Z" fill="#DAB9AA"/>
</g>
</g>
<path fill-rule="evenodd" clip-rule="evenodd" d="M51.1877 81.6458C51.1877 81.6458 50.8231 80.6198 50.4168 80.3073C48.8439 79.0989 46.5054 76.8541 44.7658 77.401L34.3908 80.6093L34.0835 81.3802L39.2189 82.7708L51.1877 81.6458Z" fill="#FFECE4"/>
<path fill-rule="evenodd" clip-rule="evenodd" d="M51.5991 81.7864L38.297 83.8385L34.2397 81.3749L44.6825 78.0364L51.5991 81.7864Z" fill="#E09A66"/>
<path fill-rule="evenodd" clip-rule="evenodd" d="M39.7812 82.6458C39.7812 82.6458 42.6198 80.8854 42.6875 81.401C42.7552 81.9166 42.2656 82.5937 42.2656 82.5937C42.2656 82.5937 45.5573 82.5156 46.125 82.4374C46.6927 82.3593 45.4635 83.7031 44.9062 83.7916C44.3542 83.8802 44.3646 84.7447 43.7292 84.8489C43.0937 84.9583 43.3333 85.6458 42.6979 85.6145C42.0573 85.5781 40.776 86.3958 39.8281 86.0156L39.7812 82.6458Z" fill="#FFC6BA"/>
<path fill-rule="evenodd" clip-rule="evenodd" d="M27.5886 73.8803C27.5886 73.8803 29.3386 79.224 32.2553 80.7813C35.1719 82.3386 39.5938 82.1928 39.5938 82.1928C39.5938 82.1928 40.5886 83.9376 39.9896 87.0209C39.9896 87.0209 33.4115 89.3803 28.7917 86.974C24.1771 84.573 22.6563 80.7032 22.5261 77.5261C22.4063 74.349 24.4063 68.8386 27.5886 73.8803Z" fill="#583247"/>
<mask id="mask44_62_1208" style="mask-type:luminance" maskUnits="userSpaceOnUse" x="35" y="81" width="4" height="8">
<path d="M35.3647 81.0938H38.0314V88.0729H35.3647V81.0938Z" fill="white"/>
</mask>
<g mask="url(#mask44_62_1208)">
<mask id="mask45_62_1208" style="mask-type:luminance" maskUnits="userSpaceOnUse" x="22" y="71" width="19" height="18">
<path fill-rule="evenodd" clip-rule="evenodd" d="M27.5886 73.8803C27.5886 73.8803 29.3386 79.224 32.2553 80.7813C35.1719 82.3386 39.5938 82.1928 39.5938 82.1928C39.5938 82.1928 40.5886 83.9376 39.9896 87.0209C39.9896 87.0209 33.4115 89.3803 28.7917 86.974C24.1771 84.573 22.6563 80.7032 22.5261 77.5261C22.4063 74.349 24.4063 68.8386 27.5886 73.8803Z" fill="white"/>
</mask>
<g mask="url(#mask45_62_1208)">
<path fill-rule="evenodd" clip-rule="evenodd" d="M36.7084 82.0729C36.698 82.0052 36.7396 81.9427 36.8126 81.9271C36.8803 81.9167 36.9428 81.9636 36.9584 82.0313C36.9584 82.0313 37.198 83.4844 37.2292 85.0261C37.2501 86.0677 37.1719 87.1511 36.8698 87.8594C36.8386 87.9219 36.7657 87.9531 36.7032 87.9219C36.6407 87.8959 36.6094 87.8229 36.6407 87.7604C36.9323 87.0781 37.0001 86.0365 36.9844 85.0313C36.948 83.5104 36.7084 82.0729 36.7084 82.0729Z" fill="#9C657A"/>
</g>
</g>
<path fill-rule="evenodd" clip-rule="evenodd" d="M28.8488 86.8647C28.9165 86.8959 28.9322 86.974 28.9061 87.0313C28.8697 87.0938 28.7967 87.1199 28.7395 87.0886C24.0676 84.6563 22.5311 80.7449 22.4061 77.5313C22.4009 77.4636 22.453 77.4063 22.5207 77.4011C22.5936 77.4011 22.6509 77.4532 22.6561 77.5209C22.7759 80.6615 24.2863 84.4845 28.8488 86.8647Z" fill="#56001B"/>
<path fill-rule="evenodd" clip-rule="evenodd" d="M27.4688 73.9165C27.4532 73.854 27.4845 73.7811 27.547 73.7603C27.6199 73.7394 27.6876 73.7759 27.7084 73.8384C27.7084 73.8384 29.0157 77.854 31.2657 79.9113C31.3126 79.9582 31.3178 80.0363 31.2709 80.0884C31.224 80.1405 31.1459 80.1457 31.0938 80.0988C28.8074 77.9999 27.4688 73.9165 27.4688 73.9165Z" fill="#56001B"/>
<path fill-rule="evenodd" clip-rule="evenodd" d="M39.9323 76.4844C39.9323 76.4844 40.4896 75.3907 41.3229 75.1876C42.1563 74.9792 43.125 75.4428 43.2292 76.0001C43.3281 76.5626 43.0365 77.0365 42.375 76.5574C41.7188 76.0782 41.3802 76.4792 41.0208 76.9115C40.7604 77.2292 40.1979 77.6042 39.9792 77.224C39.901 77.0938 39.9063 76.823 39.9323 76.4844Z" fill="#FFC6BA"/>
<path fill-rule="evenodd" clip-rule="evenodd" d="M24.5311 86.1822C24.5884 86.1458 24.6665 86.1614 24.703 86.2187C24.7394 86.2812 24.7238 86.3541 24.6665 86.3905C24.6665 86.3905 21.7603 88.2499 19.4842 89.2083C18.8905 89.4635 18.3436 89.651 17.8957 89.7343C17.578 89.7916 17.3071 89.7968 17.1144 89.7395C17.0467 89.7239 17.0051 89.651 17.0259 89.5885C17.0467 89.5208 17.1144 89.4791 17.1821 89.4999C17.3488 89.5468 17.578 89.5364 17.8488 89.4895C18.2811 89.4062 18.8124 89.2239 19.3853 88.9791C21.6457 88.026 24.5311 86.1822 24.5311 86.1822Z" fill="#56001B"/>
<path fill-rule="evenodd" clip-rule="evenodd" d="M67.4583 85.1769C67.4583 85.1769 67.7447 89.4634 67.1666 91.5467C67.1666 91.5467 68.3229 96.9894 64.302 98.2603C62.5625 98.8072 61.3177 98.4217 61.3177 98.4217C61.3177 98.4217 60.9791 99.0103 61.0729 99.4894L54.5677 99.2186C54.5677 99.2186 54.7083 96.6457 54.3541 95.8697C54.0052 95.0936 57.2916 78.6197 67.4583 85.1769Z" fill="#FFC6BA"/>
<path fill-rule="evenodd" clip-rule="evenodd" d="M70.2446 102C70.2446 102 70.6353 104.344 70.2082 105.854C69.7863 107.365 68.6769 108.411 68.6769 108.411L66.5415 107.938L66.479 103.5L70.2446 102Z" fill="#F8A898"/>
<path fill-rule="evenodd" clip-rule="evenodd" d="M67.2762 108.099L70.7293 101.26L70.7814 99.302C70.7814 99.302 64.8179 97.3645 60.8491 100.63L65.0627 109.661L67.2762 108.099Z" fill="#FFECE4"/>
<mask id="mask46_62_1208" style="mask-type:luminance" maskUnits="userSpaceOnUse" x="64" y="98" width="7" height="12">
<path d="M64.6978 98.7136H70.7863V109.688H64.6978V98.7136Z" fill="white"/>
</mask>
<g mask="url(#mask46_62_1208)">
<mask id="mask47_62_1208" style="mask-type:luminance" maskUnits="userSpaceOnUse" x="60" y="98" width="11" height="12">
<path fill-rule="evenodd" clip-rule="evenodd" d="M67.276 108.099L70.7291 101.26L70.7812 99.3021C70.7812 99.3021 64.8176 97.3646 60.8489 100.63L65.0624 109.662L67.276 108.099Z" fill="white"/>
</mask>
<g mask="url(#mask47_62_1208)">
<path fill-rule="evenodd" clip-rule="evenodd" d="M70.7811 99.3021L65.979 109.016L66.8748 110.578L71.755 101.052L70.7811 99.3021Z" fill="#7F4400"/>
</g>
</g>
<path fill-rule="evenodd" clip-rule="evenodd" d="M49.3594 115.094C49.3594 115.094 45.2969 112.193 43.9635 115.042C42.625 117.891 46.401 124.964 51.5156 126.219C56.6302 127.479 63.9323 127.359 67.7187 124.599C71.4948 121.839 74.9687 117.161 70.9635 114.708C66.9635 112.26 54.9583 115.755 54.9583 115.755L49.3594 115.094Z" fill="#53680D"/>
<path fill-rule="evenodd" clip-rule="evenodd" d="M67.4168 107.495C67.4168 107.495 69.7189 107.573 70.2189 108.021C70.2189 108.021 69.5575 113.438 68.5158 115.802C68.1825 116.552 67.745 116.953 67.3543 116.818C65.7345 116.26 65.4429 110.745 65.4429 110.745L67.4168 107.495Z" fill="#FDA601"/>
<path fill-rule="evenodd" clip-rule="evenodd" d="M53.5573 98.4531C53.5573 98.4531 60.5313 98.4479 62.5365 100.245C62.5365 100.245 63.3594 101.396 64.1511 102.021C64.948 102.641 65.7136 103.833 67.6146 108.984C69.1459 113.146 69.125 116.599 67.4011 116.938C65.6823 117.276 64.6407 116.76 64.6407 116.76C64.6407 116.76 65.5521 120.516 64.3438 121.271C63.1355 122.026 55.8803 125.823 47.9792 120.469C47.9792 120.469 46.7969 119.026 47.8698 115.333C47.8698 115.333 46.0469 115.49 47.0938 111.13C48.1355 106.766 50.2917 101.521 51.7032 100.458C53.1146 99.3958 53.5573 98.4531 53.5573 98.4531Z" fill="#FDA601"/>
<path fill-rule="evenodd" clip-rule="evenodd" d="M67.0834 107.922C67.0574 107.854 67.0886 107.781 67.1511 107.76C67.2136 107.734 67.2918 107.766 67.3126 107.828C67.3126 107.828 68.6563 111.313 68.8126 113.349C68.8178 113.417 68.7657 113.479 68.6928 113.484C68.6251 113.49 68.5678 113.438 68.5626 113.37C68.4116 111.354 67.0834 107.922 67.0834 107.922Z" fill="#FB8422"/>
<path fill-rule="evenodd" clip-rule="evenodd" d="M63.2655 108.016C63.2603 107.948 63.3072 107.885 63.3749 107.88C63.4426 107.87 63.5051 107.917 63.5155 107.984C63.5155 107.984 64.5103 115.724 64.8384 116.953C64.8593 117.021 64.8176 117.088 64.7499 117.109C64.6822 117.125 64.6145 117.083 64.5989 117.016C64.2655 115.781 63.2655 108.016 63.2655 108.016Z" fill="#FB8422"/>
<path fill-rule="evenodd" clip-rule="evenodd" d="M50.6354 105.88C50.6563 105.813 50.7292 105.776 50.7917 105.802C50.8594 105.823 50.8958 105.896 50.8698 105.958C50.8698 105.958 48.2292 113.542 47.8438 115.557C47.8281 115.625 47.7604 115.672 47.6979 115.656C47.625 115.646 47.5833 115.578 47.599 115.51C47.9896 113.49 50.6354 105.88 50.6354 105.88Z" fill="#FB8422"/>
<path fill-rule="evenodd" clip-rule="evenodd" d="M50.7865 112.469C50.7448 112.411 50.7552 112.333 50.8177 112.297C50.8698 112.255 50.9479 112.271 50.9896 112.323C50.9896 112.323 53.2656 115.568 55.4219 117.833C56.3333 118.792 57.2188 119.578 57.8959 119.859C57.9583 119.885 57.9896 119.958 57.9636 120.021C57.9375 120.083 57.8646 120.115 57.8021 120.088C57.099 119.802 56.1823 119 55.2448 118.01C53.0781 115.729 50.7865 112.469 50.7865 112.469Z" fill="#FB8422"/>
<path fill-rule="evenodd" clip-rule="evenodd" d="M69.8333 107.828C69.8333 107.828 70.427 105.552 70.151 104.802C69.8645 104.057 68.3854 102.458 68.1874 103.141C67.9947 103.828 68.3229 104.203 68.5989 104.552C68.8697 104.906 67.6562 106.464 68.4791 107.563C68.4791 107.563 68.9479 107.625 69.177 107.667C69.3958 107.714 69.8333 107.828 69.8333 107.828Z" fill="#FFC6BA"/>
<path fill-rule="evenodd" clip-rule="evenodd" d="M49.2915 86.7345C49.2915 86.7345 49.578 89.1564 49.8019 90.0314C51.229 95.4793 54.453 97.7345 54.453 97.7345L60.1978 97.7709C60.1978 97.7709 63.3384 92.8751 63.9425 91.1824C64.2498 90.3282 65.4998 89.8178 66.0259 88.922C66.755 87.6928 66.8696 85.8751 66.5988 84.6928C66.1353 82.6564 49.3228 80.4584 49.2915 86.7345Z" fill="#373135"/>
<path fill-rule="evenodd" clip-rule="evenodd" d="M49.2031 86.7239C49.2031 86.7239 60.4323 90.4635 67.6927 85.052C67.6927 85.052 67.2188 81.5677 65.1823 79.2135C63.224 76.9583 55.8542 75.2083 51.7708 79.4895C50.3021 81.0364 49.4531 83.2395 49.2031 86.7239Z" fill="#D5BB4D"/>
<path fill-rule="evenodd" clip-rule="evenodd" d="M64.1457 91.5365C64.0624 91.5677 63.9634 91.526 63.927 91.4375C63.9009 91.3542 63.9374 91.2552 64.0259 91.224C64.0259 91.224 64.3541 91.0938 64.7186 91.0938C64.9843 91.0938 65.2707 91.1563 65.479 91.3542C65.6509 91.5208 65.7863 91.776 65.8072 92.1771C65.828 92.5365 65.7551 93.026 65.552 93.6823C65.3072 94.4479 64.9165 94.8698 64.5103 95.0938C63.5468 95.6198 62.4113 95.0365 62.4113 95.0365C62.328 94.9948 62.2968 94.8906 62.3436 94.8073C62.3801 94.7292 62.4843 94.6979 62.5624 94.7396C62.5624 94.7396 63.5311 95.25 64.3488 94.8021C64.6978 94.6094 65.0207 94.2396 65.229 93.5781C65.4218 92.974 65.4895 92.526 65.479 92.1979C65.4634 91.9062 65.3801 91.7188 65.2499 91.599C65.1093 91.4583 64.9061 91.4271 64.7238 91.4271C64.4218 91.4271 64.1457 91.5365 64.1457 91.5365Z" fill="#FE6A5E"/>
<path fill-rule="evenodd" clip-rule="evenodd" d="M83.3333 86.3073C83.3333 86.3073 83.0417 90.5886 83.6198 92.6719C83.6198 92.6719 82.4688 98.1146 86.4844 99.3854C88.224 99.9375 89.4688 99.5521 89.4688 99.5521C89.4688 99.5521 89.8073 100.141 89.7135 100.62L96.2188 100.344C96.2188 100.344 96.0833 97.7761 96.4375 97C96.7865 96.224 93.4948 79.75 83.3333 86.3073Z" fill="#FFC6BA"/>
<path fill-rule="evenodd" clip-rule="evenodd" d="M80.5469 103.13C80.5469 103.13 80.1511 105.469 80.5782 106.979C81.0052 108.495 82.1146 109.536 82.1146 109.536L84.2448 109.068L84.3073 104.63L80.5469 103.13Z" fill="#F8A898"/>
<path fill-rule="evenodd" clip-rule="evenodd" d="M83.5158 109.229L80.0575 102.391L80.0054 100.432C80.0054 100.432 85.9689 98.4949 89.9377 101.761L85.7241 110.792L83.5158 109.229Z" fill="#FFECE4"/>
<mask id="mask48_62_1208" style="mask-type:luminance" maskUnits="userSpaceOnUse" x="80" y="99" width="7" height="12">
<path d="M80 99.8438H86.0312V110.812H80V99.8438Z" fill="white"/>
</mask>
<g mask="url(#mask48_62_1208)">
<mask id="mask49_62_1208" style="mask-type:luminance" maskUnits="userSpaceOnUse" x="80" y="99" width="10" height="12">
<path fill-rule="evenodd" clip-rule="evenodd" d="M83.5155 109.229L80.0572 102.391L80.0051 100.432C80.0051 100.432 85.9687 98.4948 89.9374 101.76L85.7239 110.792L83.5155 109.229Z" fill="white"/>
</mask>
<g mask="url(#mask49_62_1208)">
<path fill-rule="evenodd" clip-rule="evenodd" d="M80.0052 100.432L84.8125 110.146L83.9115 111.703L79.0312 102.182L80.0052 100.432Z" fill="#FDA601"/>
</g>
</g>
<mask id="mask50_62_1208" style="mask-type:luminance" maskUnits="userSpaceOnUse" x="78" y="114" width="30" height="15">
<path d="M78.0312 114.427H107.365V128.615H78.0312V114.427Z" fill="white"/>
</mask>
<g mask="url(#mask50_62_1208)">
<path fill-rule="evenodd" clip-rule="evenodd" d="M101.427 116.219C101.427 116.219 105.49 113.318 106.828 116.172C108.162 119.021 104.391 126.094 99.2761 127.349C94.1616 128.604 86.8543 128.484 83.073 125.724C79.2918 122.963 75.8178 118.292 79.823 115.838C83.823 113.385 95.8334 116.885 95.8334 116.885L101.427 116.219Z" fill="#CC9214"/>
</g>
<path fill-rule="evenodd" clip-rule="evenodd" d="M83.3696 108.625C83.3696 108.625 81.0728 108.698 80.5728 109.151C80.5728 109.151 81.2342 114.562 82.2707 116.927C82.604 117.682 83.0415 118.083 83.4321 117.948C85.0571 117.385 85.3436 111.875 85.3436 111.875L83.3696 108.625Z" fill="#A64A19"/>
<path fill-rule="evenodd" clip-rule="evenodd" d="M97.2292 99.5833C97.2292 99.5833 90.2605 99.5728 88.25 101.375C88.25 101.375 87.4271 102.521 86.6407 103.146C85.8438 103.771 85.0782 104.958 83.1719 110.115C81.6407 114.276 81.6615 117.724 83.3855 118.068C85.1042 118.406 86.1459 117.891 86.1459 117.891C86.1459 117.891 85.2396 121.646 86.448 122.401C87.6563 123.156 94.9063 126.953 102.807 121.599C102.807 121.599 103.99 120.156 102.922 116.463C102.922 116.463 104.745 116.62 103.698 112.255C102.651 107.896 100.5 102.651 99.0834 101.588C97.6719 100.526 97.2292 99.5833 97.2292 99.5833Z" fill="#A64A19"/>
<path fill-rule="evenodd" clip-rule="evenodd" d="M83.474 108.958C83.5 108.896 83.5729 108.865 83.6354 108.885C83.6979 108.911 83.7292 108.984 83.7031 109.047C83.7031 109.047 82.3802 112.484 82.224 114.495C82.2188 114.568 82.1615 114.62 82.0938 114.615C82.026 114.609 81.9688 114.547 81.974 114.479C82.1354 112.437 83.474 108.958 83.474 108.958Z" fill="#822411"/>
<path fill-rule="evenodd" clip-rule="evenodd" d="M87.2708 109.115C87.2813 109.047 87.3438 109 87.4167 109.005C87.4844 109.016 87.5261 109.078 87.5208 109.146C87.5208 109.146 86.5208 116.912 86.1927 118.146C86.1771 118.214 86.1094 118.255 86.0365 118.234C85.9688 118.219 85.9323 118.151 85.9479 118.083C86.2813 116.849 87.2708 109.115 87.2708 109.115Z" fill="#822411"/>
<path fill-rule="evenodd" clip-rule="evenodd" d="M99.9165 107.089C99.8957 107.026 99.9269 106.953 99.9998 106.932C100.062 106.906 100.13 106.943 100.156 107.005C100.156 107.005 102.797 114.615 103.193 116.641C103.208 116.708 103.161 116.771 103.094 116.786C103.031 116.797 102.958 116.755 102.948 116.688C102.557 114.672 99.9165 107.089 99.9165 107.089Z" fill="#822411"/>
<path fill-rule="evenodd" clip-rule="evenodd" d="M99.8021 113.453C99.8386 113.396 99.9167 113.385 99.974 113.422C100.031 113.464 100.042 113.542 100 113.599C100 113.599 97.7136 116.859 95.5469 119.135C94.6094 120.125 93.6876 120.932 92.9844 121.219C92.9219 121.245 92.8542 121.214 92.823 121.151C92.8021 121.083 92.8282 121.01 92.8907 120.984C93.573 120.708 94.4532 119.922 95.3646 118.964C97.5209 116.698 99.8021 113.453 99.8021 113.453Z" fill="#822411"/>
<path fill-rule="evenodd" clip-rule="evenodd" d="M80.9531 108.953C80.9531 108.953 80.3593 106.677 80.6406 105.932C80.9218 105.188 82.401 103.583 82.5989 104.271C82.7968 104.958 82.4687 105.328 82.1927 105.682C81.9166 106.031 83.1302 107.594 82.3072 108.693C82.3072 108.693 81.8385 108.755 81.6145 108.797C81.3906 108.839 80.9531 108.953 80.9531 108.953Z" fill="#FFC6BA"/>
<path fill-rule="evenodd" clip-rule="evenodd" d="M101.583 87.8543C101.583 87.8543 101.995 88.8438 101.557 89.6355C101.125 90.422 101.922 91.4428 101.083 92.1407C100.25 92.8439 101 94.4324 100.26 94.9845C99.5208 95.5418 99.8229 96.5261 98.8698 97.0105C97.9167 97.4897 96.3385 98.8595 96.3385 98.8595L90.5885 98.8959C90.5885 98.8959 88.75 97.2345 88.8125 96.3959C88.8698 95.5626 87.3958 94.5522 87.4375 93.7918C87.4792 93.0366 86.1979 91.8855 86.1667 91.047C86.1302 90.2084 84.0104 88.2501 84.474 86.2136C84.9323 84.172 101.552 81.5782 101.583 87.8543Z" fill="#373135"/>
<path fill-rule="evenodd" clip-rule="evenodd" d="M101.583 87.8541C101.583 87.8541 90.3594 91.5884 83.0938 86.1822C83.0938 86.1822 83.5677 82.6978 85.6042 80.3436C87.5625 78.0832 94.9375 76.3384 99.0208 80.6197C100.49 82.1614 101.333 84.3697 101.583 87.8541Z" fill="#E09A66"/>
<path fill-rule="evenodd" clip-rule="evenodd" d="M86.7606 92.3541C86.8491 92.3854 86.8908 92.4843 86.8596 92.5677C86.8231 92.6562 86.7293 92.6979 86.6408 92.6614C86.6408 92.6614 86.37 92.5572 86.0627 92.5572C85.8804 92.5572 85.6825 92.5885 85.5366 92.7291C85.4116 92.8437 85.3283 93.0364 85.3127 93.3229C85.2971 93.6562 85.3648 94.1041 85.5575 94.7083C85.771 95.3645 86.0887 95.7395 86.4429 95.927C87.2554 96.375 88.2241 95.8645 88.2241 95.8645C88.3023 95.8229 88.4064 95.8541 88.4481 95.9375C88.4898 96.0208 88.4637 96.1197 88.3752 96.1614C88.3752 96.1614 87.245 96.7447 86.2814 96.2239C85.87 96 85.4846 95.5729 85.2398 94.8072C85.0314 94.1562 84.9637 93.6666 84.9846 93.3072C85.0002 92.9062 85.1356 92.6458 85.3075 92.4843C85.5158 92.2864 85.8023 92.2187 86.0679 92.2239C86.4377 92.2239 86.7606 92.3541 86.7606 92.3541Z" fill="#FE6A5E"/>
<path d="M25.1751 141.532L23.9251 142.949L21.4876 140.761L15.1543 147.845L13.4668 146.345L19.8001 139.261L17.3418 137.074L18.5918 135.657L25.1751 141.532Z" fill="black"/>
<path d="M27.2913 156.934L25.333 155.58L26.1455 152.955L22.5413 150.434L20.3538 152.101L18.458 150.788L28.208 143.684L30.583 145.33L27.2913 156.934ZM27.9163 146.392L24.1455 149.246L26.708 151.017L28.083 146.496L27.9163 146.392Z" fill="black"/>
<path d="M41.0487 151.368L40.1529 153.055L35.7571 150.701L34.3612 153.347L38.3404 155.472L37.4446 157.118L33.4654 154.993L31.2987 159.076L29.3196 158.013L34.6737 147.951L41.0487 151.368Z" fill="black"/>
<path d="M41.3049 163.928C40.581 163.647 39.9612 163.303 39.4508 162.887C38.9508 162.481 38.5653 162.059 38.3049 161.616C38.0393 161.173 37.8726 160.736 37.8049 160.303L39.5341 159.345L39.7216 159.428C39.857 160.027 40.1174 160.564 40.4924 161.033C40.8674 161.507 41.3778 161.866 42.0341 162.116C42.6018 162.35 43.0758 162.408 43.4508 162.283C43.8258 162.168 44.0966 161.908 44.2633 161.491C44.357 161.231 44.3935 161.001 44.3674 160.803C44.3518 160.595 44.2633 160.397 44.0966 160.199C43.9299 159.991 43.6851 159.762 43.3674 159.512L42.0966 158.658C41.232 158.074 40.6695 157.439 40.4091 156.741C40.1591 156.048 40.1851 155.298 40.4924 154.491C40.7268 153.908 41.0862 153.449 41.5758 153.116C42.0601 152.772 42.6383 152.585 43.3049 152.553C43.982 152.527 44.7112 152.673 45.4924 152.991C46.3101 153.314 46.9716 153.699 47.4716 154.158C47.9716 154.616 48.331 155.137 48.5549 155.72L46.9508 156.72L46.7841 156.658C46.6018 156.231 46.3518 155.861 46.0341 155.553C45.7112 155.251 45.2945 155.001 44.7841 154.803C44.2112 154.585 43.732 154.512 43.3466 154.595C42.9716 154.668 42.7112 154.882 42.5758 155.241C42.4351 155.574 42.4299 155.882 42.5549 156.158C42.6903 156.439 43.0028 156.736 43.4924 157.053L44.7633 157.908C45.6903 158.533 46.2893 159.199 46.5549 159.908C46.8153 160.606 46.7841 161.366 46.4508 162.199C46.1851 162.866 45.8101 163.376 45.3258 163.741C44.8518 164.116 44.2685 164.324 43.5758 164.366C42.8935 164.408 42.1383 164.262 41.3049 163.928Z" fill="black"/>
<path d="M49.8201 166.671L47.6743 166.025L50.9451 155.108L53.091 155.754L49.8201 166.671Z" fill="black"/>
<path d="M53.178 167.641L55.428 156.474L59.9071 157.37C61.0738 157.609 61.8915 158.052 62.3655 158.703C62.8342 159.344 62.9801 160.135 62.803 161.078C62.6624 161.76 62.3707 162.281 61.928 162.641C61.4957 163.005 60.9176 163.224 60.1988 163.307L60.178 163.474C60.4801 163.698 60.7196 163.984 60.8863 164.328C61.053 164.677 61.1676 165.161 61.2405 165.786L61.678 169.349L59.428 168.891L58.9905 165.349C58.9488 164.99 58.8707 164.703 58.7613 164.495C58.6467 164.276 58.4957 164.099 58.303 163.974C58.1207 163.838 57.8499 163.734 57.4905 163.661L56.3238 163.411L55.3863 168.078L53.178 167.641ZM58.6988 162.099C59.7509 162.307 60.3759 161.911 60.5738 160.911C60.7821 159.901 60.3551 159.286 59.303 159.078L57.2821 158.661L56.678 161.682L58.6988 162.099Z" fill="black"/>
<path d="M70.4919 170.15L68.4294 170.129L68.4919 158.733L71.4294 158.754L74.2836 167.15H74.4503L77.3461 158.796L80.2211 158.816L80.1586 170.212L78.0336 170.191L78.0753 162.671L77.8878 162.629L75.2003 170.171H73.3253L70.7419 162.587L70.5336 162.629L70.4919 170.15Z" fill="black"/>
<path d="M88.6356 169.12L86.4064 169.432L85.7814 164.995L80.9272 158.703L83.3231 158.349L86.5106 162.432L86.7189 162.412L88.5939 157.62L90.9272 157.287L88.0106 164.682L88.6356 169.12Z" fill="black"/>
<path d="M98.1219 167.3C97.3719 167.508 96.6688 167.602 96.0178 167.571C95.3772 167.529 94.8147 167.404 94.3303 167.196C93.8563 166.987 93.4605 166.732 93.1428 166.425L93.9761 164.633L94.1636 164.591C94.6219 164.998 95.1428 165.279 95.7261 165.446C96.3199 165.602 96.9553 165.586 97.6219 165.404C98.2157 165.253 98.6272 165.018 98.8511 164.696C99.0855 164.378 99.148 164.003 99.0386 163.571C98.9657 163.31 98.8615 163.107 98.7261 162.966C98.5855 162.815 98.3824 162.706 98.1219 162.633C97.8719 162.55 97.5438 162.508 97.1428 162.508L95.6219 162.571C94.5803 162.612 93.7522 162.435 93.1428 162.029C92.5178 161.628 92.0959 161.008 91.8719 160.175C91.7209 159.565 91.7365 158.982 91.9136 158.425C92.0959 157.857 92.4501 157.362 92.9761 156.946C93.5022 156.529 94.174 156.211 94.9969 155.987C95.8407 155.768 96.6011 155.69 97.2678 155.758C97.9344 155.831 98.5386 156.039 99.0803 156.383L98.3928 158.154L98.2053 158.196C97.8147 157.946 97.3928 157.794 96.9344 157.737C96.4865 157.685 96.0022 157.727 95.4761 157.862C94.8928 158.018 94.4657 158.237 94.2053 158.529C93.9397 158.821 93.8563 159.154 93.9553 159.529C94.049 159.878 94.2365 160.128 94.5178 160.279C94.7938 160.419 95.2157 160.482 95.7886 160.466L97.3094 160.383C98.4344 160.331 99.3094 160.508 99.9345 160.925C100.559 161.331 100.987 161.966 101.226 162.841C101.403 163.539 101.414 164.175 101.247 164.758C101.08 165.341 100.731 165.857 100.205 166.3C99.6897 166.748 98.9969 167.081 98.1219 167.3Z" fill="black"/>
<path d="M107.628 151.818L108.315 153.589L105.274 154.755L108.711 163.61L106.607 164.422L103.169 155.568L100.107 156.776L99.4194 155.005L107.628 151.818Z" fill="black"/>
<path d="M113.624 155.91L115.061 158.66L119.874 156.14L120.749 157.827L113.936 161.39L108.645 151.285L115.332 147.785L116.207 149.473L111.52 151.931L112.77 154.285L116.874 152.14L117.728 153.765L113.624 155.91Z" fill="black"/>
<path d="M123.106 156.384L116.647 146.988L120.418 144.384C121.392 143.717 122.272 143.441 123.064 143.55C123.866 143.649 124.543 144.092 125.085 144.884C125.486 145.467 125.658 146.04 125.606 146.592C125.564 147.149 125.324 147.727 124.897 148.321L125.001 148.467C125.376 148.384 125.736 148.415 126.085 148.55C126.444 148.675 126.882 148.936 127.397 149.321L130.251 151.467L128.356 152.78L125.501 150.613C125.22 150.394 124.965 150.248 124.731 150.175C124.491 150.108 124.262 150.092 124.043 150.134C123.819 150.175 123.553 150.3 123.251 150.509L122.272 151.196L124.96 155.113L123.106 156.384ZM122.96 148.571C123.845 147.946 124.001 147.212 123.418 146.363C122.835 145.519 122.095 145.405 121.21 146.03L119.522 147.196L121.272 149.738L122.96 148.571Z" fill="black"/>
<path d="M135.864 146.617L134.177 148.117L131.218 144.763L123.677 142.179L125.489 140.575L130.385 142.221L130.552 142.075L129.489 137.054L131.26 135.492L132.906 143.263L135.864 146.617Z" fill="black"/>
</svg>
