<svg width="253" height="100" viewBox="0 0 253 100" fill="none" xmlns="http://www.w3.org/2000/svg">
<path d="M178.837 52.3275H161.39V66.1068H178.837V52.3275Z" fill="black"/>
<path d="M32.2524 55.9466H14.8054V69.7259H32.2524V55.9466Z" fill="black"/>
<path d="M24.1133 68.7224C25.0577 64.007 29.3155 61.482 31.4721 61.2311C33.6288 60.9803 33.3332 69.5122 33.3332 69.5122L25.9536 70.7526L24.1133 68.7247V68.7224Z" fill="#EC5912"/>
<path d="M161.676 64.3229C167.945 59.1893 176.2 60.4994 179.282 62.4971C182.365 64.4971 172.865 75.3194 172.865 75.3194L161.909 68.9593L161.676 64.3229Z" fill="#EC5912"/>
<path d="M229.019 90.6016C227.088 90.4343 225.091 89.993 223.112 89.2845C218.907 87.7956 215.229 85.1103 212.763 81.7259L212.717 81.6585C212.357 81.0778 212.25 80.4367 212.419 79.8583C212.673 78.9779 213.181 78.5969 213.601 78.4367L219.487 75.3496C220.381 74.9338 221.466 75.1475 222.078 75.8583C223.292 77.1846 224.902 78.2369 226.735 78.9036C228.515 79.5191 230.219 79.7746 231.646 79.633C232.893 79.5331 233.886 79.1893 234.466 78.6597C234.807 78.3391 235.017 77.8211 235.075 77.1335C235.295 75.0917 231.66 72.806 229.709 71.5795C229.446 71.4123 229.201 71.259 228.986 71.1219C222.634 67.1428 216.049 63.0174 218.136 53.396C218.977 49.2706 221.26 46.1231 224.92 44.0604L224.964 44.0371C226.793 43.1126 228.797 42.5226 230.921 42.2834C232.99 42.1184 234.999 42.223 236.927 42.5946C241.536 43.5842 245.614 46.0395 248.135 49.3356L248.195 49.4239C248.419 49.7839 248.689 50.3438 248.523 51.108C248.442 51.698 248.086 52.216 247.516 52.5737L247.458 52.6062L241.582 55.8118C240.783 56.3321 239.737 56.2044 239.01 55.4936C237.911 54.4808 236.396 53.7444 234.747 53.4216C233.761 53.2079 232.87 53.1498 232.078 53.2381C231.353 53.2961 230.713 53.4657 230.088 53.7584C229.266 54.2276 228.945 55.0615 228.822 55.6817C228.37 57.8676 232.325 60.2648 234.225 61.4169C234.417 61.5331 234.597 61.6422 234.763 61.7444L234.957 61.8699C241.062 65.8025 246.828 69.5168 245.946 78.2276C245.57 81.7584 244.124 84.7386 241.767 86.8571C239.439 89.0035 236.274 90.295 232.625 90.5877C231.466 90.7084 230.256 90.7131 229.019 90.6062V90.6016Z" fill="#FFB006"/>
<path d="M230.757 91.4889C230.164 91.4889 229.559 91.4634 228.949 91.41C226.934 91.2357 224.879 90.7781 222.842 90.0511C218.485 88.5064 214.673 85.7212 212.11 82.2067L212.029 82.0882C211.546 81.3078 211.408 80.4343 211.641 79.6306C211.985 78.4436 212.703 77.9233 213.264 77.6957L219.148 74.6109C220.371 74.0418 221.821 74.3298 222.68 75.3147C223.805 76.5412 225.303 77.5168 227.012 78.137C228.679 78.7131 230.259 78.9524 231.57 78.8223C232.632 78.7363 233.484 78.4576 233.925 78.0557C234.105 77.8862 234.232 77.5308 234.272 77.0639C234.438 75.5098 230.693 73.1544 229.282 72.2694C229.014 72.0999 228.767 71.9465 228.55 71.8048C222.269 67.8699 215.139 63.403 217.346 53.2218C218.235 48.8594 220.651 45.5331 224.523 43.3496L224.583 43.317C226.513 42.3414 228.61 41.7236 230.829 41.4727H230.854C232.981 41.2985 235.073 41.4076 237.077 41.7932C241.88 42.8246 246.135 45.3891 248.772 48.8362L248.879 48.9895C249.047 49.2613 249.56 50.0859 249.317 51.2474C249.195 52.065 248.708 52.7781 247.941 53.259L247.86 53.3054L241.988 56.5064C240.882 57.2079 239.435 57.0337 238.451 56.079C237.46 55.1684 236.089 54.5064 234.588 54.2114C233.683 54.0162 232.872 53.9582 232.163 54.0395H232.138C231.526 54.0906 230.991 54.2299 230.457 54.4762C229.919 54.7967 229.7 55.3914 229.612 55.835C229.275 57.4634 233.311 59.9094 234.639 60.7131C234.835 60.8316 235.017 60.9431 235.184 61.0453L235.392 61.1777C241.434 65.0708 247.682 69.094 246.747 78.3019C246.348 82.0371 244.812 85.2009 242.302 87.4541C239.843 89.7189 236.516 91.0824 232.688 91.3867C232.064 91.4518 231.418 91.4843 230.757 91.4843V91.4889ZM213.423 81.2566C215.795 84.504 219.33 87.0824 223.382 88.518C225.292 89.2009 227.211 89.6283 229.09 89.7909C230.279 89.8931 231.441 89.8885 232.542 89.7723C236.029 89.4936 239.024 88.2764 241.222 86.2508C243.434 84.2625 244.787 81.4587 245.143 78.1347C245.976 69.9256 240.668 66.5064 234.523 62.5482L234.329 62.4251C234.179 62.3321 234.001 62.2253 233.81 62.1091C231.591 60.7642 227.462 58.2625 228.033 55.5122C228.254 54.3925 228.829 53.5377 229.691 53.0476L229.746 53.0174C230.457 52.6852 231.194 52.4901 232 52.4227C232.877 52.3252 233.858 52.3925 234.916 52.6202C236.694 52.9686 238.347 53.7747 239.555 54.8873L239.571 54.9036C240.026 55.3496 240.658 55.4378 241.141 55.1219L241.194 55.0894L247.094 51.8722C247.348 51.7096 247.659 51.4285 247.719 50.9895L247.731 50.9245C247.833 50.4645 247.68 50.1301 247.516 49.8606L247.479 49.8072C245.071 46.669 241.164 44.3275 236.756 43.3821C234.916 43.029 232.974 42.9268 230.995 43.0848C228.97 43.3147 227.061 43.8769 225.322 44.7549L225.294 44.7688C221.865 46.7038 219.716 49.6608 218.924 53.5517C216.956 62.6225 223.006 66.4134 229.411 70.4251C229.633 70.5691 229.873 70.7201 230.134 70.885C233.043 72.7154 236.128 74.8641 235.876 77.2148C235.803 78.0906 235.512 78.7805 235.015 79.2474C234.285 79.914 233.145 80.3229 231.706 80.4367C230.182 80.5853 228.367 80.3205 226.469 79.6655C224.502 78.95 222.78 77.8234 221.48 76.4018L221.463 76.3832C221.092 75.9535 220.397 75.8211 219.838 76.072L213.883 79.187C213.557 79.3124 213.322 79.6121 213.188 80.0766C213.086 80.4274 213.158 80.8292 213.389 81.2079L213.417 81.2497L213.423 81.2566Z" fill="#FFB006"/>
<path d="M54.3984 7.21027C51.9185 21.4867 49.9812 35.7422 48.097 49.942L43.8207 50.1115C45.5201 38.1022 47.4897 26.0256 49.7295 13.9954C44.0678 24.4716 38.6277 35.1011 33.4001 45.6144L28.9621 45.7887C28.558 35.4425 28.5349 25.0825 28.565 14.7736C24.0485 26.8409 19.696 38.9547 15.676 51.2196L11.4551 51.3868C16.3133 36.9617 21.7164 22.6249 27.1772 8.33919L32.264 8.13942C32.137 18.7782 32.0654 29.4704 32.4257 40.0906C37.8034 29.2451 43.6083 18.2718 49.3647 7.41003L54.3984 7.21027Z" fill="black"/>
<path d="M81.6866 36.9454C80.068 39.9001 76.6137 44.453 72.3905 44.6202C69.4673 44.7364 68.5714 42.59 68.3543 41.18C67.3822 42.6899 65.789 44.8804 62.2169 45.0221C58.3747 45.1731 55.8533 41.6748 55.6801 37.2636C55.3938 29.9141 59.834 22.8664 66.1123 22.6179C68.4929 22.5226 70.7719 23.9605 71.5362 25.4564L72.3582 22.9152L76.1473 22.7665C71.5154 37.4564 70.6795 41.0337 73.007 40.9408C74.8473 40.8688 77.6551 37.8118 79.2737 34.8571L81.6866 36.9431V36.9454ZM70.5248 28.7154C69.9799 27.2636 68.3081 26.0767 66.4124 26.151C61.9745 26.3252 59.3122 31.7213 59.5154 36.9477C59.6008 39.1266 60.8269 41.3682 63.1544 41.2753C66.4563 41.1452 68.6152 36.7526 70.5248 28.7131V28.7154Z" fill="black"/>
<path d="M89.8559 37.9327C89.7382 34.8827 91.1582 31.0105 92.9778 29.0291L96.6283 30.9036C94.8481 32.5018 93.869 35.2126 93.9683 37.7701C94.1276 41.8537 97.4411 44.7782 102.041 44.5947C107.183 44.3926 111.235 39.8699 111.046 35.0221C110.72 26.6899 97.672 27.0964 97.4203 16.4739C97.3072 10.8061 102.221 4.72244 109.473 4.43673C117.16 4.13243 121.596 10.885 118.79 18.1394L114.514 18.309C116.971 11.8305 113.674 7.87227 109.236 8.04648C104.851 8.2207 101.581 11.9489 101.63 15.9814C101.798 24.4832 114.907 24.1835 115.262 34.6946C115.465 41.2846 109.984 48.0465 101.863 48.367C94.8804 48.6435 90.1007 44.2509 89.8559 37.935V37.9327Z" fill="black"/>
<path d="M145.288 29.036C143.513 30.7434 140.1 32.2393 136.814 31.3891C135.731 36.9942 131.982 42.2695 126.352 42.4902C122.131 42.6574 119.24 39.4449 119.069 35.0337C118.774 27.4658 123.429 20.3554 129.924 20.0999C134.579 19.9164 136.955 23.8583 137.101 27.561L137.117 27.9977C139.645 28.8804 142.926 28.2044 144.674 25.791L145.288 29.0384V29.036ZM133.265 27.9303C133.171 25.4797 131.898 23.4588 129.462 23.554C125.729 23.7004 122.702 29.4913 122.896 34.5018C123.013 37.496 124.59 39.0151 126.701 38.9315C130.381 38.7852 133.455 32.8293 133.265 27.928V27.9303Z" fill="black"/>
<path d="M168.596 30.3508C166.719 35.0593 162.509 41.0616 158.178 41.2335C155.418 41.3426 153.652 39.1754 154.067 35.8885C152.624 39.2172 149.844 41.5633 147.083 41.6725C140.749 41.9234 139.825 34.9245 145.75 20.0209L149.701 19.8653C145.115 31.554 144.286 38.0743 147.967 37.9303C151.592 37.7863 153.82 32.3554 157.658 19.5517L161.77 19.3891C157.106 33.2079 156.086 37.6632 158.792 37.5563C161.228 37.4611 164.904 33.0616 167.716 27.3334L168.594 30.3531L168.596 30.3508Z" fill="black"/>
<path d="M188.622 29.561C186.851 34.158 182.48 40.2742 178.421 40.4344C175.444 40.5529 173.787 38.381 173.683 35.7143C173.537 32.0117 175.53 27.4611 177.306 22.9733C176.063 23.0755 173.835 22.9455 172.029 22.5274C170.268 28.7596 167.372 33.7817 164.832 36.7713C162.916 39.0825 160.955 37.4147 163.38 34.2649C166.626 29.9373 168.762 23.5285 169.66 17.3845L173.232 17.2428C173.096 17.9025 173.015 18.6156 172.877 19.2753C175.498 19.7724 180.215 19.8026 182.378 19.6632C180.552 24.2625 177.368 31.5866 177.488 34.6365C177.543 36.0512 178.114 36.7945 179.305 36.7457C181.577 36.6551 185.847 30.762 187.742 26.5413L188.62 29.561H188.622Z" fill="black"/>
<path d="M212.437 28.6202C210.507 33.331 206.295 39.3334 202.019 39.5029C199.096 39.6191 198.145 37.4751 197.927 36.0651C197.011 37.5749 195.362 39.7654 191.79 39.9071C187.948 40.0581 185.431 36.7224 185.26 32.3113C184.974 24.9594 189.409 17.7515 195.741 17.5006C198.068 17.4077 200.347 18.8456 201.165 20.3392L201.934 17.8003L205.723 17.6516C201.091 32.3415 200.255 35.9187 202.638 35.8235C205.074 35.7283 208.697 31.331 211.509 25.6028L212.44 28.6202H212.437ZM200.098 23.6005C199.553 22.1487 197.881 20.9617 195.986 21.036C191.548 21.2103 188.945 26.7666 189.149 31.9954C189.234 34.1742 190.4 36.2532 192.781 36.1603C196.027 36.0326 198.188 31.6377 200.098 23.6005Z" fill="black"/>
<path d="M225.536 28.1045C223.659 32.813 219.45 38.8153 215.118 38.9872C207.865 39.2729 209.359 30.3252 212.287 20.6132L209.364 20.7294L210.322 17.475L213.298 17.3566C214.167 14.5947 215.088 11.8327 215.91 9.23577L219.808 9.08246C218.787 12.0674 217.861 14.7758 217.09 17.2056L222.015 17.0105L221.004 20.2671L216.023 20.4646C213 30.5087 212.541 35.4355 215.734 35.3101C218.17 35.2149 221.846 30.8153 224.659 25.0871L225.536 28.1068V28.1045Z" fill="black"/>
<path d="M242.335 32.1301C240.444 35.0407 236.498 38.1417 231.519 38.3368C225.996 38.4994 222.399 35.2079 222.209 30.3601C221.925 23.0639 226.324 16.3461 232.658 16.0953C236.717 15.935 238.783 18.9083 238.894 21.7375C239.123 27.6191 232.614 31.6376 226.116 30.4762C226.493 33.187 228.356 35.0778 232.198 34.9268C235.283 34.8061 238.693 31.8885 240.176 29.5958L242.335 32.1278V32.1301ZM226.112 27.5912C230.536 28.453 235.308 25.7004 235.168 22.1069C235.11 20.6365 234.193 19.3635 232.57 19.4286C229.215 19.561 226.652 23.3705 226.112 27.5912Z" fill="black"/>
<path d="M16.5812 93.2381L10.1506 93.7933C8.9753 93.8955 7.97087 93.0198 7.86696 91.8003L4.23256 49.1475C4.12865 47.928 4.96913 46.8943 6.14443 46.7921L23.5637 45.2892C32.8853 44.4855 41.2578 51.3055 42.1468 60.676C43.045 70.1371 36.074 78.5273 26.6832 79.338L17.5764 80.1231L18.4931 90.885C18.597 92.1046 17.7565 93.1382 16.5812 93.2404V93.2381Z" fill="#A4BDFF"/>
<path d="M9.96344 94.6133C8.44872 94.6133 7.19954 93.4518 7.0633 91.8676L3.4289 49.2149C3.28574 47.5424 4.44949 46.1208 6.07735 45.9791L23.4966 44.4762C33.3054 43.6307 42.0289 50.8618 42.9525 60.5947C43.4074 65.3844 41.9665 70.0604 38.8979 73.7631C35.8292 77.4658 31.5159 79.7329 26.7524 80.1417L18.4514 80.8572L19.2988 90.8084C19.442 92.4809 18.2782 93.9025 16.6504 94.0441L10.2197 94.5993C10.132 94.6063 10.0466 94.6109 9.96113 94.6109L9.96344 94.6133ZM25.0552 46.0372C24.5842 46.0372 24.1108 46.0581 23.6352 46.0976L6.21589 47.6005C5.47931 47.6632 4.97363 48.2997 5.0406 49.0755L8.675 91.7282C8.74196 92.5064 9.34693 93.0453 10.0835 92.9803L16.5141 92.4251C17.2507 92.3624 17.7564 91.7259 17.6894 90.9501L16.7035 79.3775L26.6161 78.5227C30.9456 78.1487 34.8663 76.0883 37.6579 72.7224C40.4495 69.3566 41.7587 65.1034 41.3454 60.7503C40.5511 52.374 33.3885 46.0349 25.0552 46.0349V46.0372Z" fill="#A4BDFF"/>
<path d="M68.7698 91.7143H62.1244C61.1846 91.7143 60.3164 91.0569 60.0601 90.1533L58.5177 85.2241H45.1553L43.6083 90.1695C43.3381 91.094 42.5115 91.7143 41.5486 91.7143H34.9033C34.2013 91.7143 33.5941 91.4007 33.2154 90.8478C32.7443 90.3089 32.6104 89.5935 32.8529 88.8664L46.2822 46.0209L46.3029 45.9698C46.6793 45.0871 47.4528 44.5389 48.321 44.5389H55.3497C56.2179 44.5389 56.9914 45.0871 57.3678 45.9698L57.4047 46.072L70.8225 88.8827C71.058 89.5935 70.9264 90.3066 70.4553 90.8455C70.1713 91.2659 69.6587 91.7143 68.7651 91.7143H68.7698Z" fill="#FF917B"/>
<path d="M68.7698 92.5273H62.1244C60.8314 92.5273 59.6376 91.6214 59.2843 90.3763L57.9266 86.0372H45.7511L44.3819 90.4158C44.0147 91.6748 42.8741 92.5296 41.551 92.5296H34.9056C33.9566 92.5296 33.1138 92.0999 32.5804 91.3519C31.9408 90.597 31.7607 89.6004 32.0886 88.6109L45.5248 45.7398L45.5641 45.6516C46.0675 44.4692 47.1273 43.7305 48.3234 43.7305H55.3521C56.5481 43.7305 57.6057 44.4669 58.1136 45.6539L58.1806 45.8327L71.5984 88.6434C71.9193 89.6074 71.7392 90.5946 71.1019 91.3496C70.5662 92.1138 69.7419 92.5319 68.7721 92.5319L68.7698 92.5273ZM44.562 84.4088H59.1088L60.8291 89.9071C60.993 90.4831 61.5449 90.9013 62.1221 90.9013H68.7675C69.2201 90.9013 69.5549 90.734 69.7881 90.3879L69.8481 90.3089C70.1252 89.9907 70.1991 89.5749 70.0559 89.1405L56.6405 46.3368L56.6174 46.2741C56.368 45.705 55.8831 45.3519 55.3497 45.3519H48.3211C47.7808 45.3519 47.2936 45.7119 47.0465 46.2903L47.0396 46.3043L34.6262 85.9094L35.7669 89.3542L35.1504 89.6097L34.2753 89.9744L34.1898 89.8025V87.2915L33.6218 89.1057C33.5133 89.4355 33.4625 89.8978 33.8204 90.3066L33.8781 90.3833C34.1067 90.7154 34.4692 90.8989 34.901 90.8989H41.5464C42.1467 90.8989 42.6616 90.5133 42.8302 89.9373L44.5597 84.4065L44.562 84.4088ZM69.1577 89.7305L68.1579 88.9547L68.2018 88.8873L68.2595 88.8293L68.9522 89.4843L69.5018 89.856L68.9615 89.4936L69.4348 89.9442L69.1577 89.7305Z" fill="#FF917B"/>
<path d="M85.4039 93.4402C83.4689 93.345 81.4554 92.9779 79.4535 92.3438C75.1957 91.0105 71.4227 88.4646 68.8343 85.1731L68.7858 85.1057C68.4048 84.5366 68.2755 83.9024 68.421 83.3171C68.6427 82.4274 69.1368 82.0302 69.5501 81.8537L75.3204 78.5505C76.1978 78.1022 77.29 78.2764 77.9272 78.964C79.188 80.2439 80.8366 81.2358 82.6931 81.8328C84.4941 82.381 86.2074 82.5738 87.6275 82.3786C88.8697 82.2323 89.8511 81.8513 90.4098 81.3031C90.74 80.9687 90.9294 80.4437 90.964 79.7561C91.1072 77.7073 87.3919 75.5587 85.3969 74.4042C85.1268 74.2486 84.8774 74.1045 84.6581 73.9721C78.1628 70.23 71.432 66.3531 73.1637 56.6597C73.8518 52.5041 76.0177 49.2753 79.599 47.0778L79.6405 47.0523C81.4347 46.0604 83.4158 45.3961 85.5309 45.0778C87.5905 44.8362 89.6017 44.8664 91.5436 45.1661C96.187 45.9837 100.35 48.2857 102.989 51.4866L103.052 51.5726C103.287 51.9234 103.581 52.4739 103.442 53.2427C103.382 53.8351 103.047 54.3647 102.488 54.7456L102.433 54.7805L96.6789 58.2021C95.8984 58.7526 94.8501 58.6644 94.0951 57.9791C92.959 57.0081 91.4189 56.3275 89.7587 56.065C88.7658 55.8885 87.8722 55.863 87.0848 55.9814C86.3644 56.0674 85.7294 56.2602 85.1152 56.5761C84.3094 57.0755 84.0208 57.9187 83.9215 58.5436C83.5497 60.7457 87.5905 62.9919 89.5324 64.0743C89.7287 64.1835 89.9134 64.2857 90.082 64.381L90.2805 64.4994C96.5265 68.2021 102.424 71.7004 101.86 80.4367C101.613 83.9791 100.279 87.0128 98.0019 89.2149C95.7529 91.4448 92.6381 92.8548 89.0036 93.2799C87.8491 93.4448 86.6415 93.4936 85.4016 93.4332L85.4039 93.4402Z" fill="#6ACFAF"/>
<path d="M86.4177 94.2787C86.0691 94.2787 85.7181 94.2694 85.3648 94.2532C83.3444 94.1533 81.2732 93.7723 79.2113 93.1196C74.801 91.7398 70.8895 89.0964 68.1995 85.6794L68.1141 85.5633C67.6015 84.8014 67.4329 83.9326 67.6361 83.1219C67.9363 81.9233 68.6359 81.3774 69.1878 81.1289L74.9534 77.8281C76.1564 77.2125 77.6157 77.4495 78.5093 78.3995C79.6777 79.5819 81.2109 80.5017 82.9403 81.0592C84.6259 81.5726 86.2145 81.7537 87.5191 81.5749C88.5767 81.4518 89.4195 81.1405 89.8443 80.7224C90.0175 80.5459 90.133 80.1858 90.1537 79.7166C90.2623 78.1579 86.4339 75.9442 84.9908 75.1103L84.9515 75.0871C84.6929 74.9361 84.4528 74.799 84.2426 74.6713C77.8212 70.9733 70.5316 66.7735 72.365 56.5157C73.0923 52.1231 75.3852 48.7108 79.1743 46.3833L79.232 46.3484C81.1255 45.3008 83.1966 44.6063 85.4064 44.2741H85.4318C87.5492 44.0209 89.6458 44.0534 91.6615 44.3623C96.4989 45.2148 100.847 47.6214 103.608 50.9663L103.719 51.115C103.897 51.3798 104.44 52.1835 104.241 53.3565C104.149 54.1788 103.689 54.9105 102.941 55.4193L102.844 55.482L97.1131 58.8873C96.0348 59.6283 94.5801 59.5075 93.5619 58.5923C92.539 57.7212 91.1443 57.108 89.6319 56.8687C88.7198 56.7061 87.9071 56.6806 87.2028 56.7874H87.1774C86.5678 56.8618 86.0367 57.0197 85.5126 57.2869C84.9861 57.6283 84.7899 58.2276 84.7183 58.6759C84.4412 60.3136 88.5651 62.6086 89.9205 63.3635L89.9436 63.3774C90.133 63.4843 90.3131 63.5819 90.477 63.6748L90.6894 63.8002C96.8707 67.4657 103.262 71.2543 102.664 80.4924C102.403 84.2392 100.983 87.4587 98.5586 89.8049C96.1849 92.1603 92.9107 93.6446 89.0939 94.0929C88.2372 94.2137 87.3367 94.2764 86.4108 94.2764L86.4177 94.2787ZM69.4764 84.6806C71.9655 87.8374 75.593 90.2834 79.6939 91.5679C81.6265 92.1788 83.5615 92.5342 85.4456 92.6272C86.6371 92.6876 87.7985 92.6364 88.8953 92.4808C92.3681 92.0743 95.3167 90.7479 97.4387 88.6411C99.5769 86.5714 100.826 83.7212 101.059 80.3856C101.59 72.151 96.1618 68.9315 89.8743 65.2056L89.6758 65.0871C89.5303 65.0058 89.3548 64.9059 89.1678 64.8037L89.147 64.7921C86.8795 63.5308 82.6633 61.1823 83.132 58.4135C83.3121 57.2869 83.8547 56.4111 84.6998 55.8885L84.7552 55.8583C85.4526 55.4982 86.1822 55.2776 86.9858 55.1823C87.8609 55.0522 88.8422 55.0824 89.9067 55.2706C91.6962 55.554 93.3771 56.2973 94.6263 57.3658L94.6448 57.3821C95.1158 57.8095 95.7508 57.8745 96.2219 57.5424L96.275 57.5075L102.054 54.072C102.304 53.9001 102.602 53.6074 102.646 53.1684L102.655 53.1033C102.738 52.6388 102.576 52.3089 102.401 52.0488L102.362 51.9953C99.8401 48.95 95.8501 46.7549 91.4099 45.9721C89.558 45.6864 87.6115 45.6585 85.6419 45.8885C83.6261 46.1928 81.7396 46.8246 80.0356 47.7677L80.0079 47.784C76.6529 49.8443 74.614 52.8803 73.9628 56.7967C72.3304 65.9349 78.5139 69.4959 85.06 73.2683C85.2771 73.3984 85.5103 73.5331 85.762 73.6794L85.8012 73.7003C88.7752 75.4193 91.9363 77.4541 91.7701 79.8141C91.7285 80.6922 91.463 81.3914 90.985 81.8769C90.2784 82.5691 89.1539 83.0197 87.7223 83.187C86.2053 83.3937 84.3812 83.1963 82.4601 82.6109C80.4674 81.9698 78.7056 80.9082 77.3525 79.5354L77.3363 79.5168C76.9507 79.101 76.2488 78.9942 75.7015 79.2659L69.8666 82.6016C69.5457 82.7387 69.3217 83.0453 69.2063 83.5145C69.1162 83.8699 69.2039 84.2671 69.4487 84.6364L69.4787 84.6759L69.4764 84.6806Z" fill="#6ACFAF"/>
<path d="M158.651 89.2799L152.209 88.8827C151.031 88.8107 150.165 87.7956 150.239 86.5761L152.837 43.8467C152.911 42.6249 153.892 41.7259 155.072 41.7979L172.521 42.8711C181.859 43.4448 189.151 51.4239 188.671 60.8223C188.186 70.3136 180.072 77.5889 170.663 77.0105L161.54 76.4483L160.884 87.2311C160.81 88.453 159.829 89.3519 158.649 89.2799H158.651ZM162.66 58.0093C162.403 62.2439 165.606 65.8862 169.815 66.144L171.316 66.2369C174.974 66.4623 178.107 63.5285 178.026 59.8049C177.955 56.4692 175.258 53.7886 171.949 53.5842L162.964 53.0314L162.662 58.0093H162.66Z" fill="#FF917B"/>
<path d="M158.785 90.0976C158.725 90.0976 158.662 90.0976 158.602 90.0929L152.16 89.6957C150.53 89.5958 149.332 88.2044 149.433 86.5273L152.031 43.7979C152.133 42.1208 153.486 40.8873 155.12 40.9872L172.57 42.0604C182.392 42.6643 189.977 51.101 189.476 60.8664C189.232 65.6702 187.128 70.0859 183.554 73.2985C179.979 76.511 175.382 78.1208 170.612 77.8258L162.295 77.3148L161.69 87.2846C161.641 88.0883 161.297 88.82 160.724 89.345C160.189 89.8351 159.505 90.0999 158.782 90.0999L158.785 90.0976ZM154.938 42.6063C154.238 42.6063 153.689 43.1475 153.645 43.8955L151.047 86.6249C150.999 87.403 151.521 88.0256 152.259 88.072L158.702 88.4692C159.05 88.4901 159.385 88.374 159.639 88.1417C159.9 87.9024 160.057 87.561 160.08 87.1824L160.784 75.5889L170.713 76.1998C175.05 76.4669 179.229 75.0035 182.48 72.0836C185.729 69.1638 187.643 65.1498 187.865 60.7805C188.32 51.9024 181.413 44.2323 172.473 43.6818L155.023 42.6086C154.996 42.6086 154.968 42.6063 154.938 42.6063ZM171.704 67.0616C171.558 67.0616 171.415 67.0569 171.27 67.0476L169.769 66.9547C167.518 66.8153 165.456 65.8049 163.959 64.1045C162.463 62.4042 161.717 60.223 161.856 57.9582L162.207 52.1696L171.999 52.7712C175.752 53.0012 178.756 56.0836 178.836 59.7863C178.88 61.7909 178.111 63.6609 176.673 65.0523C175.338 66.3415 173.549 67.0616 171.704 67.0616ZM163.468 58.0581C163.239 61.8374 166.109 65.1011 169.866 65.3333L171.367 65.4263C172.914 65.5192 174.438 64.957 175.551 63.8815C176.659 62.8084 177.252 61.3682 177.218 59.8235C177.155 56.9594 174.819 54.5761 171.898 54.3972L163.719 53.8931L163.465 58.0604L163.468 58.0581Z" fill="#FF917B"/>
<path d="M215.702 93.5772L209.062 93.8397C208.124 93.8769 207.231 93.2543 206.937 92.36L205.203 87.4936L191.852 88.0209L190.499 93.0244C190.266 93.9605 189.465 94.6132 188.502 94.6504L181.861 94.9129C181.162 94.9408 180.541 94.6504 180.141 94.1138C179.649 93.5935 179.488 92.885 179.702 92.1463L191.451 48.806L191.469 48.7549C191.811 47.8583 192.561 47.2799 193.43 47.2451L200.454 46.9686C201.322 46.9338 202.116 47.4518 202.525 48.3206L202.566 48.4204L217.642 90.669C217.905 91.3705 217.801 92.0883 217.353 92.6458C217.086 93.0755 216.591 93.5447 215.7 93.5795L215.702 93.5772Z" fill="#6AB7E0"/>
<path d="M181.771 95.7282C180.873 95.7282 180.063 95.3357 179.525 94.6388C178.855 93.9094 178.638 92.9199 178.927 91.9187L190.682 48.5505L190.716 48.4599C191.176 47.2567 192.203 46.4785 193.4 46.4321L200.424 46.1556C201.615 46.1045 202.705 46.8037 203.257 47.9698L203.328 48.144L218.404 90.3926C218.762 91.3426 218.621 92.3368 218.014 93.1173C217.508 93.9001 216.7 94.3531 215.732 94.3902L214.239 94.4483L213.414 95.5145L213.761 94.4669L209.092 94.6504C207.806 94.7062 206.57 93.8444 206.168 92.6132L204.642 88.3299L192.476 88.8107L191.278 93.2381C190.959 94.511 189.855 95.41 188.532 95.4634L181.891 95.7259C181.85 95.7259 181.808 95.7282 181.769 95.7282H181.771ZM181.072 90.1951L180.485 92.3624C180.388 92.6969 180.356 93.1614 180.73 93.554L180.792 93.626C181.032 93.9489 181.402 94.1138 181.834 94.0999L182.582 94.0697L181.074 93.3101V90.1928L181.072 90.1951ZM181.086 90.144L183.66 94.0279L188.474 93.8374C189.075 93.8142 189.573 93.4077 189.719 92.8246L191.231 87.2311L205.767 86.6574L207.699 92.0836C207.884 92.6527 208.45 93.0407 209.029 93.0244L214.308 92.8153L214.966 90.827L215.102 90.6899L215.797 91.3055L216.439 91.5238L215.799 91.3101L216.31 91.7654L215.534 92.7689L215.668 92.7642C216.12 92.7456 216.448 92.5645 216.668 92.2114L216.725 92.1301C216.991 91.8002 217.049 91.3821 216.887 90.9547L201.814 48.7131L201.788 48.6527C201.518 48.0929 201.017 47.7607 200.486 47.7817L193.462 48.0581C192.924 48.079 192.448 48.4576 192.224 49.0476L192.22 49.0616L181.083 90.1463L181.086 90.144Z" fill="#6AB7E0"/>
<path d="M135.928 84.5041L131.64 84.1789C131.055 84.1348 130.589 83.7608 130.402 83.2497C128.989 83.6981 127.546 83.8699 126.096 83.7608C123.126 83.5354 120.388 82.1487 118.381 79.856L118.176 79.6214L118.18 79.568C116.352 77.3101 115.47 74.4739 115.687 71.5424C115.913 68.5087 117.294 65.7492 119.575 63.7747C121.907 61.8026 124.821 60.8432 127.791 61.0662C129.271 61.1777 130.674 61.5633 131.977 62.2114C132.238 61.7375 132.753 61.4402 133.334 61.4843L137.622 61.8096C138.433 61.8699 139.045 62.5645 138.985 63.3566L137.505 83.18C137.445 83.9722 136.738 84.5668 135.928 84.5041ZM127.25 68.295C126.135 68.2114 125.073 68.5506 124.26 69.2544C123.45 69.9907 122.953 71.0012 122.872 72.086C122.789 73.1986 123.131 74.2881 123.833 75.1522C124.519 75.9536 125.518 76.4507 126.636 76.5343C127.65 76.6109 128.619 76.3368 129.395 75.7608V75.7213L129.642 75.5192C130.43 74.8711 130.931 73.9141 131.051 72.8223L131.067 72.6179C131.111 71.5401 130.76 70.5134 130.074 69.7515L130.051 69.7236C129.372 68.8874 128.377 68.381 127.253 68.2974L127.25 68.295Z" fill="#A4BDFF"/>
<path d="M123.552 51.7026L125.323 49.1033C125.65 48.6202 126.311 48.5064 126.782 48.8501L134.586 54.5528C135.023 54.8711 135.143 55.475 134.859 55.9373L134.041 57.2729C133.76 57.7328 133.176 57.8978 132.698 57.6562L123.939 53.2172C123.381 52.9338 123.198 52.2206 123.552 51.7026Z" fill="#A4BDFF"/>
<path d="M53.4712 81.2803L50.2456 81.3148C47.5096 81.3441 45.2648 79.1335 45.2356 76.381L45.2122 74.1651C45.1985 72.8736 46.231 71.8126 47.5148 71.7988L56.0023 71.7079C57.286 71.6942 58.3408 72.7329 58.3544 74.0243L58.3779 76.2402C58.407 78.9927 56.2095 81.251 53.4735 81.2803L53.4712 81.2803Z" fill="black"/>
<path d="M51.924 87.7207C49.7444 87.7441 47.957 85.9838 47.9337 83.7911L47.8068 71.7964L55.7055 71.7118L55.8325 83.7065C55.8557 85.8992 54.1059 87.6973 51.9263 87.7207L51.924 87.7207Z" fill="#EC5912"/>
<path d="M95.9584 97.1475C93.9236 97.9337 91.6383 96.9106 90.8568 94.8636L89.0976 90.2556L96.4717 87.4065L98.2308 92.0145C99.0123 94.0615 97.9954 96.3605 95.9605 97.1467L95.9584 97.1475Z" fill="#EC5912"/>
<path d="M79.1905 85.1847C79.8154 85.1847 80.3219 84.6751 80.3219 84.0465C80.3219 83.4179 79.8154 82.9083 79.1905 82.9083C78.5656 82.9083 78.0591 83.4179 78.0591 84.0465C78.0591 84.6751 78.5656 85.1847 79.1905 85.1847Z" fill="black"/>
<path d="M91.0382 86.1998C91.663 86.1998 92.1696 85.6902 92.1696 85.0615C92.1696 84.4329 91.663 83.9233 91.0382 83.9233C90.4133 83.9233 89.9067 84.4329 89.9067 85.0615C89.9067 85.6902 90.4133 86.1998 91.0382 86.1998Z" fill="black"/>
<path opacity="0.5" d="M78.6272 84C78.6272 84 78.6064 83.9977 78.5949 83.9954C78.4887 83.9675 78.424 83.8607 78.4517 83.7538C78.5118 83.5146 78.6873 83.3264 78.9205 83.2498C79.0244 83.2149 79.1375 83.273 79.1698 83.3775C79.2045 83.482 79.1467 83.5959 79.0428 83.6284C78.9412 83.6609 78.8627 83.7468 78.835 83.8514C78.8119 83.9466 78.7219 84.0093 78.6272 84Z" fill="white"/>
<path opacity="0.5" d="M90.5349 85.0198C90.5349 85.0198 90.5142 85.0174 90.5026 85.0151C90.3964 84.9872 90.3317 84.8804 90.3594 84.7735C90.4195 84.5343 90.595 84.3461 90.8282 84.2695C90.9321 84.2346 91.0452 84.2927 91.0776 84.3972C91.1122 84.5018 91.0545 84.6156 90.9506 84.6481C90.849 84.6806 90.7705 84.7666 90.7427 84.8711C90.7197 84.9663 90.6296 85.0291 90.5349 85.0198Z" fill="white"/>
<path d="M230.926 46.9733C231.551 46.9733 232.057 46.4637 232.057 45.8351C232.057 45.2065 231.551 44.6969 230.926 44.6969C230.301 44.6969 229.794 45.2065 229.794 45.8351C229.794 46.4637 230.301 46.9733 230.926 46.9733Z" fill="black"/>
<path opacity="0.5" d="M222.987 82.4715C222.987 82.4715 222.966 82.4692 222.955 82.4669C222.849 82.439 222.784 82.3322 222.812 82.2253C222.872 81.9861 223.047 81.7979 223.28 81.7213C223.384 81.6864 223.497 81.7445 223.53 81.849C223.564 81.9535 223.507 82.0674 223.403 82.0999C223.301 82.1324 223.223 82.2183 223.195 82.3229C223.172 82.4181 223.082 82.4808 222.987 82.4715Z" fill="white"/>
<path d="M21.6796 55.6841C22.7673 55.6841 23.6492 54.797 23.6492 53.7027C23.6492 52.6084 22.7673 51.7213 21.6796 51.7213C20.5918 51.7213 19.71 52.6084 19.71 53.7027C19.71 54.797 20.5918 55.6841 21.6796 55.6841Z" fill="black"/>
<path opacity="0.5" d="M20.592 53.7584C20.5781 53.7608 20.5642 53.7631 20.5481 53.7631C20.4003 53.7654 20.2802 53.6469 20.2779 53.4983C20.2733 53.1661 20.4349 52.8595 20.7097 52.6783C20.8344 52.597 20.9983 52.6318 21.0792 52.755C21.16 52.8781 21.1253 53.0453 21.003 53.1266C20.8829 53.2056 20.809 53.345 20.8113 53.489C20.8113 53.6214 20.719 53.7352 20.592 53.7561V53.7584Z" fill="white"/>
<path d="M26.3298 55.4425C27.0898 55.4425 27.706 54.8227 27.706 54.0581C27.706 53.2935 27.0898 52.6736 26.3298 52.6736C25.5697 52.6736 24.9536 53.2935 24.9536 54.0581C24.9536 54.8227 25.5697 55.4425 26.3298 55.4425Z" fill="black"/>
<path opacity="0.5" d="M25.6255 54.086C25.6255 54.086 25.6047 54.0883 25.5955 54.0883C25.4916 54.0883 25.4085 54.007 25.4061 53.9048C25.4015 53.6725 25.5147 53.4588 25.7086 53.331C25.7964 53.273 25.9095 53.2985 25.9672 53.3845C26.0227 53.4704 25.9996 53.5866 25.9141 53.6446C25.831 53.7004 25.7779 53.7979 25.7802 53.8978C25.7802 53.9907 25.7156 54.0697 25.6278 54.086H25.6255Z" fill="white"/>
<path d="M48.7967 70.1069C49.8845 70.1069 50.7663 69.2198 50.7663 68.1255C50.7663 67.0312 49.8845 66.144 48.7967 66.144C47.709 66.144 46.8271 67.0312 46.8271 68.1255C46.8271 69.2198 47.709 70.1069 48.7967 70.1069Z" fill="black"/>
<path opacity="0.5" d="M47.7116 68.1812C47.6977 68.1835 47.6839 68.1859 47.6677 68.1859C47.5199 68.1882 47.3999 68.0697 47.3976 67.9211C47.3929 67.5889 47.5546 67.2823 47.8293 67.1011C47.954 67.0198 48.118 67.0546 48.1988 67.1777C48.2796 67.3009 48.245 67.4681 48.1226 67.5494C48.0025 67.6284 47.9286 67.7678 47.9309 67.9118C47.9309 68.0442 47.8386 68.158 47.7116 68.1789V68.1812Z" fill="white"/>
<path d="M54.7908 70.0139C55.7944 70.0139 56.608 69.1955 56.608 68.1858C56.608 67.1762 55.7944 66.3577 54.7908 66.3577C53.7872 66.3577 52.9736 67.1762 52.9736 68.1858C52.9736 69.1955 53.7872 70.0139 54.7908 70.0139Z" fill="black"/>
<path opacity="0.5" d="M53.8605 68.223C53.8467 68.2253 53.8351 68.2277 53.8213 68.2277C53.685 68.2277 53.5742 68.1208 53.5719 67.9838C53.5673 67.6771 53.715 67.3961 53.9713 67.2265C54.0868 67.1522 54.2369 67.1824 54.3131 67.2985C54.387 67.4123 54.357 67.5656 54.2415 67.6423C54.1307 67.7143 54.0637 67.8444 54.066 67.9768C54.066 68.0999 53.9806 68.2021 53.8651 68.2253L53.8605 68.223Z" fill="white"/>
<path d="M193.845 69.8002C195.065 69.8002 196.055 68.805 196.055 67.5772C196.055 66.3495 195.065 65.3542 193.845 65.3542C192.625 65.3542 191.635 66.3495 191.635 67.5772C191.635 68.805 192.625 69.8002 193.845 69.8002Z" fill="#62ACCC"/>
<path d="M193.803 68.7108C194.7 68.7108 195.427 67.9797 195.427 67.0778C195.427 66.1759 194.7 65.4448 193.803 65.4448C192.907 65.4448 192.18 66.1759 192.18 67.0778C192.18 67.9797 192.907 68.7108 193.803 68.7108Z" fill="black"/>
<path opacity="0.5" d="M192.91 67.1429C192.898 67.1452 192.887 67.1475 192.875 67.1475C192.753 67.1522 192.651 67.0569 192.646 66.9338C192.637 66.662 192.764 66.4065 192.988 66.2509C193.09 66.1812 193.226 66.2067 193.293 66.3089C193.362 66.4088 193.337 66.5482 193.235 66.6156C193.138 66.6829 193.081 66.7991 193.085 66.9175C193.09 67.0267 193.014 67.122 192.91 67.1429Z" fill="white"/>
<path d="M201.721 69.3496C202.941 69.3496 203.931 68.3544 203.931 67.1266C203.931 65.8989 202.941 64.9036 201.721 64.9036C200.501 64.9036 199.511 65.8989 199.511 67.1266C199.511 68.3544 200.501 69.3496 201.721 69.3496Z" fill="#62ACCC"/>
<path d="M201.682 68.2602C202.578 68.2602 203.305 67.5291 203.305 66.6272C203.305 65.7253 202.578 64.9942 201.682 64.9942C200.785 64.9942 200.059 65.7253 200.059 66.6272C200.059 67.5291 200.785 68.2602 201.682 68.2602Z" fill="black"/>
<path opacity="0.5" d="M200.786 66.6922C200.774 66.6946 200.763 66.6969 200.751 66.6969C200.629 66.7015 200.527 66.6063 200.522 66.4832C200.513 66.2114 200.64 65.9559 200.864 65.8003C200.966 65.7306 201.102 65.7561 201.169 65.8583C201.238 65.9582 201.213 66.0976 201.111 66.1649C201.014 66.2323 200.957 66.3485 200.961 66.4669C200.966 66.5761 200.89 66.6713 200.786 66.6922Z" fill="white"/>
<path d="M198.269 75.9234C195.508 76.1092 193.183 77.2079 192.254 78.6063C193.755 80.0697 196.009 80.9222 198.486 80.755C200.966 80.5877 203.128 79.4379 204.488 77.784C203.439 76.518 201.031 75.7399 198.267 75.9257L198.269 75.9234Z" fill="#EC5912"/>
<path d="M169.935 59.6283C166.788 59.4053 164.005 60.4599 162.754 62.1463C164.239 64.3275 166.663 65.8304 169.487 66.0302C172.311 66.23 174.92 65.0801 176.693 63.1312C175.689 61.2869 173.08 59.8513 169.933 59.6306L169.935 59.6283Z" fill="#EC5912"/>
<path d="M23.8707 57.9837C18.9548 57.6887 15.0964 55.3008 14.8032 60.2462C14.6785 62.3484 15.2858 64.3229 16.401 65.9233C17.634 64.223 20.4049 63.1405 23.5544 63.3287C26.7039 63.5168 29.327 64.9222 30.3522 66.7573C31.6475 65.3008 32.4834 63.4123 32.6081 61.3101C32.9013 56.3647 28.7866 58.2764 23.8707 57.9814V57.9837Z" fill="black"/>
<path d="M23.5545 63.331C20.405 63.1428 17.6341 64.2253 16.4011 65.9256C17.9089 68.0906 20.3496 69.5679 23.1758 69.7375C26.0021 69.9071 28.5997 68.7294 30.3523 66.7619C29.3294 64.9268 26.704 63.5215 23.5545 63.3333V63.331Z" fill="#EC5912"/>
<path d="M235.077 52.6504C234.874 52.6504 234.666 52.6249 234.461 52.5714C233.814 52.4065 233.272 51.9977 232.932 51.4216C232.593 50.8455 232.496 50.1696 232.66 49.5192C232.722 49.2706 232.974 49.1196 233.221 49.1847C233.468 49.2474 233.618 49.5006 233.553 49.7491C233.45 50.158 233.51 50.583 233.724 50.9477C233.939 51.3124 234.281 51.5679 234.687 51.6725C235.525 51.8885 236.384 51.3751 236.599 50.5296C236.661 50.2811 236.913 50.1301 237.16 50.1951C237.407 50.2578 237.557 50.511 237.493 50.7596C237.204 51.8932 236.188 52.6504 235.075 52.6504H235.077Z" fill="black"/>
<path d="M242.725 50.6759C242.591 50.6759 242.457 50.6155 242.365 50.5017C241.459 49.3682 239.896 49.1893 239.88 49.187C239.691 49.1661 239.534 49.0337 239.483 48.8501C239.432 48.6666 239.497 48.4715 239.647 48.3554C239.723 48.2973 241.522 46.9593 244.235 47.9256C244.475 48.0116 244.602 48.2764 244.517 48.518C244.431 48.7596 244.168 48.8873 243.928 48.8014C242.843 48.4158 241.944 48.4646 241.302 48.6225C241.889 48.8641 242.561 49.2636 243.083 49.9187C243.242 50.1184 243.212 50.4111 243.013 50.5714C242.928 50.6411 242.826 50.6736 242.725 50.6736V50.6759Z" fill="black"/>
<path d="M170.288 51.2102C170.288 51.2102 170.27 51.2102 170.258 51.2102C170.004 51.194 169.81 50.9733 169.827 50.7178C169.873 49.9675 169.626 49.2451 169.132 48.6829C168.637 48.1208 167.954 47.784 167.21 47.7375C166.469 47.6911 165.746 47.9396 165.188 48.4367C164.629 48.9338 164.294 49.6214 164.248 50.3694C164.232 50.6249 164.017 50.8246 163.758 50.8037C163.504 50.7875 163.31 50.5668 163.327 50.3113C163.389 49.3148 163.832 48.3996 164.576 47.7399C165.319 47.0778 166.275 46.748 167.268 46.8107C168.259 46.8734 169.168 47.3194 169.824 48.0674C170.48 48.8154 170.81 49.777 170.748 50.7759C170.732 51.0221 170.528 51.2126 170.288 51.2126V51.2102Z" fill="black"/>
<path d="M176.788 51.6144C176.788 51.6144 176.77 51.6144 176.758 51.6144C176.504 51.5981 176.31 51.3774 176.327 51.1219C176.421 49.5749 175.248 48.2369 173.71 48.1417C172.967 48.0975 172.246 48.3438 171.688 48.8409C171.129 49.338 170.794 50.0255 170.748 50.7735C170.732 51.029 170.517 51.2265 170.258 51.2079C170.004 51.1916 169.81 50.9709 169.827 50.7154C169.889 49.7189 170.332 48.8037 171.076 48.144C171.819 47.4843 172.773 47.1521 173.768 47.2148C175.814 47.3426 177.375 49.1219 177.25 51.18C177.234 51.4262 177.031 51.6167 176.791 51.6167L176.788 51.6144Z" fill="black"/>
<path d="M161.389 50.511C155.439 49.7607 154.127 52.2811 154.91 53.8281C155.693 55.3751 158.492 55.7909 161.389 50.511Z" fill="#A4BDFF"/>
<path d="M179.171 51.8722C181.905 57.2427 184.713 56.9129 185.544 55.3914C186.373 53.8699 185.143 51.3101 179.171 51.8722Z" fill="#A4BDFF"/>
<path d="M205.99 73.4727C205.863 70.6457 203.866 71.0267 201.028 71.5052L201.153 71.4982L201.236 73.0058C201.282 73.8374 200.647 74.5505 199.821 74.597C198.994 74.6434 198.285 74.0046 198.239 73.173C198.285 74.0046 197.65 74.7178 196.824 74.7642C195.997 74.8107 195.288 74.1719 195.242 73.3403L195.163 71.9024C192.284 71.8095 190.25 71.6864 190.377 74.5226C190.448 76.1092 191.148 77.5215 192.256 78.6039C193.185 77.2056 195.51 76.1068 198.271 75.921C201.033 75.7352 203.441 76.5133 204.492 77.7793C205.496 76.5552 206.064 75.0569 205.993 73.4704L205.99 73.4727Z" fill="black"/>
<path d="M196.821 74.7665C197.648 74.7201 198.283 74.007 198.237 73.1754L198.165 71.8862C198.14 71.8862 198.114 71.8908 198.087 71.8931C197.054 71.9628 196.066 71.9349 195.159 71.9071L195.237 73.3449C195.283 74.1765 195.992 74.8153 196.819 74.7689L196.821 74.7665Z" fill="white"/>
<path d="M199.818 74.5993C200.645 74.5528 201.28 73.8397 201.234 73.0081L201.151 71.5005L201.026 71.5075C200.144 71.6562 199.179 71.8141 198.165 71.8861L198.237 73.1753C198.283 74.0069 198.992 74.6457 199.818 74.5993Z" fill="white"/>
<path d="M196.535 66.6272C196.228 66.6272 195.972 66.381 195.958 66.0697C195.939 65.5958 196.106 65.1429 196.424 64.7968C196.743 64.4483 197.179 64.2462 197.65 64.2277C198.117 64.2091 198.572 64.3763 198.916 64.6969C199.26 65.0174 199.463 65.4565 199.482 65.9303C199.493 66.2509 199.246 66.5203 198.927 66.5343C198.613 66.5436 198.341 66.2973 198.327 65.9768C198.32 65.8142 198.251 65.6632 198.133 65.5517C198.013 65.4402 197.861 65.3844 197.697 65.3891C197.535 65.3961 197.385 65.4657 197.274 65.5842C197.163 65.705 197.106 65.8606 197.112 66.0232C197.124 66.3438 196.877 66.6133 196.558 66.6272C196.551 66.6272 196.542 66.6272 196.535 66.6272Z" fill="black"/>
<path d="M204.764 72.2068C203.139 72.2068 201.596 71.6005 200.393 70.4832C199.128 69.3078 198.396 67.705 198.327 65.9745C198.188 62.4019 200.964 59.3798 204.517 59.2381C208.069 59.0941 211.073 61.8908 211.213 65.4657C211.352 69.0383 208.577 72.0604 205.023 72.1998C204.937 72.2021 204.85 72.2044 204.764 72.2044V72.2068ZM204.774 60.3949C204.704 60.3949 204.635 60.3949 204.563 60.3995C203.15 60.4553 201.843 61.0616 200.885 62.1045C199.925 63.1498 199.428 64.5064 199.484 65.928C199.539 67.3496 200.142 68.6644 201.178 69.6284C202.217 70.5947 203.564 71.0918 204.979 71.0383C207.895 70.9222 210.174 68.4437 210.061 65.5099C209.95 62.6481 207.597 60.3949 204.776 60.3949H204.774Z" fill="black"/>
<path d="M190.663 72.7642C189.038 72.7642 187.493 72.158 186.292 71.0407C185.027 69.8653 184.295 68.2625 184.226 66.532C184.087 62.9594 186.863 59.9373 190.416 59.7956C193.97 59.6516 196.971 62.4483 197.112 66.0232C197.251 69.5958 194.475 72.6179 190.922 72.7596C190.836 72.7619 190.749 72.7642 190.663 72.7642ZM190.672 60.9524C190.603 60.9524 190.534 60.9524 190.462 60.957C187.546 61.0732 185.267 63.5517 185.382 66.4855C185.438 67.9071 186.041 69.2218 187.077 70.1858C188.116 71.1522 189.467 71.6516 190.878 71.5958C192.291 71.5401 193.598 70.9338 194.556 69.8908C195.517 68.8455 196.013 67.489 195.958 66.0674C195.847 63.2056 193.494 60.9524 190.672 60.9524Z" fill="black"/>
<path d="M84.3511 93.1127C85.1801 93.1336 85.8682 92.4762 85.8889 91.6423L85.9213 90.3507C85.8959 90.3507 85.8681 90.3507 85.8428 90.3507C84.8083 90.3368 83.8247 90.23 82.9241 90.1254L82.8872 91.5656C82.8664 92.3995 83.5222 93.0917 84.3488 93.1127H84.3511Z" fill="white"/>
<path d="M87.3853 93.1754C88.2142 93.1963 88.9023 92.5389 88.9231 91.705L88.9554 90.4135C88.93 90.4135 88.9023 90.4135 88.8769 90.4135C87.8425 90.3996 86.8588 90.2927 85.9583 90.1882L85.9214 91.6284C85.9006 92.4623 86.5564 93.1545 87.383 93.1754H87.3853Z" fill="white"/>
<path d="M86.3899 90.7387C85.8658 90.7387 85.3416 90.7178 84.8128 90.6736C79.6937 90.2578 75.0434 87.863 71.7161 83.928C71.5105 83.6841 71.5383 83.3171 71.7807 83.1103C72.0232 82.9013 72.388 82.9315 72.5935 83.1754C79.0495 90.8084 90.4746 91.7375 98.0644 85.2427C98.3068 85.036 98.6716 85.0639 98.8771 85.3078C99.0826 85.5517 99.0549 85.9187 98.8125 86.1254C95.3051 89.1266 90.9433 90.7364 86.3876 90.7364L86.3899 90.7387Z" fill="black"/>
<path d="M170.762 54.3113L170.755 54.5923C170.734 55.4262 170.046 56.0836 169.217 56.0627C168.388 56.0418 167.735 55.3496 167.756 54.5157L167.769 53.9489C164.126 53.3008 161.5 52.3995 161.219 56.4506C161.073 58.5505 161.66 60.5319 162.756 62.144C164.006 60.4576 166.788 59.4053 169.938 59.626C173.085 59.849 175.694 61.2822 176.698 63.1266C178.01 61.6841 178.867 59.8049 179.012 57.705C179.347 52.9152 175.475 54.5203 170.764 54.3089L170.762 54.3113Z" fill="black"/>
<path d="M169.217 56.0651C170.046 56.086 170.734 55.4286 170.755 54.5947L170.762 54.3136C170.612 54.3066 170.46 54.2973 170.307 54.2881C169.421 54.2253 168.571 54.0953 167.767 53.9512L167.753 54.518C167.733 55.3519 168.388 56.0441 169.215 56.0651H169.217Z" fill="white"/>
</svg>
