<svg width="150" height="171" viewBox="0 0 150 171" fill="none" xmlns="http://www.w3.org/2000/svg">
<mask id="mask0_62_1101" style="mask-type:luminance" maskUnits="userSpaceOnUse" x="1" y="1" width="148" height="148">
<path d="M1 1H148.432V148.604H1V1Z" fill="white"/>
<path d="M147.766 1.66699V147.938H1.66699V1.66699H147.766Z" stroke="white" stroke-width="1.33333"/>
</mask>
<g mask="url(#mask0_62_1101)">
<mask id="mask1_62_1101" style="mask-type:luminance" maskUnits="userSpaceOnUse" x="0" y="0" width="150" height="150">
<path d="M0 74.8021C0 116.115 33.4896 149.604 74.8021 149.604C116.115 149.604 149.599 116.115 149.599 74.8021C149.599 33.4896 116.115 0 74.8021 0C33.4896 0 0 33.4896 0 74.8021Z" fill="white"/>
<path d="M74.8018 0.666992C115.746 0.666992 148.932 33.8575 148.933 74.8018C148.933 115.746 115.746 148.938 74.8018 148.938C33.8576 148.937 0.666992 115.746 0.666992 74.8018C0.667169 33.8577 33.8577 0.66717 74.8018 0.666992Z" stroke="white" stroke-width="1.33333"/>
</mask>
<g mask="url(#mask1_62_1101)">
<mask id="mask2_62_1101" style="mask-type:luminance" maskUnits="userSpaceOnUse" x="1" y="1" width="148" height="148">
<path d="M74.8022 1.19788C115.453 1.19788 148.406 34.151 148.406 74.802C148.406 115.453 115.453 148.406 74.8022 148.406C34.1511 148.406 1.198 115.453 1.198 74.802C1.198 34.151 34.1511 1.19788 74.8022 1.19788Z" fill="white"/>
<path d="M74.8025 1.86487C115.085 1.86504 147.74 34.5196 147.74 74.8024C147.74 115.085 115.085 147.74 74.8025 147.74C34.5197 147.74 1.86516 115.085 1.86499 74.8024C1.86499 34.5195 34.5196 1.86487 74.8025 1.86487Z" stroke="white" stroke-width="1.33333"/>
</mask>
<g mask="url(#mask2_62_1101)">
<path d="M149.599 74.8021C149.599 77.25 149.479 79.6979 149.24 82.1354C149 84.5729 148.641 86.9896 148.167 89.3958C147.688 91.7969 147.094 94.1719 146.38 96.5156C145.672 98.8594 144.844 101.161 143.906 103.427C142.969 105.688 141.922 107.901 140.771 110.062C139.615 112.224 138.354 114.323 136.995 116.359C135.635 118.396 134.177 120.359 132.625 122.255C131.068 124.151 129.427 125.964 127.693 127.693C125.958 129.427 124.146 131.068 122.255 132.625C120.359 134.177 118.396 135.635 116.359 136.995C114.323 138.359 112.224 139.615 110.062 140.771C107.901 141.927 105.688 142.969 103.427 143.906C101.161 144.844 98.8594 145.672 96.5156 146.38C94.1719 147.094 91.7969 147.688 89.3958 148.167C86.9896 148.641 84.5729 149 82.1302 149.24C79.6927 149.484 77.25 149.604 74.8021 149.604C72.349 149.604 69.9062 149.484 67.4688 149.24C65.0312 149 62.6094 148.641 60.2083 148.167C57.8073 147.688 55.4323 147.094 53.0885 146.38C50.7448 145.672 48.4375 144.844 46.1771 143.906C43.9115 142.969 41.7031 141.927 39.5417 140.771C37.3802 139.615 35.2812 138.359 33.2448 136.995C31.2083 135.635 29.2396 134.177 27.349 132.625C25.4531 131.068 23.6406 129.427 21.9115 127.693C20.1771 125.964 18.5313 124.151 16.9792 122.255C15.4271 120.359 13.9688 118.396 12.6042 116.359C11.2448 114.323 9.98958 112.224 8.83333 110.062C7.67708 107.901 6.63021 105.688 5.69271 103.427C4.75521 101.161 3.93229 98.8594 3.21875 96.5156C2.51042 94.1719 1.91667 91.7969 1.4375 89.3958C0.958333 86.9896 0.598959 84.5729 0.359375 82.1354C0.119792 79.6979 0 77.25 0 74.8021C0 72.3542 0.119792 69.9062 0.359375 67.4688C0.598959 65.0312 0.958333 62.6094 1.4375 60.2083C1.91667 57.8073 2.51042 55.4323 3.21875 53.0885C3.93229 50.7448 4.75521 48.4427 5.69271 46.1771C6.63021 43.9115 7.67708 41.7031 8.83333 39.5417C9.98958 37.3802 11.2448 35.2812 12.6042 33.2448C13.9688 31.2083 15.4271 29.2448 16.9792 27.349C18.5313 25.4531 20.1771 23.6406 21.9115 21.9115C23.6406 20.1771 25.4531 18.5365 27.349 16.9792C29.2396 15.4271 31.2083 13.9688 33.2448 12.6094C35.2812 11.2448 37.3802 9.98958 39.5417 8.83333C41.7031 7.67708 43.9115 6.63021 46.1771 5.69271C48.4375 4.75521 50.7448 3.93229 53.0885 3.22396C55.4323 2.51042 57.8073 1.91667 60.2083 1.4375C62.6094 0.958335 65.0312 0.598958 67.4688 0.359375C69.9062 0.119791 72.349 0 74.8021 0C77.25 0 79.6927 0.119791 82.1302 0.359375C84.5729 0.598958 86.9896 0.958335 89.3958 1.4375C91.7969 1.91667 94.1719 2.51042 96.5156 3.22396C98.8594 3.93229 101.161 4.75521 103.427 5.69271C105.688 6.63021 107.901 7.67708 110.062 8.83333C112.224 9.98958 114.323 11.2448 116.359 12.6094C118.396 13.9688 120.359 15.4271 122.255 16.9792C124.146 18.5365 125.958 20.1771 127.693 21.9115C129.427 23.6406 131.068 25.4531 132.625 27.349C134.177 29.2448 135.635 31.2083 136.995 33.2448C138.354 35.2812 139.615 37.3802 140.771 39.5417C141.922 41.7031 142.969 43.9115 143.906 46.1771C144.844 48.4427 145.672 50.7448 146.38 53.0885C147.094 55.4323 147.688 57.8073 148.167 60.2083C148.641 62.6094 149 65.0312 149.24 67.4688C149.479 69.9062 149.599 72.3542 149.599 74.8021Z" fill="white"/>
<path d="M74.8018 0.666992C77.2279 0.666992 79.6496 0.785006 82.0654 1.02246C84.486 1.25988 86.8808 1.6169 89.2656 2.0918V2.09082C91.6456 2.56579 93.9992 3.15438 96.3213 3.86133L96.3232 3.8623C98.3552 4.47643 100.356 5.17775 102.328 5.96582L103.172 6.30859C105.412 7.23777 107.606 8.27506 109.748 9.4209C111.891 10.5671 113.971 11.8112 115.988 13.1631L115.989 13.1641C118.006 14.5105 119.952 15.955 121.831 17.4932V17.4941C123.706 19.0382 125.503 20.6641 127.222 22.3828V22.3838C128.94 24.0967 130.566 25.8923 132.109 27.7715C133.648 29.651 135.094 31.5974 136.44 33.6152C137.788 35.6337 139.037 37.7138 140.183 39.8555C141.324 41.9984 142.361 44.187 143.29 46.4316C144.22 48.6779 145.041 50.9596 145.742 53.2812V53.2822C146.361 55.3141 146.889 57.3706 147.329 59.4473L147.513 60.3389C147.982 62.7187 148.339 65.119 148.576 67.5342C148.814 69.9498 148.933 72.3758 148.933 74.8018C148.933 77.2279 148.814 79.6545 148.576 82.0703C148.339 84.4854 147.982 86.8803 147.513 89.2656C147.038 91.6456 146.449 93.9991 145.742 96.3213V96.3232C145.128 98.3546 144.423 100.355 143.634 102.328L143.29 103.172C142.477 105.132 141.581 107.057 140.605 108.943L140.183 109.748C139.037 111.89 137.788 113.971 136.44 115.989C135.094 118.007 133.648 119.953 132.109 121.832C130.566 123.711 128.94 125.508 127.222 127.221V127.222C125.503 128.94 123.706 130.566 121.831 132.11C119.952 133.649 118.007 135.094 115.989 136.44L115.988 136.441C113.971 137.793 111.891 139.036 109.748 140.183C107.874 141.185 105.961 142.101 104.01 142.938L103.172 143.29C100.926 144.219 98.6447 145.041 96.3232 145.742H96.3213C94.2892 146.361 92.2331 146.889 90.1562 147.329L89.2656 147.513C86.8804 147.982 84.4855 148.339 82.0654 148.576H82.0635C79.6486 148.819 77.2278 148.938 74.8018 148.938C72.3705 148.937 69.9499 148.819 67.5352 148.576H67.5342C65.1186 148.339 62.718 147.983 60.3379 147.513H60.3389C57.9588 147.038 55.6045 146.449 53.2822 145.742H53.2812C50.9593 145.04 48.6731 144.219 46.4326 143.29H46.4316C44.1861 142.361 41.998 141.328 39.8564 140.183C37.7138 139.036 35.6336 137.793 33.6162 136.441L33.6152 136.44L32.8613 135.931C31.1101 134.73 29.4118 133.455 27.7725 132.109C25.8931 130.566 24.0969 128.94 22.3838 127.222L22.3818 127.221L21.7422 126.574C20.2576 125.057 18.8406 123.477 17.4951 121.833C15.9564 119.953 14.5108 118.007 13.1582 115.988H13.1572C11.8104 113.971 10.5669 111.89 9.4209 109.748C8.41829 107.874 7.49884 105.96 6.66211 104.01L6.30859 103.172C5.37948 100.926 4.56377 98.6446 3.85645 96.3213H3.85547C3.15362 93.9988 2.56569 91.6451 2.09082 89.2656H2.0918C1.61688 86.8807 1.25988 84.4858 1.02246 82.0703C0.785012 79.6545 0.666992 77.2279 0.666992 74.8018C0.667003 72.3758 0.785039 69.9498 1.02246 67.5342C1.2599 65.1186 1.61599 62.7182 2.09082 60.3389C2.56575 57.959 3.15447 55.605 3.85645 53.2822C4.56377 50.9589 5.37948 48.677 6.30859 46.4316C7.23746 44.1869 8.27494 41.9987 9.4209 39.8564C10.567 37.714 11.8103 35.6331 13.1572 33.6152L13.1582 33.6162C14.5108 31.5977 15.9564 29.6511 17.4951 27.7715C19.0327 25.8934 20.6632 24.0973 22.3818 22.3838L22.3838 22.3818C24.0968 20.6637 25.8932 19.0378 27.7725 17.4941L27.7715 17.4932C29.6449 15.9552 31.597 14.5113 33.6152 13.1641L33.6162 13.1631C35.6336 11.8113 37.7138 10.5671 39.8564 9.4209C41.9987 8.27494 44.1869 7.23746 46.4316 6.30859H46.4326C48.6722 5.37975 50.9585 4.5643 53.2812 3.8623L53.2822 3.86133C55.6045 3.15433 57.9588 2.56581 60.3389 2.09082C62.7182 1.61599 65.1186 1.25989 67.5342 1.02246C69.9498 0.785035 72.3706 0.667003 74.8018 0.666992Z" stroke="black" stroke-opacity="0.19" stroke-width="1.33333"/>
</g>
</g>
</g>
<mask id="mask3_62_1101" style="mask-type:luminance" maskUnits="userSpaceOnUse" x="0" y="0" width="150" height="150">
<path d="M0 0H149.599V149.604H0V0Z" fill="white"/>
<path d="M148.933 0.666992V148.938H0.666992V0.666992H148.933Z" stroke="white" stroke-width="1.33333"/>
</mask>
<g mask="url(#mask3_62_1101)">
<mask id="mask4_62_1101" style="mask-type:luminance" maskUnits="userSpaceOnUse" x="0" y="0" width="150" height="150">
<path d="M0 74.8021C0 116.115 33.4896 149.604 74.8021 149.604C116.115 149.604 149.599 116.115 149.599 74.8021C149.599 33.4896 116.115 0 74.8021 0C33.4896 0 0 33.4896 0 74.8021Z" fill="white"/>
<path d="M74.8018 0.666992C115.746 0.666992 148.932 33.8575 148.933 74.8018C148.933 115.746 115.746 148.938 74.8018 148.938C33.8576 148.937 0.666992 115.746 0.666992 74.8018C0.667169 33.8577 33.8577 0.66717 74.8018 0.666992Z" stroke="white" stroke-width="1.33333"/>
</mask>
<g mask="url(#mask4_62_1101)">
<mask id="mask5_62_1101" style="mask-type:luminance" maskUnits="userSpaceOnUse" x="0" y="0" width="150" height="150">
<path d="M0 74.8021C0 116.115 33.4896 149.604 74.8021 149.604C116.115 149.604 149.599 116.115 149.599 74.8021C149.599 33.4896 116.115 0 74.8021 0C33.4896 0 0 33.4896 0 74.8021Z" fill="white"/>
<path d="M74.8018 0.666992C115.746 0.666992 148.932 33.8575 148.933 74.8018C148.933 115.746 115.746 148.938 74.8018 148.938C33.8576 148.937 0.666992 115.746 0.666992 74.8018C0.667169 33.8577 33.8577 0.66717 74.8018 0.666992Z" stroke="white" stroke-width="1.33333"/>
</mask>
<g mask="url(#mask5_62_1101)">
<path d="M0 74.8021C0 116.115 33.4896 149.604 74.8021 149.604C116.115 149.604 149.599 116.115 149.599 74.8021C149.599 33.4896 116.115 0 74.8021 0C33.4896 0 0 33.4896 0 74.8021Z" fill="#FFF2EB" stroke="black" stroke-opacity="0.19" stroke-width="1.99468"/>
</g>
</g>
</g>
<path d="M120.849 44.297H78.4218C77.1406 40.4429 80.6458 36.6981 84.5 37.7502C82.8645 31.6772 87.5416 25.8335 93.6197 25.8335C96.8906 25.8335 99.6979 27.4689 101.448 30.0366C104.49 28.6356 108.229 30.0366 109.516 33.1929C113.255 31.2085 117.693 34.4793 116.76 38.6877C119.448 38.8022 121.552 41.3752 120.849 44.297Z" fill="#D4D4D4"/>
<path d="M93.6196 26.5005C96.6542 26.5005 99.2621 28.013 100.897 30.4116L101.214 30.8784L101.727 30.6421C104.433 29.396 107.759 30.6496 108.898 33.4448L109.176 34.1274L109.828 33.7817C113.078 32.0572 116.916 34.9044 116.11 38.5435L115.937 39.3198L116.732 39.354C118.847 39.4442 120.555 41.341 120.291 43.6304H78.9302C78.2163 40.4375 81.1498 37.5264 84.3247 38.3931L85.4458 38.6997L85.144 37.5767C83.6252 31.9367 87.9706 26.5006 93.6196 26.5005Z" stroke="black" stroke-opacity="0.19" stroke-width="1.33333"/>
<path d="M91.1614 33.4271C77.9583 26.4167 64.8645 45.8177 51.6614 38.8021C51.6614 31.7917 51.6614 24.7813 51.6614 17.7656C64.8645 28.2865 77.9583 12.5052 91.1614 23.1406C86.2551 20.9219 81.3437 23.026 76.552 26.7656C81.4635 27.8177 86.3697 29.1042 91.1614 33.4271Z" fill="#F37C5A"/>
<path d="M52.3284 19.0918C58.4074 23.3144 64.4771 22.441 70.3088 21.3066L72.7737 20.8223C77.806 19.8491 82.6612 19.1677 87.5159 21.5771C83.6021 21.3961 79.77 23.4087 76.1418 26.2402L75.0159 27.1182L76.4124 27.418C80.158 28.2203 83.8288 29.1472 87.4358 31.4277C81.8632 30.4235 76.364 33.0467 71.1272 35.5137C64.6028 38.5872 58.4676 41.4281 52.3284 38.3936V19.0918Z" stroke="black" stroke-opacity="0.19" stroke-width="1.33333"/>
<path d="M51.0728 78.0731C50.4895 78.0731 50.0208 77.6095 50.0208 77.021V16.4793C50.0208 15.896 50.4895 15.4272 51.0728 15.4272C51.6614 15.4272 52.1249 15.896 52.1249 16.4793V76.9064C52.1249 77.4897 51.6614 78.0731 51.0728 78.0731Z" fill="#464E58"/>
<path d="M51.0725 16.0942C51.2906 16.0942 51.4581 16.2619 51.4583 16.479V76.9067C51.4582 77.0279 51.4068 77.1667 51.3157 77.272C51.2265 77.3749 51.1364 77.4067 51.0725 77.4067C50.8554 77.4066 50.6877 77.2391 50.6877 77.021V16.479C50.6879 16.2641 50.8576 16.0944 51.0725 16.0942Z" stroke="black" stroke-opacity="0.19" stroke-width="1.33333"/>
<path d="M113.484 76.5574C113.484 76.5574 84.7344 124.943 73.9844 143.172H105.073C118.161 137.328 129.266 127.979 137.094 116.177L113.484 76.5574Z" fill="#464E58"/>
<path d="M136.304 116.154C128.585 127.647 117.718 136.767 104.927 142.506H75.1523C80.6377 133.21 90.1124 117.23 98.3389 103.369C102.604 96.1815 106.534 89.5638 109.397 84.7429C110.829 82.3325 111.994 80.3711 112.801 79.0125C113.07 78.5595 113.299 78.1734 113.485 77.8601L136.304 116.154Z" stroke="black" stroke-opacity="0.19" stroke-width="1.33333"/>
<path d="M113.484 76.5574L107.995 99.5782L116.875 114.542L114.89 120.734L122.021 132.656C127.745 127.979 132.89 122.37 136.979 116.177L113.484 76.5574Z" fill="#25313B"/>
<path d="M136.19 116.153C132.322 121.935 127.522 127.197 122.193 131.644L115.617 120.65L117.509 114.745L117.601 114.46L117.448 114.202L108.706 99.4695L113.75 78.3132L136.19 116.153Z" stroke="black" stroke-opacity="0.19" stroke-width="1.33333"/>
<path d="M94.552 108.578L104.135 102.151V108.578L113.021 100.865L121.552 109.865L120.615 98.8803L131.604 107.057L113.484 76.5574C113.484 76.5574 104.37 91.8647 94.552 108.578Z" fill="white"/>
<path d="M129.327 104.532L121.013 98.3455L119.824 97.4617L119.95 98.9373L120.726 108.024L113.504 100.406L113.066 99.9431L112.583 100.361L104.802 107.116V100.901L103.764 101.597L96.6096 106.394C100.98 98.9632 105.123 91.9578 108.274 86.6404C110.026 83.6826 111.472 81.2466 112.48 79.5505C112.89 78.8603 113.228 78.2927 113.484 77.8621L129.327 104.532Z" stroke="black" stroke-opacity="0.19" stroke-width="1.33333"/>
<path d="M121.552 109.865L120.615 98.8803L131.604 107.057L113.484 76.5574L108.109 99.5782L110.214 103.203L112.901 100.75L121.552 109.865Z" fill="#F2F2F2"/>
<path d="M129.329 104.533L121.013 98.3455L119.824 97.4617L119.95 98.9373L120.726 108.026L113.385 100.291L112.935 99.8171L112.451 100.258L110.374 102.153L108.818 99.4724L113.757 78.322L129.329 104.533Z" stroke="black" stroke-opacity="0.19" stroke-width="1.33333"/>
<mask id="mask6_62_1101" style="mask-type:luminance" maskUnits="userSpaceOnUse" x="9" y="52" width="103" height="98">
<path d="M9.76562 52.0938H111.099V149.604H9.76562V52.0938Z" fill="white"/>
<path d="M110.433 52.7607V148.938H10.4326V52.7607H110.433Z" stroke="white" stroke-width="1.33333"/>
</mask>
<g mask="url(#mask6_62_1101)">
<path d="M50.9583 53.2969C50.9583 53.2969 29.9218 83.6823 10.052 112.438C23.1405 134.641 47.2187 149.604 74.802 149.604C88.0103 149.604 100.281 146.214 111.031 140.25L50.9583 53.2969Z" fill="#464E58"/>
<path d="M110.061 140.019C99.5621 145.709 87.6301 148.938 74.802 148.938C47.6179 148.938 23.8677 134.272 10.845 112.463C20.7029 98.1969 30.8248 83.5618 38.5042 72.4629C42.3755 66.8676 45.6268 62.1709 47.9094 58.873C49.0506 57.2243 49.9498 55.925 50.5637 55.0381C50.7118 54.8241 50.843 54.6339 50.9573 54.4688L110.061 140.019Z" stroke="black" stroke-opacity="0.19" stroke-width="1.33333"/>
</g>
<mask id="mask7_62_1101" style="mask-type:luminance" maskUnits="userSpaceOnUse" x="40" y="52" width="72" height="98">
<path d="M40.4321 52.0938H111.099V149.604H40.4321V52.0938Z" fill="white"/>
<path d="M110.432 52.7607V148.938H41.0991V52.7607H110.432Z" stroke="white" stroke-width="1.33333"/>
</mask>
<g mask="url(#mask7_62_1101)">
<path d="M50.9583 53.2969L41.4895 87.5417L56.9166 109.865L53.4114 119.099L74.6822 149.604H74.802C88.0103 149.604 100.281 146.214 111.031 140.25L50.9583 53.2969Z" fill="#25313B"/>
<path d="M110.061 140.019C99.6239 145.675 87.7706 148.898 75.0286 148.936L54.1594 119.006L57.5403 110.102L57.6643 109.773L57.4651 109.485L42.2151 87.4189L51.22 54.8496L110.061 140.019Z" stroke="black" stroke-opacity="0.19" stroke-width="1.33333"/>
</g>
<path d="M18.1145 100.865L34.5937 91.3958V100.865L49.9062 89.2969L64.8645 102.734L63.3489 86.4896L82.3958 98.6458L50.9583 53.2969C50.9583 53.2969 35.2968 76.0885 18.1145 100.865Z" fill="white"/>
<path d="M79.9573 96.2988L63.7073 85.9277L62.5588 85.1943L62.6848 86.5518L64.0413 101.099L50.3518 88.8008L49.9426 88.4336L49.5042 88.7646L35.26 99.5254V90.2441L34.262 90.8174L20.3469 98.8125C28.3211 87.3079 35.863 76.3862 41.5286 68.168C44.5602 63.7704 47.0554 60.147 48.7922 57.623C49.6606 56.3612 50.3392 55.3738 50.801 54.7021C50.8575 54.62 50.9103 54.5423 50.9602 54.4697L79.9573 96.2988Z" stroke="black" stroke-opacity="0.19" stroke-width="1.33333"/>
<path d="M64.8646 102.734L63.349 86.4896L82.2812 98.6458L50.9583 53.2969L41.6094 87.4219L45.349 92.8021L49.9062 89.2969L64.8646 102.734Z" fill="#F2F2F2"/>
<path d="M79.8418 96.2871L63.709 85.9287L62.5576 85.1895L62.6855 86.5518L64.042 101.099L50.3516 88.8008L49.9395 88.4307L49.5 88.7686L45.4961 91.8467L42.334 87.2959L51.2227 54.8525L79.8418 96.2871Z" stroke="black" stroke-opacity="0.19" stroke-width="1.33333"/>
<path d="M8.65088 58.9064H32.3748C32.3748 56.8022 30.505 55.0522 28.2863 55.2814C28.6353 52.0106 25.0103 49.7918 22.0884 51.5418C19.0519 45.8179 10.1665 48.8543 11.453 55.4012C9.93213 55.7501 8.65088 57.1512 8.65088 58.9064Z" fill="#D4D4D4"/>
<path d="M12.1069 55.2729C10.9699 49.4866 18.8187 46.8009 21.4995 51.854L21.8286 52.4741L22.4312 52.1138C24.9214 50.6225 27.909 52.533 27.6235 55.2104L27.5356 56.0288L28.355 55.9448C29.9367 55.7815 31.2939 56.8419 31.6284 58.2397H9.39893C9.66366 57.1364 10.5615 56.2901 11.6021 56.0513L12.2319 55.9067L12.1069 55.2729Z" stroke="black" stroke-opacity="0.19" stroke-width="1.33333"/>
<path d="M137.911 71.1772C137.911 67.672 134.172 65.4532 131.021 67.0886C129.734 64.1667 126.344 62.7657 123.422 64.1667C121.786 61.8282 119.099 60.3074 116.057 60.3074C110.448 60.3074 106.125 65.5678 107.411 71.297H137.911V71.1772Z" fill="#D4D4D4"/>
<path d="M116.057 60.9744C118.87 60.9744 121.358 62.3792 122.875 64.5486L123.2 65.0125L123.71 64.7683C126.269 63.5414 129.265 64.7561 130.411 67.3572L130.697 68.0076L131.328 67.6804C133.881 66.3552 136.848 67.9628 137.208 70.6306H107.962C107.133 65.5233 111.046 60.9744 116.057 60.9744Z" stroke="black" stroke-opacity="0.19" stroke-width="1.33333"/>
<path d="M6.59668 139.333L5.15918 137.833L13.3883 129.938L15.43 132.062L11.3883 139.958L11.4925 140.083L19.5133 136.333L21.5133 138.417L13.2842 146.312L11.805 144.771L17.2425 139.562L17.1383 139.417L9.84668 142.729L8.55501 141.375L12.2008 134.25L12.0342 134.125L6.59668 139.333Z" fill="black"/>
<path d="M14.6201 132.182L10.7949 139.654L10.5938 140.047L10.876 140.385L10.9805 140.51L11.3096 140.905L11.7744 140.688L19.3633 137.14L20.5703 138.396L13.3027 145.369L12.748 144.79L17.7041 140.044L18.1201 139.645L17.7852 139.175L17.6807 139.029L17.3623 138.583L16.8623 138.81L10.002 141.926L9.36328 141.257L12.7939 134.554L13.0498 134.054L12.6006 133.717L12.4346 133.592L11.9814 133.252L11.5732 133.644L6.61621 138.391L6.10156 137.853L13.3682 130.88L14.6201 132.182Z" stroke="black" stroke-opacity="0.19" stroke-width="1.33333"/>
<path d="M17.8439 149.994L16.1147 148.557L23.3647 139.765L25.0939 141.203L17.8439 149.994Z" fill="black"/>
<path d="M24.1567 141.291L17.7544 149.053L17.0513 148.468L23.4526 140.706L24.1567 141.291Z" stroke="black" stroke-opacity="0.19" stroke-width="1.33333"/>
<path d="M23.3585 154.31C22.7179 153.862 22.197 153.383 21.796 152.872C21.4054 152.372 21.1293 151.872 20.9627 151.372C20.8064 150.888 20.7543 150.414 20.796 149.956L22.6918 149.414L22.8377 149.539C22.8377 150.164 22.9679 150.747 23.2335 151.289C23.4939 151.831 23.9106 152.294 24.4835 152.685C24.9939 153.028 25.447 153.185 25.8377 153.143C26.2231 153.112 26.546 152.919 26.796 152.56C26.9627 152.336 27.0512 152.122 27.0668 151.914C27.0773 151.706 27.0304 151.482 26.921 151.247C26.8064 151.013 26.6189 150.742 26.3585 150.435L25.3377 149.331C24.6137 148.57 24.2023 147.82 24.1085 147.081C24.0095 146.346 24.2023 145.622 24.6918 144.914C25.0512 144.388 25.5043 144.013 26.046 143.789C26.5877 143.57 27.1814 143.528 27.8377 143.664C28.5043 143.789 29.1918 144.091 29.9002 144.56C30.6189 145.06 31.1762 145.591 31.5668 146.143C31.9523 146.685 32.1918 147.278 32.2752 147.914L30.4835 148.518L30.3168 148.414C30.2439 147.956 30.0877 147.539 29.8377 147.164C29.5981 146.789 29.2595 146.45 28.8168 146.143C28.3012 145.799 27.8481 145.622 27.4627 145.622C27.072 145.622 26.7648 145.784 26.546 146.101C26.3481 146.393 26.2856 146.695 26.3585 146.997C26.4262 147.289 26.6502 147.643 27.0252 148.06L28.0877 149.185C28.8481 149.992 29.2804 150.763 29.3793 151.497C29.4887 152.247 29.2856 152.987 28.7752 153.726C28.3689 154.31 27.8898 154.732 27.3377 154.997C26.7804 155.258 26.1606 155.336 25.4835 155.226C24.8168 155.127 24.1085 154.82 23.3585 154.31Z" fill="black"/>
<path d="M26.2959 144.407C26.6987 144.245 27.1565 144.204 27.7031 144.317L27.7148 144.32C28.271 144.424 28.8744 144.681 29.5273 145.113C30.195 145.578 30.6882 146.055 31.0225 146.528L31.0234 146.53C31.237 146.83 31.3934 147.145 31.4961 147.473L30.8281 147.698C30.7459 147.445 30.6384 147.201 30.502 146.969L30.3926 146.794C30.0972 146.336 29.6936 145.939 29.1973 145.595L29.1865 145.588C28.6261 145.215 28.0404 144.955 27.4629 144.955C26.8548 144.955 26.3412 145.223 25.9971 145.723L25.9941 145.727C25.7054 146.152 25.5873 146.645 25.71 147.154V147.153C25.8183 147.613 26.1375 148.071 26.5293 148.506L26.5352 148.512L26.54 148.518L27.6025 149.642C28.3133 150.396 28.6457 151.044 28.7188 151.586L28.7197 151.593C28.8 152.143 28.6621 152.716 28.2285 153.345C27.922 153.785 27.5811 154.1 27.21 154.312L27.0557 154.393C26.6318 154.591 26.1489 154.659 25.5898 154.569L25.5811 154.567C25.0432 154.487 24.4289 154.231 23.7334 153.758C23.1394 153.342 22.6711 152.908 22.3193 152.46C22.0123 152.067 21.794 151.686 21.6514 151.319L21.5947 151.161C21.5176 150.921 21.4766 150.686 21.46 150.459L22.2217 150.241C22.2893 150.707 22.4253 151.155 22.6348 151.582V151.581C22.9539 152.243 23.4561 152.791 24.1084 153.236L24.1113 153.238C24.6725 153.615 25.2797 153.865 25.8906 153.806L25.8916 153.808C25.8955 153.808 25.8994 153.806 25.9033 153.806C25.9049 153.806 25.9066 153.806 25.9082 153.806L25.9072 153.805C26.5057 153.752 26.995 153.44 27.3428 152.94C27.5551 152.65 27.7043 152.324 27.7314 151.964L27.7324 151.955V151.948C27.7491 151.613 27.6728 151.281 27.5254 150.965L27.5195 150.954C27.3714 150.651 27.146 150.333 26.8672 150.004L26.8574 149.992L26.8477 149.982L25.8271 148.878L25.8203 148.87C25.1547 148.171 24.8393 147.546 24.7695 146.996V146.991L24.752 146.786C24.734 146.306 24.8814 145.813 25.2402 145.293L25.2422 145.29C25.533 144.865 25.8847 144.577 26.2949 144.406L26.2959 144.407Z" stroke="black" stroke-opacity="0.19" stroke-width="1.33333"/>
<path d="M32.2939 159.678C31.596 159.313 31.0231 158.897 30.5648 158.428C30.1169 157.97 29.7939 157.511 29.5856 157.053C29.3773 156.584 29.2575 156.126 29.2314 155.678L31.0439 154.907L31.2106 155.011C31.2627 155.626 31.4606 156.188 31.7939 156.699C32.1273 157.209 32.596 157.626 33.2106 157.949C33.7523 158.241 34.2158 158.345 34.6064 158.261C34.9919 158.188 35.2939 157.959 35.5023 157.574C35.6377 157.324 35.7002 157.095 35.6898 156.886C35.6898 156.678 35.6169 156.47 35.4814 156.261C35.3408 156.043 35.1169 155.782 34.8148 155.491L33.6689 154.511C32.8773 153.845 32.3825 153.152 32.1898 152.428C32.0075 151.709 32.1169 150.97 32.5231 150.22C32.8148 149.652 33.2158 149.23 33.7314 148.949C34.2575 148.657 34.8564 148.543 35.5231 148.595C36.2002 148.652 36.9189 148.876 37.6689 149.261C38.4294 149.678 39.0335 150.136 39.4814 150.636C39.9398 151.136 40.2419 151.699 40.3981 152.324L38.6898 153.116L38.5231 153.032C38.3981 152.589 38.1898 152.199 37.8981 151.866C37.6064 151.522 37.221 151.22 36.7523 150.97C36.2106 150.678 35.7419 150.553 35.3564 150.595C34.9658 150.626 34.6794 150.813 34.5023 151.157C34.3356 151.48 34.2992 151.782 34.3981 152.074C34.5075 152.366 34.7783 152.699 35.2106 153.074L36.3773 154.053C37.2367 154.777 37.7575 155.501 37.9398 156.22C38.1325 156.944 38.0127 157.704 37.5856 158.511C37.2627 159.136 36.8408 159.605 36.3148 159.928C35.7992 160.261 35.195 160.407 34.5023 160.366C33.82 160.334 33.0856 160.105 32.2939 159.678Z" fill="black"/>
<path d="M35.4668 149.258V149.259C36.034 149.307 36.6628 149.496 37.3477 149.846H37.3486C38.0608 150.236 38.5992 150.651 38.9844 151.081V151.082L38.9902 151.086C39.2422 151.361 39.4338 151.656 39.5732 151.97L38.9443 152.262C38.8024 151.96 38.6214 151.68 38.3994 151.426C38.0906 151.064 37.7059 150.751 37.2617 150.491L37.0664 150.381C36.544 150.1 36.0121 149.92 35.502 149.92L35.3037 149.93C34.7661 149.973 34.3205 150.222 34.0264 150.655L33.9092 150.852C33.6785 151.299 33.5979 151.79 33.7666 152.288L33.7705 152.298L33.7734 152.308C33.9423 152.759 34.3167 153.181 34.7734 153.578L34.7822 153.584L35.9482 154.563C36.7517 155.24 37.1593 155.853 37.2939 156.383L37.2959 156.391C37.4359 156.917 37.3638 157.505 36.9961 158.2L36.9932 158.206C36.7186 158.737 36.3753 159.108 35.9658 159.36L35.959 159.364L35.9531 159.368C35.5721 159.614 35.1122 159.734 34.542 159.7H34.5332C33.9779 159.674 33.3411 159.486 32.6104 159.091L32.6025 159.087L32.3662 158.958C31.8301 158.655 31.3934 158.322 31.042 157.962C30.6367 157.548 30.3626 157.151 30.1924 156.777C30.0869 156.539 30.0131 156.31 29.9639 156.09L30.6709 155.79C30.7883 156.241 30.9769 156.667 31.2354 157.063C31.6365 157.677 32.1942 158.166 32.8945 158.535V158.536C33.4977 158.86 34.1242 159.039 34.7295 158.916L34.7305 158.917C34.7328 158.916 34.735 158.915 34.7373 158.915C34.7399 158.914 34.7426 158.914 34.7451 158.914L34.7441 158.913C35.2654 158.81 35.6803 158.518 35.9707 158.086L36.0889 157.891C36.2568 157.581 36.3657 157.241 36.3555 156.886H36.3564C36.3564 156.517 36.2257 156.184 36.04 155.898C35.8608 155.62 35.5981 155.32 35.2783 155.011L35.2637 154.997L35.248 154.984L34.1016 154.004H34.1025L34.0986 154.001L33.8408 153.773C33.2767 153.243 32.9617 152.736 32.834 152.256C32.7012 151.725 32.7729 151.159 33.1094 150.538L33.1123 150.531L33.1162 150.524C33.3524 150.064 33.6628 149.745 34.0508 149.534L34.0547 149.532C34.4492 149.313 34.9128 149.216 35.4668 149.258Z" stroke="black" stroke-opacity="0.19" stroke-width="1.33333"/>
<path d="M40.4769 163.336L38.3936 162.461L42.8311 151.961L44.9144 152.836L40.4769 163.336Z" fill="black"/>
<path d="M44.04 153.192L40.1211 162.464L39.2676 162.106L43.1865 152.832L44.04 153.192Z" stroke="black" stroke-opacity="0.19" stroke-width="1.33333"/>
<path d="M48.2107 166.255C47.2107 165.947 46.3826 165.473 45.7315 164.838C45.0909 164.203 44.6899 163.395 44.5232 162.421C44.3565 161.453 44.4607 160.348 44.8357 159.109C45.2107 157.859 45.7368 156.89 46.419 156.192C47.1118 155.484 47.9034 155.041 48.794 154.859C49.6795 154.666 50.6274 154.723 51.6274 155.025C52.6274 155.333 53.4451 155.812 54.0857 156.463C54.7211 157.104 55.1274 157.911 55.294 158.88C55.4607 159.838 55.3565 160.942 54.9815 162.192C54.6065 163.432 54.0701 164.4 53.3774 165.109C52.6951 165.828 51.9086 166.275 51.0232 166.442C50.1482 166.619 49.2107 166.557 48.2107 166.255ZM48.7732 164.38C49.7003 164.671 50.5024 164.593 51.169 164.15C51.8357 163.708 52.367 162.833 52.7732 161.525C53.1586 160.223 53.2003 159.203 52.8982 158.463C52.6065 157.713 51.992 157.192 51.0649 156.9C50.1326 156.624 49.3253 156.708 48.6482 157.15C47.9659 157.598 47.4295 158.473 47.044 159.775C46.6378 161.083 46.5909 162.109 46.8982 162.859C47.2159 163.598 47.8409 164.104 48.7732 164.38Z" fill="black"/>
<path d="M48.9355 155.51C49.5986 155.365 50.3188 155.381 51.0977 155.571L51.4346 155.664C52.3422 155.943 53.0582 156.37 53.6104 156.931L53.6123 156.933C54.1438 157.468 54.4913 158.148 54.6367 158.992L54.6377 158.994C54.7815 159.821 54.6982 160.817 54.3438 161.999C53.9912 163.164 53.4998 164.03 52.9004 164.643L52.8936 164.649C52.2964 165.279 51.6318 165.649 50.8994 165.787L50.8906 165.789C50.1407 165.941 49.3157 165.892 48.4033 165.616C47.4932 165.336 46.7638 164.913 46.2002 164.364H46.2012C45.7362 163.903 45.4149 163.328 45.2441 162.62L45.1807 162.309C45.0362 161.469 45.1195 160.472 45.4736 159.302L45.4746 159.301C45.7843 158.268 46.1912 157.478 46.6807 156.896L46.8955 156.658C47.4271 156.115 48.0107 155.762 48.6504 155.58L48.9277 155.512L48.9355 155.51ZM51.2539 156.261C50.1759 155.942 49.1573 156.021 48.2832 156.593H48.2822C47.4078 157.167 46.8103 158.22 46.4072 159.577C46.0101 160.855 45.9003 161.997 46.2129 162.928L46.2812 163.111L46.2861 163.122C46.6974 164.079 47.5014 164.695 48.5732 165.015V165.016C49.6482 165.354 50.6686 165.283 51.5381 164.706C52.3971 164.136 52.9886 163.08 53.4102 161.724L53.4121 161.715C53.8131 160.36 53.9031 159.16 53.5156 158.211H53.5146C53.132 157.237 52.3342 156.601 51.2646 156.265L51.2539 156.261Z" stroke="black" stroke-opacity="0.19" stroke-width="1.33333"/>
<path d="M58.5959 168.628L56.4292 168.316L58.1375 157.045L60.7 157.42L64.0959 165.378H64.3042L65.4084 158.149L67.5542 158.462L65.8459 169.732L63.5542 169.399L59.9709 160.92L59.7625 160.899L58.5959 168.628Z" fill="black"/>
<path d="M60.2329 158.024L63.4829 165.64L63.6558 166.045H64.8765L64.9634 165.479L65.9673 158.903L66.7944 159.024L65.2856 168.977L64.022 168.793L60.5845 160.66L60.4312 160.296L60.0376 160.257L59.8286 160.235L59.1978 160.173L59.103 160.8L58.0356 167.874L57.189 167.752L58.6968 157.8L60.2329 158.024Z" stroke="black" stroke-opacity="0.19" stroke-width="1.33333"/>
<path d="M77.084 170.192C76.3027 170.218 75.6048 170.145 74.9798 169.962C74.3652 169.785 73.8444 169.541 73.4173 169.233C73.0007 168.916 72.6777 168.567 72.459 168.192L73.6673 166.65H73.8548C74.2142 167.15 74.6569 167.546 75.1882 167.837C75.7298 168.129 76.3444 168.265 77.0423 168.233C77.6517 168.223 78.1048 168.087 78.3965 167.837C78.6986 167.577 78.8444 167.223 78.834 166.775C78.834 166.499 78.7767 166.275 78.6673 166.108C78.5684 165.931 78.4017 165.775 78.1673 165.65C77.9434 165.515 77.6361 165.4 77.2507 165.317L75.7507 165.025C74.735 164.817 73.9694 164.452 73.459 163.921C72.9434 163.379 72.6777 162.681 72.6673 161.817C72.6517 161.181 72.7975 160.608 73.1048 160.108C73.4069 159.608 73.8652 159.223 74.4798 158.942C75.0892 158.65 75.8184 158.499 76.6673 158.483C77.5423 158.457 78.2975 158.556 78.9382 158.775C79.5736 158.999 80.1152 159.337 80.5632 159.796L79.459 161.337L79.2715 161.358C78.9486 161.025 78.5736 160.785 78.1465 160.629C77.7298 160.478 77.2507 160.41 76.709 160.421C76.0944 160.436 75.6309 160.556 75.3132 160.775C74.9902 160.999 74.8392 161.306 74.8548 161.692C74.8548 162.056 74.9694 162.337 75.209 162.546C75.4434 162.744 75.8392 162.895 76.3965 163.004L77.8965 163.275C79.0059 163.483 79.8184 163.869 80.334 164.421C80.8444 164.962 81.11 165.686 81.1257 166.587C81.1361 167.296 81.0007 167.921 80.709 168.462C80.4173 168.994 79.9642 169.41 79.3548 169.712C78.7402 170.02 77.985 170.176 77.084 170.192Z" fill="black"/>
<path d="M76.6875 159.15C77.4994 159.126 78.1693 159.219 78.7158 159.404H78.7168C79.0725 159.529 79.388 159.695 79.668 159.9L79.2598 160.469C78.9881 160.274 78.693 160.119 78.376 160.003H78.374C77.8635 159.818 77.2994 159.743 76.6963 159.755H76.6924C76.015 159.772 75.4036 159.904 74.9355 160.226L74.9336 160.227C74.4233 160.581 74.1637 161.105 74.1885 161.719L74.1895 161.718C74.1951 162.228 74.3678 162.697 74.7715 163.049L74.7793 163.055C75.1478 163.366 75.6835 163.543 76.2686 163.658L76.2783 163.66L77.7783 163.931C78.8078 164.125 79.4646 164.467 79.8467 164.876L79.8486 164.878C80.1761 165.225 80.3876 165.692 80.4443 166.32L80.459 166.599C80.4677 167.214 80.35 167.722 80.1221 168.145C79.9044 168.54 79.561 168.866 79.0586 169.115L79.0566 169.116C78.5564 169.366 77.9065 169.511 77.0723 169.525H77.0615C76.334 169.549 75.7086 169.48 75.166 169.322H75.1641C74.6141 169.164 74.1687 168.95 73.8154 168.698C73.606 168.538 73.4345 168.372 73.293 168.208L73.7764 167.591C74.0958 167.919 74.4585 168.197 74.8672 168.422L74.8721 168.425C75.5245 168.776 76.254 168.932 77.0527 168.899L77.0537 168.9C77.7379 168.888 78.3713 168.737 78.8301 168.344L78.832 168.343C79.3009 167.938 79.5105 167.388 79.5 166.775H79.501C79.501 166.428 79.4307 166.081 79.248 165.783H79.249C79.0745 165.471 78.802 165.232 78.4814 165.061L78.4805 165.062C78.1793 164.886 77.8083 164.755 77.3916 164.665L77.3779 164.662L75.8838 164.372H75.8848C74.9458 164.179 74.3235 163.858 73.9395 163.459C73.6055 163.107 73.3989 162.659 73.3467 162.07L73.334 161.808V161.801L73.335 161.609C73.3522 161.172 73.4684 160.79 73.6729 160.458L73.6758 160.453C73.8967 160.087 74.2416 159.783 74.7568 159.548L74.7676 159.543C75.2705 159.302 75.9007 159.164 76.6797 159.15H76.6875Z" stroke="black" stroke-opacity="0.19" stroke-width="1.33333"/>
<path d="M88.7128 169.173C87.6711 169.33 86.7232 169.257 85.8795 168.965C85.0305 168.673 84.317 168.127 83.7336 167.319C83.1503 166.502 82.7545 165.455 82.5461 164.173C82.3534 162.882 82.4159 161.778 82.7336 160.861C83.0514 159.934 83.567 159.194 84.2753 158.653C84.9941 158.101 85.8795 157.746 86.9211 157.59C87.9472 157.423 88.8847 157.496 89.7336 157.798C90.593 158.09 91.3066 158.642 91.8795 159.444C92.4628 160.236 92.8482 161.278 93.0461 162.569C93.2545 163.851 93.1972 164.96 92.8795 165.903C92.5722 166.851 92.0566 167.59 91.3378 168.132C90.6139 168.663 89.7389 169.007 88.7128 169.173ZM88.4211 167.236C89.3795 167.085 90.0566 166.668 90.4628 165.986C90.8639 165.293 90.9628 164.272 90.7545 162.923C90.5461 161.58 90.1399 160.632 89.5461 160.09C88.9628 159.548 88.192 159.356 87.2336 159.507C86.2597 159.647 85.567 160.069 85.1503 160.778C84.7336 161.476 84.6295 162.496 84.8378 163.84C85.0461 165.189 85.4472 166.127 86.0461 166.653C86.6555 167.184 87.4472 167.377 88.4211 167.236Z" fill="black"/>
<path d="M87.0278 158.248C87.8412 158.116 88.5728 158.152 89.2319 158.338L89.5103 158.427L89.519 158.429C90.1428 158.641 90.6832 159.019 91.144 159.58L91.3374 159.832L91.3433 159.84C91.844 160.519 92.2001 161.45 92.3872 162.671L92.3882 162.677C92.5839 163.881 92.5218 164.875 92.2476 165.689L92.2456 165.697C91.9769 166.526 91.5368 167.146 90.938 167.597C90.3141 168.054 89.5443 168.362 88.606 168.514C87.6573 168.656 86.8225 168.585 86.0972 168.335H86.0962C85.3912 168.093 84.7858 167.637 84.2739 166.928C83.8296 166.304 83.494 165.505 83.2856 164.508L83.2046 164.066C83.0241 162.85 83.092 161.863 83.3638 161.079L83.3647 161.077C83.6443 160.261 84.0871 159.636 84.6802 159.182L84.6812 159.181C85.2959 158.709 86.0709 158.392 87.02 158.25L87.0278 158.248ZM89.9946 159.597C89.2761 158.933 88.3604 158.703 87.3364 158.82L87.1294 158.848C86.0052 159.013 85.1165 159.523 84.5776 160.436C84.1101 161.22 83.9892 162.243 84.1118 163.426L84.1792 163.942C84.3957 165.344 84.8305 166.472 85.606 167.153L85.6079 167.155C86.3961 167.842 87.3973 168.057 88.5161 167.895V167.896L88.5249 167.894C89.5639 167.731 90.3961 167.277 90.9321 166.489L91.0356 166.327L91.0396 166.32C91.5539 165.432 91.6304 164.226 91.4136 162.822V162.821C91.1964 161.42 90.7547 160.291 89.9946 159.597Z" stroke="black" stroke-opacity="0.19" stroke-width="1.33333"/>
<path d="M101.396 166.257C99.8957 166.715 98.6717 166.705 97.729 166.215C96.7967 165.715 96.1144 164.767 95.6873 163.361L93.604 156.549L95.7082 155.903L97.7915 162.694C98.0259 163.486 98.3957 164.028 98.8957 164.319C99.4061 164.611 100.052 164.632 100.833 164.382C102.375 163.913 102.901 162.877 102.417 161.278L100.333 154.486L102.458 153.84L104.542 160.653C104.969 162.059 104.927 163.231 104.417 164.174C103.901 165.106 102.896 165.799 101.396 166.257Z" fill="black"/>
<path d="M102.015 154.671L103.904 160.847C104.299 162.147 104.228 163.121 103.83 163.856C103.429 164.576 102.609 165.189 101.201 165.62C99.7904 166.051 98.7681 166.001 98.0425 165.626C97.3172 165.237 96.7208 164.468 96.3257 163.167L96.3247 163.167L94.436 156.99L95.2661 156.736L97.1538 162.89C97.4166 163.774 97.8638 164.489 98.5601 164.895L98.5649 164.898C99.2909 165.313 100.143 165.3 101.026 165.019L101.027 165.02C101.03 165.019 101.033 165.018 101.037 165.017L101.036 165.016C101.907 164.749 102.607 164.287 102.979 163.556C103.349 162.829 103.324 161.976 103.054 161.084V161.083L101.166 154.929L102.015 154.671Z" stroke="black" stroke-opacity="0.19" stroke-width="1.33333"/>
<path d="M109.156 163.405L104.406 153.051L108.573 151.155C109.641 150.655 110.557 150.53 111.323 150.78C112.099 151.03 112.682 151.587 113.073 152.447C113.365 153.087 113.438 153.676 113.302 154.218C113.177 154.759 112.844 155.29 112.302 155.801L112.365 155.947C112.75 155.936 113.115 156.025 113.448 156.218C113.781 156.415 114.161 156.738 114.594 157.197L117.052 159.801L114.948 160.759L112.51 158.155C112.26 157.879 112.021 157.691 111.802 157.593C111.594 157.483 111.37 157.436 111.135 157.447C110.911 157.447 110.635 157.52 110.302 157.655L109.219 158.155L111.198 162.468L109.156 163.405ZM110.365 155.676C111.349 155.233 111.625 154.546 111.198 153.613C110.766 152.686 110.057 152.441 109.073 152.884L107.198 153.738L108.49 156.53L110.365 155.676Z" fill="black"/>
<path d="M108.855 151.759C109.84 151.297 110.573 151.236 111.116 151.414L111.118 151.415C111.686 151.598 112.139 152.003 112.466 152.722V152.723C112.679 153.192 112.734 153.582 112.684 153.916L112.655 154.055L112.652 154.067C112.565 154.445 112.321 154.867 111.845 155.315L111.757 155.397C111.823 155.297 111.883 155.192 111.929 155.078C112.159 154.507 112.063 153.902 111.804 153.336L111.802 153.332L111.697 153.125C111.436 152.655 111.068 152.279 110.56 152.104C109.987 151.907 109.379 152.016 108.8 152.276L108.797 152.277L106.922 153.132L106.312 153.41L106.593 154.018L107.885 156.81L108.163 157.412L108.766 157.136L110.641 156.283L110.64 156.282C110.979 156.129 111.285 155.933 111.526 155.683L111.689 156.063L111.752 156.21L111.93 156.626L112.383 156.613C112.648 156.606 112.889 156.666 113.11 156.793C113.368 156.947 113.699 157.22 114.108 157.654H114.109L115.927 159.58L115.106 159.953L112.997 157.699H112.996C112.713 157.388 112.405 157.134 112.076 156.985C111.808 156.851 111.524 156.784 111.235 156.779L111.136 156.78C110.783 156.78 110.411 156.892 110.051 157.038L110.037 157.044L110.022 157.05L108.939 157.55L108.335 157.829L108.613 158.433L110.313 162.139L109.483 162.521L105.29 153.381L108.849 151.761L108.855 151.759Z" stroke="black" stroke-opacity="0.19" stroke-width="1.33333"/>
<path d="M127.402 153.506L125.381 154.756L123.256 152.985L119.548 155.277L120.215 157.965L118.256 159.194L115.569 147.444L118.027 145.902L127.402 153.506ZM117.944 148.756L119.069 153.36L121.736 151.694L118.09 148.652L117.944 148.756Z" fill="black"/>
<path d="M126.252 153.432L125.439 153.936L123.683 152.473L123.314 152.166L122.906 152.419L119.198 154.71L118.784 154.966L118.901 155.437L119.451 157.656L118.696 158.13L116.324 147.757L117.977 146.719L126.252 153.432ZM117.703 148.109L117.556 148.214L117.189 148.476L117.296 148.915L118.421 153.518L118.64 154.415L119.422 153.926L122.088 152.26L122.87 151.771L122.163 151.181L118.517 148.14L118.122 147.81L117.703 148.109Z" stroke="black" stroke-opacity="0.19" stroke-width="1.33333"/>
<path d="M128.005 138.403L129.192 139.882L126.65 141.924L132.609 149.319L130.859 150.736L124.9 143.34L122.338 145.403L121.15 143.924L128.005 138.403Z" fill="black"/>
<path d="M128.254 139.779L126.232 141.404L125.712 141.822L126.131 142.342L131.672 149.219L130.958 149.797L125.42 142.922L125.002 142.403L124.482 142.821L122.439 144.464L122.086 144.025L127.902 139.34L128.254 139.779Z" stroke="black" stroke-opacity="0.19" stroke-width="1.33333"/>
<path d="M134.957 140.502L137.145 142.689L140.978 138.835L142.332 140.168L136.915 145.627L128.832 137.606L134.165 132.231L135.499 133.564L131.749 137.335L133.645 139.21L136.915 135.918L138.228 137.21L134.957 140.502Z" fill="black"/>
<path d="M134.557 133.565L131.276 136.865L130.805 137.339L131.28 137.809L133.176 139.684L133.648 140.152L134.117 139.68L136.92 136.859L137.282 137.215L134.484 140.032L134.016 140.503L137.146 143.633L137.617 143.16L140.982 139.775L141.387 140.173L136.911 144.683L129.774 137.602L134.167 133.175L134.557 133.565Z" stroke="black" stroke-opacity="0.19" stroke-width="1.33333"/>
</svg>
